<?plantuml 1.2026.2?><svg xmlns="http://www.w3.org/2000/svg" xmlns:xlink="http://www.w3.org/1999/xlink" contentStyleType="text/css" data-diagram-type="SEQUENCE" height="1771px" preserveAspectRatio="none" style="width:1521px;height:1771px;background:#FFFFFF;" version="1.1" viewBox="0 0 1521 1771" width="1521px" zoomAndPan="magnify"><title>cc-tunnel: hook &#39366;&#21205; agent &#36890;&#20449; (ADR 2026-05-16, &#27573;&#38542; 5-6 &#24819;&#23450;)</title><defs/><g><text fill="#000000" font-family="sans-serif" font-size="14" font-weight="bold" lengthAdjust="spacing" textLength="488.5918" x="512.2371" y="27.9951">cc-tunnel: hook &#39366;&#21205; agent &#36890;&#20449; (ADR 2026-05-16, &#27573;&#38542; 5-6 &#24819;&#23450;)</text><rect fill="none" height="162.7969" style="stroke:#000000;stroke-width:1.5;" width="870.8989" x="633.167" y="713.7109"/><rect fill="none" height="291.1328" style="stroke:#000000;stroke-width:1.5;" width="856.5029" x="633.167" y="1080.4375"/><rect fill="none" height="119.6641" style="stroke:#000000;stroke-width:1.5;" width="706.0576" x="81.5156" y="1428.7031"/><g class="participant-lifeline" data-entity-uid="part1" data-qualified-name="User" id="part1-lifeline"><g><title>User</title><rect fill="#000000" fill-opacity="0.00000" height="1523.8438" width="8" x="19.9551" y="137.1875"/><line style="stroke:#181818;stroke-width:0.5;stroke-dasharray:5,5;" x1="23" x2="23" y1="137.1875" y2="1661.0313"/></g></g><g class="participant-lifeline" data-entity-uid="part2" data-qualified-name="F" id="part2-lifeline"><g><title>Frontend</title><rect fill="#000000" fill-opacity="0.00000" height="1523.8438" width="8" x="136.1738" y="137.1875"/><line style="stroke:#181818;stroke-width:0.5;stroke-dasharray:5,5;" x1="139.5156" x2="139.5156" y1="137.1875" y2="1661.0313"/></g></g><g class="participant-lifeline" data-entity-uid="part3" data-qualified-name="T" id="part3-lifeline"><g><title>cc-tunnel</title><rect fill="#000000" fill-opacity="0.00000" height="1523.8438" width="8" x="396.1035" y="137.1875"/><line style="stroke:#181818;stroke-width:0.5;stroke-dasharray:5,5;" x1="399.5747" x2="399.5747" y1="137.1875" y2="1661.0313"/></g></g><g class="participant-lifeline" data-entity-uid="part4" data-qualified-name="D" id="part4-lifeline"><g><title>PostgreSQL</title><rect fill="#000000" fill-opacity="0.00000" height="1523.8438" width="8" x="706.3701" y="137.1875"/><line style="stroke:#181818;stroke-width:0.5;stroke-dasharray:5,5;" x1="710.167" x2="710.167" y1="137.1875" y2="1661.0313"/></g></g><g class="participant-lifeline" data-entity-uid="part5" data-qualified-name="A" id="part5-lifeline"><g><title>cc-remote-agent</title><rect fill="#000000" fill-opacity="0.00000" height="1523.8438" width="8" x="848.8804" y="137.1875"/><line style="stroke:#181818;stroke-width:0.5;stroke-dasharray:5,5;" x1="852.5732" x2="852.5732" y1="137.1875" y2="1661.0313"/></g></g><g class="participant-lifeline" data-entity-uid="part6" data-qualified-name="H" id="part6-lifeline"><g><title>cc-hook-bridge</title><rect fill="#000000" fill-opacity="0.00000" height="1523.8438" width="8" x="1059.001" y="137.1875"/><line style="stroke:#181818;stroke-width:0.5;stroke-dasharray:5,5;" x1="1062.7368" x2="1062.7368" y1="137.1875" y2="1661.0313"/></g></g><g class="participant-lifeline" data-entity-uid="part7" data-qualified-name="C" id="part7-lifeline"><g><title>claude</title><rect fill="#000000" fill-opacity="0.00000" height="1523.8438" width="8" x="1309.9844" y="137.1875"/><line style="stroke:#181818;stroke-width:0.5;stroke-dasharray:5,5;" x1="1313.1089" x2="1313.1089" y1="137.1875" y2="1661.0313"/></g></g><g class="participant-lifeline" data-entity-uid="part8" data-qualified-name="Ext" id="part8-lifeline"><g><title>Anthropic API</title><rect fill="#000000" fill-opacity="0.00000" height="1523.8438" width="8" x="1435.9629" y="137.1875"/><line style="stroke:#181818;stroke-width:0.5;stroke-dasharray:5,5;" x1="1439.8599" x2="1439.8599" y1="137.1875" y2="1661.0313"/></g></g><g class="participant participant-head" data-entity-uid="part1" data-qualified-name="User" id="part1-head"><text fill="#000000" font-family="sans-serif" font-size="14" lengthAdjust="spacing" textLength="31.9102" x="5" y="133.8857">User</text><ellipse cx="23.9551" cy="69.3906" fill="#E2E2F0" rx="8" ry="8" style="stroke:#181818;stroke-width:0.5;"/><path d="M23.9551,77.3906 L23.9551,104.3906 M10.9551,85.3906 L36.9551,85.3906 M23.9551,104.3906 L10.9551,119.3906 M23.9551,104.3906 L36.9551,119.3906" fill="none" style="stroke:#181818;stroke-width:0.5;"/></g><g class="participant participant-tail" data-entity-uid="part1" data-qualified-name="User" id="part1-tail"><text fill="#000000" font-family="sans-serif" font-size="14" lengthAdjust="spacing" textLength="31.9102" x="5" y="1673.0264">User</text><ellipse cx="23.9551" cy="1684.8281" fill="#E2E2F0" rx="8" ry="8" style="stroke:#181818;stroke-width:0.5;"/><path d="M23.9551,1692.8281 L23.9551,1719.8281 M10.9551,1700.8281 L36.9551,1700.8281 M23.9551,1719.8281 L10.9551,1734.8281 M23.9551,1719.8281 L36.9551,1734.8281" fill="none" style="stroke:#181818;stroke-width:0.5;"/></g><g class="participant participant-head" data-entity-uid="part2" data-qualified-name="F" id="part2-head"><rect fill="#E2E2F0" height="46.5938" rx="2.5" ry="2.5" style="stroke:#181818;stroke-width:0.5;" width="97.3164" x="91.5156" y="89.5938"/><text fill="#000000" font-family="sans-serif" font-size="14" lengthAdjust="spacing" textLength="63.1094" x="108.6191" y="109.5889">Frontend</text><text fill="#000000" font-family="sans-serif" font-size="14" lengthAdjust="spacing" textLength="83.3164" x="98.5156" y="125.8857">(React/Vite)</text></g><g class="participant participant-tail" data-entity-uid="part2" data-qualified-name="F" id="part2-tail"><rect fill="#E2E2F0" height="46.5938" rx="2.5" ry="2.5" style="stroke:#181818;stroke-width:0.5;" width="97.3164" x="91.5156" y="1660.0313"/><text fill="#000000" font-family="sans-serif" font-size="14" lengthAdjust="spacing" textLength="63.1094" x="108.6191" y="1680.0264">Frontend</text><text fill="#000000" font-family="sans-serif" font-size="14" lengthAdjust="spacing" textLength="83.3164" x="98.5156" y="1696.3232">(React/Vite)</text></g><g class="participant participant-head" data-entity-uid="part3" data-qualified-name="T" id="part3-head"><rect fill="#E2E2F0" height="46.5938" rx="2.5" ry="2.5" style="stroke:#181818;stroke-width:0.5;" width="79.0576" x="360.5747" y="89.5938"/><text fill="#000000" font-family="sans-serif" font-size="14" lengthAdjust="spacing" textLength="65.0576" x="367.5747" y="109.5889">cc-tunnel</text><text fill="#000000" font-family="sans-serif" font-size="14" lengthAdjust="spacing" textLength="56.9365" x="371.6353" y="125.8857">(Go API)</text></g><g class="participant participant-tail" data-entity-uid="part3" data-qualified-name="T" id="part3-tail"><rect fill="#E2E2F0" height="46.5938" rx="2.5" ry="2.5" style="stroke:#181818;stroke-width:0.5;" width="79.0576" x="360.5747" y="1660.0313"/><text fill="#000000" font-family="sans-serif" font-size="14" lengthAdjust="spacing" textLength="65.0576" x="367.5747" y="1680.0264">cc-tunnel</text><text fill="#000000" font-family="sans-serif" font-size="14" lengthAdjust="spacing" textLength="56.9365" x="371.6353" y="1696.3232">(Go API)</text></g><g class="participant participant-head" data-entity-uid="part4" data-qualified-name="D" id="part4-head"><text fill="#000000" font-family="sans-serif" font-size="14" lengthAdjust="spacing" textLength="80.7529" x="666.9937" y="101.292">PostgreSQL</text><text fill="#000000" font-family="sans-serif" font-size="14" lengthAdjust="spacing" textLength="128.4063" x="643.167" y="117.5889">(agent_dispatches</text><text fill="#000000" font-family="sans-serif" font-size="14" lengthAdjust="spacing" textLength="122.5547" x="646.0928" y="133.8857">+ agent_outputs)</text><path d="M692.3701,52.2969 C692.3701,42.2969 710.3701,42.2969 710.3701,42.2969 C710.3701,42.2969 728.3701,42.2969 728.3701,52.2969 L728.3701,78.2969 C728.3701,88.2969 710.3701,88.2969 710.3701,88.2969 C710.3701,88.2969 692.3701,88.2969 692.3701,78.2969 L692.3701,52.2969" fill="#E2E2F0" style="stroke:#181818;stroke-width:0.5;"/><path d="M692.3701,52.2969 C692.3701,62.2969 710.3701,62.2969 710.3701,62.2969 C710.3701,62.2969 728.3701,62.2969 728.3701,52.2969" fill="none" style="stroke:#181818;stroke-width:0.5;"/></g><g class="participant participant-tail" data-entity-uid="part4" data-qualified-name="D" id="part4-tail"><text fill="#000000" font-family="sans-serif" font-size="14" lengthAdjust="spacing" textLength="80.7529" x="666.9937" y="1673.0264">PostgreSQL</text><text fill="#000000" font-family="sans-serif" font-size="14" lengthAdjust="spacing" textLength="128.4063" x="643.167" y="1689.3232">(agent_dispatches</text><text fill="#000000" font-family="sans-serif" font-size="14" lengthAdjust="spacing" textLength="122.5547" x="646.0928" y="1705.6201">+ agent_outputs)</text><path d="M692.3701,1718.9219 C692.3701,1708.9219 710.3701,1708.9219 710.3701,1708.9219 C710.3701,1708.9219 728.3701,1708.9219 728.3701,1718.9219 L728.3701,1744.9219 C728.3701,1754.9219 710.3701,1754.9219 710.3701,1754.9219 C710.3701,1754.9219 692.3701,1754.9219 692.3701,1744.9219 L692.3701,1718.9219" fill="#E2E2F0" style="stroke:#181818;stroke-width:0.5;"/><path d="M692.3701,1718.9219 C692.3701,1728.9219 710.3701,1728.9219 710.3701,1728.9219 C710.3701,1728.9219 728.3701,1728.9219 728.3701,1718.9219" fill="none" style="stroke:#181818;stroke-width:0.5;"/></g><g class="participant participant-head" data-entity-uid="part5" data-qualified-name="A" id="part5-head"><rect fill="#E2E2F0" height="46.5938" rx="2.5" ry="2.5" style="stroke:#181818;stroke-width:0.5;" width="130.6143" x="787.5732" y="89.5938"/><text fill="#000000" font-family="sans-serif" font-size="14" lengthAdjust="spacing" textLength="116.6143" x="794.5732" y="109.5889">cc-remote-agent</text><text fill="#000000" font-family="sans-serif" font-size="14" lengthAdjust="spacing" textLength="66.0488" x="819.856" y="125.8857">(Handler)</text></g><g class="participant participant-tail" data-entity-uid="part5" data-qualified-name="A" id="part5-tail"><rect fill="#E2E2F0" height="46.5938" rx="2.5" ry="2.5" style="stroke:#181818;stroke-width:0.5;" width="130.6143" x="787.5732" y="1660.0313"/><text fill="#000000" font-family="sans-serif" font-size="14" lengthAdjust="spacing" textLength="116.6143" x="794.5732" y="1680.0264">cc-remote-agent</text><text fill="#000000" font-family="sans-serif" font-size="14" lengthAdjust="spacing" textLength="66.0488" x="819.856" y="1696.3232">(Handler)</text></g><g class="participant participant-head" data-entity-uid="part6" data-qualified-name="H" id="part6-head"><rect fill="#E2E2F0" height="46.5938" rx="2.5" ry="2.5" style="stroke:#181818;stroke-width:0.5;" width="118.5283" x="1003.7368" y="89.5938"/><text fill="#000000" font-family="sans-serif" font-size="14" lengthAdjust="spacing" textLength="104.5283" x="1010.7368" y="109.5889">cc-hook-bridge</text><text fill="#000000" font-family="sans-serif" font-size="14" lengthAdjust="spacing" textLength="95.0742" x="1015.4639" y="125.8857">(in-container)</text></g><g class="participant participant-tail" data-entity-uid="part6" data-qualified-name="H" id="part6-tail"><rect fill="#E2E2F0" height="46.5938" rx="2.5" ry="2.5" style="stroke:#181818;stroke-width:0.5;" width="118.5283" x="1003.7368" y="1660.0313"/><text fill="#000000" font-family="sans-serif" font-size="14" lengthAdjust="spacing" textLength="104.5283" x="1010.7368" y="1680.0264">cc-hook-bridge</text><text fill="#000000" font-family="sans-serif" font-size="14" lengthAdjust="spacing" textLength="95.0742" x="1015.4639" y="1696.3232">(in-container)</text></g><g class="participant participant-head" data-entity-uid="part7" data-qualified-name="C" id="part7-head"><rect fill="#E2E2F0" height="46.5938" rx="2.5" ry="2.5" style="stroke:#181818;stroke-width:0.5;" width="123.751" x="1252.1089" y="89.5938"/><text fill="#000000" font-family="sans-serif" font-size="14" lengthAdjust="spacing" textLength="46.5391" x="1290.7148" y="109.5889">claude</text><text fill="#000000" font-family="sans-serif" font-size="14" lengthAdjust="spacing" textLength="109.751" x="1259.1089" y="125.8857">(long-lived PTY)</text></g><g class="participant participant-tail" data-entity-uid="part7" data-qualified-name="C" id="part7-tail"><rect fill="#E2E2F0" height="46.5938" rx="2.5" ry="2.5" style="stroke:#181818;stroke-width:0.5;" width="123.751" x="1252.1089" y="1660.0313"/><text fill="#000000" font-family="sans-serif" font-size="14" lengthAdjust="spacing" textLength="46.5391" x="1290.7148" y="1680.0264">claude</text><text fill="#000000" font-family="sans-serif" font-size="14" lengthAdjust="spacing" textLength="109.751" x="1259.1089" y="1696.3232">(long-lived PTY)</text></g><g class="participant participant-head" data-entity-uid="part8" data-qualified-name="Ext" id="part8-head"><rect fill="#E2E2F0" height="30.2969" rx="2.5" ry="2.5" style="stroke:#181818;stroke-width:0.5;" width="108.2061" x="1385.8599" y="105.8906"/><text fill="#000000" font-family="sans-serif" font-size="14" lengthAdjust="spacing" textLength="94.2061" x="1392.8599" y="125.8857">Anthropic API</text></g><g class="participant participant-tail" data-entity-uid="part8" data-qualified-name="Ext" id="part8-tail"><rect fill="#E2E2F0" height="30.2969" rx="2.5" ry="2.5" style="stroke:#181818;stroke-width:0.5;" width="108.2061" x="1385.8599" y="1660.0313"/><text fill="#000000" font-family="sans-serif" font-size="14" lengthAdjust="spacing" textLength="94.2061" x="1392.8599" y="1680.0264">Anthropic API</text></g><rect fill="#EEEEEE" height="3" style="stroke:#EEEEEE;stroke-width:1;" width="1514.0659" x="0" y="167.7539"/><line style="stroke:#000000;stroke-width:1;" x1="0" x2="1514.0659" y1="167.7539" y2="167.7539"/><line style="stroke:#000000;stroke-width:1;" x1="0" x2="1514.0659" y1="170.7539" y2="170.7539"/><rect fill="#EEEEEE" height="23.1328" style="stroke:#000000;stroke-width:2;" width="219.772" x="647.147" y="157.1875"/><text fill="#000000" font-family="sans-serif" font-size="13" font-weight="bold" lengthAdjust="spacing" textLength="201.2461" x="653.147" y="173.2544">container &#36215;&#21205;&#26178; (cold start)</text><g class="message" data-entity-1="part5" data-entity-2="part7" id="msg1"><polygon fill="#181818" points="1301.9844,207.4531,1311.9844,211.4531,1301.9844,215.4531,1305.9844,211.4531" style="stroke:#181818;stroke-width:1;"/><line style="stroke:#181818;stroke-width:1;" x1="852.8804" x2="1307.9844" y1="211.4531" y2="211.4531"/><text fill="#000000" font-family="sans-serif" font-size="13" lengthAdjust="spacing" textLength="94.1294" x="1036.3677" y="206.3872">&#36215;&#21205; (PTY &#24120;&#39376;)</text></g><g class="message" data-entity-1="part7" data-entity-2="part6" id="msg2"><polygon fill="#181818" points="1074.001,251.7188,1064.001,255.7188,1074.001,259.7188,1070.001,255.7188" style="stroke:#181818;stroke-width:1;"/><line style="stroke:#181818;stroke-width:1;" x1="1068.001" x2="1312.9844" y1="255.7188" y2="255.7188"/><text fill="#000000" font-family="sans-serif" font-size="13" lengthAdjust="spacing" textLength="117.165" x="1129.9102" y="235.52">SessionStart hook</text><text fill="#000000" font-family="sans-serif" font-size="13" lengthAdjust="spacing" textLength="118.479" x="1129.2532" y="250.6528">(stdin: hook JSON)</text></g><g class="message" data-entity-1="part6" data-entity-2="part4" id="msg3"><polygon fill="#181818" points="721.3701,295.9844,711.3701,299.9844,721.3701,303.9844,717.3701,299.9844" style="stroke:#181818;stroke-width:1;"/><line style="stroke:#181818;stroke-width:1;" x1="715.3701" x2="1062.001" y1="299.9844" y2="299.9844"/><text fill="#000000" font-family="sans-serif" font-size="13" lengthAdjust="spacing" textLength="144.8345" x="814.2683" y="279.7856">INSERT agent_outputs</text><text fill="#000000" font-family="sans-serif" font-size="13" lengthAdjust="spacing" textLength="293.9727" x="739.6992" y="294.9185">(event_type='session_start', dispatch_id=nil)</text></g><path d="M933,312.9844 L933,337.9844 L1191,337.9844 L1191,322.9844 L1181,312.9844 L933,312.9844" fill="#FEFFDD" style="stroke:#181818;stroke-width:0.5;"/><path d="M1181,312.9844 L1181,322.9844 L1191,322.9844 L1181,312.9844" fill="#FEFFDD" style="stroke:#181818;stroke-width:0.5;"/><text fill="#000000" font-family="sans-serif" font-size="13" lengthAdjust="spacing" textLength="237.8721" x="939" y="330.0513">&#21021;&#22238;&#12399; state file &#28961;&#12375;&#12289;no-op &#12391;&#25244;&#12369;&#12427;</text><rect fill="#EEEEEE" height="3" style="stroke:#EEEEEE;stroke-width:1;" width="1514.0659" x="0" y="363.6836"/><line style="stroke:#000000;stroke-width:1;" x1="0" x2="1514.0659" y1="363.6836" y2="363.6836"/><line style="stroke:#000000;stroke-width:1;" x1="0" x2="1514.0659" y1="366.6836" y2="366.6836"/><rect fill="#EEEEEE" height="23.1328" style="stroke:#000000;stroke-width:2;" width="165.5313" x="674.2673" y="353.1172"/><text fill="#000000" font-family="sans-serif" font-size="13" font-weight="bold" lengthAdjust="spacing" textLength="147.0054" x="680.2673" y="369.1841">&#12479;&#12540;&#12531; N: &#12518;&#12540;&#12470;&#12540;&#20837;&#21147;</text><g class="message" data-entity-1="part1" data-entity-2="part2" id="msg4"><polygon fill="#181818" points="128.1738,403.3828,138.1738,407.3828,128.1738,411.3828,132.1738,407.3828" style="stroke:#181818;stroke-width:1;"/><line style="stroke:#181818;stroke-width:1;" x1="23.9551" x2="134.1738" y1="407.3828" y2="407.3828"/><text fill="#000000" font-family="sans-serif" font-size="13" lengthAdjust="spacing" textLength="92.2188" x="35.9551" y="402.3169">&#12513;&#12483;&#12475;&#12540;&#12472;&#20837;&#21147;</text></g><g class="message" data-entity-1="part2" data-entity-2="part3" id="msg5"><polygon fill="#181818" points="388.1035,432.5156,398.1035,436.5156,388.1035,440.5156,392.1035,436.5156" style="stroke:#181818;stroke-width:1;"/><line style="stroke:#181818;stroke-width:1;" x1="140.1738" x2="394.1035" y1="436.5156" y2="436.5156"/><text fill="#000000" font-family="sans-serif" font-size="13" lengthAdjust="spacing" textLength="235.9297" x="152.1738" y="431.4497">POST /conversations/{id}/messages</text></g><g class="message" data-entity-1="part3" data-entity-2="part4" id="msg6"><polygon fill="#181818" points="698.3701,461.6484,708.3701,465.6484,698.3701,469.6484,702.3701,465.6484" style="stroke:#181818;stroke-width:1;"/><line style="stroke:#181818;stroke-width:1;" x1="400.1035" x2="704.3701" y1="465.6484" y2="465.6484"/><text fill="#000000" font-family="sans-serif" font-size="13" lengthAdjust="spacing" textLength="250.4023" x="430.0356" y="460.5825">INSERT messages(status='streaming')</text></g><g class="message" data-entity-1="part3" data-entity-2="part4" id="msg7"><polygon fill="#181818" points="698.3701,490.7813,708.3701,494.7813,698.3701,498.7813,702.3701,494.7813" style="stroke:#181818;stroke-width:1;"/><line style="stroke:#181818;stroke-width:1;" x1="400.1035" x2="704.3701" y1="494.7813" y2="494.7813"/><text fill="#000000" font-family="sans-serif" font-size="13" lengthAdjust="spacing" textLength="286.2666" x="412.1035" y="489.7153">INSERT agent_dispatches(status='pending')</text></g><g class="message" data-entity-1="part3" data-entity-2="part5" id="msg8"><polygon fill="#181818" points="840.8804,519.9141,850.8804,523.9141,840.8804,527.9141,844.8804,523.9141" style="stroke:#181818;stroke-width:1;"/><line style="stroke:#181818;stroke-width:1;" x1="400.1035" x2="846.8804" y1="523.9141" y2="523.9141"/><text fill="#000000" font-family="sans-serif" font-size="13" lengthAdjust="spacing" textLength="199.9639" x="526.51" y="518.8481">POST /agent/kick (idempotent)</text></g><g class="message" data-entity-1="part3" data-entity-2="part2" id="msg9"><polygon fill="#181818" points="151.1738,549.0469,141.1738,553.0469,151.1738,557.0469,147.1738,553.0469" style="stroke:#181818;stroke-width:1;"/><line style="stroke:#181818;stroke-width:1;" x1="145.1738" x2="399.1035" y1="553.0469" y2="553.0469"/><text fill="#000000" font-family="sans-serif" font-size="13" lengthAdjust="spacing" textLength="187.1924" x="176.5425" y="547.981">202 Accepted {message_id}</text></g><rect fill="#EEEEEE" height="3" style="stroke:#EEEEEE;stroke-width:1;" width="1514.0659" x="0" y="581.6133"/><line style="stroke:#000000;stroke-width:1;" x1="0" x2="1514.0659" y1="581.6133" y2="581.6133"/><line style="stroke:#000000;stroke-width:1;" x1="0" x2="1514.0659" y1="584.6133" y2="584.6133"/><rect fill="#EEEEEE" height="23.1328" style="stroke:#000000;stroke-width:2;" width="210.1807" x="651.9426" y="571.0469"/><text fill="#000000" font-family="sans-serif" font-size="13" font-weight="bold" lengthAdjust="spacing" textLength="191.6548" x="657.9426" y="587.1138">claude &#36215;&#21205;&#12392; hook fan-out</text><g class="message" data-entity-1="part5" data-entity-2="part7" id="msg10"><polygon fill="#181818" points="1301.9844,621.3125,1311.9844,625.3125,1301.9844,629.3125,1305.9844,625.3125" style="stroke:#181818;stroke-width:1;"/><line style="stroke:#181818;stroke-width:1;" x1="852.8804" x2="1307.9844" y1="625.3125" y2="625.3125"/><text fill="#000000" font-family="sans-serif" font-size="13" lengthAdjust="spacing" textLength="137.687" x="1014.5889" y="620.2466">PTY stdin: &lt;prompt&gt;</text></g><g class="message" data-entity-1="part7" data-entity-2="part6" id="msg11"><polygon fill="#181818" points="1074.001,650.4453,1064.001,654.4453,1074.001,658.4453,1070.001,654.4453" style="stroke:#181818;stroke-width:1;"/><line style="stroke:#181818;stroke-width:1;" x1="1068.001" x2="1312.9844" y1="654.4453" y2="654.4453"/><text fill="#000000" font-family="sans-serif" font-size="13" lengthAdjust="spacing" textLength="158.7041" x="1109.1406" y="649.3794">UserPromptSubmit hook</text></g><g class="message" data-entity-1="part6" data-entity-2="part4" id="msg12"><polygon fill="#181818" points="721.3701,694.7109,711.3701,698.7109,721.3701,702.7109,717.3701,698.7109" style="stroke:#181818;stroke-width:1;"/><line style="stroke:#181818;stroke-width:1;" x1="715.3701" x2="1062.001" y1="698.7109" y2="698.7109"/><text fill="#000000" font-family="sans-serif" font-size="13" lengthAdjust="spacing" textLength="144.8345" x="814.2683" y="678.5122">INSERT agent_outputs</text><text fill="#000000" font-family="sans-serif" font-size="13" lengthAdjust="spacing" textLength="234.3047" x="769.5332" y="693.645">(event_type='user_prompt_submit')</text></g><path d="M633.167,713.7109 L709.791,713.7109 L709.791,720.8438 L699.791,730.8438 L633.167,730.8438 L633.167,713.7109" fill="#EEEEEE" style="stroke:#000000;stroke-width:1.5;"/><rect fill="none" height="162.7969" style="stroke:#000000;stroke-width:1.5;" width="870.8989" x="633.167" y="713.7109"/><text fill="#000000" font-family="sans-serif" font-size="13" font-weight="bold" lengthAdjust="spacing" textLength="31.624" x="648.167" y="726.7778">loop</text><text fill="#000000" font-family="sans-serif" font-size="11" font-weight="bold" lengthAdjust="spacing" textLength="113.6953" x="724.791" y="725.9214">[&#12484;&#12540;&#12523;&#21628;&#12403;&#20986;&#12375;&#12372;&#12392;]</text><g class="message" data-entity-1="part7" data-entity-2="part6" id="msg13"><polygon fill="#181818" points="1074.001,747.9766,1064.001,751.9766,1074.001,755.9766,1070.001,751.9766" style="stroke:#181818;stroke-width:1;"/><line style="stroke:#181818;stroke-width:1;" x1="1068.001" x2="1312.9844" y1="751.9766" y2="751.9766"/><text fill="#000000" font-family="sans-serif" font-size="13" lengthAdjust="spacing" textLength="108.7354" x="1134.125" y="746.9106">PreToolUse hook</text></g><g class="message" data-entity-1="part6" data-entity-2="part4" id="msg14"><polygon fill="#181818" points="721.3701,777.1094,711.3701,781.1094,721.3701,785.1094,717.3701,781.1094" style="stroke:#181818;stroke-width:1;"/><line style="stroke:#181818;stroke-width:1;" x1="715.3701" x2="1062.001" y1="781.1094" y2="781.1094"/><text fill="#000000" font-family="sans-serif" font-size="13" lengthAdjust="spacing" textLength="241.3315" x="766.0198" y="776.0435">INSERT agent_outputs (pre_tool_use)</text></g><g class="message" data-entity-1="part7" data-entity-2="part8" id="msg15"><polygon fill="#181818" points="1427.9629,806.2422,1437.9629,810.2422,1427.9629,814.2422,1431.9629,810.2422" style="stroke:#181818;stroke-width:1;"/><line style="stroke:#181818;stroke-width:1;" x1="1313.9844" x2="1433.9629" y1="810.2422" y2="810.2422"/><text fill="#000000" font-family="sans-serif" font-size="13" lengthAdjust="spacing" textLength="90.5049" x="1331.7212" y="805.1763">LLM / Tool API</text></g><g class="message" data-entity-1="part7" data-entity-2="part6" id="msg16"><polygon fill="#181818" points="1074.001,835.375,1064.001,839.375,1074.001,843.375,1070.001,839.375" style="stroke:#181818;stroke-width:1;"/><line style="stroke:#181818;stroke-width:1;" x1="1068.001" x2="1312.9844" y1="839.375" y2="839.375"/><text fill="#000000" font-family="sans-serif" font-size="13" lengthAdjust="spacing" textLength="115.2163" x="1130.8845" y="834.3091">PostToolUse hook</text></g><g class="message" data-entity-1="part6" data-entity-2="part4" id="msg17"><polygon fill="#181818" points="721.3701,864.5078,711.3701,868.5078,721.3701,872.5078,717.3701,868.5078" style="stroke:#181818;stroke-width:1;"/><line style="stroke:#181818;stroke-width:1;" x1="715.3701" x2="1062.001" y1="868.5078" y2="868.5078"/><text fill="#000000" font-family="sans-serif" font-size="13" lengthAdjust="spacing" textLength="247.8125" x="762.7793" y="863.4419">INSERT agent_outputs (post_tool_use)</text></g><g class="message" data-entity-1="part7" data-entity-2="part6" id="msg18"><polygon fill="#181818" points="1074.001,900.6406,1064.001,904.6406,1074.001,908.6406,1070.001,904.6406" style="stroke:#181818;stroke-width:1;"/><line style="stroke:#181818;stroke-width:1;" x1="1068.001" x2="1312.9844" y1="904.6406" y2="904.6406"/><text fill="#000000" font-family="sans-serif" font-size="13" lengthAdjust="spacing" textLength="145.2471" x="1115.8691" y="899.5747">Stop hook (&#12479;&#12540;&#12531;&#23436;&#20102;)</text></g><g class="message" data-entity-1="part6" data-entity-2="part4" id="msg19"><polygon fill="#181818" points="721.3701,944.9063,711.3701,948.9063,721.3701,952.9063,717.3701,948.9063" style="stroke:#181818;stroke-width:1;"/><line style="stroke:#181818;stroke-width:1;" x1="715.3701" x2="1062.001" y1="948.9063" y2="948.9063"/><text fill="#000000" font-family="sans-serif" font-size="13" lengthAdjust="spacing" textLength="144.8345" x="814.2683" y="928.7075">INSERT agent_outputs</text><text fill="#000000" font-family="sans-serif" font-size="13" lengthAdjust="spacing" textLength="223.082" x="775.1445" y="943.8403">(event_type='stop', status='final')</text></g><g class="message" data-entity-1="part6" data-entity-2="part4" id="msg20"><polygon fill="#181818" points="721.3701,974.0391,711.3701,978.0391,721.3701,982.0391,717.3701,978.0391" style="stroke:#181818;stroke-width:1;"/><line style="stroke:#181818;stroke-width:1;" x1="715.3701" x2="1062.001" y1="978.0391" y2="978.0391"/><text fill="#000000" font-family="sans-serif" font-size="13" lengthAdjust="spacing" textLength="328.6309" x="722.3701" y="972.9731">UPDATE agent_dispatches SET status='consumed'</text></g><rect fill="#EEEEEE" height="3" style="stroke:#EEEEEE;stroke-width:1;" width="1514.0659" x="0" y="1006.6055"/><line style="stroke:#000000;stroke-width:1;" x1="0" x2="1514.0659" y1="1006.6055" y2="1006.6055"/><line style="stroke:#000000;stroke-width:1;" x1="0" x2="1514.0659" y1="1009.6055" y2="1009.6055"/><rect fill="#EEEEEE" height="23.1328" style="stroke:#000000;stroke-width:2;" width="182.6001" x="665.7329" y="996.0391"/><text fill="#000000" font-family="sans-serif" font-size="13" font-weight="bold" lengthAdjust="spacing" textLength="164.0742" x="671.7329" y="1012.106">&#12479;&#12540;&#12531;&#32153;&#32154; (loop driver)</text><g class="message" data-entity-1="part6" data-entity-2="part4" id="msg21"><polygon fill="#181818" points="721.3701,1061.4375,711.3701,1065.4375,721.3701,1069.4375,717.3701,1065.4375" style="stroke:#181818;stroke-width:1;"/><line style="stroke:#181818;stroke-width:1;" x1="715.3701" x2="1062.001" y1="1065.4375" y2="1065.4375"/><text fill="#000000" font-family="sans-serif" font-size="13" lengthAdjust="spacing" textLength="165.3882" x="803.9915" y="1045.2388">SELECT pending dispatch</text><text fill="#000000" font-family="sans-serif" font-size="13" lengthAdjust="spacing" textLength="173.3037" x="804.166" y="1060.3716">FOR UPDATE SKIP LOCKED</text></g><path d="M633.167,1080.4375 L697.6099,1080.4375 L697.6099,1087.5703 L687.6099,1097.5703 L633.167,1097.5703 L633.167,1080.4375" fill="#EEEEEE" style="stroke:#000000;stroke-width:1.5;"/><rect fill="none" height="291.1328" style="stroke:#000000;stroke-width:1.5;" width="856.5029" x="633.167" y="1080.4375"/><text fill="#000000" font-family="sans-serif" font-size="13" font-weight="bold" lengthAdjust="spacing" textLength="19.4429" x="648.167" y="1093.5044">alt</text><text fill="#000000" font-family="sans-serif" font-size="11" font-weight="bold" lengthAdjust="spacing" textLength="114.1196" x="712.6099" y="1092.6479">[&#26032;&#35215; pending &#12354;&#12426;]</text><g class="message" data-entity-1="part4" data-entity-2="part6" id="msg22"><polygon fill="#181818" points="1051.001,1114.7031,1061.001,1118.7031,1051.001,1122.7031,1055.001,1118.7031" style="stroke:#181818;stroke-width:1;"/><line style="stroke:#181818;stroke-width:1;stroke-dasharray:2,2;" x1="710.3701" x2="1057.001" y1="1118.7031" y2="1118.7031"/><text fill="#000000" font-family="sans-serif" font-size="13" lengthAdjust="spacing" textLength="88.499" x="842.436" y="1113.6372">next dispatch</text></g><g class="message" data-entity-1="part6" data-entity-2="part4" id="msg23"><polygon fill="#181818" points="721.3701,1143.8359,711.3701,1147.8359,721.3701,1151.8359,717.3701,1147.8359" style="stroke:#181818;stroke-width:1;"/><line style="stroke:#181818;stroke-width:1;" x1="715.3701" x2="1062.001" y1="1147.8359" y2="1147.8359"/><text fill="#000000" font-family="sans-serif" font-size="13" lengthAdjust="spacing" textLength="175.2905" x="799.0403" y="1142.77">UPDATE status='delivered'</text></g><g class="message" data-entity-1="part6" data-entity-2="part6" id="msg24"><line style="stroke:#181818;stroke-width:1;" x1="1063.001" x2="1105.001" y1="1192.1016" y2="1192.1016"/><line style="stroke:#181818;stroke-width:1;" x1="1105.001" x2="1105.001" y1="1192.1016" y2="1205.1016"/><line style="stroke:#181818;stroke-width:1;" x1="1064.001" x2="1105.001" y1="1205.1016" y2="1205.1016"/><polygon fill="#181818" points="1074.001,1201.1016,1064.001,1205.1016,1074.001,1209.1016,1070.001,1205.1016" style="stroke:#181818;stroke-width:1;"/><text fill="#000000" font-family="sans-serif" font-size="13" lengthAdjust="spacing" textLength="236.9834" x="1070.001" y="1171.9028">write /tmp/cc-hook-bridge-state.json</text><text fill="#000000" font-family="sans-serif" font-size="13" lengthAdjust="spacing" textLength="43.2275" x="1166.8789" y="1187.0356">(0600)</text></g><g class="message" data-entity-1="part6" data-entity-2="part7" id="msg25"><polygon fill="#181818" points="1301.9844,1245.3672,1311.9844,1249.3672,1301.9844,1253.3672,1305.9844,1249.3672" style="stroke:#181818;stroke-width:1;"/><line style="stroke:#181818;stroke-width:1;stroke-dasharray:2,2;" x1="1063.001" x2="1307.9844" y1="1249.3672" y2="1249.3672"/><text fill="#000000" font-family="sans-serif" font-size="13" lengthAdjust="spacing" textLength="178.7056" x="1099.1399" y="1229.1685">stdout: {"decision":"block",</text><text fill="#000000" font-family="sans-serif" font-size="13" lengthAdjust="spacing" textLength="172.8022" x="1106.2239" y="1244.3013">"reason": &lt;&#27425;&#12398; prompt&gt;}</text></g><path d="M1147,1262.3672 L1147,1287.3672 L1479,1287.3672 L1479,1272.3672 L1469,1262.3672 L1147,1262.3672" fill="#FEFFDD" style="stroke:#181818;stroke-width:0.5;"/><path d="M1469,1262.3672 L1469,1272.3672 L1479,1272.3672 L1469,1262.3672" fill="#FEFFDD" style="stroke:#181818;stroke-width:0.5;"/><text fill="#000000" font-family="sans-serif" font-size="13" lengthAdjust="spacing" textLength="311.6699" x="1153" y="1279.4341">&#21516;&#19968;&#12475;&#12483;&#12471;&#12519;&#12531;&#12391;&#27425;&#12479;&#12540;&#12531;&#23455;&#34892; (claude &#20877;&#36215;&#21205;&#12394;&#12375;)</text><line style="stroke:#000000;stroke-width:1;stroke-dasharray:2,2;" x1="633.167" x2="1489.6699" y1="1293.5" y2="1293.5"/><text fill="#000000" font-family="sans-serif" font-size="11" font-weight="bold" lengthAdjust="spacing" textLength="105.0908" x="638.167" y="1303.7104">[55s &#12391;&#35211;&#12388;&#12363;&#12425;&#12378;]</text><g class="message" data-entity-1="part6" data-entity-2="part7" id="msg26"><polygon fill="#181818" points="1301.9844,1324.4375,1311.9844,1328.4375,1301.9844,1332.4375,1305.9844,1328.4375" style="stroke:#181818;stroke-width:1;"/><line style="stroke:#181818;stroke-width:1;stroke-dasharray:2,2;" x1="1063.001" x2="1307.9844" y1="1328.4375" y2="1328.4375"/><text fill="#000000" font-family="sans-serif" font-size="13" lengthAdjust="spacing" textLength="36.8037" x="1170.0908" y="1323.3716">exit 0</text></g><path d="M1208,1341.4375 L1208,1366.4375 L1418,1366.4375 L1418,1351.4375 L1408,1341.4375 L1208,1341.4375" fill="#FEFFDD" style="stroke:#181818;stroke-width:0.5;"/><path d="M1408,1341.4375 L1408,1351.4375 L1418,1351.4375 L1408,1341.4375" fill="#FEFFDD" style="stroke:#181818;stroke-width:0.5;"/><text fill="#000000" font-family="sans-serif" font-size="13" lengthAdjust="spacing" textLength="189.0776" x="1214" y="1358.5044">container &#12399; idle &#26908;&#30693;&#24460;&#12395;&#20572;&#27490;</text><rect fill="#EEEEEE" height="3" style="stroke:#EEEEEE;stroke-width:1;" width="1514.0659" x="0" y="1399.1367"/><line style="stroke:#000000;stroke-width:1;" x1="0" x2="1514.0659" y1="1399.1367" y2="1399.1367"/><line style="stroke:#000000;stroke-width:1;" x1="0" x2="1514.0659" y1="1402.1367" y2="1402.1367"/><rect fill="#EEEEEE" height="23.1328" style="stroke:#000000;stroke-width:2;" width="198.3677" x="657.8491" y="1388.5703"/><text fill="#000000" font-family="sans-serif" font-size="13" font-weight="bold" lengthAdjust="spacing" textLength="179.8418" x="663.8491" y="1404.6372">frontend &#12509;&#12540;&#12522;&#12531;&#12464; (&#24120;&#26178;)</text><path d="M81.5156,1428.7031 L158.1396,1428.7031 L158.1396,1435.8359 L148.1396,1445.8359 L81.5156,1445.8359 L81.5156,1428.7031" fill="#EEEEEE" style="stroke:#000000;stroke-width:1.5;"/><rect fill="none" height="119.6641" style="stroke:#000000;stroke-width:1.5;" width="706.0576" x="81.5156" y="1428.7031"/><text fill="#000000" font-family="sans-serif" font-size="13" font-weight="bold" lengthAdjust="spacing" textLength="31.624" x="96.5156" y="1441.77">loop</text><text fill="#000000" font-family="sans-serif" font-size="11" font-weight="bold" lengthAdjust="spacing" textLength="51.7397" x="173.1396" y="1440.9136">[1&#31186;&#38291;&#38548;]</text><g class="message" data-entity-1="part2" data-entity-2="part3" id="msg27"><polygon fill="#181818" points="388.1035,1462.9688,398.1035,1466.9688,388.1035,1470.9688,392.1035,1466.9688" style="stroke:#181818;stroke-width:1;"/><line style="stroke:#181818;stroke-width:1;" x1="140.1738" x2="394.1035" y1="1466.9688" y2="1466.9688"/><text fill="#000000" font-family="sans-serif" font-size="13" lengthAdjust="spacing" textLength="158.3169" x="190.9802" y="1461.9028">GET /conversations/{id}</text></g><g class="message" data-entity-1="part3" data-entity-2="part4" id="msg28"><polygon fill="#181818" points="698.3701,1507.2344,708.3701,1511.2344,698.3701,1515.2344,702.3701,1511.2344" style="stroke:#181818;stroke-width:1;"/><line style="stroke:#181818;stroke-width:1;" x1="400.1035" x2="704.3701" y1="1511.2344" y2="1511.2344"/><text fill="#000000" font-family="sans-serif" font-size="13" lengthAdjust="spacing" textLength="118.2695" x="496.1021" y="1491.0356">SELECT messages</text><text fill="#000000" font-family="sans-serif" font-size="13" lengthAdjust="spacing" textLength="147.3989" x="481.5374" y="1506.1685">+ agent_outputs (fold)</text></g><g class="message" data-entity-1="part3" data-entity-2="part2" id="msg29"><polygon fill="#181818" points="151.1738,1536.3672,141.1738,1540.3672,151.1738,1544.3672,147.1738,1540.3672" style="stroke:#181818;stroke-width:1;"/><line style="stroke:#181818;stroke-width:1;stroke-dasharray:2,2;" x1="145.1738" x2="399.1035" y1="1540.3672" y2="1540.3672"/><text fill="#000000" font-family="sans-serif" font-size="13" lengthAdjust="spacing" textLength="124.2427" x="208.0173" y="1535.3013">ConversationDetail</text></g><path d="M341,1560.3672 L341,1645.3672 L769,1645.3672 L769,1570.3672 L759,1560.3672 L341,1560.3672" fill="#FEFFDD" style="stroke:#181818;stroke-width:0.5;"/><path d="M759,1560.3672 L759,1570.3672 L769,1570.3672 L759,1560.3672" fill="#FEFFDD" style="stroke:#181818;stroke-width:0.5;"/><text fill="#000000" font-family="sans-serif" font-size="13" lengthAdjust="spacing" textLength="90.8477" x="347" y="1577.4341">cc-tunnel &#20596;&#12395;</text><text fill="#000000" font-family="sans-serif" font-size="13" font-weight="bold" lengthAdjust="spacing" textLength="84.1001" x="441.98" y="1577.4341">fold worker</text><text fill="#000000" font-family="sans-serif" font-size="13" lengthAdjust="spacing" textLength="96.3638" x="530.2124" y="1577.4341">&#12434;&#26032;&#35373; (&#27573;&#38542; 4):</text><text fill="#000000" font-family="sans-serif" font-size="13" lengthAdjust="spacing" textLength="380.123" x="347" y="1592.5669">agent_outputs &#12434; assistant_message_id &#12391;&#12464;&#12523;&#12540;&#12500;&#12531;&#12464;&#12375;&#12289;</text><text fill="#000000" font-family="sans-serif" font-size="13" lengthAdjust="spacing" textLength="407.4624" x="347" y="1607.6997">event_type &#12395;&#24540;&#12376;&#12390; messages.message_data.content_blocks /</text><text fill="#000000" font-family="sans-serif" font-size="13" lengthAdjust="spacing" textLength="312.9395" x="347" y="1622.8325">tool_calls / cost_usd &#12434;&#20877;&#27083;&#25104;&#12375;&#12390; UPDATE &#12377;&#12427;&#12290;</text><text fill="#000000" font-family="sans-serif" font-size="13" lengthAdjust="spacing" textLength="373.8516" x="347" y="1637.9653">Frontend &#12363;&#12425;&#12399;&#24467;&#26469;&#12393;&#12362;&#12426; messages &#32076;&#30001;&#12391;&#12375;&#12363;&#35211;&#12360;&#12394;&#12356;&#12290;</text><?plantuml-src bLPRJnj757xVNt7a5zkKnIGAF5WXaeLDI4E2YvrAbI9Po-u0KzQxszrnI1L5OkqqfPYskT2q8QGHLG9fBYGLJO9e57xCPctu5pqpUx4DLQMy83pxdU_SldDcaZ1kclEoPjChn01bbXWCLBDQhHbKLHWr3N38DpLYg0HIkVmKd1myEImF3iadXll1qXN381gqjjyShlq4G_9mUa1AIabehR-0uXIamWydv5DfyDmjptqLUAXerB4KfiuH1yztFNSRd3b5CnTWmQQCuDcsv-x30hK9j7QNlCLwGEe_s46EZZlmjrS-xjtqFwnm2arXYeW92Uftse_tFFS-DvKOPJe1LPLP3UFLip27ASFXras_-KkOyk7YsiVzZUCfTlbgDNRyxRMq93dprB0KMwd6fRb070TvSZgTDK15Fc9Bag8oquPB3lwFQ4PLQYdeAJ5ccmWmjCj6QeeWAFCbffnEWEB0M2yoZXYXPqt85Sy5iBB4KvrM70A9ekcmMPkKlfX0qD7YNZO-2mjkrfXLOqvWdp_cnYPLan5PO95dN34qdTW1EdSCpSidJzjKcoK8feQiOaOADIAByICMkbBJE58tZLbPHw5fK2n_5M17Ux4vWytPfaLLdgq05AuoIHePWTW77BnvXurhtQz3IZLr3Ho636aO6P5o89-1qMo8W1Hw0Nztzt3hLbeQvT_6ir32Ng6iIzn82043SvX6ZL0MdvScBwQbSOxEP-7SnL9XgjnRH3GWL_Xlzgr5Hf9EG5WHOIJx8If_XMeZ1jNJae6b1VCAHexk_QM7_eFV-IGW7izdA4gpVMF3St_r5bt3b4sBZqfhUTrpRtlrfiZTg-zxZVTUOmSkPi5hRF8VzRVur__kYR_yWAVETSPZ7kE03Q_HyEh_2DXkW976-DTo5egJfJ9ai9eOa2CctCbSezhrJ3KGiIELUtEFpbCyu9g32JERA5Lgp2RJHx571HZRM2ZuBejS58SmoCnJTHvIL2DL2sjbi125kU0iGavLYSLGDDV2KB2ormDD26M5xVRSfq47PnH3nbPr2u8B8MpoQSisgnOx4mk2LwuepagrwIeDHF4f0gWXGILWhJY20jEKT9Dtid53DEwvV_kzv-xut-_nFhkh6Ai444LGj4dPD7KC9F0Dy7_U8MNPfCBGe8AUqn4FpaaM9YOkG0Ou6P-VRXUu9ZxD1nfqES7sIPqHOfYQA7KgLcQmYJzjS906voMIo0mr53tPORXKpEVAXUCNHgbGZcrGnawjIhHaxvYqtzvllrs3bEY1kDfiiHyYwb9XeZ1QXb2KySHUDW369gSYpwNpvuemCJbwlf2N59r1wzxhWysVOolFhNlrPIna7kIWBWQvocAohWg7V57G6k4xqEPHXnYq3Iw-3AjQcTuDAuizCV2rOnfOly7XmS5qO1Oe6rMDrSt2jOH6LCeNKIARcDPDTJxHp_D9uAmw_11Ejrviy6iorFzrPEbi9cJoRwryt5qKQmENnpkliOMLvAi8pJfTVdImiO9xDnWy_-QFqUmzGs6ZJ7JKrz0GlzMt3ZQRdllOSvjU_GVFNUiEcbp5CHiy6a1dm_FrIF46WjRZzVQZ9-9-V-wxwwsNVmHAn6RFXDSepjX34Tmp7cxzDQHmu-Fb81ek172YlNNdyDxTmxLLz1YjmRE5_zo2Y2ZtYYHQVyVkKaZDuEsJ3Yo2RJNQnPSdc8mUXDj9izoFjozqtYBWktzZRj3NnybWmRJdYTtNnnymN6vFNyQFg5FfB1hsHe0el28TYXB1qyvs58-j-clSEw8ogq5bWYi6IJf32Bok-tZL_EQvct6g0n4JVsOCgABEh294vK062SHUK1LTnv_ODjmKDKVZqQ0WMblDrj8jiUOs8-NpXrYzoTzYs82uRw4oNlaVxhOUFl7SFprt6ISg3WFQRrRQgt-9XoEoDOMWbeJKRd0kJi8hA_qB?></g></svg>