<?plantuml 1.2026.2?><svg xmlns="http://www.w3.org/2000/svg" xmlns:xlink="http://www.w3.org/1999/xlink" contentStyleType="text/css" data-diagram-type="SEQUENCE" height="1127px" preserveAspectRatio="none" style="width:1229px;height:1127px;background:#FFFFFF;" version="1.1" viewBox="0 0 1229 1127" width="1229px" zoomAndPan="magnify"><title>cc-tunnel: agent_dispatches shadow write (ADR 2026-05-16 &#27573;&#38542; 1-3, &#23455;&#35013;&#28168;)</title><defs/><g><text fill="#000000" font-family="sans-serif" font-size="14" font-weight="bold" lengthAdjust="spacing" textLength="595.4443" x="312.8909" y="27.9951">cc-tunnel: agent_dispatches shadow write (ADR 2026-05-16 &#27573;&#38542; 1-3, &#23455;&#35013;&#28168;)</text><rect fill="none" height="90.5313" style="stroke:#000000;stroke-width:1.5;" width="590.5059" x="329.332" y="623.9844"/><g class="participant-lifeline" data-entity-uid="part1" data-qualified-name="User" id="part1-lifeline"><g><title>User</title><rect fill="#000000" fill-opacity="0.00000" height="927.6484" width="8" x="19.9551" y="118.5938"/><line style="stroke:#181818;stroke-width:0.5;stroke-dasharray:5,5;" x1="23" x2="23" y1="118.5938" y2="1046.2422"/></g></g><g class="participant-lifeline" data-entity-uid="part2" data-qualified-name="F" id="part2-lifeline"><g><title>Frontend</title><rect fill="#000000" fill-opacity="0.00000" height="927.6484" width="8" x="136.1738" y="118.5938"/><line style="stroke:#181818;stroke-width:0.5;stroke-dasharray:5,5;" x1="139.6191" x2="139.6191" y1="118.5938" y2="1046.2422"/></g></g><g class="participant-lifeline" data-entity-uid="part3" data-qualified-name="T" id="part3-lifeline"><g><title>cc-tunnel</title><rect fill="#000000" fill-opacity="0.00000" height="927.6484" width="8" x="396.1035" y="118.5938"/><line style="stroke:#181818;stroke-width:0.5;stroke-dasharray:5,5;" x1="399.332" x2="399.332" y1="118.5938" y2="1046.2422"/></g></g><g class="participant-lifeline" data-entity-uid="part4" data-qualified-name="D" id="part4-lifeline"><g><title>PostgreSQL</title><rect fill="#000000" fill-opacity="0.00000" height="927.6484" width="8" x="701.4761" y="118.5938"/><line style="stroke:#181818;stroke-width:0.5;stroke-dasharray:5,5;" x1="705.0996" x2="705.0996" y1="118.5938" y2="1046.2422"/></g></g><g class="participant-lifeline" data-entity-uid="part5" data-qualified-name="P" id="part5-lifeline"><g><title>ExecutionProvider</title><rect fill="#000000" fill-opacity="0.00000" height="927.6484" width="8" x="830.3452" y="118.5938"/><line style="stroke:#181818;stroke-width:0.5;stroke-dasharray:5,5;" x1="833.8525" x2="833.8525" y1="118.5938" y2="1046.2422"/></g></g><g class="participant-lifeline" data-entity-uid="part6" data-qualified-name="A" id="part6-lifeline"><g><title>cc-remote-agent</title><rect fill="#000000" fill-opacity="0.00000" height="927.6484" width="8" x="995.6123" y="118.5938"/><line style="stroke:#181818;stroke-width:0.5;stroke-dasharray:5,5;" x1="999.3052" x2="999.3052" y1="118.5938" y2="1046.2422"/></g></g><g class="participant-lifeline" data-entity-uid="part7" data-qualified-name="C" id="part7-lifeline"><g><title>claude -p</title><rect fill="#000000" fill-opacity="0.00000" height="927.6484" width="8" x="1161.1841" y="118.5938"/><line style="stroke:#181818;stroke-width:0.5;stroke-dasharray:5,5;" x1="1165.1421" x2="1165.1421" y1="118.5938" y2="1046.2422"/></g></g><g class="participant participant-head" data-entity-uid="part1" data-qualified-name="User" id="part1-head"><text fill="#000000" font-family="sans-serif" font-size="14" lengthAdjust="spacing" textLength="31.9102" x="5" y="115.292">User</text><ellipse cx="23.9551" cy="50.7969" fill="#E2E2F0" rx="8" ry="8" style="stroke:#181818;stroke-width:0.5;"/><path d="M23.9551,58.7969 L23.9551,85.7969 M10.9551,66.7969 L36.9551,66.7969 M23.9551,85.7969 L10.9551,100.7969 M23.9551,85.7969 L36.9551,100.7969" fill="none" style="stroke:#181818;stroke-width:0.5;"/></g><g class="participant participant-tail" data-entity-uid="part1" data-qualified-name="User" id="part1-tail"><text fill="#000000" font-family="sans-serif" font-size="14" lengthAdjust="spacing" textLength="31.9102" x="5" y="1058.2373">User</text><ellipse cx="23.9551" cy="1070.0391" fill="#E2E2F0" rx="8" ry="8" style="stroke:#181818;stroke-width:0.5;"/><path d="M23.9551,1078.0391 L23.9551,1105.0391 M10.9551,1086.0391 L36.9551,1086.0391 M23.9551,1105.0391 L10.9551,1120.0391 M23.9551,1105.0391 L36.9551,1120.0391" fill="none" style="stroke:#181818;stroke-width:0.5;"/></g><g class="participant participant-head" data-entity-uid="part2" data-qualified-name="F" id="part2-head"><rect fill="#E2E2F0" height="30.2969" rx="2.5" ry="2.5" style="stroke:#181818;stroke-width:0.5;" width="77.1094" x="101.6191" y="87.2969"/><text fill="#000000" font-family="sans-serif" font-size="14" lengthAdjust="spacing" textLength="63.1094" x="108.6191" y="107.292">Frontend</text></g><g class="participant participant-tail" data-entity-uid="part2" data-qualified-name="F" id="part2-tail"><rect fill="#E2E2F0" height="30.2969" rx="2.5" ry="2.5" style="stroke:#181818;stroke-width:0.5;" width="77.1094" x="101.6191" y="1045.2422"/><text fill="#000000" font-family="sans-serif" font-size="14" lengthAdjust="spacing" textLength="63.1094" x="108.6191" y="1065.2373">Frontend</text></g><g class="participant participant-head" data-entity-uid="part3" data-qualified-name="T" id="part3-head"><rect fill="#E2E2F0" height="46.5938" rx="2.5" ry="2.5" style="stroke:#181818;stroke-width:0.5;" width="121.543" x="339.332" y="71"/><text fill="#000000" font-family="sans-serif" font-size="14" lengthAdjust="spacing" textLength="65.0576" x="367.5747" y="90.9951">cc-tunnel</text><text fill="#000000" font-family="sans-serif" font-size="14" lengthAdjust="spacing" textLength="107.543" x="346.332" y="107.292">(SendMessage)</text></g><g class="participant participant-tail" data-entity-uid="part3" data-qualified-name="T" id="part3-tail"><rect fill="#E2E2F0" height="46.5938" rx="2.5" ry="2.5" style="stroke:#181818;stroke-width:0.5;" width="121.543" x="339.332" y="1045.2422"/><text fill="#000000" font-family="sans-serif" font-size="14" lengthAdjust="spacing" textLength="65.0576" x="367.5747" y="1065.2373">cc-tunnel</text><text fill="#000000" font-family="sans-serif" font-size="14" lengthAdjust="spacing" textLength="107.543" x="346.332" y="1081.5342">(SendMessage)</text></g><g class="participant participant-head" data-entity-uid="part4" data-qualified-name="D" id="part4-head"><text fill="#000000" font-family="sans-serif" font-size="14" lengthAdjust="spacing" textLength="80.7529" x="662.0996" y="115.292">PostgreSQL</text><path d="M687.4761,66.2969 C687.4761,56.2969 705.4761,56.2969 705.4761,56.2969 C705.4761,56.2969 723.4761,56.2969 723.4761,66.2969 L723.4761,92.2969 C723.4761,102.2969 705.4761,102.2969 705.4761,102.2969 C705.4761,102.2969 687.4761,102.2969 687.4761,92.2969 L687.4761,66.2969" fill="#E2E2F0" style="stroke:#181818;stroke-width:0.5;"/><path d="M687.4761,66.2969 C687.4761,76.2969 705.4761,76.2969 705.4761,76.2969 C705.4761,76.2969 723.4761,76.2969 723.4761,66.2969" fill="none" style="stroke:#181818;stroke-width:0.5;"/></g><g class="participant participant-tail" data-entity-uid="part4" data-qualified-name="D" id="part4-tail"><text fill="#000000" font-family="sans-serif" font-size="14" lengthAdjust="spacing" textLength="80.7529" x="662.0996" y="1058.2373">PostgreSQL</text><path d="M687.4761,1071.5391 C687.4761,1061.5391 705.4761,1061.5391 705.4761,1061.5391 C705.4761,1061.5391 723.4761,1061.5391 723.4761,1071.5391 L723.4761,1097.5391 C723.4761,1107.5391 705.4761,1107.5391 705.4761,1107.5391 C705.4761,1107.5391 687.4761,1107.5391 687.4761,1097.5391 L687.4761,1071.5391" fill="#E2E2F0" style="stroke:#181818;stroke-width:0.5;"/><path d="M687.4761,1071.5391 C687.4761,1081.5391 705.4761,1081.5391 705.4761,1081.5391 C705.4761,1081.5391 723.4761,1081.5391 723.4761,1071.5391" fill="none" style="stroke:#181818;stroke-width:0.5;"/></g><g class="participant participant-head" data-entity-uid="part5" data-qualified-name="P" id="part5-head"><rect fill="#E2E2F0" height="46.5938" rx="2.5" ry="2.5" style="stroke:#181818;stroke-width:0.5;" width="150.9854" x="758.8525" y="71"/><text fill="#000000" font-family="sans-serif" font-size="14" lengthAdjust="spacing" textLength="127.3262" x="770.6821" y="90.9951">ExecutionProvider</text><text fill="#000000" font-family="sans-serif" font-size="14" lengthAdjust="spacing" textLength="136.9854" x="765.8525" y="107.292">(local / docker_gce)</text></g><g class="participant participant-tail" data-entity-uid="part5" data-qualified-name="P" id="part5-tail"><rect fill="#E2E2F0" height="46.5938" rx="2.5" ry="2.5" style="stroke:#181818;stroke-width:0.5;" width="150.9854" x="758.8525" y="1045.2422"/><text fill="#000000" font-family="sans-serif" font-size="14" lengthAdjust="spacing" textLength="127.3262" x="770.6821" y="1065.2373">ExecutionProvider</text><text fill="#000000" font-family="sans-serif" font-size="14" lengthAdjust="spacing" textLength="136.9854" x="765.8525" y="1081.5342">(local / docker_gce)</text></g><g class="participant participant-head" data-entity-uid="part6" data-qualified-name="A" id="part6-head"><rect fill="#E2E2F0" height="30.2969" rx="2.5" ry="2.5" style="stroke:#181818;stroke-width:0.5;" width="130.6143" x="934.3052" y="87.2969"/><text fill="#000000" font-family="sans-serif" font-size="14" lengthAdjust="spacing" textLength="116.6143" x="941.3052" y="107.292">cc-remote-agent</text></g><g class="participant participant-tail" data-entity-uid="part6" data-qualified-name="A" id="part6-tail"><rect fill="#E2E2F0" height="30.2969" rx="2.5" ry="2.5" style="stroke:#181818;stroke-width:0.5;" width="130.6143" x="934.3052" y="1045.2422"/><text fill="#000000" font-family="sans-serif" font-size="14" lengthAdjust="spacing" textLength="116.6143" x="941.3052" y="1065.2373">cc-remote-agent</text></g><g class="participant participant-head" data-entity-uid="part7" data-qualified-name="C" id="part7-head"><rect fill="#E2E2F0" height="46.5938" rx="2.5" ry="2.5" style="stroke:#181818;stroke-width:0.5;" width="104.084" x="1113.1421" y="71"/><text fill="#000000" font-family="sans-serif" font-size="14" lengthAdjust="spacing" textLength="64.9277" x="1132.7202" y="90.9951">claude -p</text><text fill="#000000" font-family="sans-serif" font-size="14" lengthAdjust="spacing" textLength="90.084" x="1120.1421" y="107.292">(subprocess)</text></g><g class="participant participant-tail" data-entity-uid="part7" data-qualified-name="C" id="part7-tail"><rect fill="#E2E2F0" height="46.5938" rx="2.5" ry="2.5" style="stroke:#181818;stroke-width:0.5;" width="104.084" x="1113.1421" y="1045.2422"/><text fill="#000000" font-family="sans-serif" font-size="14" lengthAdjust="spacing" textLength="64.9277" x="1132.7202" y="1065.2373">claude -p</text><text fill="#000000" font-family="sans-serif" font-size="14" lengthAdjust="spacing" textLength="90.084" x="1120.1421" y="1081.5342">(subprocess)</text></g><g class="message" data-entity-1="part1" data-entity-2="part2" id="msg1"><polygon fill="#181818" points="128.1738,145.7266,138.1738,149.7266,128.1738,153.7266,132.1738,149.7266" style="stroke:#181818;stroke-width:1;"/><line style="stroke:#181818;stroke-width:1;" x1="23.9551" x2="134.1738" y1="149.7266" y2="149.7266"/><text fill="#000000" font-family="sans-serif" font-size="13" lengthAdjust="spacing" textLength="92.2188" x="35.9551" y="144.6606">&#12513;&#12483;&#12475;&#12540;&#12472;&#20837;&#21147;</text></g><g class="message" data-entity-1="part2" data-entity-2="part3" id="msg2"><polygon fill="#181818" points="388.1035,174.8594,398.1035,178.8594,388.1035,182.8594,392.1035,178.8594" style="stroke:#181818;stroke-width:1;"/><line style="stroke:#181818;stroke-width:1;" x1="140.1738" x2="394.1035" y1="178.8594" y2="178.8594"/><text fill="#000000" font-family="sans-serif" font-size="13" lengthAdjust="spacing" textLength="235.9297" x="152.1738" y="173.7935">POST /conversations/{id}/messages</text></g><g class="message" data-entity-1="part3" data-entity-2="part4" id="msg3"><polygon fill="#181818" points="693.4761,203.9922,703.4761,207.9922,693.4761,211.9922,697.4761,207.9922" style="stroke:#181818;stroke-width:1;"/><line style="stroke:#181818;stroke-width:1;" x1="400.1035" x2="699.4761" y1="207.9922" y2="207.9922"/><text fill="#000000" font-family="sans-serif" font-size="13" lengthAdjust="spacing" textLength="269.5405" x="418.0195" y="202.9263">SELECT conversation, messages (history)</text></g><g class="message" data-entity-1="part3" data-entity-2="part4" id="msg4"><polygon fill="#181818" points="693.4761,233.125,703.4761,237.125,693.4761,241.125,697.4761,237.125" style="stroke:#181818;stroke-width:1;"/><line style="stroke:#181818;stroke-width:1;" x1="400.1035" x2="699.4761" y1="237.125" y2="237.125"/><text fill="#000000" font-family="sans-serif" font-size="13" lengthAdjust="spacing" textLength="142.0415" x="481.769" y="232.0591">INSERT user message</text></g><g class="message" data-entity-1="part3" data-entity-2="part4" id="msg5"><polygon fill="#181818" points="693.4761,277.3906,703.4761,281.3906,693.4761,285.3906,697.4761,281.3906" style="stroke:#181818;stroke-width:1;"/><line style="stroke:#181818;stroke-width:1;" x1="400.1035" x2="699.4761" y1="281.3906" y2="281.3906"/><text fill="#000000" font-family="sans-serif" font-size="13" lengthAdjust="spacing" textLength="171.9834" x="466.7981" y="261.1919">INSERT assistant message</text><text fill="#000000" font-family="sans-serif" font-size="13" lengthAdjust="spacing" textLength="134.0752" x="485.7522" y="276.3247">(status='streaming')</text></g><g class="message" data-entity-1="part3" data-entity-2="part4" id="msg6"><polygon fill="#181818" points="693.4761,321.6563,703.4761,325.6563,693.4761,329.6563,697.4761,325.6563" style="stroke:#181818;stroke-width:1;"/><line style="stroke:#181818;stroke-width:1;" x1="400.1035" x2="699.4761" y1="325.6563" y2="325.6563"/><text fill="#000000" font-family="sans-serif" font-size="13" lengthAdjust="spacing" textLength="165.293" x="470.1433" y="305.4575">INSERT agent_dispatches</text><text fill="#000000" font-family="sans-serif" font-size="13" lengthAdjust="spacing" textLength="120.9736" x="492.303" y="320.5903">(status='pending')</text></g><path d="M405,338.6563 L405,393.6563 L578,393.6563 L578,348.6563 L568,338.6563 L405,338.6563" fill="#FEFFDD" style="stroke:#181818;stroke-width:0.5;"/><path d="M568,338.6563 L568,348.6563 L578,348.6563 L568,338.6563" fill="#FEFFDD" style="stroke:#181818;stroke-width:0.5;"/><text fill="#000000" font-family="sans-serif" font-size="13" lengthAdjust="spacing" textLength="86.6328" x="411" y="355.7231">shadow write</text><text fill="#000000" font-family="sans-serif" font-size="13" lengthAdjust="spacing" textLength="130.311" x="411" y="370.856">&#22833;&#25943;&#12399; warn log &#12398;&#12415;</text><text fill="#000000" font-family="sans-serif" font-size="13" lengthAdjust="spacing" textLength="152.8643" x="411" y="385.9888">reader &#12399;&#12414;&#12384;&#23384;&#22312;&#12375;&#12394;&#12356;</text><g class="message" data-entity-1="part3" data-entity-2="part2" id="msg7"><polygon fill="#181818" points="151.1738,416.1875,141.1738,420.1875,151.1738,424.1875,147.1738,420.1875" style="stroke:#181818;stroke-width:1;"/><line style="stroke:#181818;stroke-width:1;" x1="145.1738" x2="399.1035" y1="420.1875" y2="420.1875"/><text fill="#000000" font-family="sans-serif" font-size="13" lengthAdjust="spacing" textLength="187.1924" x="176.5425" y="415.1216">202 Accepted {message_id}</text></g><rect fill="#EEEEEE" height="3" style="stroke:#EEEEEE;stroke-width:1;" width="1222.2261" x="0" y="448.7539"/><line style="stroke:#000000;stroke-width:1;" x1="0" x2="1222.2261" y1="448.7539" y2="448.7539"/><line style="stroke:#000000;stroke-width:1;" x1="0" x2="1222.2261" y1="451.7539" y2="451.7539"/><rect fill="#EEEEEE" height="23.1328" style="stroke:#000000;stroke-width:2;" width="200.9385" x="510.6438" y="438.1875"/><text fill="#000000" font-family="sans-serif" font-size="13" font-weight="bold" lengthAdjust="spacing" textLength="182.4126" x="516.6438" y="454.2544">goroutine &#20869; (&#26082;&#23384;&#32076;&#36335;, &#20027;)</text><g class="message" data-entity-1="part3" data-entity-2="part5" id="msg8"><polygon fill="#181818" points="822.3452,488.4531,832.3452,492.4531,822.3452,496.4531,826.3452,492.4531" style="stroke:#181818;stroke-width:1;"/><line style="stroke:#181818;stroke-width:1;" x1="400.1035" x2="828.3452" y1="492.4531" y2="492.4531"/><text fill="#000000" font-family="sans-serif" font-size="13" lengthAdjust="spacing" textLength="174.0273" x="530.2107" y="487.3872">Execute(ctx, req, onEvent)</text></g><g class="message" data-entity-1="part5" data-entity-2="part6" id="msg9"><polygon fill="#181818" points="987.6123,517.5859,997.6123,521.5859,987.6123,525.5859,991.6123,521.5859" style="stroke:#181818;stroke-width:1;"/><line style="stroke:#181818;stroke-width:1;" x1="834.3452" x2="993.6123" y1="521.5859" y2="521.5859"/><text fill="#000000" font-family="sans-serif" font-size="13" lengthAdjust="spacing" textLength="141.2671" x="846.3452" y="516.52">POST /execute (JSON)</text></g><g class="message" data-entity-1="part6" data-entity-2="part7" id="msg10"><polygon fill="#181818" points="1153.1841,546.7188,1163.1841,550.7188,1153.1841,554.7188,1157.1841,550.7188" style="stroke:#181818;stroke-width:1;"/><line style="stroke:#181818;stroke-width:1;" x1="999.6123" x2="1159.1841" y1="550.7188" y2="550.7188"/><text fill="#000000" font-family="sans-serif" font-size="13" lengthAdjust="spacing" textLength="141.5718" x="1011.6123" y="545.6528">fork/exec claude -p ...</text></g><g class="message" data-entity-1="part7" data-entity-2="part6" id="msg11"><polygon fill="#181818" points="1010.6123,575.8516,1000.6123,579.8516,1010.6123,583.8516,1006.6123,579.8516" style="stroke:#181818;stroke-width:1;"/><line style="stroke:#181818;stroke-width:1;stroke-dasharray:2,2;" x1="1004.6123" x2="1164.1841" y1="579.8516" y2="579.8516"/><text fill="#000000" font-family="sans-serif" font-size="13" lengthAdjust="spacing" textLength="93.0439" x="1035.8762" y="574.7856">ndjson stream</text></g><g class="message" data-entity-1="part6" data-entity-2="part5" id="msg12"><polygon fill="#181818" points="845.3452,604.9844,835.3452,608.9844,845.3452,612.9844,841.3452,608.9844" style="stroke:#181818;stroke-width:1;"/><line style="stroke:#181818;stroke-width:1;stroke-dasharray:2,2;" x1="839.3452" x2="998.6123" y1="608.9844" y2="608.9844"/><text fill="#000000" font-family="sans-serif" font-size="13" lengthAdjust="spacing" textLength="73.2012" x="880.3782" y="603.9185">ndjson &#36578;&#36865;</text></g><path d="M329.332,623.9844 L405.9561,623.9844 L405.9561,631.1172 L395.9561,641.1172 L329.332,641.1172 L329.332,623.9844" fill="#EEEEEE" style="stroke:#000000;stroke-width:1.5;"/><rect fill="none" height="90.5313" style="stroke:#000000;stroke-width:1.5;" width="590.5059" x="329.332" y="623.9844"/><text fill="#000000" font-family="sans-serif" font-size="13" font-weight="bold" lengthAdjust="spacing" textLength="31.624" x="344.332" y="637.0513">loop</text><text fill="#000000" font-family="sans-serif" font-size="11" font-weight="bold" lengthAdjust="spacing" textLength="55.5693" x="420.9561" y="636.1948">[2 &#31186;&#38291;&#38548;]</text><g class="message" data-entity-1="part5" data-entity-2="part3" id="msg13"><polygon fill="#181818" points="411.1035,658.25,401.1035,662.25,411.1035,666.25,407.1035,662.25" style="stroke:#181818;stroke-width:1;"/><line style="stroke:#181818;stroke-width:1;stroke-dasharray:2,2;" x1="405.1035" x2="833.3452" y1="662.25" y2="662.25"/><text fill="#000000" font-family="sans-serif" font-size="13" lengthAdjust="spacing" textLength="119.4121" x="557.5183" y="657.1841">onEvent(...) &#12391;&#38598;&#32004;</text></g><g class="message" data-entity-1="part3" data-entity-2="part4" id="msg14"><polygon fill="#181818" points="693.4761,702.5156,703.4761,706.5156,693.4761,710.5156,697.4761,706.5156" style="stroke:#181818;stroke-width:1;"/><line style="stroke:#181818;stroke-width:1;" x1="400.1035" x2="699.4761" y1="706.5156" y2="706.5156"/><text fill="#000000" font-family="sans-serif" font-size="13" lengthAdjust="spacing" textLength="121.7417" x="491.9189" y="686.3169">UPDATE messages</text><text fill="#000000" font-family="sans-serif" font-size="13" lengthAdjust="spacing" textLength="234.5586" x="435.5105" y="701.4497">SET message_data (content_blocks)</text></g><g class="message" data-entity-1="part7" data-entity-2="part6" id="msg15"><polygon fill="#181818" points="1010.6123,738.6484,1000.6123,742.6484,1010.6123,746.6484,1006.6123,742.6484" style="stroke:#181818;stroke-width:1;"/><line style="stroke:#181818;stroke-width:1;stroke-dasharray:2,2;" x1="1004.6123" x2="1164.1841" y1="742.6484" y2="742.6484"/><text fill="#000000" font-family="sans-serif" font-size="13" lengthAdjust="spacing" textLength="24.4004" x="1070.198" y="737.5825">exit</text></g><g class="message" data-entity-1="part6" data-entity-2="part5" id="msg16"><polygon fill="#181818" points="845.3452,767.7813,835.3452,771.7813,845.3452,775.7813,841.3452,771.7813" style="stroke:#181818;stroke-width:1;"/><line style="stroke:#181818;stroke-width:1;stroke-dasharray:2,2;" x1="839.3452" x2="998.6123" y1="771.7813" y2="771.7813"/><text fill="#000000" font-family="sans-serif" font-size="13" lengthAdjust="spacing" textLength="75.9751" x="878.9912" y="766.7153">stream &#32066;&#20102;</text></g><g class="message" data-entity-1="part5" data-entity-2="part3" id="msg17"><polygon fill="#181818" points="411.1035,796.9141,401.1035,800.9141,411.1035,804.9141,407.1035,800.9141" style="stroke:#181818;stroke-width:1;"/><line style="stroke:#181818;stroke-width:1;stroke-dasharray:2,2;" x1="405.1035" x2="833.3452" y1="800.9141" y2="800.9141"/><text fill="#000000" font-family="sans-serif" font-size="13" lengthAdjust="spacing" textLength="90.3145" x="572.0671" y="795.8481">newSessionID</text></g><g class="message" data-entity-1="part3" data-entity-2="part4" id="msg18"><polygon fill="#181818" points="693.4761,841.1797,703.4761,845.1797,693.4761,849.1797,697.4761,845.1797" style="stroke:#181818;stroke-width:1;"/><line style="stroke:#181818;stroke-width:1;" x1="400.1035" x2="699.4761" y1="845.1797" y2="845.1797"/><text fill="#000000" font-family="sans-serif" font-size="13" lengthAdjust="spacing" textLength="264.7544" x="420.4126" y="824.981">UPDATE messages (final content_blocks,</text><text fill="#000000" font-family="sans-serif" font-size="13" lengthAdjust="spacing" textLength="157.2188" x="478.3127" y="840.1138">session_id, cost_usd, ...)</text></g><g class="message" data-entity-1="part3" data-entity-2="part4" id="msg19"><polygon fill="#181818" points="693.4761,870.3125,703.4761,874.3125,693.4761,878.3125,697.4761,874.3125" style="stroke:#181818;stroke-width:1;"/><line style="stroke:#181818;stroke-width:1;" x1="400.1035" x2="699.4761" y1="874.3125" y2="874.3125"/><text fill="#000000" font-family="sans-serif" font-size="13" lengthAdjust="spacing" textLength="281.3726" x="412.1035" y="869.2466">UPDATE messages SET status='completed'</text></g><g class="message" data-entity-1="part3" data-entity-2="part4" id="msg20"><polygon fill="#181818" points="693.4761,899.4453,703.4761,903.4453,693.4761,907.4453,697.4761,903.4453" style="stroke:#181818;stroke-width:1;"/><line style="stroke:#181818;stroke-width:1;" x1="400.1035" x2="699.4761" y1="903.4453" y2="903.4453"/><text fill="#000000" font-family="sans-serif" font-size="13" lengthAdjust="spacing" textLength="235.2378" x="435.1709" y="898.3794">UPDATE conversations (title, status)</text></g><g class="message" data-entity-1="part3" data-entity-2="part4" id="msg21"><polygon fill="#181818" points="693.4761,943.7109,703.4761,947.7109,693.4761,951.7109,697.4761,947.7109" style="stroke:#181818;stroke-width:1;"/><line style="stroke:#181818;stroke-width:1;" x1="400.1035" x2="699.4761" y1="947.7109" y2="947.7109"/><text fill="#000000" font-family="sans-serif" font-size="13" lengthAdjust="spacing" textLength="170.7075" x="467.436" y="927.5122">UPDATE agent_dispatches</text><text fill="#000000" font-family="sans-serif" font-size="13" lengthAdjust="spacing" textLength="153.791" x="475.8943" y="942.645">SET status='consumed'</text></g><path d="M542,960.7109 L542,1030.7109 L867,1030.7109 L867,970.7109 L857,960.7109 L542,960.7109" fill="#FEFFDD" style="stroke:#181818;stroke-width:0.5;"/><path d="M857,960.7109 L857,970.7109 L867,970.7109 L857,960.7109" fill="#FEFFDD" style="stroke:#181818;stroke-width:0.5;"/><text fill="#000000" font-family="sans-serif" font-size="13" lengthAdjust="spacing" textLength="282.5786" x="548" y="977.7778">agent_outputs &#12486;&#12540;&#12502;&#12523;&#12408;&#12398;&#26360;&#12365;&#36796;&#12415;&#12399;&#28961;&#12356;&#12290;</text><text fill="#000000" font-family="sans-serif" font-size="13" lengthAdjust="spacing" textLength="295.3882" x="548" y="992.9106">cc-hook-bridge &#12399; image &#12395;&#21516;&#26801;&#12373;&#12428;&#12390;&#12356;&#12427;&#12364;&#12289;</text><text fill="#000000" font-family="sans-serif" font-size="13" lengthAdjust="spacing" textLength="304.6685" x="548" y="1008.0435">&#12414;&#12384; PTY &#24120;&#39376; claude &#12364; wire &#12373;&#12428;&#12390;&#12356;&#12394;&#12356;&#12398;&#12391;&#12289;</text><text fill="#000000" font-family="sans-serif" font-size="13" lengthAdjust="spacing" textLength="296.5181" x="548" y="1023.1763">/tmp/cc-hook-bridge-state.json &#12418;&#23384;&#22312;&#12375;&#12394;&#12356;&#12290;</text><?plantuml-src TLLjQnj74Fw-ls9mFqW2dPIaQGegBWXBXfGqKItbGy4WLdShQUlJxkLsJxO91PzaczAw9RHvAN6XZVlYqb27G4r57TB_qelyyYywUoV9bjp28KwtCyyyC_FCR0ggRUh8LMlLvvg1rwQAWMn2iRG4rwvSks5TUSUwUWFInmU7Pq-_WglMzKmEQcsk01_TPg0qHJyfI0ewb0kWohXNbk2jTwyNWBQOq7M7AuzgkyqKj9XMO69f9g0HQ12iotpm6NNUCtW8mzQuqboq8C_Mc1qWkd0-KL80OhGn7dTTS7pUPGa1gXJQKw6XmvJ2W0ZXyYQprssN6QuC74vRFkqOobnWOCsbeAwx3atATRiPkA0bFWvTJo4vxcDMRUeP82MHMfUpLUOhiAa0nHZCATfaq5W7XpLfuEev-6VZeS5o0nz98LF3Ix3LXB4Z4KX83RI9h3G4YlbMbolUS165jMcNIpz7YEOQFzYsfGCXcFiVnLDngo1fLNgcHPCElPs5uS7tfpzk7Gy-on2YLhZmg4bViNi14pRxCAbJqUKj0JR6O3uXrDRIXxl8ZQ2rvZRtJ4td5drfIkRCcSukJfzDk2wBT1LjHi2PsBP67Affm-XfhYALRlci-j6j-AWq3LEEsumzgVYoontc8vmhRUf27ejdhp2_th97g9LB37pMaPfPSR5Ya-ACYKi3Xu7b8QeA6fulRQIPe2qGOZ86wtrOB43KVnRr-r7lAEg_Ydg3uTRFmyztoQ8vhHMWSgTQWxmj1UfLKKDNvUzpvzFyI7QAa9enBHMWMhvLNgZ1HTliM9qAqZWzMElrpCJ-vkrgUQaM2sCYufcpIoetsU3e1Me-fJIEJmSd9dK9SbP25xmyR5ZYWzfauFDMMvlHnLGlwcnP37zwUVpeIHI-W5Ng2t1b2wBm80h_NXPcR94pdaNXwoZyOVZxjyFlVer2jFuj2ZSJDbXPb2aKRPjvcZbmVvH17Oj7oFmyjAGliV-2mN1x2rVDapt4EJdSEVtpHHRU38uoC3-VG5KAa8Y5fMszbiNPl9V5UIjtCSiCgHYJuhXJu-MH_g1wvtQ65CtXGW6Qqb-9ps0Y3CZbScG1hCHxj6oIeXgt9Exey-dHtjb6I8WhfGVNu6J_wxF7tvmzVKW0Ah4fbcz4A8sm6QpD_jdkziaVcsWnRixTIgbOAqyKiIogvThuNzrC3QJjUEfqlO63iA8o19j5pZdYYjJdr1AgS7BOU_FNDfdGm0LKHKmKtytIkJPdOaEwoN4NmdIyxB80N1UnCxOfYyTArmE5RoQf_mKpUOprPSkEvp9iU6hMV6g681tllUp8xnBsPGLF1n4gw9WOYOgbkKnAMEh43MNb1NZXHFrjCzFznr7_UHGEKBx7k_ZxvUdhLwXZbE_9vZFKQxJHGrVSAMqfLwo6pvqMC-86tg7ns_FXWvtZlPTH-2ZgxKJXByQdzqKKxaIe2O1a2A1I-nY6Wy7P_eEnnj0YkLUcFECPYKTfF_7FwuwNdmvlnVThBjPUrElD39WXZCemjmiZ_m80?></g></svg>