<?plantuml 1.2026.2?><svg xmlns="http://www.w3.org/2000/svg" xmlns:xlink="http://www.w3.org/1999/xlink" contentStyleType="text/css" data-diagram-type="SEQUENCE" height="2121px" preserveAspectRatio="none" style="width:2363px;height:2121px;background:#FFFFFF;" version="1.1" viewBox="0 0 2363 2121" width="2363px" zoomAndPan="magnify"><title>Credential Session Start Sequence (cc-tunnel)</title><defs/><g><text fill="#000000" font-family="sans-serif" font-size="14" font-weight="bold" lengthAdjust="spacing" textLength="364.752" x="995.3888" y="27.9951">Credential Session Start Sequence (cc-tunnel)</text><rect fill="none" height="176.9297" style="stroke:#000000;stroke-width:1.5;" width="624.9434" x="1604.8658" y="609.1484"/><g class="participant-lifeline" data-entity-uid="part1" data-qualified-name="user" id="part1-lifeline"><g><title>User</title><rect fill="#000000" fill-opacity="0.00000" height="1906.1641" width="8" x="42.9551" y="120.8906"/><line style="stroke:#181818;stroke-width:0.5;stroke-dasharray:5,5;" x1="46" x2="46" y1="120.8906" y2="2027.0547"/></g></g><g class="participant-lifeline" data-entity-uid="part2" data-qualified-name="fe" id="part2-lifeline"><g><title>Frontend</title><rect fill="#000000" fill-opacity="0.00000" height="1906.1641" width="8" x="263.5802" y="120.8906"/><line style="stroke:#181818;stroke-width:0.5;stroke-dasharray:5,5;" x1="266.9947" x2="266.9947" y1="120.8906" y2="2027.0547"/></g></g><g class="participant-lifeline" data-entity-uid="part3" data-qualified-name="handler" id="part3-lifeline"><g><title>cc-tunnel API</title><rect fill="#000000" fill-opacity="0.00000" height="1906.1641" width="8" x="591.5694" y="120.8906"/><line style="stroke:#181818;stroke-width:0.5;stroke-dasharray:5,5;" x1="594.7413" x2="594.7413" y1="120.8906" y2="2027.0547"/></g></g><g class="participant-lifeline" data-entity-uid="part4" data-qualified-name="credsvc" id="part4-lifeline"><g><title>CredentialService</title><rect fill="#000000" fill-opacity="0.00000" height="1906.1641" width="8" x="832.0245" y="120.8906"/><line style="stroke:#181818;stroke-width:0.5;stroke-dasharray:5,5;" x1="835.9713" x2="835.9713" y1="120.8906" y2="2027.0547"/></g></g><g class="participant-lifeline" data-entity-uid="part5" data-qualified-name="db" id="part5-lifeline"><g><title>PostgreSQL</title><rect fill="#000000" fill-opacity="0.00000" height="1906.1641" width="8" x="1221.6851" y="120.8906"/><line style="stroke:#181818;stroke-width:0.5;stroke-dasharray:5,5;" x1="1225.3087" x2="1225.3087" y1="120.8906" y2="2027.0547"/></g></g><g class="participant-lifeline" data-entity-uid="part6" data-qualified-name="provider" id="part6-lifeline"><g><title>ExecutionProvider</title><rect fill="#000000" fill-opacity="0.00000" height="1906.1641" width="8" x="1347.6422" y="120.8906"/><line style="stroke:#181818;stroke-width:0.5;stroke-dasharray:5,5;" x1="1351.0616" x2="1351.0616" y1="120.8906" y2="2027.0547"/></g></g><g class="participant-lifeline" data-entity-uid="part7" data-qualified-name="sm" id="part7-lifeline"><g><title>SessionManager</title><rect fill="#000000" fill-opacity="0.00000" height="1906.1641" width="8" x="1675.2569" y="120.8906"/><line style="stroke:#181818;stroke-width:0.5;stroke-dasharray:5,5;" x1="1678.8658" x2="1678.8658" y1="120.8906" y2="2027.0547"/></g></g><g class="participant-lifeline" data-entity-uid="part8" data-qualified-name="container" id="part8-lifeline"><g><title>Session Container</title><rect fill="#000000" fill-opacity="0.00000" height="1906.1641" width="8" x="2145.0401" y="120.8906"/><line style="stroke:#181818;stroke-width:0.5;stroke-dasharray:5,5;" x1="2148.2711" x2="2148.2711" y1="120.8906" y2="2027.0547"/></g></g><g class="participant participant-head" data-entity-uid="part1" data-qualified-name="user" id="part1-head"><text fill="#000000" font-family="sans-serif" font-size="14" lengthAdjust="spacing" textLength="31.9102" x="28" y="117.5889">User</text><ellipse cx="46.9551" cy="53.0938" fill="#E2E2F0" rx="8" ry="8" style="stroke:#181818;stroke-width:0.5;"/><path d="M46.9551,61.0938 L46.9551,88.0938 M33.9551,69.0938 L59.9551,69.0938 M46.9551,88.0938 L33.9551,103.0938 M46.9551,88.0938 L59.9551,103.0938" fill="none" style="stroke:#181818;stroke-width:0.5;"/></g><g class="participant participant-tail" data-entity-uid="part1" data-qualified-name="user" id="part1-tail"><text fill="#000000" font-family="sans-serif" font-size="14" lengthAdjust="spacing" textLength="31.9102" x="28" y="2039.0498">User</text><ellipse cx="46.9551" cy="2050.8516" fill="#E2E2F0" rx="8" ry="8" style="stroke:#181818;stroke-width:0.5;"/><path d="M46.9551,2058.8516 L46.9551,2085.8516 M33.9551,2066.8516 L59.9551,2066.8516 M46.9551,2085.8516 L33.9551,2100.8516 M46.9551,2085.8516 L59.9551,2100.8516" fill="none" style="stroke:#181818;stroke-width:0.5;"/></g><g class="participant participant-head" data-entity-uid="part2" data-qualified-name="fe" id="part2-head"><rect fill="#E2E2F0" height="46.5938" rx="2.5" ry="2.5" style="stroke:#181818;stroke-width:0.5;" width="91.1709" x="221.9947" y="73.2969"/><text fill="#000000" font-family="sans-serif" font-size="14" lengthAdjust="spacing" textLength="63.1094" x="236.0255" y="93.292">Frontend</text><text fill="#000000" font-family="sans-serif" font-size="14" lengthAdjust="spacing" textLength="77.1709" x="228.9947" y="109.5889">(ChatView)</text></g><g class="participant participant-tail" data-entity-uid="part2" data-qualified-name="fe" id="part2-tail"><rect fill="#E2E2F0" height="46.5938" rx="2.5" ry="2.5" style="stroke:#181818;stroke-width:0.5;" width="91.1709" x="221.9947" y="2026.0547"/><text fill="#000000" font-family="sans-serif" font-size="14" lengthAdjust="spacing" textLength="63.1094" x="236.0255" y="2046.0498">Frontend</text><text fill="#000000" font-family="sans-serif" font-size="14" lengthAdjust="spacing" textLength="77.1709" x="228.9947" y="2062.3467">(ChatView)</text></g><g class="participant participant-head" data-entity-uid="part3" data-qualified-name="handler" id="part3-head"><rect fill="#E2E2F0" height="46.5938" rx="2.5" ry="2.5" style="stroke:#181818;stroke-width:0.5;" width="105.6563" x="542.7413" y="73.2969"/><text fill="#000000" font-family="sans-serif" font-size="14" lengthAdjust="spacing" textLength="91.6563" x="549.7413" y="93.292">cc-tunnel API</text><text fill="#000000" font-family="sans-serif" font-size="14" lengthAdjust="spacing" textLength="55.125" x="568.0069" y="109.5889">Handler</text></g><g class="participant participant-tail" data-entity-uid="part3" data-qualified-name="handler" id="part3-tail"><rect fill="#E2E2F0" height="46.5938" rx="2.5" ry="2.5" style="stroke:#181818;stroke-width:0.5;" width="105.6563" x="542.7413" y="2026.0547"/><text fill="#000000" font-family="sans-serif" font-size="14" lengthAdjust="spacing" textLength="91.6563" x="549.7413" y="2046.0498">cc-tunnel API</text><text fill="#000000" font-family="sans-serif" font-size="14" lengthAdjust="spacing" textLength="55.125" x="568.0069" y="2062.3467">Handler</text></g><g class="participant participant-head" data-entity-uid="part4" data-qualified-name="credsvc" id="part4-head"><rect fill="#E2E2F0" height="30.2969" rx="2.5" ry="2.5" style="stroke:#181818;stroke-width:0.5;" width="138.1064" x="766.9713" y="89.5938"/><text fill="#000000" font-family="sans-serif" font-size="14" lengthAdjust="spacing" textLength="124.1064" x="773.9713" y="109.5889">CredentialService</text></g><g class="participant participant-tail" data-entity-uid="part4" data-qualified-name="credsvc" id="part4-tail"><rect fill="#E2E2F0" height="30.2969" rx="2.5" ry="2.5" style="stroke:#181818;stroke-width:0.5;" width="138.1064" x="766.9713" y="2026.0547"/><text fill="#000000" font-family="sans-serif" font-size="14" lengthAdjust="spacing" textLength="124.1064" x="773.9713" y="2046.0498">CredentialService</text></g><g class="participant participant-head" data-entity-uid="part5" data-qualified-name="db" id="part5-head"><text fill="#000000" font-family="sans-serif" font-size="14" lengthAdjust="spacing" textLength="80.7529" x="1182.3087" y="101.292">PostgreSQL</text><text fill="#000000" font-family="sans-serif" font-size="14" lengthAdjust="spacing" textLength="77.5811" x="1183.8946" y="117.5889">credentials</text><path d="M1207.6851,52.2969 C1207.6851,42.2969 1225.6851,42.2969 1225.6851,42.2969 C1225.6851,42.2969 1243.6851,42.2969 1243.6851,52.2969 L1243.6851,78.2969 C1243.6851,88.2969 1225.6851,88.2969 1225.6851,88.2969 C1225.6851,88.2969 1207.6851,88.2969 1207.6851,78.2969 L1207.6851,52.2969" fill="#E2E2F0" style="stroke:#181818;stroke-width:0.5;"/><path d="M1207.6851,52.2969 C1207.6851,62.2969 1225.6851,62.2969 1225.6851,62.2969 C1225.6851,62.2969 1243.6851,62.2969 1243.6851,52.2969" fill="none" style="stroke:#181818;stroke-width:0.5;"/></g><g class="participant participant-tail" data-entity-uid="part5" data-qualified-name="db" id="part5-tail"><text fill="#000000" font-family="sans-serif" font-size="14" lengthAdjust="spacing" textLength="80.7529" x="1182.3087" y="2039.0498">PostgreSQL</text><text fill="#000000" font-family="sans-serif" font-size="14" lengthAdjust="spacing" textLength="77.5811" x="1183.8946" y="2055.3467">credentials</text><path d="M1207.6851,2068.6484 C1207.6851,2058.6484 1225.6851,2058.6484 1225.6851,2058.6484 C1225.6851,2058.6484 1243.6851,2058.6484 1243.6851,2068.6484 L1243.6851,2094.6484 C1243.6851,2104.6484 1225.6851,2104.6484 1225.6851,2104.6484 C1225.6851,2104.6484 1207.6851,2104.6484 1207.6851,2094.6484 L1207.6851,2068.6484" fill="#E2E2F0" style="stroke:#181818;stroke-width:0.5;"/><path d="M1207.6851,2068.6484 C1207.6851,2078.6484 1225.6851,2078.6484 1225.6851,2078.6484 C1225.6851,2078.6484 1243.6851,2078.6484 1243.6851,2068.6484" fill="none" style="stroke:#181818;stroke-width:0.5;"/></g><g class="participant participant-head" data-entity-uid="part6" data-qualified-name="provider" id="part6-head"><rect fill="#E2E2F0" height="46.5938" rx="2.5" ry="2.5" style="stroke:#181818;stroke-width:0.5;" width="145.1611" x="1279.0616" y="73.2969"/><text fill="#000000" font-family="sans-serif" font-size="14" lengthAdjust="spacing" textLength="127.3262" x="1287.9791" y="93.292">ExecutionProvider</text><text fill="#000000" font-family="sans-serif" font-size="14" lengthAdjust="spacing" textLength="131.1611" x="1286.0616" y="109.5889">(Local/DockerGCE)</text></g><g class="participant participant-tail" data-entity-uid="part6" data-qualified-name="provider" id="part6-tail"><rect fill="#E2E2F0" height="46.5938" rx="2.5" ry="2.5" style="stroke:#181818;stroke-width:0.5;" width="145.1611" x="1279.0616" y="2026.0547"/><text fill="#000000" font-family="sans-serif" font-size="14" lengthAdjust="spacing" textLength="127.3262" x="1287.9791" y="2046.0498">ExecutionProvider</text><text fill="#000000" font-family="sans-serif" font-size="14" lengthAdjust="spacing" textLength="131.1611" x="1286.0616" y="2062.3467">(Local/DockerGCE)</text></g><g class="participant participant-head" data-entity-uid="part7" data-qualified-name="sm" id="part7-head"><rect fill="#E2E2F0" height="30.2969" rx="2.5" ry="2.5" style="stroke:#181818;stroke-width:0.5;" width="128.7822" x="1614.8658" y="89.5938"/><text fill="#000000" font-family="sans-serif" font-size="14" lengthAdjust="spacing" textLength="114.7822" x="1621.8658" y="109.5889">SessionManager</text></g><g class="participant participant-tail" data-entity-uid="part7" data-qualified-name="sm" id="part7-tail"><rect fill="#E2E2F0" height="30.2969" rx="2.5" ry="2.5" style="stroke:#181818;stroke-width:0.5;" width="128.7822" x="1614.8658" y="2026.0547"/><text fill="#000000" font-family="sans-serif" font-size="14" lengthAdjust="spacing" textLength="114.7822" x="1621.8658" y="2046.0498">SessionManager</text></g><g class="participant participant-head" data-entity-uid="part8" data-qualified-name="container" id="part8-head"><rect fill="#E2E2F0" height="46.5938" rx="2.5" ry="2.5" style="stroke:#181818;stroke-width:0.5;" width="141.5381" x="2078.2711" y="73.2969"/><text fill="#000000" font-family="sans-serif" font-size="14" lengthAdjust="spacing" textLength="126.2803" x="2085.9" y="93.292">Session Container</text><text fill="#000000" font-family="sans-serif" font-size="14" lengthAdjust="spacing" textLength="127.5381" x="2085.2711" y="109.5889">(cc-remote-agent)</text></g><g class="participant participant-tail" data-entity-uid="part8" data-qualified-name="container" id="part8-tail"><rect fill="#E2E2F0" height="46.5938" rx="2.5" ry="2.5" style="stroke:#181818;stroke-width:0.5;" width="141.5381" x="2078.2711" y="2026.0547"/><text fill="#000000" font-family="sans-serif" font-size="14" lengthAdjust="spacing" textLength="126.2803" x="2085.9" y="2046.0498">Session Container</text><text fill="#000000" font-family="sans-serif" font-size="14" lengthAdjust="spacing" textLength="127.5381" x="2085.2711" y="2062.3467">(cc-remote-agent)</text></g><path d="M5,135.8906 L5,190.8906 L2191,190.8906 L2191,145.8906 L2181,135.8906 L5,135.8906" fill="#FEFFDD" style="stroke:#181818;stroke-width:0.5;"/><path d="M2181,135.8906 L2181,145.8906 L2191,145.8906 L2181,135.8906" fill="#FEFFDD" style="stroke:#181818;stroke-width:0.5;"/><text fill="#000000" font-family="sans-serif" font-size="13" lengthAdjust="spacing" textLength="30.3799" x="897.8508" y="152.9575">&#21069;&#25552;:</text><text fill="#000000" font-family="sans-serif" font-size="13" lengthAdjust="spacing" textLength="213.5543" x="897.8508" y="168.0903">- User &#12399; app-auth &#12391;&#12525;&#12464;&#12452;&#12531;&#28168;&#12415;</text><text fill="#000000" font-family="sans-serif" font-size="13" lengthAdjust="spacing" textLength="392.1075" x="897.8508" y="183.2231">- credentials &#12399; cc-login &#32076;&#30001;&#12391; DB &#12395;&#30331;&#37682;&#28168;&#12415;&#65288;&#12414;&#12383;&#12399;&#26410;&#30331;&#37682;&#65289;</text><rect fill="#EEEEEE" height="3" style="stroke:#EEEEEE;stroke-width:1;" width="2356.5295" x="0" y="216.8555"/><line style="stroke:#000000;stroke-width:1;" x1="0" x2="2356.5295" y1="216.8555" y2="216.8555"/><line style="stroke:#000000;stroke-width:1;" x1="0" x2="2356.5295" y1="219.8555" y2="219.8555"/><rect fill="#EEEEEE" height="23.1328" style="stroke:#000000;stroke-width:2;" width="267.1637" x="1044.6829" y="206.2891"/><text fill="#000000" font-family="sans-serif" font-size="13" font-weight="bold" lengthAdjust="spacing" textLength="248.6378" x="1050.6829" y="222.356">Case 1: credentials &#12364;&#30331;&#37682;&#28168;&#12415;&#12539;&#26377;&#21177;</text><g class="message" data-entity-1="part1" data-entity-2="part2" id="msg1"><polygon fill="#181818" points="255.5802,256.5547,265.5802,260.5547,255.5802,264.5547,259.5802,260.5547" style="stroke:#181818;stroke-width:1;"/><line style="stroke:#181818;stroke-width:1;" x1="46.9551" x2="261.5802" y1="260.5547" y2="260.5547"/><text fill="#000000" font-family="sans-serif" font-size="13" lengthAdjust="spacing" textLength="91.0001" x="53.9551" y="255.4888">&#12513;&#12483;&#12475;&#12540;&#12472;&#36865;&#20449;</text></g><g class="message" data-entity-1="part2" data-entity-2="part3" id="msg2"><polygon fill="#181818" points="583.5694,300.8203,593.5694,304.8203,583.5694,308.8203,587.5694,304.8203" style="stroke:#181818;stroke-width:1;"/><line style="stroke:#181818;stroke-width:1;" x1="267.5802" x2="589.5694" y1="304.8203" y2="304.8203"/><text fill="#000000" font-family="sans-serif" font-size="13" lengthAdjust="spacing" textLength="235.9297" x="274.5802" y="284.6216">POST /conversations/{id}/messages</text><text fill="#000000" font-family="sans-serif" font-size="13" lengthAdjust="spacing" textLength="94.6626" x="274.5802" y="299.7544">(Bearer token)</text></g><g class="message" data-entity-1="part3" data-entity-2="part3" id="msg3"><line style="stroke:#181818;stroke-width:1;" x1="595.5694" x2="637.5694" y1="333.9531" y2="333.9531"/><line style="stroke:#181818;stroke-width:1;" x1="637.5694" x2="637.5694" y1="333.9531" y2="346.9531"/><line style="stroke:#181818;stroke-width:1;" x1="596.5694" x2="637.5694" y1="346.9531" y2="346.9531"/><polygon fill="#181818" points="606.5694,342.9531,596.5694,346.9531,606.5694,350.9531,602.5694,346.9531" style="stroke:#181818;stroke-width:1;"/><text fill="#000000" font-family="sans-serif" font-size="13" lengthAdjust="spacing" textLength="151.3282" x="602.5694" y="328.8872">token &#8594; username &#35299;&#27770;</text></g><g class="message" data-entity-1="part3" data-entity-2="part4" id="msg4"><polygon fill="#181818" points="824.0245,372.0859,834.0245,376.0859,824.0245,380.0859,828.0245,376.0859" style="stroke:#181818;stroke-width:1;"/><line style="stroke:#181818;stroke-width:1;" x1="595.5694" x2="830.0245" y1="376.0859" y2="376.0859"/><text fill="#000000" font-family="sans-serif" font-size="13" lengthAdjust="spacing" textLength="216.4551" x="602.5694" y="371.02">FetchAndDecrypt(ctx, username)</text></g><g class="message" data-entity-1="part4" data-entity-2="part5" id="msg5"><polygon fill="#181818" points="1213.6851,416.3516,1223.6851,420.3516,1213.6851,424.3516,1217.6851,420.3516" style="stroke:#181818;stroke-width:1;"/><line style="stroke:#181818;stroke-width:1;" x1="836.0245" x2="1219.6851" y1="420.3516" y2="420.3516"/><text fill="#000000" font-family="sans-serif" font-size="13" lengthAdjust="spacing" textLength="344.6016" x="843.0245" y="400.1528">SELECT encrypted_data, nonce, key_version, is_valid</text><text fill="#000000" font-family="sans-serif" font-size="13" lengthAdjust="spacing" textLength="144.8789" x="843.0245" y="415.2856">WHERE username=$1</text></g><g class="message" data-entity-1="part5" data-entity-2="part4" id="msg6"><polygon fill="#181818" points="847.0245,445.4844,837.0245,449.4844,847.0245,453.4844,843.0245,449.4844" style="stroke:#181818;stroke-width:1;"/><line style="stroke:#181818;stroke-width:1;stroke-dasharray:2,2;" x1="841.0245" x2="1224.6851" y1="449.4844" y2="449.4844"/><text fill="#000000" font-family="sans-serif" font-size="13" lengthAdjust="spacing" textLength="131.8218" x="853.0245" y="444.4185">row (is_valid=TRUE)</text></g><g class="message" data-entity-1="part4" data-entity-2="part4" id="msg7"><line style="stroke:#181818;stroke-width:1;" x1="836.0245" x2="878.0245" y1="493.75" y2="493.75"/><line style="stroke:#181818;stroke-width:1;" x1="878.0245" x2="878.0245" y1="493.75" y2="506.75"/><line style="stroke:#181818;stroke-width:1;" x1="837.0245" x2="878.0245" y1="506.75" y2="506.75"/><polygon fill="#181818" points="847.0245,502.75,837.0245,506.75,847.0245,510.75,843.0245,506.75" style="stroke:#181818;stroke-width:1;"/><text fill="#000000" font-family="sans-serif" font-size="13" lengthAdjust="spacing" textLength="178.6231" x="843.0245" y="473.5513">key_version &#30906;&#35469; &#8594; &#35442;&#24403;&#37749;&#12391;</text><text fill="#000000" font-family="sans-serif" font-size="13" lengthAdjust="spacing" textLength="367.396" x="851.2891" y="488.6841">AES-GCM Open(key, nonce, ciphertext, AAD=username)</text></g><g class="message" data-entity-1="part4" data-entity-2="part3" id="msg8"><polygon fill="#181818" points="606.5694,531.8828,596.5694,535.8828,606.5694,539.8828,602.5694,535.8828" style="stroke:#181818;stroke-width:1;"/><line style="stroke:#181818;stroke-width:1;stroke-dasharray:2,2;" x1="600.5694" x2="835.0245" y1="535.8828" y2="535.8828"/><text fill="#000000" font-family="sans-serif" font-size="13" lengthAdjust="spacing" textLength="145.3931" x="612.5694" y="530.8169">credentials_json (&#24179;&#25991;)</text></g><g class="message" data-entity-1="part3" data-entity-2="part6" id="msg9"><polygon fill="#181818" points="1339.6422,561.0156,1349.6422,565.0156,1339.6422,569.0156,1343.6422,565.0156" style="stroke:#181818;stroke-width:1;"/><line style="stroke:#181818;stroke-width:1;" x1="595.5694" x2="1345.6422" y1="565.0156" y2="565.0156"/><text fill="#000000" font-family="sans-serif" font-size="13" lengthAdjust="spacing" textLength="287.4092" x="602.5694" y="559.9497">Execute(ctx, req, onEvent, credentials_json)</text></g><g class="message" data-entity-1="part6" data-entity-2="part7" id="msg10"><polygon fill="#181818" points="1667.2569,590.1484,1677.2569,594.1484,1667.2569,598.1484,1671.2569,594.1484" style="stroke:#181818;stroke-width:1;"/><line style="stroke:#181818;stroke-width:1;" x1="1351.6422" x2="1673.2569" y1="594.1484" y2="594.1484"/><text fill="#000000" font-family="sans-serif" font-size="13" lengthAdjust="spacing" textLength="303.6147" x="1358.6422" y="589.0825">GetOrCreate(conversationID, credentials_json)</text></g><path d="M1604.8658,609.1484 L1669.3087,609.1484 L1669.3087,616.2813 L1659.3087,626.2813 L1604.8658,626.2813 L1604.8658,609.1484" fill="#EEEEEE" style="stroke:#000000;stroke-width:1.5;"/><rect fill="none" height="176.9297" style="stroke:#000000;stroke-width:1.5;" width="624.9434" x="1604.8658" y="609.1484"/><text fill="#000000" font-family="sans-serif" font-size="13" font-weight="bold" lengthAdjust="spacing" textLength="19.4429" x="1619.8658" y="622.2153">alt</text><text fill="#000000" font-family="sans-serif" font-size="11" font-weight="bold" lengthAdjust="spacing" textLength="87.0542" x="1684.3087" y="621.3589">[&#26032;&#35215;&#12475;&#12483;&#12471;&#12519;&#12531;]</text><g class="message" data-entity-1="part7" data-entity-2="part7" id="msg11"><line style="stroke:#181818;stroke-width:1;" x1="1679.2569" x2="1721.2569" y1="647.4141" y2="647.4141"/><line style="stroke:#181818;stroke-width:1;" x1="1721.2569" x2="1721.2569" y1="647.4141" y2="660.4141"/><line style="stroke:#181818;stroke-width:1;" x1="1680.2569" x2="1721.2569" y1="660.4141" y2="660.4141"/><polygon fill="#181818" points="1690.2569,656.4141,1680.2569,660.4141,1690.2569,664.4141,1686.2569,660.4141" style="stroke:#181818;stroke-width:1;"/><text fill="#000000" font-family="sans-serif" font-size="13" lengthAdjust="spacing" textLength="353.7359" x="1686.2569" y="642.3481">tmpfs:/home/user/.claude &#12434;&#25345;&#12388; container spec &#12434;&#27083;&#31689;</text></g><g class="message" data-entity-1="part7" data-entity-2="part8" id="msg12"><polygon fill="#181818" points="2137.0401,685.5469,2147.0401,689.5469,2137.0401,693.5469,2141.0401,689.5469" style="stroke:#181818;stroke-width:1;"/><line style="stroke:#181818;stroke-width:1;" x1="1679.2569" x2="2143.0401" y1="689.5469" y2="689.5469"/><text fill="#000000" font-family="sans-serif" font-size="13" lengthAdjust="spacing" textLength="157.9233" x="1686.2569" y="684.481">ContainerCreate + Start</text></g><g class="message" data-entity-1="part7" data-entity-2="part8" id="msg13"><polygon fill="#181818" points="2137.0401,744.9453,2147.0401,748.9453,2137.0401,752.9453,2141.0401,748.9453" style="stroke:#181818;stroke-width:1;"/><line style="stroke:#181818;stroke-width:1;" x1="1679.2569" x2="2143.0401" y1="748.9453" y2="748.9453"/><text fill="#000000" font-family="sans-serif" font-size="13" lengthAdjust="spacing" textLength="63.3369" x="1686.2569" y="713.6138">POST /init</text><text fill="#000000" font-family="sans-serif" font-size="13" lengthAdjust="spacing" textLength="148.2495" x="1686.2569" y="728.7466">{credentialsJson: "..."}</text><text fill="#000000" font-family="sans-serif" font-size="13" lengthAdjust="spacing" textLength="445.7832" x="1686.2569" y="743.8794">(cc-remote-agent &#12364; /home/user/.claude/.credentials.json &#12395;&#26360;&#12365;&#36796;&#12416;)</text></g><g class="message" data-entity-1="part8" data-entity-2="part7" id="msg14"><polygon fill="#181818" points="1690.2569,774.0781,1680.2569,778.0781,1690.2569,782.0781,1686.2569,778.0781" style="stroke:#181818;stroke-width:1;"/><line style="stroke:#181818;stroke-width:1;stroke-dasharray:2,2;" x1="1684.2569" x2="2148.0401" y1="778.0781" y2="778.0781"/><text fill="#000000" font-family="sans-serif" font-size="13" lengthAdjust="spacing" textLength="117.9331" x="1696.2569" y="773.0122">200 {ready: true}</text></g><g class="message" data-entity-1="part7" data-entity-2="part8" id="msg15"><polygon fill="#181818" points="2137.0401,810.2109,2147.0401,814.2109,2137.0401,818.2109,2141.0401,814.2109" style="stroke:#181818;stroke-width:1;"/><line style="stroke:#181818;stroke-width:1;" x1="1679.2569" x2="2143.0401" y1="814.2109" y2="814.2109"/><text fill="#000000" font-family="sans-serif" font-size="13" lengthAdjust="spacing" textLength="161.2242" x="1686.2569" y="809.145">POST /execute (&#20250;&#35441;&#23455;&#34892;)</text></g><g class="message" data-entity-1="part8" data-entity-2="part8" id="msg16"><line style="stroke:#181818;stroke-width:1;" x1="2149.0401" x2="2191.0401" y1="843.3438" y2="843.3438"/><line style="stroke:#181818;stroke-width:1;" x1="2191.0401" x2="2191.0401" y1="843.3438" y2="856.3438"/><line style="stroke:#181818;stroke-width:1;" x1="2150.0401" x2="2191.0401" y1="856.3438" y2="856.3438"/><polygon fill="#181818" points="2160.0401,852.3438,2150.0401,856.3438,2160.0401,860.3438,2156.0401,856.3438" style="stroke:#181818;stroke-width:1;"/><text fill="#000000" font-family="sans-serif" font-size="13" lengthAdjust="spacing" textLength="193.4893" x="2156.0401" y="838.2778">claude CLI &#36215;&#21205; &#8594; API &#21628;&#12403;&#20986;&#12375;</text></g><g class="message" data-entity-1="part8" data-entity-2="part7" id="msg17"><polygon fill="#181818" points="1690.2569,881.4766,1680.2569,885.4766,1690.2569,889.4766,1686.2569,885.4766" style="stroke:#181818;stroke-width:1;"/><line style="stroke:#181818;stroke-width:1;stroke-dasharray:2,2;" x1="1684.2569" x2="2148.0401" y1="885.4766" y2="885.4766"/><text fill="#000000" font-family="sans-serif" font-size="13" lengthAdjust="spacing" textLength="159.8276" x="1696.2569" y="880.4106">NDJSON stream (events)</text></g><g class="message" data-entity-1="part7" data-entity-2="part6" id="msg18"><polygon fill="#181818" points="1362.6422,910.6094,1352.6422,914.6094,1362.6422,918.6094,1358.6422,914.6094" style="stroke:#181818;stroke-width:1;"/><line style="stroke:#181818;stroke-width:1;stroke-dasharray:2,2;" x1="1356.6422" x2="1678.2569" y1="914.6094" y2="914.6094"/><text fill="#000000" font-family="sans-serif" font-size="13" lengthAdjust="spacing" textLength="43.7988" x="1368.6422" y="909.5435">events</text></g><g class="message" data-entity-1="part6" data-entity-2="part3" id="msg19"><polygon fill="#181818" points="606.5694,939.7422,596.5694,943.7422,606.5694,947.7422,602.5694,943.7422" style="stroke:#181818;stroke-width:1;"/><line style="stroke:#181818;stroke-width:1;stroke-dasharray:2,2;" x1="600.5694" x2="1350.6422" y1="943.7422" y2="943.7422"/><text fill="#000000" font-family="sans-serif" font-size="13" lengthAdjust="spacing" textLength="53.4346" x="612.5694" y="938.6763">onEvent</text></g><g class="message" data-entity-1="part3" data-entity-2="part2" id="msg20"><polygon fill="#181818" points="278.5802,968.875,268.5802,972.875,278.5802,976.875,274.5802,972.875" style="stroke:#181818;stroke-width:1;"/><line style="stroke:#181818;stroke-width:1;stroke-dasharray:2,2;" x1="272.5802" x2="594.5694" y1="972.875" y2="972.875"/><text fill="#000000" font-family="sans-serif" font-size="13" lengthAdjust="spacing" textLength="195.0065" x="284.5802" y="967.8091">202 Accepted (&#32972;&#26223;&#12391;&#20966;&#29702;&#32153;&#32154;)</text></g><rect fill="#EEEEEE" height="3" style="stroke:#EEEEEE;stroke-width:1;" width="2356.5295" x="0" y="1001.4414"/><line style="stroke:#000000;stroke-width:1;" x1="0" x2="2356.5295" y1="1001.4414" y2="1001.4414"/><line style="stroke:#000000;stroke-width:1;" x1="0" x2="2356.5295" y1="1004.4414" y2="1004.4414"/><rect fill="#EEEEEE" height="23.1328" style="stroke:#000000;stroke-width:2;" width="202.1636" x="1077.1829" y="990.875"/><text fill="#000000" font-family="sans-serif" font-size="13" font-weight="bold" lengthAdjust="spacing" textLength="183.6377" x="1083.1829" y="1006.9419">Case 2: credentials &#26410;&#30331;&#37682;</text><g class="message" data-entity-1="part1" data-entity-2="part2" id="msg21"><polygon fill="#181818" points="255.5802,1041.1406,265.5802,1045.1406,255.5802,1049.1406,259.5802,1045.1406" style="stroke:#181818;stroke-width:1;"/><line style="stroke:#181818;stroke-width:1;" x1="46.9551" x2="261.5802" y1="1045.1406" y2="1045.1406"/><text fill="#000000" font-family="sans-serif" font-size="13" lengthAdjust="spacing" textLength="91.0001" x="53.9551" y="1040.0747">&#12513;&#12483;&#12475;&#12540;&#12472;&#36865;&#20449;</text></g><g class="message" data-entity-1="part2" data-entity-2="part3" id="msg22"><polygon fill="#181818" points="583.5694,1070.2734,593.5694,1074.2734,583.5694,1078.2734,587.5694,1074.2734" style="stroke:#181818;stroke-width:1;"/><line style="stroke:#181818;stroke-width:1;" x1="267.5802" x2="589.5694" y1="1074.2734" y2="1074.2734"/><text fill="#000000" font-family="sans-serif" font-size="13" lengthAdjust="spacing" textLength="235.9297" x="274.5802" y="1069.2075">POST /conversations/{id}/messages</text></g><g class="message" data-entity-1="part3" data-entity-2="part4" id="msg23"><polygon fill="#181818" points="824.0245,1099.4063,834.0245,1103.4063,824.0245,1107.4063,828.0245,1103.4063" style="stroke:#181818;stroke-width:1;"/><line style="stroke:#181818;stroke-width:1;" x1="595.5694" x2="830.0245" y1="1103.4063" y2="1103.4063"/><text fill="#000000" font-family="sans-serif" font-size="13" lengthAdjust="spacing" textLength="216.4551" x="602.5694" y="1098.3403">FetchAndDecrypt(ctx, username)</text></g><g class="message" data-entity-1="part4" data-entity-2="part5" id="msg24"><polygon fill="#181818" points="1213.6851,1128.5391,1223.6851,1132.5391,1213.6851,1136.5391,1217.6851,1132.5391" style="stroke:#181818;stroke-width:1;"/><line style="stroke:#181818;stroke-width:1;" x1="836.0245" x2="1219.6851" y1="1132.5391" y2="1132.5391"/><text fill="#000000" font-family="sans-serif" font-size="13" lengthAdjust="spacing" textLength="214.481" x="843.0245" y="1127.4731">SELECT ... WHERE username=$1</text></g><g class="message" data-entity-1="part5" data-entity-2="part4" id="msg25"><polygon fill="#181818" points="847.0245,1157.6719,837.0245,1161.6719,847.0245,1165.6719,843.0245,1161.6719" style="stroke:#181818;stroke-width:1;"/><line style="stroke:#181818;stroke-width:1;stroke-dasharray:2,2;" x1="841.0245" x2="1224.6851" y1="1161.6719" y2="1161.6719"/><text fill="#000000" font-family="sans-serif" font-size="13" lengthAdjust="spacing" textLength="61.1724" x="853.0245" y="1156.606">(no rows)</text></g><g class="message" data-entity-1="part4" data-entity-2="part3" id="msg26"><polygon fill="#181818" points="606.5694,1186.8047,596.5694,1190.8047,606.5694,1194.8047,602.5694,1190.8047" style="stroke:#181818;stroke-width:1;"/><line style="stroke:#181818;stroke-width:1;stroke-dasharray:2,2;" x1="600.5694" x2="835.0245" y1="1190.8047" y2="1190.8047"/><text fill="#000000" font-family="sans-serif" font-size="13" lengthAdjust="spacing" textLength="155.8096" x="612.5694" y="1185.7388">ErrCredentialsNotFound</text></g><g class="message" data-entity-1="part3" data-entity-2="part2" id="msg27"><polygon fill="#181818" points="278.5802,1261.3359,268.5802,1265.3359,278.5802,1269.3359,274.5802,1265.3359" style="stroke:#181818;stroke-width:1;"/><line style="stroke:#181818;stroke-width:1;stroke-dasharray:2,2;" x1="272.5802" x2="594.5694" y1="1265.3359" y2="1265.3359"/><text fill="#000000" font-family="sans-serif" font-size="13" lengthAdjust="spacing" textLength="37.2163" x="284.5802" y="1214.8716">401 {</text><text fill="#000000" font-family="sans-serif" font-size="13" lengthAdjust="spacing" textLength="190.1694" x="292.8448" y="1230.0044">error: "credentials_required",</text><text fill="#000000" font-family="sans-serif" font-size="13" lengthAdjust="spacing" textLength="295.7246" x="292.8448" y="1245.1372">redirect: "/login/credentials?reason=missing"</text><text fill="#000000" font-family="sans-serif" font-size="13" lengthAdjust="spacing" textLength="8.271" x="284.5802" y="1260.27">}</text></g><g class="message" data-entity-1="part2" data-entity-2="part1" id="msg28"><polygon fill="#181818" points="57.9551,1305.6016,47.9551,1309.6016,57.9551,1313.6016,53.9551,1309.6016" style="stroke:#181818;stroke-width:1;"/><line style="stroke:#181818;stroke-width:1;" x1="51.9551" x2="266.5802" y1="1309.6016" y2="1309.6016"/><text fill="#000000" font-family="sans-serif" font-size="13" lengthAdjust="spacing" textLength="169.0002" x="63.9551" y="1289.4028">&#12300;&#35469;&#35388;&#24773;&#22577;&#12364;&#24517;&#35201;&#12391;&#12377;&#12301;&#34920;&#31034;</text><text fill="#000000" font-family="sans-serif" font-size="13" lengthAdjust="spacing" textLength="196.6251" x="63.9551" y="1304.5356">&#8594; /login/credentials &#12408;&#33258;&#21205;&#36983;&#31227;</text></g><rect fill="#EEEEEE" height="3" style="stroke:#EEEEEE;stroke-width:1;" width="2356.5295" x="0" y="1338.168"/><line style="stroke:#000000;stroke-width:1;" x1="0" x2="2356.5295" y1="1338.168" y2="1338.168"/><line style="stroke:#000000;stroke-width:1;" x1="0" x2="2356.5295" y1="1341.168" y2="1341.168"/><rect fill="#EEEEEE" height="23.1328" style="stroke:#000000;stroke-width:2;" width="280.1637" x="1038.1829" y="1327.6016"/><text fill="#000000" font-family="sans-serif" font-size="13" font-weight="bold" lengthAdjust="spacing" textLength="261.6378" x="1044.1829" y="1343.6685">Case 3: credentials &#12364;&#28961;&#21177;&#21270;&#12373;&#12428;&#12390;&#12356;&#12427;</text><g class="message" data-entity-1="part1" data-entity-2="part2" id="msg29"><polygon fill="#181818" points="255.5802,1377.8672,265.5802,1381.8672,255.5802,1385.8672,259.5802,1381.8672" style="stroke:#181818;stroke-width:1;"/><line style="stroke:#181818;stroke-width:1;" x1="46.9551" x2="261.5802" y1="1381.8672" y2="1381.8672"/><text fill="#000000" font-family="sans-serif" font-size="13" lengthAdjust="spacing" textLength="91.0001" x="53.9551" y="1376.8013">&#12513;&#12483;&#12475;&#12540;&#12472;&#36865;&#20449;</text></g><g class="message" data-entity-1="part2" data-entity-2="part3" id="msg30"><polygon fill="#181818" points="583.5694,1407,593.5694,1411,583.5694,1415,587.5694,1411" style="stroke:#181818;stroke-width:1;"/><line style="stroke:#181818;stroke-width:1;" x1="267.5802" x2="589.5694" y1="1411" y2="1411"/><text fill="#000000" font-family="sans-serif" font-size="13" lengthAdjust="spacing" textLength="235.9297" x="274.5802" y="1405.9341">POST /conversations/{id}/messages</text></g><g class="message" data-entity-1="part3" data-entity-2="part4" id="msg31"><polygon fill="#181818" points="824.0245,1436.1328,834.0245,1440.1328,824.0245,1444.1328,828.0245,1440.1328" style="stroke:#181818;stroke-width:1;"/><line style="stroke:#181818;stroke-width:1;" x1="595.5694" x2="830.0245" y1="1440.1328" y2="1440.1328"/><text fill="#000000" font-family="sans-serif" font-size="13" lengthAdjust="spacing" textLength="216.4551" x="602.5694" y="1435.0669">FetchAndDecrypt(ctx, username)</text></g><g class="message" data-entity-1="part4" data-entity-2="part5" id="msg32"><polygon fill="#181818" points="1213.6851,1465.2656,1223.6851,1469.2656,1213.6851,1473.2656,1217.6851,1469.2656" style="stroke:#181818;stroke-width:1;"/><line style="stroke:#181818;stroke-width:1;" x1="836.0245" x2="1219.6851" y1="1469.2656" y2="1469.2656"/><text fill="#000000" font-family="sans-serif" font-size="13" lengthAdjust="spacing" textLength="214.481" x="843.0245" y="1464.1997">SELECT ... WHERE username=$1</text></g><g class="message" data-entity-1="part5" data-entity-2="part4" id="msg33"><polygon fill="#181818" points="847.0245,1494.3984,837.0245,1498.3984,847.0245,1502.3984,843.0245,1498.3984" style="stroke:#181818;stroke-width:1;"/><line style="stroke:#181818;stroke-width:1;stroke-dasharray:2,2;" x1="841.0245" x2="1224.6851" y1="1498.3984" y2="1498.3984"/><text fill="#000000" font-family="sans-serif" font-size="13" lengthAdjust="spacing" textLength="137.1982" x="853.0245" y="1493.3325">row (is_valid=FALSE)</text></g><g class="message" data-entity-1="part4" data-entity-2="part3" id="msg34"><polygon fill="#181818" points="606.5694,1523.5313,596.5694,1527.5313,606.5694,1531.5313,602.5694,1527.5313" style="stroke:#181818;stroke-width:1;"/><line style="stroke:#181818;stroke-width:1;stroke-dasharray:2,2;" x1="600.5694" x2="835.0245" y1="1527.5313" y2="1527.5313"/><text fill="#000000" font-family="sans-serif" font-size="13" lengthAdjust="spacing" textLength="136.0811" x="612.5694" y="1522.4653">ErrCredentialsInvalid</text></g><g class="message" data-entity-1="part3" data-entity-2="part2" id="msg35"><polygon fill="#181818" points="278.5802,1598.0625,268.5802,1602.0625,278.5802,1606.0625,274.5802,1602.0625" style="stroke:#181818;stroke-width:1;"/><line style="stroke:#181818;stroke-width:1;stroke-dasharray:2,2;" x1="272.5802" x2="594.5694" y1="1602.0625" y2="1602.0625"/><text fill="#000000" font-family="sans-serif" font-size="13" lengthAdjust="spacing" textLength="37.2163" x="284.5802" y="1551.5981">401 {</text><text fill="#000000" font-family="sans-serif" font-size="13" lengthAdjust="spacing" textLength="178.1152" x="292.8448" y="1566.731">error: "credentials_invalid",</text><text fill="#000000" font-family="sans-serif" font-size="13" lengthAdjust="spacing" textLength="294.9502" x="292.8448" y="1581.8638">redirect: "/login/credentials?reason=expired"</text><text fill="#000000" font-family="sans-serif" font-size="13" lengthAdjust="spacing" textLength="8.271" x="284.5802" y="1596.9966">}</text></g><g class="message" data-entity-1="part2" data-entity-2="part1" id="msg36"><polygon fill="#181818" points="57.9551,1627.1953,47.9551,1631.1953,57.9551,1635.1953,53.9551,1631.1953" style="stroke:#181818;stroke-width:1;"/><line style="stroke:#181818;stroke-width:1;" x1="51.9551" x2="266.5802" y1="1631.1953" y2="1631.1953"/><text fill="#000000" font-family="sans-serif" font-size="13" lengthAdjust="spacing" textLength="182.0002" x="63.9551" y="1626.1294">&#12300;&#20877;&#12525;&#12464;&#12452;&#12531;&#12364;&#24517;&#35201;&#12391;&#12377;&#12301;&#34920;&#31034;</text></g><rect fill="#EEEEEE" height="3" style="stroke:#EEEEEE;stroke-width:1;" width="2356.5295" x="0" y="1659.7617"/><line style="stroke:#000000;stroke-width:1;" x1="0" x2="2356.5295" y1="1659.7617" y2="1659.7617"/><line style="stroke:#000000;stroke-width:1;" x1="0" x2="2356.5295" y1="1662.7617" y2="1662.7617"/><rect fill="#EEEEEE" height="23.1328" style="stroke:#000000;stroke-width:2;" width="347.9503" x="1004.2896" y="1649.1953"/><text fill="#000000" font-family="sans-serif" font-size="13" font-weight="bold" lengthAdjust="spacing" textLength="329.4244" x="1010.2896" y="1665.2622">Case 4: &#12513;&#12483;&#12475;&#12540;&#12472;&#36865;&#20449;&#20013;&#12395; Anthropic API &#12364; 401</text><path d="M2039,1687.3281 L2039,1727.3281 L2258,1727.3281 L2258,1697.3281 L2248,1687.3281 L2039,1687.3281" fill="#FEFFDD" style="stroke:#181818;stroke-width:0.5;"/><path d="M2248,1687.3281 L2248,1697.3281 L2258,1697.3281 L2248,1687.3281" fill="#FEFFDD" style="stroke:#181818;stroke-width:0.5;"/><text fill="#000000" font-family="sans-serif" font-size="13" lengthAdjust="spacing" textLength="136.6334" x="2045" y="1704.395">&#23455;&#34892;&#20013;&#12289;claude CLI &#12364;</text><text fill="#000000" font-family="sans-serif" font-size="13" lengthAdjust="spacing" textLength="198.358" x="2045" y="1719.5278">401 Unauthorized &#12434;&#36820;&#12375;&#12383;&#22580;&#21512;</text><g class="message" data-entity-1="part8" data-entity-2="part7" id="msg37"><polygon fill="#181818" points="1690.2569,1749.7266,1680.2569,1753.7266,1690.2569,1757.7266,1686.2569,1753.7266" style="stroke:#181818;stroke-width:1;"/><line style="stroke:#181818;stroke-width:1;stroke-dasharray:2,2;" x1="1684.2569" x2="2148.0401" y1="1753.7266" y2="1753.7266"/><text fill="#000000" font-family="sans-serif" font-size="13" lengthAdjust="spacing" textLength="212.1387" x="1696.2569" y="1748.6606">event {type: "error", code: 401}</text></g><g class="message" data-entity-1="part7" data-entity-2="part6" id="msg38"><polygon fill="#181818" points="1362.6422,1778.8594,1352.6422,1782.8594,1362.6422,1786.8594,1358.6422,1782.8594" style="stroke:#181818;stroke-width:1;"/><line style="stroke:#181818;stroke-width:1;stroke-dasharray:2,2;" x1="1356.6422" x2="1678.2569" y1="1782.8594" y2="1782.8594"/><text fill="#000000" font-family="sans-serif" font-size="13" lengthAdjust="spacing" textLength="65.0001" x="1368.6422" y="1777.7935">&#12456;&#12521;&#12540;&#20253;&#25773;</text></g><g class="message" data-entity-1="part6" data-entity-2="part4" id="msg39"><polygon fill="#181818" points="847.0245,1807.9922,837.0245,1811.9922,847.0245,1815.9922,843.0245,1811.9922" style="stroke:#181818;stroke-width:1;"/><line style="stroke:#181818;stroke-width:1;" x1="841.0245" x2="1350.6422" y1="1811.9922" y2="1811.9922"/><text fill="#000000" font-family="sans-serif" font-size="13" lengthAdjust="spacing" textLength="178.8325" x="853.0245" y="1806.9263">MarkInvalid(ctx, username)</text></g><g class="message" data-entity-1="part4" data-entity-2="part5" id="msg40"><polygon fill="#181818" points="1213.6851,1867.3906,1223.6851,1871.3906,1213.6851,1875.3906,1217.6851,1871.3906" style="stroke:#181818;stroke-width:1;"/><line style="stroke:#181818;stroke-width:1;" x1="836.0245" x2="1219.6851" y1="1871.3906" y2="1871.3906"/><text fill="#000000" font-family="sans-serif" font-size="13" lengthAdjust="spacing" textLength="128.5845" x="843.0245" y="1836.0591">UPDATE credentials</text><text fill="#000000" font-family="sans-serif" font-size="13" lengthAdjust="spacing" textLength="127.5308" x="843.0245" y="1851.1919">SET is_valid=FALSE</text><text fill="#000000" font-family="sans-serif" font-size="13" lengthAdjust="spacing" textLength="144.8789" x="843.0245" y="1866.3247">WHERE username=$1</text></g><g class="message" data-entity-1="part5" data-entity-2="part4" id="msg41"><polygon fill="#181818" points="847.0245,1896.5234,837.0245,1900.5234,847.0245,1904.5234,843.0245,1900.5234" style="stroke:#181818;stroke-width:1;"/><line style="stroke:#181818;stroke-width:1;stroke-dasharray:2,2;" x1="841.0245" x2="1224.6851" y1="1900.5234" y2="1900.5234"/><text fill="#000000" font-family="sans-serif" font-size="13" lengthAdjust="spacing" textLength="18.7573" x="853.0245" y="1895.4575">OK</text></g><g class="message" data-entity-1="part6" data-entity-2="part3" id="msg42"><polygon fill="#181818" points="606.5694,1925.6563,596.5694,1929.6563,606.5694,1933.6563,602.5694,1929.6563" style="stroke:#181818;stroke-width:1;"/><line style="stroke:#181818;stroke-width:1;stroke-dasharray:2,2;" x1="600.5694" x2="1350.6422" y1="1929.6563" y2="1929.6563"/><text fill="#000000" font-family="sans-serif" font-size="13" lengthAdjust="spacing" textLength="128.2926" x="612.5694" y="1924.5903">&#23436;&#20102;&#12452;&#12505;&#12531;&#12488; (failed)</text></g><g class="message" data-entity-1="part3" data-entity-2="part2" id="msg43"><polygon fill="#181818" points="278.5802,1954.7891,268.5802,1958.7891,278.5802,1962.7891,274.5802,1958.7891" style="stroke:#181818;stroke-width:1;"/><line style="stroke:#181818;stroke-width:1;stroke-dasharray:2,2;" x1="272.5802" x2="594.5694" y1="1958.7891" y2="1958.7891"/><text fill="#000000" font-family="sans-serif" font-size="13" lengthAdjust="spacing" textLength="151.8995" x="284.5802" y="1953.7231">SSE/poll &#12391; "failed" &#36890;&#30693;</text></g><path d="M272,1971.7891 L272,2011.7891 L506,2011.7891 L506,1981.7891 L496,1971.7891 L272,1971.7891" fill="#FEFFDD" style="stroke:#181818;stroke-width:0.5;"/><path d="M496,1971.7891 L496,1981.7891 L506,1981.7891 L496,1971.7891" fill="#FEFFDD" style="stroke:#181818;stroke-width:0.5;"/><text fill="#000000" font-family="sans-serif" font-size="13" lengthAdjust="spacing" textLength="208.4826" x="278" y="1988.856">&#27425;&#22238;&#36865;&#20449;&#26178;&#12395;&#12399; Case 3 &#12398;&#12501;&#12525;&#12540;&#12391;</text><text fill="#000000" font-family="sans-serif" font-size="13" lengthAdjust="spacing" textLength="213.8717" x="278" y="2003.9888">401 redirect &#12364;&#36820;&#12426;&#12289;&#20877;&#12525;&#12464;&#12452;&#12531;&#12408;</text><?plantuml-src tLVVKnDN57xVl-9CfZDDfWb1wnCpQIU6e5WKQg1zoGopRYvaIt8txjuWb666JHH4mcYjqa5jaTQ2F-hlgWXH_fTUDWbF_WizTpV9PasOwapxqfTaT-uvvvxpdUzyz-wde2WXbgUKP82R9LxOuSKYBxpYnKrUVBw_icHjBbLM2zny08fEKeGoLSuOm0jNhSihl739MjZcva_StDXxiylDULwypeiFUR4iIKnb6GAnfXCaY66e6eK4atM6RsVpX2e4_Cq40f8aAqpJmJTY4Dq7iW5vV91oQAygQawc37nzkaOPeQaazSVIClj69US2jkaOyHgwTKM7-fFqk4nJcNhKjFFijNSpJH1zKbM8RIgADYOLAIKp-Oni4F0DQGORrqdYwu4aRO74jawTySQCJn4bpx3e8LsRL5D4nwm7D4NEX7irPOBens9n9_bSVTthNaVif4pbyNhgHhQZ2SGG5LcbzWvOkKwo6YCXTAFCsK5f64WInING9ebkmnjiMGAm5fShbw_qu5C8H1UG58z1pkL2SfwbyMLJjBVmX1Vk83qgMnUvkMlRUiY1BfX3HXjNALHVbAhNdg8Zz1x5bGVLrPtzqZF7yrqPVzzoSmqzAhVkEqlloeiIzXT4bf8KYK1Cm7wevxqjIgs1U76dSclHklGQ8X594bL1w0ja1FG0BwxRZ4PUbtbXQt_EtDjTbt093UeyGAkXmSGmX148HCMGHSUCy8oQcWrd4Lz4qK1OZn9PHsEcJH2AL6quU-BOY_3N_5KRMYfd2TGsVwiytMurhtCApVi8Kz9HckebYZwTOtw5JGMRdW6fOOW-gJDedeWFn6F3W6CZh4bgLB0oY4ZX70LXWaoFYlGn-I2enkYad55nJBuz7ZyTRmQDV798mbWXJngwTWxy3O_8yEcHk6Tlrx1b2wZ-kbsxlspNMhltp7hpu_xo2snpaW94uudGiTX96CmHwaUVPeh8sZJH6PbYGOX6UoCTIlN0sTBoqUyCtDHllNvUMLdmmjyO7dHm1euuGEhaR10q6f_44C6sM06fwOSnZ2nw7oDiK4STa4M45YxqztPob-GCWyhAazh6vVTa4oS2upMYicnkpEW9fxKi2Ok2mrrAHiwdY13HIidavXrt0i784SLUs5ogFbvi1d8DUjnHTpA5pnn5xMZhy5gbAalIcPOIJc05FU3hwkhopROhXXWlQ4yO_zq8NNO_SA0hDxUukLnxYzCr5y0atEr33GGETtV332QRcaOqz3oP5GCkIGUbIvmcWd-lVADsxwdrQAssNaAAk86zNdKuOmFzK7lnobgwRfCILH-i7yhSVEwSKLA7n4xrdaWCdWA3ON9Py1F152DW9-RbbRFImXWFJUiSSpdP49_3tOSXgYX432luQyLIPVKnpeYri56zCbzzkLfzUIFWQjnXhyOr5V4_4pNftrGbv19yWDRugIRqnZXevEEwxfx4nYcDzMbvGPOsR8zq7u8PeJP4rpKToTmweJZwUHNVVK5XWG_ueZ0q2jkdKhZ5zaliFL8vabNn9ANZlYITbUfGsfWZsdCbLBhQtNAbUC6wZMTPoTgzKDimnMbehlAvvThwtUgTxIGLj6lV08TagxPm7tcvRxwgRkwu3V-y_L0xluwdc5LQuUPrNYZXlOgRvtbXwNz50UznqnSTICG_Z0tzr7RvM3AeZjj7S85CvMpsTEI2DR_SUWawY0vkcuySqAszhOVYNXsbBArhELMn9Kj8hwX6DDozg7ckQBOU2kSviqNwq14NXUi85PSrJLU_HzN1iwIsUys-ewzPj_-qhbnikLrra4HRwM26JUS8GcJ3wHDNn1InKPxj88wyS9SNxs5bU-MVArSVUivLj-idPNsYti1_ejF8K6zqEDuw6qcQY0-3bpCVTBKP_4ewIBMjHwMzxNcxYQkYZyMBu1-JrGn91Te9baZ4mpaj8pwIDi7dcFbWV-v6TUttUgDqTJpDG1iJNo80bJ_MhPk_E8rsFg34jTWPUmpogFcbX07hVMjGKxHIzAnm2JlSnhOjjtz_0m00?></g></svg>