<?plantuml 1.2026.2?><svg xmlns="http://www.w3.org/2000/svg" xmlns:xlink="http://www.w3.org/1999/xlink" contentStyleType="text/css" data-diagram-type="SEQUENCE" height="1807px" preserveAspectRatio="none" style="width:1263px;height:1807px;background:#FFFFFF;" version="1.1" viewBox="0 0 1263 1807" width="1263px" zoomAndPan="magnify"><title>Credential Login Sequence (cc-login)</title><defs/><g><text fill="#000000" font-family="sans-serif" font-size="14" font-weight="bold" lengthAdjust="spacing" textLength="291.0742" x="482.3563" y="27.9951">Credential Login Sequence (cc-login)</text><rect fill="none" height="236.1953" style="stroke:#000000;stroke-width:1.5;" width="1058.8215" x="10" y="654.4141"/><g class="participant-lifeline" data-entity-uid="part1" data-qualified-name="user" id="part1-lifeline"><g><title>User</title><rect fill="#000000" fill-opacity="0.00000" height="1592.3047" width="8" x="34.9551" y="120.8906"/><line style="stroke:#181818;stroke-width:0.5;stroke-dasharray:5,5;" x1="38" x2="38" y1="120.8906" y2="1713.1953"/></g></g><g class="participant-lifeline" data-entity-uid="part2" data-qualified-name="fe" id="part2-lifeline"><g><title>Frontend</title><rect fill="#000000" fill-opacity="0.00000" height="1592.3047" width="8" x="313.7692" y="120.8906"/><line style="stroke:#181818;stroke-width:0.5;stroke-dasharray:5,5;" x1="317.2096" x2="317.2096" y1="120.8906" y2="1713.1953"/></g></g><g class="participant-lifeline" data-entity-uid="part3" data-qualified-name="cclogin" id="part3-lifeline"><g><title>cc-login</title><rect fill="#000000" fill-opacity="0.00000" height="1592.3047" width="8" x="702.1691" y="120.8906"/><line style="stroke:#181818;stroke-width:0.5;stroke-dasharray:5,5;" x1="705.4943" x2="705.4943" y1="120.8906" y2="1713.1953"/></g></g><g class="participant-lifeline" data-entity-uid="part4" data-qualified-name="claude" id="part4-lifeline"><g><title>claude CLI</title><rect fill="#000000" fill-opacity="0.00000" height="1592.3047" width="8" x="1011.4748" y="120.8906"/><line style="stroke:#181818;stroke-width:0.5;stroke-dasharray:5,5;" x1="1015.1281" x2="1015.1281" y1="120.8906" y2="1713.1953"/></g></g><g class="participant-lifeline" data-entity-uid="part5" data-qualified-name="db" id="part5-lifeline"><g><title>PostgreSQL</title><rect fill="#000000" fill-opacity="0.00000" height="1592.3047" width="8" x="1108.1979" y="120.8906"/><line style="stroke:#181818;stroke-width:0.5;stroke-dasharray:5,5;" x1="1111.8215" x2="1111.8215" y1="120.8906" y2="1713.1953"/></g></g><g class="participant participant-head" data-entity-uid="part1" data-qualified-name="user" id="part1-head"><text fill="#000000" font-family="sans-serif" font-size="14" lengthAdjust="spacing" textLength="31.9102" x="20" y="117.5889">User</text><ellipse cx="38.9551" cy="53.0938" fill="#E2E2F0" rx="8" ry="8" style="stroke:#181818;stroke-width:0.5;"/><path d="M38.9551,61.0938 L38.9551,88.0938 M25.9551,69.0938 L51.9551,69.0938 M38.9551,88.0938 L25.9551,103.0938 M38.9551,88.0938 L51.9551,103.0938" fill="none" style="stroke:#181818;stroke-width:0.5;"/></g><g class="participant participant-tail" data-entity-uid="part1" data-qualified-name="user" id="part1-tail"><text fill="#000000" font-family="sans-serif" font-size="14" lengthAdjust="spacing" textLength="31.9102" x="20" y="1725.1904">User</text><ellipse cx="38.9551" cy="1736.9922" fill="#E2E2F0" rx="8" ry="8" style="stroke:#181818;stroke-width:0.5;"/><path d="M38.9551,1744.9922 L38.9551,1771.9922 M25.9551,1752.9922 L51.9551,1752.9922 M38.9551,1771.9922 L25.9551,1786.9922 M38.9551,1771.9922 L51.9551,1786.9922" fill="none" style="stroke:#181818;stroke-width:0.5;"/></g><g class="participant participant-head" data-entity-uid="part2" data-qualified-name="fe" id="part2-head"><rect fill="#E2E2F0" height="46.5938" rx="2.5" ry="2.5" style="stroke:#181818;stroke-width:0.5;" width="135.1191" x="250.2096" y="73.2969"/><text fill="#000000" font-family="sans-serif" font-size="14" lengthAdjust="spacing" textLength="63.1094" x="286.2145" y="93.292">Frontend</text><text fill="#000000" font-family="sans-serif" font-size="14" lengthAdjust="spacing" textLength="121.1191" x="257.2096" y="109.5889">/login/credentials</text></g><g class="participant participant-tail" data-entity-uid="part2" data-qualified-name="fe" id="part2-tail"><rect fill="#E2E2F0" height="46.5938" rx="2.5" ry="2.5" style="stroke:#181818;stroke-width:0.5;" width="135.1191" x="250.2096" y="1712.1953"/><text fill="#000000" font-family="sans-serif" font-size="14" lengthAdjust="spacing" textLength="63.1094" x="286.2145" y="1732.1904">Frontend</text><text fill="#000000" font-family="sans-serif" font-size="14" lengthAdjust="spacing" textLength="121.1191" x="257.2096" y="1748.4873">/login/credentials</text></g><g class="participant participant-head" data-entity-uid="part3" data-qualified-name="cclogin" id="part3-head"><rect fill="#E2E2F0" height="46.5938" rx="2.5" ry="2.5" style="stroke:#181818;stroke-width:0.5;" width="87.3496" x="662.4943" y="73.2969"/><text fill="#000000" font-family="sans-serif" font-size="14" lengthAdjust="spacing" textLength="54.5508" x="678.8937" y="93.292">cc-login</text><text fill="#000000" font-family="sans-serif" font-size="14" lengthAdjust="spacing" textLength="73.3496" x="669.4943" y="109.5889">HTTP+PTY</text></g><g class="participant participant-tail" data-entity-uid="part3" data-qualified-name="cclogin" id="part3-tail"><rect fill="#E2E2F0" height="46.5938" rx="2.5" ry="2.5" style="stroke:#181818;stroke-width:0.5;" width="87.3496" x="662.4943" y="1712.1953"/><text fill="#000000" font-family="sans-serif" font-size="14" lengthAdjust="spacing" textLength="54.5508" x="678.8937" y="1732.1904">cc-login</text><text fill="#000000" font-family="sans-serif" font-size="14" lengthAdjust="spacing" textLength="73.3496" x="669.4943" y="1748.4873">HTTP+PTY</text></g><g class="participant participant-head" data-entity-uid="part4" data-qualified-name="claude" id="part4-head"><rect fill="#E2E2F0" height="46.5938" rx="2.5" ry="2.5" style="stroke:#181818;stroke-width:0.5;" width="86.6934" x="972.1281" y="73.2969"/><text fill="#000000" font-family="sans-serif" font-size="14" lengthAdjust="spacing" textLength="72.6934" x="979.1281" y="93.292">claude CLI</text><text fill="#000000" font-family="sans-serif" font-size="14" lengthAdjust="spacing" textLength="36.4697" x="997.2399" y="109.5889">(PTY)</text></g><g class="participant participant-tail" data-entity-uid="part4" data-qualified-name="claude" id="part4-tail"><rect fill="#E2E2F0" height="46.5938" rx="2.5" ry="2.5" style="stroke:#181818;stroke-width:0.5;" width="86.6934" x="972.1281" y="1712.1953"/><text fill="#000000" font-family="sans-serif" font-size="14" lengthAdjust="spacing" textLength="72.6934" x="979.1281" y="1732.1904">claude CLI</text><text fill="#000000" font-family="sans-serif" font-size="14" lengthAdjust="spacing" textLength="36.4697" x="997.2399" y="1748.4873">(PTY)</text></g><g class="participant participant-head" data-entity-uid="part5" data-qualified-name="db" id="part5-head"><text fill="#000000" font-family="sans-serif" font-size="14" lengthAdjust="spacing" textLength="80.7529" x="1068.8215" y="101.292">PostgreSQL</text><text fill="#000000" font-family="sans-serif" font-size="14" lengthAdjust="spacing" textLength="77.5811" x="1070.4074" y="117.5889">credentials</text><path d="M1094.1979,52.2969 C1094.1979,42.2969 1112.1979,42.2969 1112.1979,42.2969 C1112.1979,42.2969 1130.1979,42.2969 1130.1979,52.2969 L1130.1979,78.2969 C1130.1979,88.2969 1112.1979,88.2969 1112.1979,88.2969 C1112.1979,88.2969 1094.1979,88.2969 1094.1979,78.2969 L1094.1979,52.2969" fill="#E2E2F0" style="stroke:#181818;stroke-width:0.5;"/><path d="M1094.1979,52.2969 C1094.1979,62.2969 1112.1979,62.2969 1112.1979,62.2969 C1112.1979,62.2969 1130.1979,62.2969 1130.1979,52.2969" fill="none" style="stroke:#181818;stroke-width:0.5;"/></g><g class="participant participant-tail" data-entity-uid="part5" data-qualified-name="db" id="part5-tail"><text fill="#000000" font-family="sans-serif" font-size="14" lengthAdjust="spacing" textLength="80.7529" x="1068.8215" y="1725.1904">PostgreSQL</text><text fill="#000000" font-family="sans-serif" font-size="14" lengthAdjust="spacing" textLength="77.5811" x="1070.4074" y="1741.4873">credentials</text><path d="M1094.1979,1754.7891 C1094.1979,1744.7891 1112.1979,1744.7891 1112.1979,1744.7891 C1112.1979,1744.7891 1130.1979,1744.7891 1130.1979,1754.7891 L1130.1979,1780.7891 C1130.1979,1790.7891 1112.1979,1790.7891 1112.1979,1790.7891 C1112.1979,1790.7891 1094.1979,1790.7891 1094.1979,1780.7891 L1094.1979,1754.7891" fill="#E2E2F0" style="stroke:#181818;stroke-width:0.5;"/><path d="M1094.1979,1754.7891 C1094.1979,1764.7891 1112.1979,1764.7891 1112.1979,1764.7891 C1112.1979,1764.7891 1130.1979,1764.7891 1130.1979,1754.7891" fill="none" style="stroke:#181818;stroke-width:0.5;"/></g><path d="M10,135.8906 L10,190.8906 L1140,190.8906 L1140,145.8906 L1130,135.8906 L10,135.8906" fill="#FEFFDD" style="stroke:#181818;stroke-width:0.5;"/><path d="M1130,135.8906 L1130,145.8906 L1140,145.8906 L1130,135.8906" fill="#FEFFDD" style="stroke:#181818;stroke-width:0.5;"/><text fill="#000000" font-family="sans-serif" font-size="13" lengthAdjust="spacing" textLength="30.3799" x="361.5113" y="152.9575">&#21069;&#25552;:</text><text fill="#000000" font-family="sans-serif" font-size="13" lengthAdjust="spacing" textLength="367.2057" x="361.5113" y="168.0903">- User &#12399; app-auth &#12391;&#12525;&#12464;&#12452;&#12531;&#28168;&#12415;&#65288;Bearer token &#12434;&#20445;&#25345;&#65289;</text><text fill="#000000" font-family="sans-serif" font-size="13" lengthAdjust="spacing" textLength="418.5518" x="361.5113" y="183.2231">- CC_LOGIN_ENCRYPTION_KEY &#12399; cc-login &#12392; cc-tunnel &#12395;&#27880;&#20837;&#28168;&#12415;</text><rect fill="#EEEEEE" height="3" style="stroke:#EEEEEE;stroke-width:1;" width="1256.7868" x="0" y="216.8555"/><line style="stroke:#000000;stroke-width:1;" x1="0" x2="1256.7868" y1="216.8555" y2="216.8555"/><line style="stroke:#000000;stroke-width:1;" x1="0" x2="1256.7868" y1="219.8555" y2="219.8555"/><rect fill="#EEEEEE" height="23.1328" style="stroke:#000000;stroke-width:2;" width="164.9474" x="545.9197" y="206.2891"/><text fill="#000000" font-family="sans-serif" font-size="13" font-weight="bold" lengthAdjust="spacing" textLength="146.4215" x="551.9197" y="222.356">Phase A: &#12525;&#12464;&#12452;&#12531;&#38283;&#22987;</text><g class="message" data-entity-1="part1" data-entity-2="part2" id="msg1"><polygon fill="#181818" points="305.7692,256.5547,315.7692,260.5547,305.7692,264.5547,309.7692,260.5547" style="stroke:#181818;stroke-width:1;"/><line style="stroke:#181818;stroke-width:1;" x1="38.9551" x2="311.7692" y1="260.5547" y2="260.5547"/><text fill="#000000" font-family="sans-serif" font-size="13" lengthAdjust="spacing" textLength="155.6001" x="45.9551" y="255.4888">/login/credentials &#12434;&#38283;&#12367;</text></g><g class="message" data-entity-1="part2" data-entity-2="part3" id="msg2"><polygon fill="#181818" points="694.1691,300.8203,704.1691,304.8203,694.1691,308.8203,698.1691,304.8203" style="stroke:#181818;stroke-width:1;"/><line style="stroke:#181818;stroke-width:1;" x1="317.7692" x2="700.1691" y1="304.8203" y2="304.8203"/><text fill="#000000" font-family="sans-serif" font-size="13" lengthAdjust="spacing" textLength="159.1421" x="324.7692" y="284.6216">POST /credentials/status</text><text fill="#000000" font-family="sans-serif" font-size="13" lengthAdjust="spacing" textLength="94.6626" x="324.7692" y="299.7544">(Bearer token)</text></g><g class="message" data-entity-1="part3" data-entity-2="part2" id="msg3"><polygon fill="#181818" points="328.7692,329.9531,318.7692,333.9531,328.7692,337.9531,324.7692,333.9531" style="stroke:#181818;stroke-width:1;"/><line style="stroke:#181818;stroke-width:1;stroke-dasharray:2,2;" x1="322.7692" x2="705.1691" y1="333.9531" y2="333.9531"/><text fill="#000000" font-family="sans-serif" font-size="13" lengthAdjust="spacing" textLength="151.5947" x="334.7692" y="328.8872">200 {registered: false}</text></g><g class="message" data-entity-1="part2" data-entity-2="part1" id="msg4"><polygon fill="#181818" points="49.9551,359.0859,39.9551,363.0859,49.9551,367.0859,45.9551,363.0859" style="stroke:#181818;stroke-width:1;"/><line style="stroke:#181818;stroke-width:1;" x1="43.9551" x2="316.7692" y1="363.0859" y2="363.0859"/><text fill="#000000" font-family="sans-serif" font-size="13" lengthAdjust="spacing" textLength="154.9592" x="55.9551" y="358.02">"&#35469;&#35388;&#12434;&#38283;&#22987;&#12375;&#12390;&#12367;&#12384;&#12373;&#12356;"</text></g><g class="message" data-entity-1="part1" data-entity-2="part2" id="msg5"><polygon fill="#181818" points="305.7692,388.2188,315.7692,392.2188,305.7692,396.2188,309.7692,392.2188" style="stroke:#181818;stroke-width:1;"/><line style="stroke:#181818;stroke-width:1;" x1="38.9551" x2="311.7692" y1="392.2188" y2="392.2188"/><text fill="#000000" font-family="sans-serif" font-size="13" lengthAdjust="spacing" textLength="156.0002" x="45.9551" y="387.1528">&#12300;&#12525;&#12464;&#12452;&#12531;&#38283;&#22987;&#12301;&#12463;&#12522;&#12483;&#12463;</text></g><g class="message" data-entity-1="part2" data-entity-2="part3" id="msg6"><polygon fill="#181818" points="694.1691,432.4844,704.1691,436.4844,694.1691,440.4844,698.1691,436.4844" style="stroke:#181818;stroke-width:1;"/><line style="stroke:#181818;stroke-width:1;" x1="317.7692" x2="700.1691" y1="436.4844" y2="436.4844"/><text fill="#000000" font-family="sans-serif" font-size="13" lengthAdjust="spacing" textLength="150.8647" x="324.7692" y="416.2856">POST /credentials/login</text><text fill="#000000" font-family="sans-serif" font-size="13" lengthAdjust="spacing" textLength="94.6626" x="324.7692" y="431.4185">(Bearer token)</text></g><g class="message" data-entity-1="part3" data-entity-2="part3" id="msg7"><line style="stroke:#181818;stroke-width:1;" x1="706.1691" x2="748.1691" y1="465.6172" y2="465.6172"/><line style="stroke:#181818;stroke-width:1;" x1="748.1691" x2="748.1691" y1="465.6172" y2="478.6172"/><line style="stroke:#181818;stroke-width:1;" x1="707.1691" x2="748.1691" y1="478.6172" y2="478.6172"/><polygon fill="#181818" points="717.1691,474.6172,707.1691,478.6172,717.1691,482.6172,713.1691,478.6172" style="stroke:#181818;stroke-width:1;"/><text fill="#000000" font-family="sans-serif" font-size="13" lengthAdjust="spacing" textLength="151.3282" x="713.1691" y="460.5513">token &#8594; username &#35299;&#27770;</text></g><g class="message" data-entity-1="part3" data-entity-2="part4" id="msg8"><polygon fill="#181818" points="1003.4748,518.8828,1013.4748,522.8828,1003.4748,526.8828,1007.4748,522.8828" style="stroke:#181818;stroke-width:1;"/><line style="stroke:#181818;stroke-width:1;" x1="706.1691" x2="1009.4748" y1="522.8828" y2="522.8828"/><text fill="#000000" font-family="sans-serif" font-size="13" lengthAdjust="spacing" textLength="221.2476" x="713.1691" y="502.6841">exec.Command("claude", "/auth")</text><text fill="#000000" font-family="sans-serif" font-size="13" lengthAdjust="spacing" textLength="82.1006" x="713.1691" y="517.8169">+ pty.Start()</text></g><g class="message" data-entity-1="part4" data-entity-2="part3" id="msg9"><polygon fill="#181818" points="717.1691,563.1484,707.1691,567.1484,717.1691,571.1484,713.1691,567.1484" style="stroke:#181818;stroke-width:1;"/><line style="stroke:#181818;stroke-width:1;stroke-dasharray:2,2;" x1="711.1691" x2="1014.4748" y1="567.1484" y2="567.1484"/><text fill="#000000" font-family="sans-serif" font-size="13" lengthAdjust="spacing" textLength="69.2656" x="723.1691" y="546.9497">PTY stdout</text><text fill="#000000" font-family="sans-serif" font-size="13" lengthAdjust="spacing" textLength="164.6138" x="723.1691" y="562.0825">("Choose login method:")</text></g><g class="message" data-entity-1="part3" data-entity-2="part2" id="msg10"><polygon fill="#181818" points="328.7692,592.2813,318.7692,596.2813,328.7692,600.2813,324.7692,596.2813" style="stroke:#181818;stroke-width:1;"/><line style="stroke:#181818;stroke-width:1;stroke-dasharray:2,2;" x1="322.7692" x2="705.1691" y1="596.2813" y2="596.2813"/><text fill="#000000" font-family="sans-serif" font-size="13" lengthAdjust="spacing" textLength="222.9297" x="334.7692" y="591.2153">200 {loginId, message: "started"}</text></g><rect fill="#EEEEEE" height="3" style="stroke:#EEEEEE;stroke-width:1;" width="1256.7868" x="0" y="624.8477"/><line style="stroke:#000000;stroke-width:1;" x1="0" x2="1256.7868" y1="624.8477" y2="624.8477"/><line style="stroke:#000000;stroke-width:1;" x1="0" x2="1256.7868" y1="627.8477" y2="627.8477"/><rect fill="#EEEEEE" height="23.1328" style="stroke:#000000;stroke-width:2;" width="206.5816" x="525.1026" y="614.2813"/><text fill="#000000" font-family="sans-serif" font-size="13" font-weight="bold" lengthAdjust="spacing" textLength="188.0558" x="531.1026" y="630.3481">Phase B: TUI &#25805;&#20316;&#65288;&#35469;&#35388;&#20013;&#65289;</text><path d="M10,654.4141 L86.624,654.4141 L86.624,661.5469 L76.624,671.5469 L10,671.5469 L10,654.4141" fill="#EEEEEE" style="stroke:#000000;stroke-width:1.5;"/><rect fill="none" height="236.1953" style="stroke:#000000;stroke-width:1.5;" width="1058.8215" x="10" y="654.4141"/><text fill="#000000" font-family="sans-serif" font-size="13" font-weight="bold" lengthAdjust="spacing" textLength="31.624" x="25" y="667.481">loop</text><text fill="#000000" font-family="sans-serif" font-size="11" font-weight="bold" lengthAdjust="spacing" textLength="153.0537" x="101.624" y="666.6245">[&#12518;&#12540;&#12470;&#12540;&#12364;&#35469;&#35388;&#23436;&#20102;&#12377;&#12427;&#12414;&#12391;]</text><g class="message" data-entity-1="part2" data-entity-2="part3" id="msg11"><polygon fill="#181818" points="694.1691,688.6797,704.1691,692.6797,694.1691,696.6797,698.1691,692.6797" style="stroke:#181818;stroke-width:1;"/><line style="stroke:#181818;stroke-width:1;" x1="317.7692" x2="700.1691" y1="692.6797" y2="692.6797"/><text fill="#000000" font-family="sans-serif" font-size="13" lengthAdjust="spacing" textLength="215.3252" x="324.7692" y="687.6138">GET /credentials/output?since=N</text></g><g class="message" data-entity-1="part3" data-entity-2="part2" id="msg12"><polygon fill="#181818" points="328.7692,717.8125,318.7692,721.8125,328.7692,725.8125,324.7692,721.8125" style="stroke:#181818;stroke-width:1;"/><line style="stroke:#181818;stroke-width:1;stroke-dasharray:2,2;" x1="322.7692" x2="705.1691" y1="721.8125" y2="721.8125"/><text fill="#000000" font-family="sans-serif" font-size="13" lengthAdjust="spacing" textLength="340.2407" x="334.7692" y="716.7466">200 {data: &lt;base64&gt;, cursor: M, status: "running"}</text></g><g class="message" data-entity-1="part2" data-entity-2="part1" id="msg13"><polygon fill="#181818" points="49.9551,746.9453,39.9551,750.9453,49.9551,754.9453,45.9551,750.9453" style="stroke:#181818;stroke-width:1;"/><line style="stroke:#181818;stroke-width:1;" x1="43.9551" x2="316.7692" y1="750.9453" y2="750.9453"/><text fill="#000000" font-family="sans-serif" font-size="13" lengthAdjust="spacing" textLength="151.6139" x="55.9551" y="745.8794">&#12479;&#12540;&#12511;&#12490;&#12523; UI &#12395;&#20986;&#21147;&#34920;&#31034;</text></g><g class="message" data-entity-1="part1" data-entity-2="part2" id="msg14"><polygon fill="#181818" points="305.7692,776.0781,315.7692,780.0781,305.7692,784.0781,309.7692,780.0781" style="stroke:#181818;stroke-width:1;"/><line style="stroke:#181818;stroke-width:1;" x1="38.9551" x2="311.7692" y1="780.0781" y2="780.0781"/><text fill="#000000" font-family="sans-serif" font-size="13" lengthAdjust="spacing" textLength="254.8141" x="45.9551" y="775.0122">&#20837;&#21147;&#65288;method &#36984;&#25246; / OAuth &#12467;&#12540;&#12489;&#12394;&#12393;&#65289;</text></g><g class="message" data-entity-1="part2" data-entity-2="part3" id="msg15"><polygon fill="#181818" points="694.1691,820.3438,704.1691,824.3438,694.1691,828.3438,698.1691,824.3438" style="stroke:#181818;stroke-width:1;"/><line style="stroke:#181818;stroke-width:1;" x1="317.7692" x2="700.1691" y1="824.3438" y2="824.3438"/><text fill="#000000" font-family="sans-serif" font-size="13" lengthAdjust="spacing" textLength="152.6357" x="324.7692" y="804.145">POST /credentials/input</text><text fill="#000000" font-family="sans-serif" font-size="13" lengthAdjust="spacing" textLength="82.8496" x="324.7692" y="819.2778">{input: "..."}</text></g><g class="message" data-entity-1="part3" data-entity-2="part4" id="msg16"><polygon fill="#181818" points="1003.4748,849.4766,1013.4748,853.4766,1003.4748,857.4766,1007.4748,853.4766" style="stroke:#181818;stroke-width:1;"/><line style="stroke:#181818;stroke-width:1;" x1="706.1691" x2="1009.4748" y1="853.4766" y2="853.4766"/><text fill="#000000" font-family="sans-serif" font-size="13" lengthAdjust="spacing" textLength="96.6431" x="713.1691" y="848.4106">PTY stdin write</text></g><g class="message" data-entity-1="part4" data-entity-2="part3" id="msg17"><polygon fill="#181818" points="717.1691,878.6094,707.1691,882.6094,717.1691,886.6094,713.1691,882.6094" style="stroke:#181818;stroke-width:1;"/><line style="stroke:#181818;stroke-width:1;stroke-dasharray:2,2;" x1="711.1691" x2="1014.4748" y1="882.6094" y2="882.6094"/><text fill="#000000" font-family="sans-serif" font-size="13" lengthAdjust="spacing" textLength="52.0001" x="723.1691" y="877.5435">&#27425;&#12398;&#20986;&#21147;</text></g><path d="M1020,902.6094 L1020,957.6094 L1251,957.6094 L1251,912.6094 L1241,902.6094 L1020,902.6094" fill="#FEFFDD" style="stroke:#181818;stroke-width:0.5;"/><path d="M1241,902.6094 L1241,912.6094 L1251,912.6094 L1241,902.6094" fill="#FEFFDD" style="stroke:#181818;stroke-width:0.5;"/><text fill="#000000" font-family="sans-serif" font-size="13" lengthAdjust="spacing" textLength="172.5992" x="1026" y="919.6763">claude CLI &#12399; OAuth &#23436;&#20102;&#12391;</text><text fill="#000000" font-family="sans-serif" font-size="13" lengthAdjust="spacing" textLength="162.9888" x="1026" y="934.8091">/.claude/.credentials.json</text><text fill="#000000" font-family="sans-serif" font-size="13" lengthAdjust="spacing" textLength="210.7868" x="1026" y="949.9419">&#12434;&#26360;&#12365;&#36796;&#12416;&#65288;cc-login &#12467;&#12531;&#12486;&#12490;&#20869;&#65289;</text><g class="message" data-entity-1="part4" data-entity-2="part3" id="msg18"><polygon fill="#181818" points="717.1691,980.1406,707.1691,984.1406,717.1691,988.1406,713.1691,984.1406" style="stroke:#181818;stroke-width:1;"/><line style="stroke:#181818;stroke-width:1;stroke-dasharray:2,2;" x1="711.1691" x2="1014.4748" y1="984.1406" y2="984.1406"/><text fill="#000000" font-family="sans-serif" font-size="13" lengthAdjust="spacing" textLength="174.6304" x="723.1691" y="979.0747">"Login successful" + exit 0</text></g><g class="message" data-entity-1="part3" data-entity-2="part3" id="msg19"><line style="stroke:#181818;stroke-width:1;" x1="706.1691" x2="748.1691" y1="1013.2734" y2="1013.2734"/><line style="stroke:#181818;stroke-width:1;" x1="748.1691" x2="748.1691" y1="1013.2734" y2="1026.2734"/><line style="stroke:#181818;stroke-width:1;" x1="707.1691" x2="748.1691" y1="1026.2734" y2="1026.2734"/><polygon fill="#181818" points="717.1691,1022.2734,707.1691,1026.2734,717.1691,1030.2734,713.1691,1026.2734" style="stroke:#181818;stroke-width:1;"/><text fill="#000000" font-family="sans-serif" font-size="13" lengthAdjust="spacing" textLength="185.2755" x="713.1691" y="1008.2075">status &#12434; "completed" &#12395;&#26356;&#26032;</text></g><g class="message" data-entity-1="part2" data-entity-2="part3" id="msg20"><polygon fill="#181818" points="694.1691,1051.4063,704.1691,1055.4063,694.1691,1059.4063,698.1691,1055.4063" style="stroke:#181818;stroke-width:1;"/><line style="stroke:#181818;stroke-width:1;" x1="317.7692" x2="700.1691" y1="1055.4063" y2="1055.4063"/><text fill="#000000" font-family="sans-serif" font-size="13" lengthAdjust="spacing" textLength="215.3252" x="324.7692" y="1050.3403">GET /credentials/output?since=N</text></g><g class="message" data-entity-1="part3" data-entity-2="part2" id="msg21"><polygon fill="#181818" points="328.7692,1080.5391,318.7692,1084.5391,328.7692,1088.5391,324.7692,1084.5391" style="stroke:#181818;stroke-width:1;"/><line style="stroke:#181818;stroke-width:1;stroke-dasharray:2,2;" x1="322.7692" x2="705.1691" y1="1084.5391" y2="1084.5391"/><text fill="#000000" font-family="sans-serif" font-size="13" lengthAdjust="spacing" textLength="364.3999" x="334.7692" y="1079.4731">200 {data: "...Login successful...", status: "completed"}</text></g><rect fill="#EEEEEE" height="3" style="stroke:#EEEEEE;stroke-width:1;" width="1256.7868" x="0" y="1113.1055"/><line style="stroke:#000000;stroke-width:1;" x1="0" x2="1256.7868" y1="1113.1055" y2="1113.1055"/><line style="stroke:#000000;stroke-width:1;" x1="0" x2="1256.7868" y1="1116.1055" y2="1116.1055"/><rect fill="#EEEEEE" height="23.1328" style="stroke:#000000;stroke-width:2;" width="254.6524" x="501.0672" y="1102.5391"/><text fill="#000000" font-family="sans-serif" font-size="13" font-weight="bold" lengthAdjust="spacing" textLength="236.1265" x="507.0672" y="1118.606">Phase C: credentials &#12434; DB &#12408;&#23553;&#20837;</text><g class="message" data-entity-1="part2" data-entity-2="part3" id="msg22"><polygon fill="#181818" points="694.1691,1167.9375,704.1691,1171.9375,694.1691,1175.9375,698.1691,1171.9375" style="stroke:#181818;stroke-width:1;"/><line style="stroke:#181818;stroke-width:1;" x1="317.7692" x2="700.1691" y1="1171.9375" y2="1171.9375"/><text fill="#000000" font-family="sans-serif" font-size="13" lengthAdjust="spacing" textLength="165.6357" x="324.7692" y="1151.7388">POST /credentials/finalize</text><text fill="#000000" font-family="sans-serif" font-size="13" lengthAdjust="spacing" textLength="94.6626" x="324.7692" y="1166.8716">(Bearer token)</text></g><g class="message" data-entity-1="part3" data-entity-2="part3" id="msg23"><line style="stroke:#181818;stroke-width:1;" x1="706.1691" x2="748.1691" y1="1201.0703" y2="1201.0703"/><line style="stroke:#181818;stroke-width:1;" x1="748.1691" x2="748.1691" y1="1201.0703" y2="1214.0703"/><line style="stroke:#181818;stroke-width:1;" x1="707.1691" x2="748.1691" y1="1214.0703" y2="1214.0703"/><polygon fill="#181818" points="717.1691,1210.0703,707.1691,1214.0703,717.1691,1218.0703,713.1691,1214.0703" style="stroke:#181818;stroke-width:1;"/><text fill="#000000" font-family="sans-serif" font-size="13" lengthAdjust="spacing" textLength="280.0904" x="713.1691" y="1196.0044">/home/user/.claude/.credentials.json &#12434;&#35501;&#12416;</text></g><g class="message" data-entity-1="part3" data-entity-2="part3" id="msg24"><line style="stroke:#181818;stroke-width:1;" x1="706.1691" x2="748.1691" y1="1243.2031" y2="1243.2031"/><line style="stroke:#181818;stroke-width:1;" x1="748.1691" x2="748.1691" y1="1243.2031" y2="1256.2031"/><line style="stroke:#181818;stroke-width:1;" x1="707.1691" x2="748.1691" y1="1256.2031" y2="1256.2031"/><polygon fill="#181818" points="717.1691,1252.2031,707.1691,1256.2031,717.1691,1260.2031,713.1691,1256.2031" style="stroke:#181818;stroke-width:1;"/><text fill="#000000" font-family="sans-serif" font-size="13" lengthAdjust="spacing" textLength="105.3077" x="713.1691" y="1238.1372">&#24179;&#25991; JSON &#12434;&#21462;&#24471;</text></g><g class="message" data-entity-1="part3" data-entity-2="part3" id="msg25"><line style="stroke:#181818;stroke-width:1;" x1="706.1691" x2="748.1691" y1="1285.3359" y2="1285.3359"/><line style="stroke:#181818;stroke-width:1;" x1="748.1691" x2="748.1691" y1="1285.3359" y2="1298.3359"/><line style="stroke:#181818;stroke-width:1;" x1="707.1691" x2="748.1691" y1="1298.3359" y2="1298.3359"/><polygon fill="#181818" points="717.1691,1294.3359,707.1691,1298.3359,717.1691,1302.3359,713.1691,1298.3359" style="stroke:#181818;stroke-width:1;"/><text fill="#000000" font-family="sans-serif" font-size="13" lengthAdjust="spacing" textLength="194.1304" x="713.1691" y="1280.27">nonce = crypto/rand 12B &#29983;&#25104;</text></g><g class="message" data-entity-1="part3" data-entity-2="part3" id="msg26"><line style="stroke:#181818;stroke-width:1;" x1="706.1691" x2="748.1691" y1="1342.6016" y2="1342.6016"/><line style="stroke:#181818;stroke-width:1;" x1="748.1691" x2="748.1691" y1="1342.6016" y2="1355.6016"/><line style="stroke:#181818;stroke-width:1;" x1="707.1691" x2="748.1691" y1="1355.6016" y2="1355.6016"/><polygon fill="#181818" points="717.1691,1351.6016,707.1691,1355.6016,717.1691,1359.6016,713.1691,1355.6016" style="stroke:#181818;stroke-width:1;"/><text fill="#000000" font-family="sans-serif" font-size="13" lengthAdjust="spacing" textLength="175.5571" x="713.1691" y="1322.4028">ciphertext = AES-256-GCM</text><text fill="#000000" font-family="sans-serif" font-size="13" lengthAdjust="spacing" textLength="287.041" x="721.4338" y="1337.5356">Seal(key, nonce, plaintext, AAD=username)</text></g><g class="message" data-entity-1="part3" data-entity-2="part5" id="msg27"><polygon fill="#181818" points="1100.1979,1411,1110.1979,1415,1100.1979,1419,1104.1979,1415" style="stroke:#181818;stroke-width:1;"/><line style="stroke:#181818;stroke-width:1;" x1="706.1691" x2="1106.1979" y1="1415" y2="1415"/><text fill="#000000" font-family="sans-serif" font-size="13" lengthAdjust="spacing" textLength="123.1699" x="713.1691" y="1379.6685">INSERT credentials</text><text fill="#000000" font-family="sans-serif" font-size="13" lengthAdjust="spacing" textLength="338.0381" x="713.1691" y="1394.8013">(username, encrypted_data, nonce, key_version=1)</text><text fill="#000000" font-family="sans-serif" font-size="13" lengthAdjust="spacing" textLength="244.9814" x="713.1691" y="1409.9341">ON CONFLICT(username) DO UPDATE</text></g><g class="message" data-entity-1="part5" data-entity-2="part3" id="msg28"><polygon fill="#181818" points="717.1691,1440.1328,707.1691,1444.1328,717.1691,1448.1328,713.1691,1444.1328" style="stroke:#181818;stroke-width:1;"/><line style="stroke:#181818;stroke-width:1;stroke-dasharray:2,2;" x1="711.1691" x2="1111.1979" y1="1444.1328" y2="1444.1328"/><text fill="#000000" font-family="sans-serif" font-size="13" lengthAdjust="spacing" textLength="18.7573" x="723.1691" y="1439.0669">OK</text></g><g class="message" data-entity-1="part3" data-entity-2="part3" id="msg29"><line style="stroke:#181818;stroke-width:1;" x1="706.1691" x2="748.1691" y1="1473.2656" y2="1473.2656"/><line style="stroke:#181818;stroke-width:1;" x1="748.1691" x2="748.1691" y1="1473.2656" y2="1486.2656"/><line style="stroke:#181818;stroke-width:1;" x1="707.1691" x2="748.1691" y1="1486.2656" y2="1486.2656"/><polygon fill="#181818" points="717.1691,1482.2656,707.1691,1486.2656,717.1691,1490.2656,713.1691,1486.2656" style="stroke:#181818;stroke-width:1;"/><text fill="#000000" font-family="sans-serif" font-size="13" lengthAdjust="spacing" textLength="202.0143" x="713.1691" y="1468.1997">&#12525;&#12540;&#12459;&#12523; credentials.json &#12434;&#21066;&#38500;</text></g><g class="message" data-entity-1="part3" data-entity-2="part2" id="msg30"><polygon fill="#181818" points="328.7692,1511.3984,318.7692,1515.3984,328.7692,1519.3984,324.7692,1515.3984" style="stroke:#181818;stroke-width:1;"/><line style="stroke:#181818;stroke-width:1;stroke-dasharray:2,2;" x1="322.7692" x2="705.1691" y1="1515.3984" y2="1515.3984"/><text fill="#000000" font-family="sans-serif" font-size="13" lengthAdjust="spacing" textLength="233.5239" x="334.7692" y="1510.3325">200 {registered: true, isValid: true}</text></g><g class="message" data-entity-1="part2" data-entity-2="part1" id="msg31"><polygon fill="#181818" points="49.9551,1540.5313,39.9551,1544.5313,49.9551,1548.5313,45.9551,1544.5313" style="stroke:#181818;stroke-width:1;"/><line style="stroke:#181818;stroke-width:1;" x1="43.9551" x2="316.7692" y1="1544.5313" y2="1544.5313"/><text fill="#000000" font-family="sans-serif" font-size="13" lengthAdjust="spacing" textLength="206.9592" x="55.9551" y="1539.4653">"&#30331;&#37682;&#23436;&#20102;&#12290;&#12481;&#12515;&#12483;&#12488;&#12408;&#31227;&#21205;&#12375;&#12414;&#12377;"</text></g><g class="message" data-entity-1="part2" data-entity-2="part2" id="msg32"><line style="stroke:#181818;stroke-width:1;" x1="317.7692" x2="359.7692" y1="1573.6641" y2="1573.6641"/><line style="stroke:#181818;stroke-width:1;" x1="359.7692" x2="359.7692" y1="1573.6641" y2="1586.6641"/><line style="stroke:#181818;stroke-width:1;" x1="318.7692" x2="359.7692" y1="1586.6641" y2="1586.6641"/><polygon fill="#181818" points="328.7692,1582.6641,318.7692,1586.6641,328.7692,1590.6641,324.7692,1586.6641" style="stroke:#181818;stroke-width:1;"/><text fill="#000000" font-family="sans-serif" font-size="13" lengthAdjust="spacing" textLength="75.9624" x="324.7692" y="1568.5981">/chat &#12408;&#36983;&#31227;</text></g><rect fill="#EEEEEE" height="3" style="stroke:#EEEEEE;stroke-width:1;" width="1256.7868" x="0" y="1615.2305"/><line style="stroke:#000000;stroke-width:1;" x1="0" x2="1256.7868" y1="1615.2305" y2="1615.2305"/><line style="stroke:#000000;stroke-width:1;" x1="0" x2="1256.7868" y1="1618.2305" y2="1618.2305"/><rect fill="#EEEEEE" height="23.1328" style="stroke:#000000;stroke-width:2;" width="230.6774" x="513.0547" y="1604.6641"/><text fill="#000000" font-family="sans-serif" font-size="13" font-weight="bold" lengthAdjust="spacing" textLength="212.1515" x="519.0547" y="1620.731">Phase D: &#12461;&#12515;&#12531;&#12475;&#12523;&#32076;&#36335;&#65288;&#20219;&#24847;&#65289;</text><path d="M264,1642.7969 L264,1697.7969 L758,1697.7969 L758,1652.7969 L748,1642.7969 L264,1642.7969" fill="#FEFFDD" style="stroke:#181818;stroke-width:0.5;"/><path d="M748,1642.7969 L748,1652.7969 L758,1652.7969 L748,1642.7969" fill="#FEFFDD" style="stroke:#181818;stroke-width:0.5;"/><text fill="#000000" font-family="sans-serif" font-size="13" lengthAdjust="spacing" textLength="277.3802" x="310.1445" y="1659.8638">&#12518;&#12540;&#12470;&#12540;&#12364;&#36884;&#20013;&#12391;&#12300;&#12461;&#12515;&#12531;&#12475;&#12523;&#12301;&#12434;&#25276;&#12375;&#12383;&#22580;&#21512;:</text><text fill="#000000" font-family="sans-serif" font-size="13" lengthAdjust="spacing" textLength="393.3452" x="310.1445" y="1674.9966">POST /credentials/cancel &#8594; cc-login &#12364; PTY &#12434;&#12471;&#12464;&#12490;&#12523; KILL &#12375;</text><text fill="#000000" font-family="sans-serif" font-size="13" lengthAdjust="spacing" textLength="280.0904" x="310.1445" y="1690.1294">/home/user/.claude/.credentials.json &#12434;&#21066;&#38500;</text><?plantuml-src bLPjRnD74Fv-ls9qNve8lm1g-M3LL8aJg1jZkzXKYXGfEiwR-8gpvzwjMoYYolaWvCLH48MWYBQ0e2HDoaiRMj8aXV_IpLsSJ_o5pkxPYMrCIQKeFfzdPf-PUUQP_G2u-vYxsxpwf_Zlr43NmoLptA30dMNGIrgbG42tI85GPcWb6tZrvkxIrbxjT-uiyUeSTszpTusxM_BX2GPH56Qm4e74lXEaPC0S-Qf2g4wWftb6hw9eEZCjKC_Pn591iw623qfPivYX6sMDCb1FMIPbX1P6Q5GwHLlGI9SnqkxGZ3v2FytdiqUo-M5ffkloROTja60YbHoXFMZP6vZAjqf1OzfvpIQWPasRZLiaztbgX7OUNpYlADHa1ColYINnXyGx06zctb-u4SEdC8ZyiABFG2kNmrg55KLvHRsgptdr4NVN_Orfxhn-iptTJpGBRPbvWL1Hx9tNF_ervytsZ8oJI8ocCgUJwT71TEBiS3QVpAH7XmQ7PUYMpgs8Bwn2AIdXjpL_VSMxzdDmX8Ab185NKU9no1P5VdqnQCMojpZdBSz1FAue8Xq8dyGQGmpUhhy0YDRSML3G0kqQHKRZR2QNXrRRgCqqLh6npgqfzYfDbt3pcED7Zy9bYumRDYFe7eCnz2PN6YT8H35GwwlpzPNju7n4ovqxt7cCGBXpdpktkNDLxK3F9sjl9yadvtdr6NTNkUlYmo6oQ53hNKcqEWSz_6VgfWHDjGa2zUM7_c-RRUO10sD0BX8zaZ0d9ZHQw6aGKms16XLqKNj7w14eiqkH74F-zk29WL-u7Mv-66nMC2iC4Qg9ecbYTuCV9mWhceMO-gw2otV9GWWDRLiR9rXYMnn52kgL5ghqno1_BWd-z_CxV_-0T0tQiBFn11ag6LCopNAdg0H6tjFQpkPKGpQSLpW0IEdEWfyUxAWtvbAki4zi0vKZdaQFxl35hCRWOp6k9puy6GAzOjcc5OCp8GXuX_bOE1067STyckSsoCIhhmLGznvtPr7D01F4gV6kRtgpT-iFLdOVRIheqiOcd2Vy4GiGr1Nsd0r_zYU8GgPFJdTrNKQSuSugTtu9nlVzv39eMRJkiln4n958HABjnfT6h_7jDvQ1umpGbHB-hm-uypJ8HSn-GwmiOxp8m1nhQjs-DqgXL9CWZsRFHAk-YqO26_mym1pvqZOf_egJwD_TuCvy_HKsVX8hSw17eXZuDuNbzQQkYM8SY51Nq6gmCUoAhYCRnoeb5OxWW1WCZdOVjQ370WHgkZbHBX51NAbzTr_uYyyLvVyIxRze9lhIYL2qgeLh1o1QfoSHwzobCD2FA3UyvmuoIWxG-raoPb2jP7nB3gT2qQ8vGQA2lE_kdq1INqLndEmUm_jhtL-y3f_bCcbXwYqiUg_kT3UbfbZnSSppKfcPKGlL38uTxuVTM_VywHlTVN0R5mbApKM6Zds3kV3nZqw4JoVEZ530MuDMwhb0BeM2o24ebpI32jiGzFKDn9lIsfPzuJn6JQPpWsVphGN7WZNDGu1N4G6H54P5K_V3ur6ZkCXjmwJnOwYwc74YapwLIYRo-ywzC921Szc1lloWWaUrSpSpr3t9u7R4gsj2ORerm9kPtLjwT8XzoAmA0ZNiBv05ZQzNb8xr6DpH6kCxMUMkmzs7OicvU0dOs5tUykPkovs9EhoaDfo3BQyNDIOukUUyHBiMzWu8fNmYuwppAjxurdR_gDLVFiDPtzdQygykD7V0mNLe384sBrxGkHRs9c_XuX0N8LpDxO7bNhxfpsvBZFUy-o-y6zFYAlNsDEWQzgqarspB3QWczH5ZyEfBiVC3OHzAfbBuunqCTDYnQ7HbNx3-1G00?></g></svg>