<?plantuml 1.2026.2?><svg xmlns="http://www.w3.org/2000/svg" xmlns:xlink="http://www.w3.org/1999/xlink" contentStyleType="text/css" data-diagram-type="SEQUENCE" height="1892px" preserveAspectRatio="none" style="width:1580px;height:1892px;background:#FFFFFF;" version="1.1" viewBox="0 0 1580 1892" width="1580px" zoomAndPan="magnify"><title>docker_gce &#12510;&#12523;&#12481;&#12467;&#12531;&#12486;&#12490;&#12539;&#12503;&#12540;&#12523;&#31649;&#29702;&#65288;subtask_dcgmc &#27010;&#35201;&#65289;</title><defs/><g><text fill="#000000" font-family="sans-serif" font-size="14" font-weight="bold" lengthAdjust="spacing" textLength="456.5439" x="557.9847" y="27.9951">docker_gce &#12510;&#12523;&#12481;&#12467;&#12531;&#12486;&#12490;&#12539;&#12503;&#12540;&#12523;&#31649;&#29702;&#65288;subtask_dcgmc &#27010;&#35201;&#65289;</text><g class="participant-lifeline" data-entity-uid="part1" data-qualified-name="User" id="part1-lifeline"><g><title>User</title><rect fill="#000000" fill-opacity="0.00000" height="1644.5703" width="8" x="19.9551" y="137.1875"/><line style="stroke:#181818;stroke-width:0.5;stroke-dasharray:5,5;" x1="23" x2="23" y1="137.1875" y2="1781.7578"/></g></g><g class="participant-lifeline" data-entity-uid="part2" data-qualified-name="FE" id="part2-lifeline"><g><title>frontend</title><rect fill="#000000" fill-opacity="0.00000" height="1644.5703" width="8" x="139.3922" y="137.1875"/><line style="stroke:#181818;stroke-width:0.5;stroke-dasharray:5,5;" x1="142.9732" x2="142.9732" y1="137.1875" y2="1781.7578"/></g></g><g class="participant-lifeline" data-entity-uid="part3" data-qualified-name="TUN" id="part3-lifeline"><g><title>cc-tunnel</title><rect fill="#000000" fill-opacity="0.00000" height="1644.5703" width="8" x="324.9464" y="137.1875"/><line style="stroke:#181818;stroke-width:0.5;stroke-dasharray:5,5;" x1="328.5274" x2="328.5274" y1="137.1875" y2="1781.7578"/></g></g><g class="participant-lifeline" data-entity-uid="part4" data-qualified-name="DGP" id="part4-lifeline"><g><title>DockerGCEProvider</title><rect fill="#000000" fill-opacity="0.00000" height="1644.5703" width="8" x="458.9571" y="137.1875"/><line style="stroke:#181818;stroke-width:0.5;stroke-dasharray:5,5;" x1="462.3653" x2="462.3653" y1="137.1875" y2="1781.7578"/></g></g><g class="participant-lifeline" data-entity-uid="part5" data-qualified-name="DB" id="part5-lifeline"><g><title>PostgreSQL</title><rect fill="#000000" fill-opacity="0.00000" height="1644.5703" width="8" x="921.4786" y="137.1875"/><line style="stroke:#181818;stroke-width:0.5;stroke-dasharray:5,5;" x1="925.4254" x2="925.4254" y1="137.1875" y2="1781.7578"/></g></g><g class="participant-lifeline" data-entity-uid="part6" data-qualified-name="GCE" id="part6-lifeline"><g><title>GCE Compute API</title><rect fill="#000000" fill-opacity="0.00000" height="1644.5703" width="8" x="1072.7115" y="137.1875"/><line style="stroke:#181818;stroke-width:0.5;stroke-dasharray:5,5;" x1="1076.5318" x2="1076.5318" y1="137.1875" y2="1781.7578"/></g></g><g class="participant-lifeline" data-entity-uid="part7" data-qualified-name="VMA" id="part7-lifeline"><g><title>GCE VM A</title><rect fill="#000000" fill-opacity="0.00000" height="1644.5703" width="8" x="1217.1846" y="137.1875"/><line style="stroke:#181818;stroke-width:0.5;stroke-dasharray:5,5;" x1="1220.8912" x2="1220.8912" y1="137.1875" y2="1781.7578"/></g></g><g class="participant-lifeline" data-entity-uid="part8" data-qualified-name="CA1" id="part8-lifeline"><g><title>session-.conv1.</title><rect fill="#000000" fill-opacity="0.00000" height="1644.5703" width="8" x="1357.9869" y="137.1875"/><line style="stroke:#181818;stroke-width:0.5;stroke-dasharray:5,5;" x1="1361.4781" x2="1361.4781" y1="137.1875" y2="1781.7578"/></g></g><g class="participant-lifeline" data-entity-uid="part9" data-qualified-name="CA2" id="part9-lifeline"><g><title>session-.conv2.</title><rect fill="#000000" fill-opacity="0.00000" height="1644.5703" width="8" x="1499.0045" y="137.1875"/><line style="stroke:#181818;stroke-width:0.5;stroke-dasharray:5,5;" x1="1502.4957" x2="1502.4957" y1="137.1875" y2="1781.7578"/></g></g><g class="participant participant-head" data-entity-uid="part1" data-qualified-name="User" id="part1-head"><text fill="#000000" font-family="sans-serif" font-size="14" lengthAdjust="spacing" textLength="31.9102" x="5" y="133.8857">User</text><ellipse cx="23.9551" cy="69.3906" fill="#E2E2F0" rx="8" ry="8" style="stroke:#181818;stroke-width:0.5;"/><path d="M23.9551,77.3906 L23.9551,104.3906 M10.9551,85.3906 L36.9551,85.3906 M23.9551,104.3906 L10.9551,119.3906 M23.9551,104.3906 L36.9551,119.3906" fill="none" style="stroke:#181818;stroke-width:0.5;"/></g><g class="participant participant-tail" data-entity-uid="part1" data-qualified-name="User" id="part1-tail"><text fill="#000000" font-family="sans-serif" font-size="14" lengthAdjust="spacing" textLength="31.9102" x="5" y="1793.7529">User</text><ellipse cx="23.9551" cy="1805.5547" fill="#E2E2F0" rx="8" ry="8" style="stroke:#181818;stroke-width:0.5;"/><path d="M23.9551,1813.5547 L23.9551,1840.5547 M10.9551,1821.5547 L36.9551,1821.5547 M23.9551,1840.5547 L10.9551,1855.5547 M23.9551,1840.5547 L36.9551,1855.5547" fill="none" style="stroke:#181818;stroke-width:0.5;"/></g><g class="participant participant-head" data-entity-uid="part2" data-qualified-name="FE" id="part2-head"><rect fill="#E2E2F0" height="46.5938" rx="2.5" ry="2.5" style="stroke:#181818;stroke-width:0.5;" width="96.8379" x="94.9732" y="89.5938"/><text fill="#000000" font-family="sans-serif" font-size="14" lengthAdjust="spacing" textLength="59.9854" x="113.3995" y="109.5889">frontend</text><text fill="#000000" font-family="sans-serif" font-size="14" lengthAdjust="spacing" textLength="82.8379" x="101.9732" y="125.8857">(Cloud Run)</text></g><g class="participant participant-tail" data-entity-uid="part2" data-qualified-name="FE" id="part2-tail"><rect fill="#E2E2F0" height="46.5938" rx="2.5" ry="2.5" style="stroke:#181818;stroke-width:0.5;" width="96.8379" x="94.9732" y="1780.7578"/><text fill="#000000" font-family="sans-serif" font-size="14" lengthAdjust="spacing" textLength="59.9854" x="113.3995" y="1800.7529">frontend</text><text fill="#000000" font-family="sans-serif" font-size="14" lengthAdjust="spacing" textLength="82.8379" x="101.9732" y="1817.0498">(Cloud Run)</text></g><g class="participant participant-head" data-entity-uid="part3" data-qualified-name="TUN" id="part3-head"><rect fill="#E2E2F0" height="46.5938" rx="2.5" ry="2.5" style="stroke:#181818;stroke-width:0.5;" width="96.8379" x="280.5274" y="89.5938"/><text fill="#000000" font-family="sans-serif" font-size="14" lengthAdjust="spacing" textLength="65.0576" x="296.4175" y="109.5889">cc-tunnel</text><text fill="#000000" font-family="sans-serif" font-size="14" lengthAdjust="spacing" textLength="82.8379" x="287.5274" y="125.8857">(Cloud Run)</text></g><g class="participant participant-tail" data-entity-uid="part3" data-qualified-name="TUN" id="part3-tail"><rect fill="#E2E2F0" height="46.5938" rx="2.5" ry="2.5" style="stroke:#181818;stroke-width:0.5;" width="96.8379" x="280.5274" y="1780.7578"/><text fill="#000000" font-family="sans-serif" font-size="14" lengthAdjust="spacing" textLength="65.0576" x="296.4175" y="1800.7529">cc-tunnel</text><text fill="#000000" font-family="sans-serif" font-size="14" lengthAdjust="spacing" textLength="82.8379" x="287.5274" y="1817.0498">(Cloud Run)</text></g><g class="participant participant-head" data-entity-uid="part4" data-qualified-name="DGP" id="part4-head"><rect fill="#E2E2F0" height="30.2969" rx="2.5" ry="2.5" style="stroke:#181818;stroke-width:0.5;" width="151.1836" x="387.3653" y="105.8906"/><text fill="#000000" font-family="sans-serif" font-size="14" lengthAdjust="spacing" textLength="137.1836" x="394.3653" y="125.8857">DockerGCEProvider</text></g><g class="participant participant-tail" data-entity-uid="part4" data-qualified-name="DGP" id="part4-tail"><rect fill="#E2E2F0" height="30.2969" rx="2.5" ry="2.5" style="stroke:#181818;stroke-width:0.5;" width="151.1836" x="387.3653" y="1780.7578"/><text fill="#000000" font-family="sans-serif" font-size="14" lengthAdjust="spacing" textLength="137.1836" x="394.3653" y="1800.7529">DockerGCEProvider</text></g><g class="participant participant-head" data-entity-uid="part5" data-qualified-name="DB" id="part5-head"><text fill="#000000" font-family="sans-serif" font-size="14" lengthAdjust="spacing" textLength="80.7529" x="882.1021" y="101.292">PostgreSQL</text><text fill="#000000" font-family="sans-serif" font-size="14" lengthAdjust="spacing" textLength="100.9873" x="871.9849" y="117.5889">(vm_instances</text><text fill="#000000" font-family="sans-serif" font-size="14" lengthAdjust="spacing" textLength="133.6563" x="857.8755" y="133.8857">session_endpoints)</text><path d="M907.4786,52.2969 C907.4786,42.2969 925.4786,42.2969 925.4786,42.2969 C925.4786,42.2969 943.4786,42.2969 943.4786,52.2969 L943.4786,78.2969 C943.4786,88.2969 925.4786,88.2969 925.4786,88.2969 C925.4786,88.2969 907.4786,88.2969 907.4786,78.2969 L907.4786,52.2969" fill="#E2E2F0" style="stroke:#181818;stroke-width:0.5;"/><path d="M907.4786,52.2969 C907.4786,62.2969 925.4786,62.2969 925.4786,62.2969 C925.4786,62.2969 943.4786,62.2969 943.4786,52.2969" fill="none" style="stroke:#181818;stroke-width:0.5;"/></g><g class="participant participant-tail" data-entity-uid="part5" data-qualified-name="DB" id="part5-tail"><text fill="#000000" font-family="sans-serif" font-size="14" lengthAdjust="spacing" textLength="80.7529" x="882.1021" y="1793.7529">PostgreSQL</text><text fill="#000000" font-family="sans-serif" font-size="14" lengthAdjust="spacing" textLength="100.9873" x="871.9849" y="1810.0498">(vm_instances</text><text fill="#000000" font-family="sans-serif" font-size="14" lengthAdjust="spacing" textLength="133.6563" x="857.8755" y="1826.3467">session_endpoints)</text><path d="M907.4786,1839.6484 C907.4786,1829.6484 925.4786,1829.6484 925.4786,1829.6484 C925.4786,1829.6484 943.4786,1829.6484 943.4786,1839.6484 L943.4786,1865.6484 C943.4786,1875.6484 925.4786,1875.6484 925.4786,1875.6484 C925.4786,1875.6484 907.4786,1875.6484 907.4786,1865.6484 L907.4786,1839.6484" fill="#E2E2F0" style="stroke:#181818;stroke-width:0.5;"/><path d="M907.4786,1839.6484 C907.4786,1849.6484 925.4786,1849.6484 925.4786,1849.6484 C925.4786,1849.6484 943.4786,1849.6484 943.4786,1839.6484" fill="none" style="stroke:#181818;stroke-width:0.5;"/></g><g class="participant participant-head" data-entity-uid="part6" data-qualified-name="GCE" id="part6-head"><rect fill="#E2E2F0" height="30.2969" rx="2.5" ry="2.5" style="stroke:#181818;stroke-width:0.5;" width="138.3594" x="1007.5318" y="105.8906"/><text fill="#000000" font-family="sans-serif" font-size="14" lengthAdjust="spacing" textLength="124.3594" x="1014.5318" y="125.8857">GCE Compute API</text></g><g class="participant participant-tail" data-entity-uid="part6" data-qualified-name="GCE" id="part6-tail"><rect fill="#E2E2F0" height="30.2969" rx="2.5" ry="2.5" style="stroke:#181818;stroke-width:0.5;" width="138.3594" x="1007.5318" y="1780.7578"/><text fill="#000000" font-family="sans-serif" font-size="14" lengthAdjust="spacing" textLength="124.3594" x="1014.5318" y="1800.7529">GCE Compute API</text></g><g class="participant participant-head" data-entity-uid="part7" data-qualified-name="VMA" id="part7-head"><rect fill="#E2E2F0" height="62.8906" rx="2.5" ry="2.5" style="stroke:#181818;stroke-width:0.5;" width="130.5869" x="1155.8912" y="73.2969"/><text fill="#000000" font-family="sans-serif" font-size="14" lengthAdjust="spacing" textLength="69.6035" x="1186.3829" y="93.292">GCE VM A</text><text fill="#000000" font-family="sans-serif" font-size="14" lengthAdjust="spacing" textLength="116.5869" x="1162.8912" y="109.5889">(Docker daemon</text><text fill="#000000" font-family="sans-serif" font-size="14" lengthAdjust="spacing" textLength="82.0313" x="1180.169" y="125.8857">tcp://:2375)</text></g><g class="participant participant-tail" data-entity-uid="part7" data-qualified-name="VMA" id="part7-tail"><rect fill="#E2E2F0" height="62.8906" rx="2.5" ry="2.5" style="stroke:#181818;stroke-width:0.5;" width="130.5869" x="1155.8912" y="1780.7578"/><text fill="#000000" font-family="sans-serif" font-size="14" lengthAdjust="spacing" textLength="69.6035" x="1186.3829" y="1800.7529">GCE VM A</text><text fill="#000000" font-family="sans-serif" font-size="14" lengthAdjust="spacing" textLength="116.5869" x="1162.8912" y="1817.0498">(Docker daemon</text><text fill="#000000" font-family="sans-serif" font-size="14" lengthAdjust="spacing" textLength="82.0313" x="1180.169" y="1833.3467">tcp://:2375)</text></g><g class="participant participant-head" data-entity-uid="part8" data-qualified-name="CA1" id="part8-head"><rect fill="#E2E2F0" height="46.5938" rx="2.5" ry="2.5" style="stroke:#181818;stroke-width:0.5;" width="131.0176" x="1296.4781" y="89.5938"/><text fill="#000000" font-family="sans-serif" font-size="14" lengthAdjust="spacing" textLength="117.0176" x="1303.4781" y="109.5889">session-{conv1}</text><text fill="#000000" font-family="sans-serif" font-size="14" lengthAdjust="spacing" textLength="116.6143" x="1303.6797" y="125.8857">cc-remote-agent</text></g><g class="participant participant-tail" data-entity-uid="part8" data-qualified-name="CA1" id="part8-tail"><rect fill="#E2E2F0" height="46.5938" rx="2.5" ry="2.5" style="stroke:#181818;stroke-width:0.5;" width="131.0176" x="1296.4781" y="1780.7578"/><text fill="#000000" font-family="sans-serif" font-size="14" lengthAdjust="spacing" textLength="117.0176" x="1303.4781" y="1800.7529">session-{conv1}</text><text fill="#000000" font-family="sans-serif" font-size="14" lengthAdjust="spacing" textLength="116.6143" x="1303.6797" y="1817.0498">cc-remote-agent</text></g><g class="participant participant-head" data-entity-uid="part9" data-qualified-name="CA2" id="part9-head"><rect fill="#E2E2F0" height="46.5938" rx="2.5" ry="2.5" style="stroke:#181818;stroke-width:0.5;" width="131.0176" x="1437.4957" y="89.5938"/><text fill="#000000" font-family="sans-serif" font-size="14" lengthAdjust="spacing" textLength="117.0176" x="1444.4957" y="109.5889">session-{conv2}</text><text fill="#000000" font-family="sans-serif" font-size="14" lengthAdjust="spacing" textLength="116.6143" x="1444.6973" y="125.8857">cc-remote-agent</text></g><g class="participant participant-tail" data-entity-uid="part9" data-qualified-name="CA2" id="part9-tail"><rect fill="#E2E2F0" height="46.5938" rx="2.5" ry="2.5" style="stroke:#181818;stroke-width:0.5;" width="131.0176" x="1437.4957" y="1780.7578"/><text fill="#000000" font-family="sans-serif" font-size="14" lengthAdjust="spacing" textLength="117.0176" x="1444.4957" y="1800.7529">session-{conv2}</text><text fill="#000000" font-family="sans-serif" font-size="14" lengthAdjust="spacing" textLength="116.6143" x="1444.6973" y="1817.0498">cc-remote-agent</text></g><rect fill="#EEEEEE" height="3" style="stroke:#EEEEEE;stroke-width:1;" width="1573.5132" x="0" y="167.7539"/><line style="stroke:#000000;stroke-width:1;" x1="0" x2="1573.5132" y1="167.7539" y2="167.7539"/><line style="stroke:#000000;stroke-width:1;" x1="0" x2="1573.5132" y1="170.7539" y2="170.7539"/><rect fill="#EEEEEE" height="23.1328" style="stroke:#000000;stroke-width:2;" width="297.2898" x="638.1117" y="157.1875"/><text fill="#000000" font-family="sans-serif" font-size="13" font-weight="bold" lengthAdjust="spacing" textLength="278.7639" x="644.1117" y="173.2544">1 &#12475;&#12483;&#12471;&#12519;&#12531;&#30446;: VM &#26032;&#35215;&#20316;&#25104; + &#12467;&#12531;&#12486;&#12490;&#36215;&#21205;</text><g class="message" data-entity-1="part1" data-entity-2="part2" id="msg1"><polygon fill="#181818" points="131.3922,207.4531,141.3922,211.4531,131.3922,215.4531,135.3922,211.4531" style="stroke:#181818;stroke-width:1;"/><line style="stroke:#181818;stroke-width:1;" x1="23.9551" x2="137.3922" y1="211.4531" y2="211.4531"/><text fill="#000000" font-family="sans-serif" font-size="13" lengthAdjust="spacing" textLength="95.4371" x="30.9551" y="206.3872">&#20250;&#35441;&#38283;&#22987; conv1</text></g><g class="message" data-entity-1="part2" data-entity-2="part3" id="msg2"><polygon fill="#181818" points="316.9464,236.5859,326.9464,240.5859,316.9464,244.5859,320.9464,240.5859" style="stroke:#181818;stroke-width:1;"/><line style="stroke:#181818;stroke-width:1;" x1="143.3922" x2="322.9464" y1="240.5859" y2="240.5859"/><text fill="#000000" font-family="sans-serif" font-size="13" lengthAdjust="spacing" textLength="161.5542" x="150.3922" y="235.52">POST /messages (conv1)</text></g><g class="message" data-entity-1="part3" data-entity-2="part4" id="msg3"><polygon fill="#181818" points="450.9571,265.7188,460.9571,269.7188,450.9571,273.7188,454.9571,269.7188" style="stroke:#181818;stroke-width:1;"/><line style="stroke:#181818;stroke-width:1;" x1="328.9464" x2="456.9571" y1="269.7188" y2="269.7188"/><text fill="#000000" font-family="sans-serif" font-size="13" lengthAdjust="spacing" textLength="101.8354" x="335.9464" y="264.6528">Execute(conv1)</text></g><g class="message" data-entity-1="part4" data-entity-2="part5" id="msg4"><polygon fill="#181818" points="913.4786,294.8516,923.4786,298.8516,913.4786,302.8516,917.4786,298.8516" style="stroke:#181818;stroke-width:1;"/><line style="stroke:#181818;stroke-width:1;" x1="462.9571" x2="919.4786" y1="298.8516" y2="298.8516"/><text fill="#000000" font-family="sans-serif" font-size="13" lengthAdjust="spacing" textLength="180.0767" x="469.9571" y="293.7856">GetSessionEndpoint(conv1)</text></g><g class="message" data-entity-1="part5" data-entity-2="part4" id="msg5"><polygon fill="#181818" points="473.9571,323.9844,463.9571,327.9844,473.9571,331.9844,469.9571,327.9844" style="stroke:#181818;stroke-width:1;"/><line style="stroke:#181818;stroke-width:1;stroke-dasharray:2,2;" x1="467.9571" x2="924.4786" y1="327.9844" y2="327.9844"/><text fill="#000000" font-family="sans-serif" font-size="13" lengthAdjust="spacing" textLength="62.6831" x="479.9571" y="322.9185">not found</text></g><g class="message" data-entity-1="part4" data-entity-2="part5" id="msg6"><polygon fill="#181818" points="913.4786,353.1172,923.4786,357.1172,913.4786,361.1172,917.4786,357.1172" style="stroke:#181818;stroke-width:1;"/><line style="stroke:#181818;stroke-width:1;" x1="462.9571" x2="919.4786" y1="357.1172" y2="357.1172"/><text fill="#000000" font-family="sans-serif" font-size="13" lengthAdjust="spacing" textLength="292.9316" x="469.9571" y="352.0513">GetAvailableVMInstance(MaxContainers=10)</text></g><g class="message" data-entity-1="part5" data-entity-2="part4" id="msg7"><polygon fill="#181818" points="473.9571,382.25,463.9571,386.25,473.9571,390.25,469.9571,386.25" style="stroke:#181818;stroke-width:1;"/><line style="stroke:#181818;stroke-width:1;stroke-dasharray:2,2;" x1="467.9571" x2="924.4786" y1="386.25" y2="386.25"/><text fill="#000000" font-family="sans-serif" font-size="13" lengthAdjust="spacing" textLength="41.7041" x="479.9571" y="381.1841">empty</text></g><g class="message" data-entity-1="part4" data-entity-2="part6" id="msg8"><polygon fill="#181818" points="1064.7115,426.5156,1074.7115,430.5156,1064.7115,434.5156,1068.7115,430.5156" style="stroke:#181818;stroke-width:1;"/><line style="stroke:#181818;stroke-width:1;" x1="462.9571" x2="1070.7115" y1="430.5156" y2="430.5156"/><text fill="#000000" font-family="sans-serif" font-size="13" lengthAdjust="spacing" textLength="204.312" x="469.9571" y="410.3169">instances.insert (startup-script:</text><text fill="#000000" font-family="sans-serif" font-size="13" lengthAdjust="spacing" textLength="206.3814" x="469.9571" y="425.4497">Docker daemon TCP &#26377;&#21177;&#21270;&#12398;&#12415;)</text></g><g class="message" data-entity-1="part6" data-entity-2="part4" id="msg9"><polygon fill="#181818" points="473.9571,455.6484,463.9571,459.6484,473.9571,463.6484,469.9571,459.6484" style="stroke:#181818;stroke-width:1;"/><line style="stroke:#181818;stroke-width:1;stroke-dasharray:2,2;" x1="467.9571" x2="1075.7115" y1="459.6484" y2="459.6484"/><text fill="#000000" font-family="sans-serif" font-size="13" lengthAdjust="spacing" textLength="120.834" x="479.9571" y="454.5825">instance RUNNING</text></g><g class="message" data-entity-1="part4" data-entity-2="part7" id="msg10"><polygon fill="#181818" points="1209.1846,484.7813,1219.1846,488.7813,1209.1846,492.7813,1213.1846,488.7813" style="stroke:#181818;stroke-width:1;"/><line style="stroke:#181818;stroke-width:1;" x1="462.9571" x2="1215.1846" y1="488.7813" y2="488.7813"/><text fill="#000000" font-family="sans-serif" font-size="13" lengthAdjust="spacing" textLength="207.6636" x="469.9571" y="483.7153">Docker daemon ping (tcp 2375)</text></g><g class="message" data-entity-1="part7" data-entity-2="part4" id="msg11"><polygon fill="#181818" points="473.9571,513.9141,463.9571,517.9141,473.9571,521.9141,469.9571,517.9141" style="stroke:#181818;stroke-width:1;"/><line style="stroke:#181818;stroke-width:1;stroke-dasharray:2,2;" x1="467.9571" x2="1220.1846" y1="517.9141" y2="517.9141"/><text fill="#000000" font-family="sans-serif" font-size="13" lengthAdjust="spacing" textLength="18.7573" x="479.9571" y="512.8481">OK</text></g><g class="message" data-entity-1="part4" data-entity-2="part7" id="msg12"><polygon fill="#181818" points="1209.1846,588.4453,1219.1846,592.4453,1209.1846,596.4453,1213.1846,592.4453" style="stroke:#181818;stroke-width:1;"/><line style="stroke:#181818;stroke-width:1;" x1="462.9571" x2="1215.1846" y1="592.4453" y2="592.4453"/><text fill="#000000" font-family="sans-serif" font-size="13" lengthAdjust="spacing" textLength="163.4902" x="469.9571" y="541.981">containers.create + start</text><text fill="#000000" font-family="sans-serif" font-size="13" lengthAdjust="spacing" textLength="156.4189" x="478.2217" y="557.1138">name=session-{conv1}</text><text fill="#000000" font-family="sans-serif" font-size="13" lengthAdjust="spacing" textLength="87.623" x="478.2217" y="572.2466">-p 9091:9091</text><text fill="#000000" font-family="sans-serif" font-size="13" lengthAdjust="spacing" textLength="8.2646" x="469.9571" y="587.3794">&#160;&#160;</text><text fill="#000000" font-family="sans-serif" font-size="13" lengthAdjust="spacing" text-decoration="line-through" textLength="102.686" x="478.2217" y="587.3794">memory=512m</text><text fill="#000000" font-family="sans-serif" font-size="13" lengthAdjust="spacing" textLength="61.9785" x="585.0401" y="587.3794">cpus=0.5</text></g><g class="message" data-entity-1="part7" data-entity-2="part8" id="msg13"><polygon fill="#181818" points="1349.9869,617.5781,1359.9869,621.5781,1349.9869,625.5781,1353.9869,621.5781" style="stroke:#181818;stroke-width:1;"/><line style="stroke:#181818;stroke-width:1;" x1="1221.1846" x2="1355.9869" y1="621.5781" y2="621.5781"/><text fill="#000000" font-family="sans-serif" font-size="13" lengthAdjust="spacing" textLength="41.8628" x="1228.1846" y="616.5122">spawn</text></g><g class="message" data-entity-1="part4" data-entity-2="part8" id="msg14"><polygon fill="#181818" points="1349.9869,646.7109,1359.9869,650.7109,1349.9869,654.7109,1353.9869,650.7109" style="stroke:#181818;stroke-width:1;"/><line style="stroke:#181818;stroke-width:1;" x1="462.9571" x2="1355.9869" y1="650.7109" y2="650.7109"/><text fill="#000000" font-family="sans-serif" font-size="13" lengthAdjust="spacing" textLength="190.271" x="469.9571" y="645.645">GET /auth/status (ready &#24453;&#12385;)</text></g><g class="message" data-entity-1="part8" data-entity-2="part4" id="msg15"><polygon fill="#181818" points="473.9571,675.8438,463.9571,679.8438,473.9571,683.8438,469.9571,679.8438" style="stroke:#181818;stroke-width:1;"/><line style="stroke:#181818;stroke-width:1;stroke-dasharray:2,2;" x1="467.9571" x2="1360.9869" y1="679.8438" y2="679.8438"/><text fill="#000000" font-family="sans-serif" font-size="13" lengthAdjust="spacing" textLength="24.813" x="479.9571" y="674.7778">200</text></g><g class="message" data-entity-1="part4" data-entity-2="part5" id="msg16"><polygon fill="#181818" points="913.4786,704.9766,923.4786,708.9766,913.4786,712.9766,917.4786,708.9766" style="stroke:#181818;stroke-width:1;"/><line style="stroke:#181818;stroke-width:1;" x1="462.9571" x2="919.4786" y1="708.9766" y2="708.9766"/><text fill="#000000" font-family="sans-serif" font-size="13" lengthAdjust="spacing" textLength="316.7925" x="469.9571" y="703.9106">CreateSessionEndpoint(conv1, vmA, port=9091)</text></g><g class="message" data-entity-1="part4" data-entity-2="part5" id="msg17"><polygon fill="#181818" points="913.4786,734.1094,923.4786,738.1094,913.4786,742.1094,917.4786,738.1094" style="stroke:#181818;stroke-width:1;"/><line style="stroke:#181818;stroke-width:1;" x1="462.9571" x2="919.4786" y1="738.1094" y2="738.1094"/><text fill="#000000" font-family="sans-serif" font-size="13" lengthAdjust="spacing" textLength="278.5098" x="469.9571" y="733.0435">IncrementVMActiveContainers(vmA)  [&#8594; 1]</text></g><g class="message" data-entity-1="part4" data-entity-2="part8" id="msg18"><polygon fill="#181818" points="1349.9869,763.2422,1359.9869,767.2422,1349.9869,771.2422,1353.9869,767.2422" style="stroke:#181818;stroke-width:1;"/><line style="stroke:#181818;stroke-width:1;" x1="462.9571" x2="1355.9869" y1="767.2422" y2="767.2422"/><text fill="#000000" font-family="sans-serif" font-size="13" lengthAdjust="spacing" textLength="94.9482" x="469.9571" y="762.1763">POST /execute</text></g><g class="message" data-entity-1="part8" data-entity-2="part4" id="msg19"><polygon fill="#181818" points="473.9571,792.375,463.9571,796.375,473.9571,800.375,469.9571,796.375" style="stroke:#181818;stroke-width:1;"/><line style="stroke:#181818;stroke-width:1;stroke-dasharray:2,2;" x1="467.9571" x2="1360.9869" y1="796.375" y2="796.375"/><text fill="#000000" font-family="sans-serif" font-size="13" lengthAdjust="spacing" textLength="45.8428" x="479.9571" y="791.3091">stream</text></g><g class="message" data-entity-1="part4" data-entity-2="part3" id="msg20"><polygon fill="#181818" points="339.9464,821.5078,329.9464,825.5078,339.9464,829.5078,335.9464,825.5078" style="stroke:#181818;stroke-width:1;"/><line style="stroke:#181818;stroke-width:1;stroke-dasharray:2,2;" x1="333.9464" x2="461.9571" y1="825.5078" y2="825.5078"/><text fill="#000000" font-family="sans-serif" font-size="13" lengthAdjust="spacing" textLength="45.8428" x="345.9464" y="820.4419">stream</text></g><g class="message" data-entity-1="part3" data-entity-2="part2" id="msg21"><polygon fill="#181818" points="154.3922,850.6406,144.3922,854.6406,154.3922,858.6406,150.3922,854.6406" style="stroke:#181818;stroke-width:1;"/><line style="stroke:#181818;stroke-width:1;stroke-dasharray:2,2;" x1="148.3922" x2="327.9464" y1="854.6406" y2="854.6406"/><text fill="#000000" font-family="sans-serif" font-size="13" lengthAdjust="spacing" textLength="45.8428" x="160.3922" y="849.5747">stream</text></g><g class="message" data-entity-1="part2" data-entity-2="part1" id="msg22"><polygon fill="#181818" points="34.9551,879.7734,24.9551,883.7734,34.9551,887.7734,30.9551,883.7734" style="stroke:#181818;stroke-width:1;"/><line style="stroke:#181818;stroke-width:1;stroke-dasharray:2,2;" x1="28.9551" x2="142.3922" y1="883.7734" y2="883.7734"/><text fill="#000000" font-family="sans-serif" font-size="13" lengthAdjust="spacing" textLength="45.8428" x="40.9551" y="878.7075">stream</text></g><rect fill="#EEEEEE" height="3" style="stroke:#EEEEEE;stroke-width:1;" width="1573.5132" x="0" y="912.3398"/><line style="stroke:#000000;stroke-width:1;" x1="0" x2="1573.5132" y1="912.3398" y2="912.3398"/><line style="stroke:#000000;stroke-width:1;" x1="0" x2="1573.5132" y1="915.3398" y2="915.3398"/><rect fill="#EEEEEE" height="23.1328" style="stroke:#000000;stroke-width:2;" width="281.8713" x="645.821" y="901.7734"/><text fill="#000000" font-family="sans-serif" font-size="13" font-weight="bold" lengthAdjust="spacing" textLength="263.3455" x="651.821" y="917.8403">2 &#12475;&#12483;&#12471;&#12519;&#12531;&#30446;: &#21516;&#19968; VM &#19978;&#12395;&#36861;&#21152;&#12467;&#12531;&#12486;&#12490;</text><g class="message" data-entity-1="part1" data-entity-2="part2" id="msg23"><polygon fill="#181818" points="131.3922,952.0391,141.3922,956.0391,131.3922,960.0391,135.3922,956.0391" style="stroke:#181818;stroke-width:1;"/><line style="stroke:#181818;stroke-width:1;" x1="23.9551" x2="137.3922" y1="956.0391" y2="956.0391"/><text fill="#000000" font-family="sans-serif" font-size="13" lengthAdjust="spacing" textLength="95.4371" x="30.9551" y="950.9731">&#20250;&#35441;&#38283;&#22987; conv2</text></g><g class="message" data-entity-1="part2" data-entity-2="part3" id="msg24"><polygon fill="#181818" points="316.9464,981.1719,326.9464,985.1719,316.9464,989.1719,320.9464,985.1719" style="stroke:#181818;stroke-width:1;"/><line style="stroke:#181818;stroke-width:1;" x1="143.3922" x2="322.9464" y1="985.1719" y2="985.1719"/><text fill="#000000" font-family="sans-serif" font-size="13" lengthAdjust="spacing" textLength="161.5542" x="150.3922" y="980.106">POST /messages (conv2)</text></g><g class="message" data-entity-1="part3" data-entity-2="part4" id="msg25"><polygon fill="#181818" points="450.9571,1010.3047,460.9571,1014.3047,450.9571,1018.3047,454.9571,1014.3047" style="stroke:#181818;stroke-width:1;"/><line style="stroke:#181818;stroke-width:1;" x1="328.9464" x2="456.9571" y1="1014.3047" y2="1014.3047"/><text fill="#000000" font-family="sans-serif" font-size="13" lengthAdjust="spacing" textLength="101.8354" x="335.9464" y="1009.2388">Execute(conv2)</text></g><g class="message" data-entity-1="part4" data-entity-2="part5" id="msg26"><polygon fill="#181818" points="913.4786,1039.4375,923.4786,1043.4375,913.4786,1047.4375,917.4786,1043.4375" style="stroke:#181818;stroke-width:1;"/><line style="stroke:#181818;stroke-width:1;" x1="462.9571" x2="919.4786" y1="1043.4375" y2="1043.4375"/><text fill="#000000" font-family="sans-serif" font-size="13" lengthAdjust="spacing" textLength="180.0767" x="469.9571" y="1038.3716">GetSessionEndpoint(conv2)</text></g><g class="message" data-entity-1="part5" data-entity-2="part4" id="msg27"><polygon fill="#181818" points="473.9571,1068.5703,463.9571,1072.5703,473.9571,1076.5703,469.9571,1072.5703" style="stroke:#181818;stroke-width:1;"/><line style="stroke:#181818;stroke-width:1;stroke-dasharray:2,2;" x1="467.9571" x2="924.4786" y1="1072.5703" y2="1072.5703"/><text fill="#000000" font-family="sans-serif" font-size="13" lengthAdjust="spacing" textLength="62.6831" x="479.9571" y="1067.5044">not found</text></g><g class="message" data-entity-1="part4" data-entity-2="part5" id="msg28"><polygon fill="#181818" points="913.4786,1097.7031,923.4786,1101.7031,913.4786,1105.7031,917.4786,1101.7031" style="stroke:#181818;stroke-width:1;"/><line style="stroke:#181818;stroke-width:1;" x1="462.9571" x2="919.4786" y1="1101.7031" y2="1101.7031"/><text fill="#000000" font-family="sans-serif" font-size="13" lengthAdjust="spacing" textLength="184.8628" x="469.9571" y="1096.6372">GetAvailableVMInstance(10)</text></g><g class="message" data-entity-1="part5" data-entity-2="part4" id="msg29"><polygon fill="#181818" points="473.9571,1126.8359,463.9571,1130.8359,473.9571,1134.8359,469.9571,1130.8359" style="stroke:#181818;stroke-width:1;"/><line style="stroke:#181818;stroke-width:1;stroke-dasharray:2,2;" x1="467.9571" x2="924.4786" y1="1130.8359" y2="1130.8359"/><text fill="#000000" font-family="sans-serif" font-size="13" lengthAdjust="spacing" textLength="137.9028" x="479.9571" y="1125.77">vmA (active=1 &lt; 10)</text></g><g class="message" data-entity-1="part4" data-entity-2="part5" id="msg30"><polygon fill="#181818" points="913.4786,1155.9688,923.4786,1159.9688,913.4786,1163.9688,917.4786,1159.9688" style="stroke:#181818;stroke-width:1;"/><line style="stroke:#181818;stroke-width:1;" x1="462.9571" x2="919.4786" y1="1159.9688" y2="1159.9688"/><text fill="#000000" font-family="sans-serif" font-size="13" lengthAdjust="spacing" textLength="438.5215" x="469.9571" y="1154.9028">SELECT MAX(port)+1 FROM session_endpoints WHERE vm_id=vmA</text></g><g class="message" data-entity-1="part5" data-entity-2="part4" id="msg31"><polygon fill="#181818" points="473.9571,1185.1016,463.9571,1189.1016,473.9571,1193.1016,469.9571,1189.1016" style="stroke:#181818;stroke-width:1;"/><line style="stroke:#181818;stroke-width:1;stroke-dasharray:2,2;" x1="467.9571" x2="924.4786" y1="1189.1016" y2="1189.1016"/><text fill="#000000" font-family="sans-serif" font-size="13" lengthAdjust="spacing" textLength="33.084" x="479.9571" y="1184.0356">9092</text></g><g class="message" data-entity-1="part4" data-entity-2="part7" id="msg32"><polygon fill="#181818" points="1209.1846,1244.5,1219.1846,1248.5,1209.1846,1252.5,1213.1846,1248.5" style="stroke:#181818;stroke-width:1;"/><line style="stroke:#181818;stroke-width:1;" x1="462.9571" x2="1215.1846" y1="1248.5" y2="1248.5"/><text fill="#000000" font-family="sans-serif" font-size="13" lengthAdjust="spacing" textLength="163.4902" x="469.9571" y="1213.1685">containers.create + start</text><text fill="#000000" font-family="sans-serif" font-size="13" lengthAdjust="spacing" textLength="156.4189" x="478.2217" y="1228.3013">name=session-{conv2}</text><text fill="#000000" font-family="sans-serif" font-size="13" lengthAdjust="spacing" textLength="87.623" x="478.2217" y="1243.4341">-p 9092:9091</text></g><g class="message" data-entity-1="part7" data-entity-2="part9" id="msg33"><polygon fill="#181818" points="1491.0045,1273.6328,1501.0045,1277.6328,1491.0045,1281.6328,1495.0045,1277.6328" style="stroke:#181818;stroke-width:1;"/><line style="stroke:#181818;stroke-width:1;" x1="1221.1846" x2="1497.0045" y1="1277.6328" y2="1277.6328"/><text fill="#000000" font-family="sans-serif" font-size="13" lengthAdjust="spacing" textLength="41.8628" x="1228.1846" y="1272.5669">spawn</text></g><g class="message" data-entity-1="part4" data-entity-2="part9" id="msg34"><polygon fill="#181818" points="1491.0045,1302.7656,1501.0045,1306.7656,1491.0045,1310.7656,1495.0045,1306.7656" style="stroke:#181818;stroke-width:1;"/><line style="stroke:#181818;stroke-width:1;" x1="462.9571" x2="1497.0045" y1="1306.7656" y2="1306.7656"/><text fill="#000000" font-family="sans-serif" font-size="13" lengthAdjust="spacing" textLength="190.271" x="469.9571" y="1301.6997">GET /auth/status (ready &#24453;&#12385;)</text></g><g class="message" data-entity-1="part9" data-entity-2="part4" id="msg35"><polygon fill="#181818" points="473.9571,1331.8984,463.9571,1335.8984,473.9571,1339.8984,469.9571,1335.8984" style="stroke:#181818;stroke-width:1;"/><line style="stroke:#181818;stroke-width:1;stroke-dasharray:2,2;" x1="467.9571" x2="1502.0045" y1="1335.8984" y2="1335.8984"/><text fill="#000000" font-family="sans-serif" font-size="13" lengthAdjust="spacing" textLength="24.813" x="479.9571" y="1330.8325">200</text></g><g class="message" data-entity-1="part4" data-entity-2="part5" id="msg36"><polygon fill="#181818" points="913.4786,1361.0313,923.4786,1365.0313,913.4786,1369.0313,917.4786,1365.0313" style="stroke:#181818;stroke-width:1;"/><line style="stroke:#181818;stroke-width:1;" x1="462.9571" x2="919.4786" y1="1365.0313" y2="1365.0313"/><text fill="#000000" font-family="sans-serif" font-size="13" lengthAdjust="spacing" textLength="316.7925" x="469.9571" y="1359.9653">CreateSessionEndpoint(conv2, vmA, port=9092)</text></g><g class="message" data-entity-1="part4" data-entity-2="part5" id="msg37"><polygon fill="#181818" points="913.4786,1390.1641,923.4786,1394.1641,913.4786,1398.1641,917.4786,1394.1641" style="stroke:#181818;stroke-width:1;"/><line style="stroke:#181818;stroke-width:1;" x1="462.9571" x2="919.4786" y1="1394.1641" y2="1394.1641"/><text fill="#000000" font-family="sans-serif" font-size="13" lengthAdjust="spacing" textLength="278.5098" x="469.9571" y="1389.0981">IncrementVMActiveContainers(vmA)  [&#8594; 2]</text></g><rect fill="#EEEEEE" height="3" style="stroke:#EEEEEE;stroke-width:1;" width="1573.5132" x="0" y="1422.7305"/><line style="stroke:#000000;stroke-width:1;" x1="0" x2="1573.5132" y1="1422.7305" y2="1422.7305"/><line style="stroke:#000000;stroke-width:1;" x1="0" x2="1573.5132" y1="1425.7305" y2="1425.7305"/><rect fill="#EEEEEE" height="23.1328" style="stroke:#000000;stroke-width:2;" width="287.8254" x="642.8439" y="1412.1641"/><text fill="#000000" font-family="sans-serif" font-size="13" font-weight="bold" lengthAdjust="spacing" textLength="269.2996" x="648.8439" y="1428.231">11 &#12475;&#12483;&#12471;&#12519;&#12531;&#30446;: VM B &#12434;&#26032;&#35215;&#12503;&#12525;&#12499;&#12472;&#12519;&#12531;</text><path d="M289,1450.2969 L289,1490.2969 L635,1490.2969 L635,1460.2969 L625,1450.2969 L289,1450.2969" fill="#FEFFDD" style="stroke:#181818;stroke-width:0.5;"/><path d="M625,1450.2969 L625,1460.2969 L635,1460.2969 L625,1450.2969" fill="#FEFFDD" style="stroke:#181818;stroke-width:0.5;"/><text fill="#000000" font-family="sans-serif" font-size="13" lengthAdjust="spacing" textLength="325.4698" x="295" y="1467.3638">GetAvailableVMInstance(10) &#12364;&#31354;(vmA active=10)</text><text fill="#000000" font-family="sans-serif" font-size="13" lengthAdjust="spacing" textLength="121.399" x="295" y="1482.4966">&#8594; &#26032; VM &#20316;&#25104;&#12497;&#12473;&#12408;</text><rect fill="#EEEEEE" height="3" style="stroke:#EEEEEE;stroke-width:1;" width="1573.5132" x="0" y="1516.1289"/><line style="stroke:#000000;stroke-width:1;" x1="0" x2="1573.5132" y1="1516.1289" y2="1516.1289"/><line style="stroke:#000000;stroke-width:1;" x1="0" x2="1573.5132" y1="1519.1289" y2="1519.1289"/><rect fill="#EEEEEE" height="23.1328" style="stroke:#000000;stroke-width:2;" width="281.8648" x="645.8242" y="1505.5625"/><text fill="#000000" font-family="sans-serif" font-size="13" font-weight="bold" lengthAdjust="spacing" textLength="263.339" x="651.8242" y="1521.6294">&#12450;&#12452;&#12489;&#12523;&#26908;&#20986; (IdleChecker / VMScaler)</text><g class="message" data-entity-1="part4" data-entity-2="part5" id="msg38"><polygon fill="#181818" points="913.4786,1555.8281,923.4786,1559.8281,913.4786,1563.8281,917.4786,1559.8281" style="stroke:#181818;stroke-width:1;"/><line style="stroke:#181818;stroke-width:1;" x1="462.9571" x2="919.4786" y1="1559.8281" y2="1559.8281"/><text fill="#000000" font-family="sans-serif" font-size="13" lengthAdjust="spacing" textLength="211.853" x="469.9571" y="1554.7622">ListIdleSessionEndpoints(15min)</text></g><g class="message" data-entity-1="part5" data-entity-2="part4" id="msg39"><polygon fill="#181818" points="473.9571,1584.9609,463.9571,1588.9609,473.9571,1592.9609,469.9571,1588.9609" style="stroke:#181818;stroke-width:1;"/><line style="stroke:#181818;stroke-width:1;stroke-dasharray:2,2;" x1="467.9571" x2="924.4786" y1="1588.9609" y2="1588.9609"/><text fill="#000000" font-family="sans-serif" font-size="13" lengthAdjust="spacing" textLength="49.4482" x="479.9571" y="1583.895">[conv1]</text></g><g class="message" data-entity-1="part4" data-entity-2="part7" id="msg40"><polygon fill="#181818" points="1209.1846,1614.0938,1219.1846,1618.0938,1209.1846,1622.0938,1213.1846,1618.0938" style="stroke:#181818;stroke-width:1;"/><line style="stroke:#181818;stroke-width:1;" x1="462.9571" x2="1215.1846" y1="1618.0938" y2="1618.0938"/><text fill="#000000" font-family="sans-serif" font-size="13" lengthAdjust="spacing" textLength="282.1787" x="469.9571" y="1613.0278">containers.stop + remove session-{conv1}</text></g><g class="message" data-entity-1="part4" data-entity-2="part5" id="msg41"><polygon fill="#181818" points="913.4786,1643.2266,923.4786,1647.2266,913.4786,1651.2266,917.4786,1647.2266" style="stroke:#181818;stroke-width:1;"/><line style="stroke:#181818;stroke-width:1;" x1="462.9571" x2="919.4786" y1="1647.2266" y2="1647.2266"/><text fill="#000000" font-family="sans-serif" font-size="13" lengthAdjust="spacing" textLength="372.6772" x="469.9571" y="1642.1606">DeleteSessionEndpoint + DecrementVMActiveContainers</text></g><g class="message" data-entity-1="part4" data-entity-2="part5" id="msg42"><polygon fill="#181818" points="913.4786,1672.3594,923.4786,1676.3594,913.4786,1680.3594,917.4786,1676.3594" style="stroke:#181818;stroke-width:1;"/><line style="stroke:#181818;stroke-width:1;" x1="462.9571" x2="919.4786" y1="1676.3594" y2="1676.3594"/><text fill="#000000" font-family="sans-serif" font-size="13" lengthAdjust="spacing" textLength="179.7974" x="469.9571" y="1671.2935">ListIdleVMInstances(15min)</text></g><g class="message" data-entity-1="part5" data-entity-2="part4" id="msg43"><polygon fill="#181818" points="473.9571,1701.4922,463.9571,1705.4922,473.9571,1709.4922,469.9571,1705.4922" style="stroke:#181818;stroke-width:1;"/><line style="stroke:#181818;stroke-width:1;stroke-dasharray:2,2;" x1="467.9571" x2="924.4786" y1="1705.4922" y2="1705.4922"/><text fill="#000000" font-family="sans-serif" font-size="13" lengthAdjust="spacing" textLength="217.8896" x="479.9571" y="1700.4263">vmA (active=0, idle_since&gt;5min)</text></g><g class="message" data-entity-1="part4" data-entity-2="part6" id="msg44"><polygon fill="#181818" points="1064.7115,1730.625,1074.7115,1734.625,1064.7115,1738.625,1068.7115,1734.625" style="stroke:#181818;stroke-width:1;"/><line style="stroke:#181818;stroke-width:1;" x1="462.9571" x2="1070.7115" y1="1734.625" y2="1734.625"/><text fill="#000000" font-family="sans-serif" font-size="13" lengthAdjust="spacing" textLength="140.3149" x="469.9571" y="1729.5591">instances.delete vmA</text></g><g class="message" data-entity-1="part4" data-entity-2="part5" id="msg45"><polygon fill="#181818" points="913.4786,1759.7578,923.4786,1763.7578,913.4786,1767.7578,917.4786,1763.7578" style="stroke:#181818;stroke-width:1;"/><line style="stroke:#181818;stroke-width:1;" x1="462.9571" x2="919.4786" y1="1763.7578" y2="1763.7578"/><text fill="#000000" font-family="sans-serif" font-size="13" lengthAdjust="spacing" textLength="157.5107" x="469.9571" y="1758.6919">DeleteVMInstance(vmA)</text></g><?plantuml-src fLPjJzjM5FxkNt74boQ2GE89JOqMf102GoF0UDkaWYBZt5AhyRLbtsH5qoGIQrrvcSQwZMa5RMjNmHY5jM9JWTBrl_JY9FtKlx3ZcmHYGbR491HnxttEEO_lyvnZNmCxDyiK-tOweyxfQZeSZYXGUV6rUx1Jtbrpznx0wuNlWJi_SsU7EmLUtESE_jtbpX9tNd3dH-uSur5vxs5vzIulFlUMnMSUfdZuve_VtTrLwHfKjlVBVprrztwf_FObB_pPL5AU1LxOAZywmdgyy1ClBlE5OcdZYRk-Zt1Hv8b8VCYTTK5amLik52M9QInB86EejucLdbF9PQc-FRxdOm6bpM9bi_3sU56I59KP5apQn99CnMAQgfaAPT1sqp8e8pGpJGE9h97Bm5YE1jj0iQ4_wKUgQeZbA2NPPkZ4vB0VsoUu3oIIevQHrpB44h2-WL4fep1bLh49GDkeORCvYun_F8GPytfQepPJg4hiQGesiMtDe6baPXeQPNQrK5-llmvMW8IXcpb683uwA32urmoQIa4SgrHvGKOXka6dALFDQ5TNL7xl_Uvg_gbKt1zRun7wN3LeFlB5DCLRi32OaP0oHoWJKObuv3-Yv9PHiYJ5OX01NaGb7M6qBPItlBuNzGYNrfvMDhyvURbHkhSAxT2eVUNlv-xo3n2BIPwY4Ef1jQ9mSloWiltipTgokxKCWh3Kd_GEKPyeZ8wCJq2NZjIGWmq10GXAUEP1K9ie9EyG5Q-oVeHxugWt2WE4ZLSVAbbJv1JK2w5wF3KOt3HoD7CkD9vNjAmocoLJgS6Qo86KSYU1rbCqIYmx5WdxCn7TPFFrB2XW54xTqOd_4Oj10DSMovaXMxKqaqMdgKzTc4YCGcbZqLqwT5VMU66F5ru59SyBfqNgAM5iSdXuS7YWNWzT40L_CbEZSn10lu0mYuIGipmZ7_aYrTF7wbGjeg0rsq5mHLy3LNGIQt8LGCY4w-7haQZt8zOX7GjRyx7kYApZIZLpTYpSsLsjtEDvBWgsgNn6wxN5pa0IDLPox5ONLcGvb1aPPER1_GU7rCEWXA0ptd8ut2XKGf2zKEOEoEln3Z0DYyKyXZvl359yJ1rjZTHKfkN9cQxOrl4Wm8tNT-z3PCR7j6f7KdMSdvVDa8bUHTVTMziJRgtPlRRLNrNKQuJJFQ-lv0lxobrTEJbOyDhhv6295tOghrwwIxyszjOxkqf-LrV9hRjAlanNoLVlglDzXFSF0KMe4el01o3EpxAC9uUIYGb8nJyDUDe6soFGFpQIQXw_yCc7oR4aU5Cw4yEalYBe2Fd_T83Sq06ow80pbyjDBfSlutBv2YwNpxbSlehBvPdgK6yvrNlnu7vrj8lNzovtlkF5Woh8ynxAJS38em45_TP2u_V5IddxoAiETOd3mMdgqS02mkFYvS6TRxtFZCA1eCQBZtZnCNSMyRkXz7Z3_Ue80eEPB4dS8cBYTM7WkAfaYHNqw3HSmP1cCmzvxlBiGAHRrwZVU3V4t9XfPGkR6IQQmdifvWcScuUDDVj8bZJ9XP5zfAKS5r4-kxaBsJQsIRW3D8n8sngYUshO2rz46S4DH3kSPzmWbUSEwLy0?></g></svg>