<?plantuml 1.2026.2?><svg xmlns="http://www.w3.org/2000/svg" xmlns:xlink="http://www.w3.org/1999/xlink" contentStyleType="text/css" data-diagram-type="ACTIVITY" height="1220px" preserveAspectRatio="none" style="width:1277px;height:1220px;background:#FFFFFF;" version="1.1" viewBox="0 0 1277 1220" width="1277px" zoomAndPan="magnify"><title>execution_mode &#12395;&#12424;&#12427;&#23455;&#34892;&#26041;&#24335;&#36984;&#25246;&#12501;&#12525;&#12540;</title><defs/><g><g class="title" data-source-line="2"><text fill="#000000" font-family="sans-serif" font-size="14" font-weight="bold" lengthAdjust="spacing" textLength="300.9583" x="486.9158" y="32.9951">execution_mode &#12395;&#12424;&#12427;&#23455;&#34892;&#26041;&#24335;&#36984;&#25246;&#12501;&#12525;&#12540;</text></g><ellipse cx="704.0443" cy="57.2969" fill="#222222" rx="10" ry="10" style="stroke:#222222;stroke-width:1;"/><rect fill="#F1F1F1" height="47.9375" rx="12.5" ry="12.5" style="stroke:#181818;stroke-width:0.5;" width="359.9141" x="524.0873" y="87.2969"/><text fill="#000000" font-family="sans-serif" font-size="12" lengthAdjust="spacing" textLength="145.6406" x="534.0873" y="108.4355">POST /api/conversations</text><text fill="#000000" font-family="sans-serif" font-size="12" lengthAdjust="spacing" textLength="339.9141" x="534.0873" y="122.4043">{execution_mode: "docker_gce" | "cloud_run_sandbox"}</text><polygon fill="#F1F1F1" points="648.4616,155.2344,759.6271,155.2344,771.6271,167.2344,759.6271,179.2344,648.4616,179.2344,636.4616,167.2344,648.4616,155.2344" style="stroke:#181818;stroke-width:0.5;"/><text fill="#000000" font-family="sans-serif" font-size="11" lengthAdjust="spacing" textLength="111.1655" x="648.4616" y="171.0425">execution_mode &#12399;?</text><text fill="#000000" font-family="sans-serif" font-size="11" lengthAdjust="spacing" textLength="105.9019" x="530.5598" y="164.6401">cloud_run_sandbox</text><text fill="#000000" font-family="sans-serif" font-size="11" lengthAdjust="spacing" textLength="121.2145" x="771.6271" y="164.6401">docker_gce &#12414;&#12383;&#12399;&#30465;&#30053;</text><rect fill="#F1F1F1" height="33.9688" rx="12.5" ry="12.5" style="stroke:#181818;stroke-width:0.5;" width="350.9609" x="354.8607" y="189.2344"/><text fill="#000000" font-family="sans-serif" font-size="12" lengthAdjust="spacing" textLength="330.9609" x="364.8607" y="210.373">conversations.execution_mode = "cloud_run_sandbox"</text><rect fill="#F1F1F1" height="47.9375" rx="12.5" ry="12.5" style="stroke:#181818;stroke-width:0.5;" width="303.8516" x="725.8217" y="189.2344"/><text fill="#000000" font-family="sans-serif" font-size="12" lengthAdjust="spacing" textLength="283.8516" x="735.8217" y="210.373">conversations.execution_mode = "docker_gce"</text><text fill="#000000" font-family="sans-serif" font-size="12" lengthAdjust="spacing" textLength="269.6667" x="735.8217" y="224.3418">(&#12487;&#12501;&#12457;&#12523;&#12488;: --default-execution-mode &#12501;&#12521;&#12464;)</text><polygon fill="#F1F1F1" points="704.0443,243.1719,716.0443,255.1719,704.0443,267.1719,692.0443,255.1719,704.0443,243.1719" style="stroke:#181818;stroke-width:0.5;"/><rect fill="#F1F1F1" height="47.9375" rx="12.5" ry="12.5" style="stroke:#181818;stroke-width:0.5;" width="452.4746" x="477.807" y="287.1719"/><text fill="#000000" font-family="sans-serif" font-size="12" lengthAdjust="spacing" textLength="302.3387" x="487.807" y="308.3105">conversations &#12486;&#12540;&#12502;&#12523;&#12395; execution_mode &#12434;&#27704;&#32154;&#21270;</text><text fill="#000000" font-family="sans-serif" font-size="12" lengthAdjust="spacing" textLength="432.4746" x="487.807" y="322.2793">(ALTER TABLE: execution_mode TEXT NOT NULL DEFAULT 'docker_gce')</text><rect fill="#F1F1F1" height="33.9688" rx="12.5" ry="12.5" style="stroke:#181818;stroke-width:0.5;" width="260.1289" x="573.9799" y="355.1094"/><text fill="#000000" font-family="sans-serif" font-size="12" lengthAdjust="spacing" textLength="240.1289" x="583.9799" y="376.248">POST /api/conversations/{id}/messages</text><rect fill="#F1F1F1" height="33.9688" rx="12.5" ry="12.5" style="stroke:#181818;stroke-width:0.5;" width="161.8262" x="623.1312" y="409.0781"/><text fill="#000000" font-family="sans-serif" font-size="12" lengthAdjust="spacing" textLength="141.8262" x="633.1312" y="430.2168">handler.SendMessage()</text><rect fill="#F1F1F1" height="47.9375" rx="12.5" ry="12.5" style="stroke:#181818;stroke-width:0.5;" width="265.1504" x="571.4691" y="463.0469"/><text fill="#000000" font-family="sans-serif" font-size="12" lengthAdjust="spacing" textLength="245.1504" x="581.4691" y="484.1855">DB: SELECT conversations WHERE id = ?</text><text fill="#000000" font-family="sans-serif" font-size="12" lengthAdjust="spacing" textLength="152.7718" x="581.4691" y="498.1543">&#8594; execution_mode &#12434;&#21462;&#24471;</text><path d="M771.6271,520.9844 L771.6271,591.5156 L1189.0699,591.5156 L1189.0699,530.9844 L1179.0699,520.9844 L771.6271,520.9844" fill="#FEFFDD" style="stroke:#181818;stroke-width:0.5;"/><path d="M1179.0699,520.9844 L1179.0699,530.9844 L1189.0699,530.9844 L1179.0699,520.9844" fill="#FEFFDD" style="stroke:#181818;stroke-width:0.5;"/><text fill="#000000" font-family="sans-serif" font-size="13" lengthAdjust="spacing" textLength="294.1506" x="777.6271" y="538.0513">SessionProvider &#12452;&#12531;&#12479;&#12540;&#12501;&#12455;&#12540;&#12473;&#12395;&#12424;&#12427;&#20849;&#36890;&#21270;:</text><text fill="#000000" font-family="sans-serif" font-size="13" lengthAdjust="spacing" textLength="396.4429" x="777.6271" y="553.1841">Execute(ctx, conversationID, req, callback) (sessionID, error)</text><text fill="#000000" font-family="sans-serif" font-size="13" lengthAdjust="spacing" textLength="295.3311" x="777.6271" y="568.3169">UpdateLastActivity(ctx, conversationID) error</text><text fill="#000000" font-family="sans-serif" font-size="13" lengthAdjust="spacing" textLength="273.3047" x="777.6271" y="583.4497">ReleaseSession(ctx, conversationID) error</text><polygon fill="#F1F1F1" points="648.4616,591.5156,759.6271,591.5156,771.6271,603.5156,759.6271,615.5156,648.4616,615.5156,636.4616,603.5156,648.4616,591.5156" style="stroke:#181818;stroke-width:0.5;"/><text fill="#000000" font-family="sans-serif" font-size="11" lengthAdjust="spacing" textLength="111.1655" x="648.4616" y="607.3237">execution_mode &#12399;?</text><text fill="#000000" font-family="sans-serif" font-size="11" lengthAdjust="spacing" textLength="105.9019" x="530.5598" y="600.9214">cloud_run_sandbox</text><text fill="#000000" font-family="sans-serif" font-size="11" lengthAdjust="spacing" textLength="62.7183" x="771.6271" y="600.9214">docker_gce</text><rect fill="none" height="404.0469" style="stroke:#000000;stroke-width:1.5;" width="718.6788" x="11" y="625.5156"/><path d="M351.9343,625.5156 L351.9343,634.8125 L341.9343,644.8125 L11,644.8125" fill="none" style="stroke:#000000;stroke-width:1.5;"/><text fill="#000000" font-family="sans-serif" font-size="14" lengthAdjust="spacing" textLength="330.9343" x="14" y="639.5107">Cloud Run Sandbox &#12501;&#12525;&#12540;&#65288;SandboxProvider&#65289;</text><rect fill="#F1F1F1" height="33.9688" rx="12.5" ry="12.5" style="stroke:#181818;stroke-width:0.5;" width="280.3906" x="248.1443" y="661.8125"/><text fill="#000000" font-family="sans-serif" font-size="12" lengthAdjust="spacing" textLength="260.3906" x="258.1443" y="682.9512">provider = providers["cloud_run_sandbox"]</text><rect fill="#F1F1F1" height="33.9688" rx="12.5" ry="12.5" style="stroke:#181818;stroke-width:0.5;" width="301.5664" x="237.5564" y="715.7813"/><text fill="#000000" font-family="sans-serif" font-size="12" lengthAdjust="spacing" textLength="281.5664" x="247.5564" y="736.9199">SandboxProvider.Execute(conversationID, req)</text><rect fill="#F1F1F1" height="33.9688" rx="12.5" ry="12.5" style="stroke:#181818;stroke-width:0.5;" width="356.5215" x="210.0789" y="769.75"/><text fill="#000000" font-family="sans-serif" font-size="12" lengthAdjust="spacing" textLength="336.5215" x="220.0789" y="790.8887">SandboxManager.GetOrCreateSandbox(conversationID)</text><polygon fill="#F1F1F1" points="301.3738,823.7188,475.3055,823.7188,487.3055,835.7188,475.3055,847.7188,301.3738,847.7188,289.3738,835.7188,301.3738,823.7188" style="stroke:#181818;stroke-width:0.5;"/><text fill="#000000" font-family="sans-serif" font-size="11" lengthAdjust="spacing" textLength="173.9317" x="301.3738" y="839.5269">sandbox_sessions &#12524;&#12467;&#12540;&#12489;&#12354;&#12426;?</text><text fill="#000000" font-family="sans-serif" font-size="11" lengthAdjust="spacing" textLength="21.9998" x="267.3739" y="833.1245">&#12354;&#12426;</text><text fill="#000000" font-family="sans-serif" font-size="11" lengthAdjust="spacing" textLength="21.9998" x="487.3055" y="833.1245">&#12394;&#12375;</text><rect fill="#F1F1F1" height="47.9375" rx="12.5" ry="12.5" style="stroke:#181818;stroke-width:0.5;" width="377.3398" x="23" y="857.7188"/><text fill="#000000" font-family="sans-serif" font-size="12" lengthAdjust="spacing" textLength="357.3398" x="33" y="878.8574">WebSocket /attach/{sandbox_id}?sandbox_token={token}</text><text fill="#000000" font-family="sans-serif" font-size="12" lengthAdjust="spacing" textLength="209.45" x="33" y="892.8262">&#65288;&#26082;&#23384; sandbox &#12408;&#20877;&#25509;&#32154;&#12539;restore&#65289;</text><rect fill="#F1F1F1" height="47.9375" rx="12.5" ry="12.5" style="stroke:#181818;stroke-width:0.5;" width="289.339" x="420.3398" y="857.7188"/><text fill="#000000" font-family="sans-serif" font-size="12" lengthAdjust="spacing" textLength="113.6719" x="430.3398" y="878.8574">WebSocket /create</text><text fill="#000000" font-family="sans-serif" font-size="12" lengthAdjust="spacing" textLength="269.339" x="430.3398" y="892.8262">&#65288;&#26032;&#35215; Cloud Run Sandbox &#12452;&#12531;&#12473;&#12479;&#12531;&#12473;&#20316;&#25104;&#65289;</text><polygon fill="#F1F1F1" points="388.3396,911.6563,400.3396,923.6563,388.3396,935.6563,376.3396,923.6563,388.3396,911.6563" style="stroke:#181818;stroke-width:0.5;"/><rect fill="#F1F1F1" height="61.9063" rx="12.5" ry="12.5" style="stroke:#181818;stroke-width:0.5;" width="216.3889" x="280.1452" y="955.6563"/><text fill="#000000" font-family="sans-serif" font-size="12" lengthAdjust="spacing" textLength="196.3889" x="290.1452" y="976.7949">Cloud Run Sandbox (gVisor) &#20869;&#12391;</text><text fill="#000000" font-family="sans-serif" font-size="12" lengthAdjust="spacing" textLength="90.1232" x="290.1452" y="990.7637">claude CLI &#23455;&#34892;</text><text fill="#000000" font-family="sans-serif" font-size="12" lengthAdjust="spacing" textLength="157.3889" x="290.1452" y="1004.7324">&#8594; stdout &#8594; NDJSON &#12497;&#12540;&#12473;</text><rect fill="none" height="404.0469" style="stroke:#000000;stroke-width:1.5;" width="517.111" x="749.6788" y="625.5156"/><path d="M1076.6404,625.5156 L1076.6404,634.8125 L1066.6404,644.8125 L749.6788,644.8125" fill="none" style="stroke:#000000;stroke-width:1.5;"/><text fill="#000000" font-family="sans-serif" font-size="14" lengthAdjust="spacing" textLength="316.9616" x="752.6788" y="639.5107">Docker on GCE &#12501;&#12525;&#12540;&#65288;DockerGCEProvider&#65289;</text><rect fill="#F1F1F1" height="33.9688" rx="12.5" ry="12.5" style="stroke:#181818;stroke-width:0.5;" width="233.2813" x="903.1084" y="661.8125"/><text fill="#000000" font-family="sans-serif" font-size="12" lengthAdjust="spacing" textLength="213.2813" x="913.1084" y="682.9512">provider = providers["docker_gce"]</text><rect fill="#F1F1F1" height="33.9688" rx="12.5" ry="12.5" style="stroke:#181818;stroke-width:0.5;" width="317.0176" x="861.2402" y="715.7813"/><text fill="#000000" font-family="sans-serif" font-size="12" lengthAdjust="spacing" textLength="297.0176" x="871.2402" y="736.9199">DockerGCEProvider.Execute(conversationID, req)</text><rect fill="#F1F1F1" height="33.9688" rx="12.5" ry="12.5" style="stroke:#181818;stroke-width:0.5;" width="351.207" x="844.1455" y="769.75"/><text fill="#000000" font-family="sans-serif" font-size="12" lengthAdjust="spacing" textLength="331.207" x="854.1455" y="790.8887">SessionManager.GetOrCreateEndpoint(conversationID)</text><polygon fill="#F1F1F1" points="939.8304,823.7188,1099.6677,823.7188,1111.6677,835.7188,1099.6677,847.7188,939.8304,847.7188,927.8304,835.7188,939.8304,823.7188" style="stroke:#181818;stroke-width:0.5;"/><text fill="#000000" font-family="sans-serif" font-size="11" lengthAdjust="spacing" textLength="159.8373" x="939.8304" y="839.5269">&#12475;&#12483;&#12471;&#12519;&#12531;&#12456;&#12531;&#12489;&#12509;&#12452;&#12531;&#12488;&#12354;&#12426;?</text><text fill="#000000" font-family="sans-serif" font-size="11" lengthAdjust="spacing" textLength="21.9998" x="905.8305" y="833.1245">&#12354;&#12426;</text><text fill="#000000" font-family="sans-serif" font-size="11" lengthAdjust="spacing" textLength="21.9998" x="1111.6677" y="833.1245">&#12394;&#12375;</text><rect fill="#F1F1F1" height="33.9688" rx="12.5" ry="12.5" style="stroke:#181818;stroke-width:0.5;" width="247.5849" x="769.6788" y="857.7188"/><text fill="#000000" font-family="sans-serif" font-size="12" lengthAdjust="spacing" textLength="227.5849" x="779.6788" y="878.8574">&#26082;&#23384;&#12398; cc-remote-agent &#12467;&#12531;&#12486;&#12490;&#12395;&#25509;&#32154;</text><rect fill="#F1F1F1" height="47.9375" rx="12.5" ry="12.5" style="stroke:#181818;stroke-width:0.5;" width="217.5261" x="1037.2637" y="857.7188"/><text fill="#000000" font-family="sans-serif" font-size="12" lengthAdjust="spacing" textLength="197.5261" x="1047.2637" y="878.8574">GCE VM &#19978;&#12395; Docker &#12467;&#12531;&#12486;&#12490;&#36215;&#21205;</text><text fill="#000000" font-family="sans-serif" font-size="12" lengthAdjust="spacing" textLength="123.9553" x="1047.2637" y="892.8262">&#65288;cc-remote-agent&#65289;</text><polygon fill="#F1F1F1" points="1019.749,911.6563,1031.749,923.6563,1019.749,935.6563,1007.749,923.6563,1019.749,911.6563" style="stroke:#181818;stroke-width:0.5;"/><rect fill="#F1F1F1" height="61.9063" rx="12.5" ry="12.5" style="stroke:#181818;stroke-width:0.5;" width="212.071" x="913.7136" y="955.6563"/><text fill="#000000" font-family="sans-serif" font-size="12" lengthAdjust="spacing" textLength="175.7701" x="923.7136" y="976.7949">cc-remote-agent &#12467;&#12531;&#12486;&#12490;&#20869;&#12391;</text><text fill="#000000" font-family="sans-serif" font-size="12" lengthAdjust="spacing" textLength="90.1232" x="923.7136" y="990.7637">claude CLI &#23455;&#34892;</text><text fill="#000000" font-family="sans-serif" font-size="12" lengthAdjust="spacing" textLength="192.071" x="923.7136" y="1004.7324">&#8594; HTTP / NDJSON &#12473;&#12488;&#12522;&#12540;&#12512;&#21463;&#20449;</text><polygon fill="#F1F1F1" points="704.0443,1035.5625,716.0443,1047.5625,704.0443,1059.5625,692.0443,1047.5625,704.0443,1035.5625" style="stroke:#181818;stroke-width:0.5;"/><rect fill="#F1F1F1" height="33.9688" rx="12.5" ry="12.5" style="stroke:#181818;stroke-width:0.5;" width="170.0707" x="619.009" y="1079.5625"/><text fill="#000000" font-family="sans-serif" font-size="12" lengthAdjust="spacing" textLength="150.0707" x="629.009" y="1100.7012">callback(ndjson &#12452;&#12505;&#12531;&#12488;)</text><rect fill="#F1F1F1" height="33.9688" rx="12.5" ry="12.5" style="stroke:#181818;stroke-width:0.5;" width="423.2656" x="492.4115" y="1133.5313"/><text fill="#000000" font-family="sans-serif" font-size="12" lengthAdjust="spacing" textLength="403.2656" x="502.4115" y="1154.6699">DB: UPDATE messages (content_blocks, session_id, status: "done")</text><ellipse cx="704.0443" cy="1198.5" fill="none" rx="11" ry="11" style="stroke:#222222;stroke-width:1;"/><ellipse cx="704.0443" cy="1198.5" fill="#222222" rx="6" ry="6" style="stroke:#222222;stroke-width:1;"/><line style="stroke:#181818;stroke-width:1;" x1="704.0443" x2="704.0443" y1="67.2969" y2="87.2969"/><polygon fill="#181818" points="700.0443,77.2969,704.0443,87.2969,708.0443,77.2969,704.0443,81.2969" style="stroke:#181818;stroke-width:1;"/><line style="stroke:#181818;stroke-width:1;" x1="636.4616" x2="530.3412" y1="167.2344" y2="167.2344"/><line style="stroke:#181818;stroke-width:1;" x1="530.3412" x2="530.3412" y1="167.2344" y2="189.2344"/><polygon fill="#181818" points="526.3412,179.2344,530.3412,189.2344,534.3412,179.2344,530.3412,183.2344" style="stroke:#181818;stroke-width:1;"/><line style="stroke:#181818;stroke-width:1;" x1="771.6271" x2="877.7475" y1="167.2344" y2="167.2344"/><line style="stroke:#181818;stroke-width:1;" x1="877.7475" x2="877.7475" y1="167.2344" y2="189.2344"/><polygon fill="#181818" points="873.7475,179.2344,877.7475,189.2344,881.7475,179.2344,877.7475,183.2344" style="stroke:#181818;stroke-width:1;"/><line style="stroke:#181818;stroke-width:1;" x1="530.3412" x2="530.3412" y1="223.2031" y2="255.1719"/><line style="stroke:#181818;stroke-width:1;" x1="530.3412" x2="692.0443" y1="255.1719" y2="255.1719"/><polygon fill="#181818" points="682.0443,251.1719,692.0443,255.1719,682.0443,259.1719,686.0443,255.1719" style="stroke:#181818;stroke-width:1;"/><line style="stroke:#181818;stroke-width:1;" x1="877.7475" x2="877.7475" y1="237.1719" y2="255.1719"/><line style="stroke:#181818;stroke-width:1;" x1="877.7475" x2="716.0443" y1="255.1719" y2="255.1719"/><polygon fill="#181818" points="726.0443,251.1719,716.0443,255.1719,726.0443,259.1719,722.0443,255.1719" style="stroke:#181818;stroke-width:1;"/><line style="stroke:#181818;stroke-width:1;" x1="704.0443" x2="704.0443" y1="135.2344" y2="155.2344"/><polygon fill="#181818" points="700.0443,145.2344,704.0443,155.2344,708.0443,145.2344,704.0443,149.2344" style="stroke:#181818;stroke-width:1;"/><line style="stroke:#181818;stroke-width:1;" x1="704.0443" x2="704.0443" y1="267.1719" y2="287.1719"/><polygon fill="#181818" points="700.0443,277.1719,704.0443,287.1719,708.0443,277.1719,704.0443,281.1719" style="stroke:#181818;stroke-width:1;"/><line style="stroke:#181818;stroke-width:1;" x1="704.0443" x2="704.0443" y1="335.1094" y2="355.1094"/><polygon fill="#181818" points="700.0443,345.1094,704.0443,355.1094,708.0443,345.1094,704.0443,349.1094" style="stroke:#181818;stroke-width:1;"/><line style="stroke:#181818;stroke-width:1;" x1="704.0443" x2="704.0443" y1="389.0781" y2="409.0781"/><polygon fill="#181818" points="700.0443,399.0781,704.0443,409.0781,708.0443,399.0781,704.0443,403.0781" style="stroke:#181818;stroke-width:1;"/><line style="stroke:#181818;stroke-width:1;" x1="704.0443" x2="704.0443" y1="443.0469" y2="463.0469"/><polygon fill="#181818" points="700.0443,453.0469,704.0443,463.0469,708.0443,453.0469,704.0443,457.0469" style="stroke:#181818;stroke-width:1;"/><line style="stroke:#181818;stroke-width:1;" x1="388.3396" x2="388.3396" y1="695.7813" y2="715.7813"/><polygon fill="#181818" points="384.3396,705.7813,388.3396,715.7813,392.3396,705.7813,388.3396,709.7813" style="stroke:#181818;stroke-width:1;"/><line style="stroke:#181818;stroke-width:1;" x1="388.3396" x2="388.3396" y1="749.75" y2="769.75"/><polygon fill="#181818" points="384.3396,759.75,388.3396,769.75,392.3396,759.75,388.3396,763.75" style="stroke:#181818;stroke-width:1;"/><line style="stroke:#181818;stroke-width:1;" x1="289.3738" x2="211.6699" y1="835.7188" y2="835.7188"/><line style="stroke:#181818;stroke-width:1;" x1="211.6699" x2="211.6699" y1="835.7188" y2="857.7188"/><polygon fill="#181818" points="207.6699,847.7188,211.6699,857.7188,215.6699,847.7188,211.6699,851.7188" style="stroke:#181818;stroke-width:1;"/><line style="stroke:#181818;stroke-width:1;" x1="487.3055" x2="565.0093" y1="835.7188" y2="835.7188"/><line style="stroke:#181818;stroke-width:1;" x1="565.0093" x2="565.0093" y1="835.7188" y2="857.7188"/><polygon fill="#181818" points="561.0093,847.7188,565.0093,857.7188,569.0093,847.7188,565.0093,851.7188" style="stroke:#181818;stroke-width:1;"/><line style="stroke:#181818;stroke-width:1;" x1="211.6699" x2="211.6699" y1="905.6563" y2="923.6563"/><line style="stroke:#181818;stroke-width:1;" x1="211.6699" x2="376.3396" y1="923.6563" y2="923.6563"/><polygon fill="#181818" points="366.3396,919.6563,376.3396,923.6563,366.3396,927.6563,370.3396,923.6563" style="stroke:#181818;stroke-width:1;"/><line style="stroke:#181818;stroke-width:1;" x1="565.0093" x2="565.0093" y1="905.6563" y2="923.6563"/><line style="stroke:#181818;stroke-width:1;" x1="565.0093" x2="400.3396" y1="923.6563" y2="923.6563"/><polygon fill="#181818" points="410.3396,919.6563,400.3396,923.6563,410.3396,927.6563,406.3396,923.6563" style="stroke:#181818;stroke-width:1;"/><line style="stroke:#181818;stroke-width:1;" x1="388.3396" x2="388.3396" y1="803.7188" y2="823.7188"/><polygon fill="#181818" points="384.3396,813.7188,388.3396,823.7188,392.3396,813.7188,388.3396,817.7188" style="stroke:#181818;stroke-width:1;"/><line style="stroke:#181818;stroke-width:1;" x1="388.3396" x2="388.3396" y1="935.6563" y2="955.6563"/><polygon fill="#181818" points="384.3396,945.6563,388.3396,955.6563,392.3396,945.6563,388.3396,949.6563" style="stroke:#181818;stroke-width:1;"/><line style="stroke:#181818;stroke-width:1;" x1="1019.749" x2="1019.749" y1="695.7813" y2="715.7813"/><polygon fill="#181818" points="1015.749,705.7813,1019.749,715.7813,1023.749,705.7813,1019.749,709.7813" style="stroke:#181818;stroke-width:1;"/><line style="stroke:#181818;stroke-width:1;" x1="1019.749" x2="1019.749" y1="749.75" y2="769.75"/><polygon fill="#181818" points="1015.749,759.75,1019.749,769.75,1023.749,759.75,1019.749,763.75" style="stroke:#181818;stroke-width:1;"/><line style="stroke:#181818;stroke-width:1;" x1="927.8304" x2="893.4713" y1="835.7188" y2="835.7188"/><line style="stroke:#181818;stroke-width:1;" x1="893.4713" x2="893.4713" y1="835.7188" y2="857.7188"/><polygon fill="#181818" points="889.4713,847.7188,893.4713,857.7188,897.4713,847.7188,893.4713,851.7188" style="stroke:#181818;stroke-width:1;"/><line style="stroke:#181818;stroke-width:1;" x1="1111.6677" x2="1146.0268" y1="835.7188" y2="835.7188"/><line style="stroke:#181818;stroke-width:1;" x1="1146.0268" x2="1146.0268" y1="835.7188" y2="857.7188"/><polygon fill="#181818" points="1142.0268,847.7188,1146.0268,857.7188,1150.0268,847.7188,1146.0268,851.7188" style="stroke:#181818;stroke-width:1;"/><line style="stroke:#181818;stroke-width:1;" x1="893.4713" x2="893.4713" y1="891.6875" y2="923.6563"/><line style="stroke:#181818;stroke-width:1;" x1="893.4713" x2="1007.749" y1="923.6563" y2="923.6563"/><polygon fill="#181818" points="997.749,919.6563,1007.749,923.6563,997.749,927.6563,1001.749,923.6563" style="stroke:#181818;stroke-width:1;"/><line style="stroke:#181818;stroke-width:1;" x1="1146.0268" x2="1146.0268" y1="905.6563" y2="923.6563"/><line style="stroke:#181818;stroke-width:1;" x1="1146.0268" x2="1031.749" y1="923.6563" y2="923.6563"/><polygon fill="#181818" points="1041.749,919.6563,1031.749,923.6563,1041.749,927.6563,1037.749,923.6563" style="stroke:#181818;stroke-width:1;"/><line style="stroke:#181818;stroke-width:1;" x1="1019.749" x2="1019.749" y1="803.7188" y2="823.7188"/><polygon fill="#181818" points="1015.749,813.7188,1019.749,823.7188,1023.749,813.7188,1019.749,817.7188" style="stroke:#181818;stroke-width:1;"/><line style="stroke:#181818;stroke-width:1;" x1="1019.749" x2="1019.749" y1="935.6563" y2="955.6563"/><polygon fill="#181818" points="1015.749,945.6563,1019.749,955.6563,1023.749,945.6563,1019.749,949.6563" style="stroke:#181818;stroke-width:1;"/><line style="stroke:#181818;stroke-width:1;" x1="636.4616" x2="388.3396" y1="603.5156" y2="603.5156"/><line style="stroke:#181818;stroke-width:1;" x1="388.3396" x2="388.3396" y1="603.5156" y2="661.8125"/><polygon fill="#181818" points="384.3396,651.8125,388.3396,661.8125,392.3396,651.8125,388.3396,655.8125" style="stroke:#181818;stroke-width:1;"/><line style="stroke:#181818;stroke-width:1;" x1="771.6271" x2="1019.749" y1="603.5156" y2="603.5156"/><line style="stroke:#181818;stroke-width:1;" x1="1019.749" x2="1019.749" y1="603.5156" y2="661.8125"/><polygon fill="#181818" points="1015.749,651.8125,1019.749,661.8125,1023.749,651.8125,1019.749,655.8125" style="stroke:#181818;stroke-width:1;"/><line style="stroke:#181818;stroke-width:1;" x1="388.3396" x2="388.3396" y1="1017.5625" y2="1047.5625"/><line style="stroke:#181818;stroke-width:1;" x1="388.3396" x2="692.0443" y1="1047.5625" y2="1047.5625"/><polygon fill="#181818" points="682.0443,1043.5625,692.0443,1047.5625,682.0443,1051.5625,686.0443,1047.5625" style="stroke:#181818;stroke-width:1;"/><line style="stroke:#181818;stroke-width:1;" x1="1019.749" x2="1019.749" y1="1017.5625" y2="1047.5625"/><line style="stroke:#181818;stroke-width:1;" x1="1019.749" x2="716.0443" y1="1047.5625" y2="1047.5625"/><polygon fill="#181818" points="726.0443,1043.5625,716.0443,1047.5625,726.0443,1051.5625,722.0443,1047.5625" style="stroke:#181818;stroke-width:1;"/><line style="stroke:#181818;stroke-width:1;" x1="704.0443" x2="704.0443" y1="510.9844" y2="591.5156"/><polygon fill="#181818" points="700.0443,581.5156,704.0443,591.5156,708.0443,581.5156,704.0443,585.5156" style="stroke:#181818;stroke-width:1;"/><line style="stroke:#181818;stroke-width:1;" x1="704.0443" x2="704.0443" y1="1059.5625" y2="1079.5625"/><polygon fill="#181818" points="700.0443,1069.5625,704.0443,1079.5625,708.0443,1069.5625,704.0443,1073.5625" style="stroke:#181818;stroke-width:1;"/><line style="stroke:#181818;stroke-width:1;" x1="704.0443" x2="704.0443" y1="1113.5313" y2="1133.5313"/><polygon fill="#181818" points="700.0443,1123.5313,704.0443,1133.5313,708.0443,1123.5313,704.0443,1127.5313" style="stroke:#181818;stroke-width:1;"/><line style="stroke:#181818;stroke-width:1;" x1="704.0443" x2="704.0443" y1="1167.5" y2="1187.5"/><polygon fill="#181818" points="700.0443,1177.5,704.0443,1187.5,708.0443,1177.5,704.0443,1181.5" style="stroke:#181818;stroke-width:1;"/><?plantuml-src dPPRJnj75CVVzrCS-GLRmlZTA4AElKrIcOkmIIhLbRNi3h35pBgxOqJb8jMx2dL8Mjf8c5xIfgcQaeGcfK9jGA7XktHOGvxo5NfcPsrygulwOBpCphdzps_EU0GobhvCRB0eN4khm6jF85soAWRCLYZaD6hCMsku-k9DxR2v-GFtjhdtd7l7_dS72ZDPYG1P8tg5cHOjhbW6mQrxtArpzwx_uk7vetlDnf5_lDLZh2WEqsocACcPwLmU4bhPJEWMNIMsembFJe5Mkzqc8M84UHONTHA1Jo2YYoIBTeKM7PbaP7rSKSm5YFObzDj43DWIeH3jCuef0Cckq6CzvbS6XHfNICaX4Bt82SEyvhM76EpiGUri-_6b77UKLA1Hxdqc57AVSc-FU_KanEC6MT0g9HPlcyPbIKB8fzpTZs4Yr30NKCckMBXZ0tNcNaFugktrDScztzm_FFlpM_zU0oEdidbr5lAfgrarsRirhxwNXwbf_Cnbiv1HtqdDPVCmSf7w22RnhurCL4rZFR5274TR9Cwuabn21Kl47ijXtfDoEOeEafchISYfMJMTX-vARbrNPrKm3THhea3_thW_e1P_g-6_tlcVxIyZYQRO3v41uBUGVNjS3zTcR6lLD8ZzzlXE1Ahe01jT3jSmoTQZy_u0RZuOb_jxN8sfGSuasbdwZSmesEIZMBV9f4PHCdli6c7JTjec6YFXcnvZqHLXA2G9mnST53p4urVk7WI4tE4rbxkRROtalx705iFU8lCvqMg6pMLCqvSIrPOtxEn4wvbPouHUgGPVwmMAQZLtVlAVVmrEUu8S-XkVDxzuZD1nxvLD76RP13MKvSdZn6lFU6rdK6mzg5GwRkoV_x8rQ4YvFtFlWBj7t3sH3wT_FMZMlxm88ezAuBlVFBfuqtGiEmR-ncrUsorGlQHL4A1qzWR8MIRnSvXXLHY8nwdCkxdfALJpAo6bUoJ2hFUDXXx8UkPj1s3o3QvU7h6E2T9Ygy_BfUYIP0oWIwL6sJ8f6u8NTrznp-FkI-xj1i8_4N-HBE_xi2TUVJXb4XQyPK3NupPPiHY9OoAKGO3fGJ3EDd6GIO26C2CqlJa9fuTYT-jkwtHo_iTB_-vsG59Fh86S3CldFq2vdi_FGA8D2NA9CdZFWbFtex-rSthoA0H6ngCO1MnpSOdXQjYGLW_RS9y4vdXBx4haBgxRsx-_-LJCyoHQjplEraPXGDjnKIkLvZLzEORJGOOIhuXjumb01tDb0tkVrHoMqfcvQhAF1_cAIGFSFqjAH7D8cFMmlLWiY4h5bHNc4AN6XmwUXw36RoGlhJjXRYQJoglGka50OCYm4SNv4lRM6OKmUvn6-CmqLd62tmgKH0IYE6NAoZy0?></g></svg>