<?plantuml 1.2026.2?><svg xmlns="http://www.w3.org/2000/svg" xmlns:xlink="http://www.w3.org/1999/xlink" contentStyleType="text/css" data-diagram-type="DESCRIPTION" height="1438px" preserveAspectRatio="none" style="width:1791px;height:1438px;background:#FFFFFF;" version="1.1" viewBox="0 0 1791 1438" width="1791px" zoomAndPan="magnify"><title>cc-tunnel &#12518;&#12540;&#12473;&#12465;&#12540;&#12473;&#22259;</title><defs/><g><g class="title" data-source-line="1"><text fill="#000000" font-family="sans-serif" font-size="14" font-weight="bold" lengthAdjust="spacing" textLength="176.1685" x="800.4157" y="22.9951">cc-tunnel &#12518;&#12540;&#12473;&#12465;&#12540;&#12473;&#22259;</text></g><!--cluster cc-tunnel--><g class="cluster" data-qualified-name="cc-tunnel" data-source-line="12" id="ent0004"><rect fill="none" height="928" rx="2.5" ry="2.5" style="stroke:#181818;stroke-width:1;" width="1700" x="85" y="44.2969"/><text fill="#000000" font-family="sans-serif" font-size="14" font-weight="bold" lengthAdjust="spacing" textLength="73.2949" x="898.3525" y="59.292">cc-tunnel</text></g><!--cluster ??--><g class="cluster" data-qualified-name="cc-tunnel..." data-source-line="15" id="ent0005"><rect fill="none" height="600" rx="2.5" ry="2.5" style="stroke:#181818;stroke-width:1;" width="260" x="109" y="87.2969"/><text fill="#000000" font-family="sans-serif" font-size="14" font-weight="bold" lengthAdjust="spacing" textLength="27.9999" x="225.0001" y="102.292">&#35469;&#35388;</text></g><!--cluster ????--><g class="cluster" data-qualified-name="cc-tunnel....." data-source-line="25" id="ent0012"><rect fill="none" height="352" rx="2.5" ry="2.5" style="stroke:#181818;stroke-width:1;" width="255" x="489" y="271.2969"/><text fill="#000000" font-family="sans-serif" font-size="14" font-weight="bold" lengthAdjust="spacing" textLength="55.9998" x="588.5001" y="286.292">&#20250;&#35441;&#31649;&#29702;</text></g><!--cluster ????????--><g class="cluster" data-qualified-name="cc-tunnel........." data-source-line="33" id="ent0017"><rect fill="none" height="301" rx="2.5" ry="2.5" style="stroke:#181818;stroke-width:1;" width="1295" x="466" y="647.2969"/><text fill="#000000" font-family="sans-serif" font-size="14" font-weight="bold" lengthAdjust="spacing" textLength="111.9995" x="1057.5002" y="662.292">&#12513;&#12483;&#12475;&#12540;&#12472;&#12539;&#23455;&#34892;</text></g><!--cluster ???????--><g class="cluster" data-qualified-name="cc-tunnel........" data-source-line="43" id="ent0024"><rect fill="none" height="237" rx="2.5" ry="2.5" style="stroke:#181818;stroke-width:1;" width="202" x="138" y="711.2969"/><text fill="#000000" font-family="sans-serif" font-size="14" font-weight="bold" lengthAdjust="spacing" textLength="97.9996" x="190.0002" y="726.292">&#12490;&#12499;&#12466;&#12540;&#12471;&#12519;&#12531;</text></g><!--entity UC_AuthStatus--><g class="entity" data-qualified-name="cc-tunnel....UC_AuthStatus" data-source-line="16" id="ent0006"><ellipse cx="238.8603" cy="147.494" fill="#F1F1F1" rx="80.8603" ry="24.6971" style="stroke:#181818;stroke-width:0.5;"/><text fill="#000000" font-family="sans-serif" font-size="14" lengthAdjust="spacing" textLength="83.9996" x="196.8605" y="142.0212">&#35469;&#35388;&#29366;&#24907;&#30906;&#35469;</text><text fill="#000000" font-family="sans-serif" font-size="14" lengthAdjust="spacing" textLength="116.9629" x="180.3789" y="158.318">GET /auth/status</text></g><!--entity UC_Login--><g class="entity" data-qualified-name="cc-tunnel....UC_Login" data-source-line="17" id="ent0007"><ellipse cx="239.1637" cy="242.2838" fill="#F1F1F1" rx="92.6637" ry="34.987" style="stroke:#181818;stroke-width:0.5;"/><text fill="#000000" font-family="sans-serif" font-size="14" lengthAdjust="spacing" textLength="83.9996" x="197.1638" y="226.82">&#12525;&#12464;&#12452;&#12531;&#38283;&#22987;</text><text fill="#000000" font-family="sans-serif" font-size="14" lengthAdjust="spacing" textLength="116.7031" x="180.8121" y="243.1168">POST /auth/login</text><text fill="#000000" font-family="sans-serif" font-size="14" lengthAdjust="spacing" textLength="137.0469" x="170.6402" y="259.4137">(claudeai / console)</text></g><!--entity UC_Logout--><g class="entity" data-qualified-name="cc-tunnel....UC_Logout" data-source-line="18" id="ent0008"><ellipse cx="238.78" cy="336.4355" fill="#F1F1F1" rx="85.28" ry="24.1386" style="stroke:#181818;stroke-width:0.5;"/><text fill="#000000" font-family="sans-serif" font-size="14" lengthAdjust="spacing" textLength="69.9997" x="203.7801" y="330.1016">&#12525;&#12464;&#12450;&#12454;&#12488;</text><text fill="#000000" font-family="sans-serif" font-size="14" lengthAdjust="spacing" textLength="126.8682" x="175.3459" y="346.3984">POST /auth/logout</text></g><!--entity UC_CancelLogin--><g class="entity" data-qualified-name="cc-tunnel....UC_CancelLogin" data-source-line="19" id="ent0009"><ellipse cx="239.1318" cy="421.2572" fill="#F1F1F1" rx="93.1318" ry="25.9603" style="stroke:#181818;stroke-width:0.5;"/><text fill="#000000" font-family="sans-serif" font-size="14" lengthAdjust="spacing" textLength="125.9995" x="176.1321" y="417.634">&#12525;&#12464;&#12452;&#12531;&#12461;&#12515;&#12531;&#12475;&#12523;</text><text fill="#000000" font-family="sans-serif" font-size="14" lengthAdjust="spacing" textLength="127.9482" x="175.1577" y="433.9309">POST /auth/cancel</text></g><!--entity UC_AuthInput--><g class="entity" data-qualified-name="cc-tunnel....UC_AuthInput" data-source-line="20" id="ent0010"><ellipse cx="238.9909" cy="515.2651" fill="#F1F1F1" rx="74.4909" ry="32.4682" style="stroke:#181818;stroke-width:0.5;"/><text fill="#000000" font-family="sans-serif" font-size="14" lengthAdjust="spacing" textLength="83.9996" x="196.9911" y="504.2152">&#35469;&#35388;&#20837;&#21147;&#36865;&#20449;</text><text fill="#000000" font-family="sans-serif" font-size="14" lengthAdjust="spacing" textLength="118.6104" x="179.6858" y="520.5121">POST /auth/input</text><text fill="#000000" font-family="sans-serif" font-size="14" lengthAdjust="spacing" textLength="75.3525" x="201.3147" y="536.809">(PTY stdin)</text></g><!--entity UC_AuthOutput--><g class="entity" data-qualified-name="cc-tunnel....UC_AuthOutput" data-source-line="21" id="ent0011"><ellipse cx="238.9883" cy="627.5379" fill="#FFD700" rx="113.9883" ry="44.741" style="stroke:#181818;stroke-width:0.5;"/><text fill="#000000" font-family="sans-serif" font-size="14" font-style="italic" lengthAdjust="spacing" textLength="77.54" x="200.2183" y="601.2232">&#171;changed&#187;</text><text fill="#000000" font-family="sans-serif" font-size="14" lengthAdjust="spacing" textLength="127.9957" x="174.9905" y="617.5201">PTY &#12473;&#12488;&#12522;&#12540;&#12512;&#36092;&#35501;</text><text fill="#000000" font-family="sans-serif" font-size="14" lengthAdjust="spacing" textLength="150.6914" x="163.6426" y="633.817">GET /auth/pty/stream</text><text fill="#000000" font-family="sans-serif" font-size="14" lengthAdjust="spacing" textLength="173.332" x="152.3223" y="650.1139">(SSE, text/event-stream)</text></g><!--entity UC_ListConv--><g class="entity" data-qualified-name="cc-tunnel......UC_ListConv" data-source-line="26" id="ent0013"><ellipse cx="616.5607" cy="414.1489" fill="#F1F1F1" rx="91.5607" ry="24.352" style="stroke:#181818;stroke-width:0.5;"/><text fill="#000000" font-family="sans-serif" font-size="14" lengthAdjust="spacing" textLength="83.9996" x="574.5608" y="408.1476">&#20250;&#35441;&#19968;&#35239;&#34920;&#31034;</text><text fill="#000000" font-family="sans-serif" font-size="14" lengthAdjust="spacing" textLength="135.1875" x="548.9669" y="424.4445">GET /conversations</text></g><!--entity UC_CreateConv--><g class="entity" data-qualified-name="cc-tunnel......UC_CreateConv" data-source-line="27" id="ent0014"><ellipse cx="616.7086" cy="498.5307" fill="#F1F1F1" rx="96.7086" ry="24.2338" style="stroke:#181818;stroke-width:0.5;"/><text fill="#000000" font-family="sans-serif" font-size="14" lengthAdjust="spacing" textLength="83.9996" x="574.7088" y="492.3459">&#26032;&#35215;&#20250;&#35441;&#20316;&#25104;</text><text fill="#000000" font-family="sans-serif" font-size="14" lengthAdjust="spacing" textLength="143.8418" x="544.7877" y="508.6428">POST /conversations</text></g><!--entity UC_GetConv--><g class="entity" data-qualified-name="cc-tunnel......UC_GetConv" data-source-line="28" id="ent0015"><ellipse cx="616.3343" cy="330.3846" fill="#F1F1F1" rx="104.8343" ry="24.0878" style="stroke:#181818;stroke-width:0.5;"/><text fill="#000000" font-family="sans-serif" font-size="14" lengthAdjust="spacing" textLength="83.9996" x="574.3345" y="323.9708">&#20250;&#35441;&#35443;&#32048;&#21462;&#24471;</text><text fill="#000000" font-family="sans-serif" font-size="14" lengthAdjust="spacing" textLength="157.3975" x="537.6356" y="340.2677">GET /conversations/:id</text></g><!--entity UC_DeleteConv--><g class="entity" data-qualified-name="cc-tunnel......UC_DeleteConv" data-source-line="29" id="ent0016"><ellipse cx="616.3941" cy="582.4757" fill="#F1F1F1" rx="111.3941" ry="24.6788" style="stroke:#181818;stroke-width:0.5;"/><text fill="#000000" font-family="sans-serif" font-size="14" lengthAdjust="spacing" textLength="55.9998" x="588.3942" y="574.3295">&#20250;&#35441;&#21066;&#38500;</text><text fill="#000000" font-family="sans-serif" font-size="14" lengthAdjust="spacing" textLength="182.8203" x="524.984" y="590.6264">DELETE /conversations/:id</text></g><!--entity UC_SendMsg--><g class="entity" data-qualified-name="cc-tunnel..........UC_SendMsg" data-source-line="34" id="ent0018"><ellipse cx="616.5746" cy="859.491" fill="#F1F1F1" rx="134.5746" ry="29.6941" style="stroke:#181818;stroke-width:0.5;"/><text fill="#000000" font-family="sans-serif" font-size="14" lengthAdjust="spacing" textLength="97.9996" x="567.5748" y="847.5139">&#12513;&#12483;&#12475;&#12540;&#12472;&#36865;&#20449;</text><text fill="#000000" font-family="sans-serif" font-size="14" lengthAdjust="spacing" textLength="240.9805" x="496.0843" y="863.8108">POST /conversations/:id/messages</text><text fill="#000000" font-family="sans-serif" font-size="14" lengthAdjust="spacing" textLength="112.8135" x="560.1678" y="880.1077">&#8594; 202 Accepted</text></g><!--entity UC_ExecClaude--><g class="entity" data-qualified-name="cc-tunnel..........UC_ExecClaude" data-source-line="35" id="ent0019"><ellipse cx="1053.455" cy="821.0997" fill="#F1F1F1" rx="88.455" ry="25.3028" style="stroke:#181818;stroke-width:0.5;"/><text fill="#000000" font-family="sans-serif" font-size="14" lengthAdjust="spacing" textLength="107.2216" x="999.8442" y="816.5287">Claude CLI &#23455;&#34892;</text><text fill="#000000" font-family="sans-serif" font-size="14" lengthAdjust="spacing" textLength="124.8856" x="991.0122" y="832.8255">(&#38750;&#21516;&#26399; goroutine)</text></g><!--entity UC_Polling--><g class="entity" data-qualified-name="cc-tunnel..........UC_Polling" data-source-line="36" id="ent0020"><ellipse cx="1053.4" cy="721.4085" fill="#F1F1F1" rx="91.4" ry="39.6116" style="stroke:#181818;stroke-width:0.5;"/><text fill="#000000" font-family="sans-serif" font-size="14" lengthAdjust="spacing" textLength="83.9996" x="1011.4002" y="701.9899">&#12509;&#12540;&#12522;&#12531;&#12464;&#12391;</text><text fill="#000000" font-family="sans-serif" font-size="14" lengthAdjust="spacing" textLength="83.9996" x="1011.4002" y="718.2867">&#36914;&#34892;&#29366;&#27841;&#21462;&#24471;</text><text fill="#000000" font-family="sans-serif" font-size="14" lengthAdjust="spacing" textLength="157.3975" x="974.7013" y="734.5836">GET /conversations/:id</text><text fill="#000000" font-family="sans-serif" font-size="14" lengthAdjust="spacing" textLength="61.8309" x="1022.4846" y="750.8805">(1&#31186;&#38291;&#38548;)</text></g><!--entity UC_Complete--><g class="entity" data-qualified-name="cc-tunnel..........UC_Complete" data-source-line="37" id="ent0021"><ellipse cx="1383.1788" cy="721.0659" fill="#F1F1F1" rx="92.1788" ry="23.769" style="stroke:#181818;stroke-width:0.5;"/><text fill="#000000" font-family="sans-serif" font-size="14" lengthAdjust="spacing" textLength="55.9998" x="1355.1789" y="714.144">&#23436;&#20102;&#26908;&#30693;</text><text fill="#000000" font-family="sans-serif" font-size="14" lengthAdjust="spacing" textLength="139.9521" x="1313.2027" y="730.4409">(status=completed)</text></g><!--entity UC_Title--><g class="entity" data-qualified-name="cc-tunnel..........UC_Title" data-source-line="38" id="ent0022"><ellipse cx="1672.2524" cy="721.1474" fill="#F1F1F1" rx="72.2524" ry="16.8505" style="stroke:#181818;stroke-width:0.5;"/><text fill="#000000" font-family="sans-serif" font-size="14" lengthAdjust="spacing" textLength="111.9995" x="1616.2527" y="725.7958">&#12479;&#12452;&#12488;&#12523;&#33258;&#21205;&#29983;&#25104;</text></g><!--entity UC_Disconnect--><g class="entity" data-qualified-name="cc-tunnel..........UC_Disconnect" data-source-line="39" id="ent0023"><ellipse cx="1053.6302" cy="907.2229" fill="#F1F1F1" rx="112.6302" ry="24.926" style="stroke:#181818;stroke-width:0.5;"/><text fill="#000000" font-family="sans-serif" font-size="14" lengthAdjust="spacing" textLength="111.9995" x="997.6304" y="901.1701">&#20999;&#26029;&#24460;&#12398;&#33258;&#21205;&#32153;&#32154;</text><text fill="#000000" font-family="sans-serif" font-size="14" lengthAdjust="spacing" textLength="170.8369" x="968.2117" y="917.4669">(context.WithoutCancel)</text></g><!--entity UC_DirectURL--><g class="entity" data-qualified-name="cc-tunnel.........UC_DirectURL" data-source-line="44" id="ent0025"><ellipse cx="239.0533" cy="772.0759" fill="#F1F1F1" rx="85.0533" ry="25.779" style="stroke:#181818;stroke-width:0.5;"/><text fill="#000000" font-family="sans-serif" font-size="14" lengthAdjust="spacing" textLength="111.774" x="183.1663" y="768.1943">URL&#30452;&#25509;&#12450;&#12463;&#12475;&#12473;</text><text fill="#000000" font-family="sans-serif" font-size="14" lengthAdjust="spacing" textLength="117.4072" x="180.3497" y="784.4912">/conversation/:id</text></g><!--entity UC_BrowserNav--><g class="entity" data-qualified-name="cc-tunnel.........UC_BrowserNav" data-source-line="45" id="ent0026"><ellipse cx="239.173" cy="850.5315" fill="#F1F1F1" rx="74.173" ry="17.2346" style="stroke:#181818;stroke-width:0.5;"/><text fill="#000000" font-family="sans-serif" font-size="14" lengthAdjust="spacing" textLength="116.7163" x="180.8149" y="855.1799">&#12502;&#12521;&#12454;&#12470;&#25147;&#12427;/&#36914;&#12416;</text></g><!--entity UC_SwitchConv--><g class="entity" data-qualified-name="cc-tunnel.........UC_SwitchConv" data-source-line="46" id="ent0027"><ellipse cx="239.0978" cy="917.3205" fill="#F1F1F1" rx="42.5978" ry="14.5236" style="stroke:#181818;stroke-width:0.5;"/><text fill="#000000" font-family="sans-serif" font-size="14" lengthAdjust="spacing" textLength="55.9998" x="211.0979" y="921.9689">&#20250;&#35441;&#20999;&#26367;</text></g><!--entity user--><g class="entity" data-qualified-name="user" data-source-line="9" id="ent0002"><ellipse cx="21.9551" cy="791.7969" fill="#F1F1F1" rx="8" ry="8" style="stroke:#181818;stroke-width:0.5;"/><path d="M21.9551,799.7969 L21.9551,826.7969 M8.9551,807.7969 L34.9551,807.7969 M21.9551,826.7969 L8.9551,841.7969 M21.9551,826.7969 L34.9551,841.7969" fill="none" style="stroke:#181818;stroke-width:0.5;"/><text fill="#000000" font-family="sans-serif" font-size="14" lengthAdjust="spacing" textLength="31.9102" x="6" y="856.292">User</text></g><!--entity claude--><g class="entity" data-qualified-name="claude" data-source-line="10" id="ent0003"><ellipse cx="1382.769" cy="996.2969" fill="#F1F1F1" rx="8" ry="8" style="stroke:#181818;stroke-width:0.5;"/><path d="M1382.769,1004.2969 L1382.769,1031.2969 M1369.769,1012.2969 L1395.769,1012.2969 M1382.769,1031.2969 L1369.769,1046.2969 M1382.769,1031.2969 L1395.769,1046.2969" fill="none" style="stroke:#181818;stroke-width:0.5;"/><text fill="#000000" font-family="sans-serif" font-size="14" lengthAdjust="spacing" textLength="74.7715" x="1319" y="1060.792">Claude CLI</text><text fill="#000000" font-family="sans-serif" font-size="14" lengthAdjust="spacing" textLength="127.5381" x="1319" y="1077.0889">(cc-remote-agent)</text></g><!--link user to UC_AuthStatus--><g class="link" data-entity-1="ent0002" data-entity-2="ent0006" data-link-type="dependency" data-source-line="52" id="lnk28"><path d="M23.73,783.1469 C26.53,653.3969 38.53,234.6369 77,189.2969 C97,165.7269 122.4844,155.5197 152.2744,150.4697" fill="none" id="user-to-UC_AuthStatus" style="stroke:#181818;stroke-width:1;"/><polygon fill="#181818" points="158.19,149.4669,148.6481,147.0274,153.2603,150.3026,149.9851,154.9148,158.19,149.4669" style="stroke:#181818;stroke-width:1;"/></g><!--link user to UC_Login--><g class="link" data-entity-1="ent0002" data-entity-2="ent0007" data-link-type="dependency" data-source-line="53" id="lnk29"><path d="M24.47,783.2569 C29.25,668.5869 45.82,331.7569 77,294.2969 C95.22,272.3969 116.962,261.2076 144.132,253.7876" fill="none" id="user-to-UC_Login" style="stroke:#181818;stroke-width:1;"/><polygon fill="#181818" points="149.92,252.2069,140.1841,250.7192,145.0966,253.5241,142.2917,258.4366,149.92,252.2069" style="stroke:#181818;stroke-width:1;"/></g><!--link user to UC_Logout--><g class="link" data-entity-1="ent0002" data-entity-2="ent0008" data-link-type="dependency" data-source-line="54" id="lnk30"><path d="M22.32,783.2669 C21.42,687.0369 24.32,437.2169 77,377.2969 C96.33,355.3069 119.7408,345.4018 148.0808,340.1418" fill="none" id="user-to-UC_Logout" style="stroke:#181818;stroke-width:1;"/><polygon fill="#181818" points="153.98,339.0469,144.4012,336.7564,149.064,339.9593,145.8611,344.6221,153.98,339.0469" style="stroke:#181818;stroke-width:1;"/></g><!--link user to UC_CancelLogin--><g class="link" data-entity-1="ent0002" data-entity-2="ent0009" data-link-type="dependency" data-source-line="55" id="lnk31"><path d="M23.69,783.1169 C25.95,701.0969 35.65,511.7569 77,465.2969 C95.21,444.8369 116.0674,434.852 142.5174,428.672" fill="none" id="user-to-UC_CancelLogin" style="stroke:#181818;stroke-width:1;"/><polygon fill="#181818" points="148.36,427.3069,138.686,425.4595,143.4911,428.4445,140.5061,433.2497,148.36,427.3069" style="stroke:#181818;stroke-width:1;"/></g><!--link user to UC_AuthInput--><g class="link" data-entity-1="ent0002" data-entity-2="ent0010" data-link-type="dependency" data-source-line="56" id="lnk32"><path d="M26.35,783.1269 C32.64,719.7969 48.29,596.8169 77,565.2969 C99.57,540.5169 128.2705,529.1034 159.6205,522.7234" fill="none" id="user-to-UC_AuthInput" style="stroke:#181818;stroke-width:1;"/><polygon fill="#181818" points="165.5,521.5269,155.8831,519.402,160.6004,522.524,157.4785,527.2413,165.5,521.5269" style="stroke:#181818;stroke-width:1;"/></g><!--link user to UC_AuthOutput--><g class="link" data-entity-1="ent0002" data-entity-2="ent0011" data-link-type="dependency" data-source-line="57" id="lnk33"><path d="M38.18,787.5969 C47.58,769.2369 60.91,746.9369 77,730.2969 C103.18,703.2169 132.5939,682.907 163.0239,665.337" fill="none" id="user-to-UC_AuthOutput" style="stroke:#181818;stroke-width:1;"/><polygon fill="#181818" points="168.22,662.3369,158.4258,663.3731,163.8899,664.837,162.426,670.3012,168.22,662.3369" style="stroke:#181818;stroke-width:1;"/></g><!--link user to UC_ListConv--><g class="link" data-entity-1="ent0002" data-entity-2="ent0013" data-link-type="dependency" data-source-line="59" id="lnk34"><path d="M26.54,859.5169 C32.04,909.4569 44.54,992.7369 68,1011.2969 C201.17,1116.6069 329.09,1130.4769 450,1011.2969 C471.96,989.6469 439.04,480.6069 458,456.2969 C474.36,435.3169 494.0864,425.3941 519.9064,419.5841" fill="none" id="user-to-UC_ListConv" style="stroke:#181818;stroke-width:1;"/><polygon fill="#181818" points="525.76,418.2669,516.1014,416.3402,520.882,419.3645,517.8577,424.1451,525.76,418.2669" style="stroke:#181818;stroke-width:1;"/></g><!--link user to UC_CreateConv--><g class="link" data-entity-1="ent0002" data-entity-2="ent0014" data-link-type="dependency" data-source-line="60" id="lnk35"><path d="M23.79,859.2969 C26.03,924.6969 34.68,1054.2269 68,1082.2969 C197.85,1191.6669 329.07,1201.4569 450,1082.2969 C471.45,1061.1569 439.48,564.0369 458,540.2969 C473.49,520.4369 491.4275,510.7554 515.8275,504.6854" fill="none" id="user-to-UC_CreateConv" style="stroke:#181818;stroke-width:1;"/><polygon fill="#181818" points="521.65,503.2369,511.9505,501.5279,516.7979,504.4439,513.8818,509.2913,521.65,503.2369" style="stroke:#181818;stroke-width:1;"/></g><!--link user to UC_GetConv--><g class="link" data-entity-1="ent0002" data-entity-2="ent0015" data-link-type="dependency" data-source-line="61" id="lnk36"><path d="M27.93,859.5869 C34,889.3369 47.43,928.7269 77,948.2969 C188.21,1021.8469 252.57,996.2069 377,948.2969 C417.82,932.5769 431.94,922.1269 450,882.2969 C461.7,856.4869 440.56,394.6269 458,372.2969 C472.19,354.1169 487.542,344.9093 509.742,338.5493" fill="none" id="user-to-UC_GetConv" style="stroke:#181818;stroke-width:1;"/><polygon fill="#181818" points="515.51,336.8969,505.7564,335.5302,510.7034,338.2739,507.9597,343.2209,515.51,336.8969" style="stroke:#181818;stroke-width:1;"/></g><!--link user to UC_DeleteConv--><g class="link" data-entity-1="ent0002" data-entity-2="ent0016" data-link-type="dependency" data-source-line="62" id="lnk37"><path d="M22.2,859.4569 C21.45,938.4169 24.74,1115.5069 68,1153.2969 C195.86,1264.9869 328.97,1272.3569 450,1153.2969 C469.29,1134.3169 443.89,689.3769 458,666.2969 C477.39,634.5669 507.6236,616.3159 540.2136,603.5459" fill="none" id="user-to-UC_DeleteConv" style="stroke:#181818;stroke-width:1;"/><polygon fill="#181818" points="545.8,601.3569,535.961,600.9161,541.1446,603.181,538.8797,608.3646,545.8,601.3569" style="stroke:#181818;stroke-width:1;"/></g><!--link user to UC_SendMsg--><g class="link" data-entity-1="ent0002" data-entity-2="ent0018" data-link-type="dependency" data-source-line="64" id="lnk38"><path d="M24.42,859.3369 C28.37,955.0969 41.04,1200.1769 68,1224.2969 C194.54,1337.4869 307.3,1316.2769 450,1224.2969 C569.3,1147.3969 602.8202,967.2311 611.8202,894.7911" fill="none" id="user-to-UC_SendMsg" style="stroke:#181818;stroke-width:1;"/><polygon fill="#181818" points="612.56,888.8369,607.4809,897.275,611.9435,893.7987,615.4198,898.2614,612.56,888.8369" style="stroke:#181818;stroke-width:1;"/></g><!--link user to UC_DirectURL--><g class="link" data-entity-1="ent0002" data-entity-2="ent0025" data-link-type="dependency" data-source-line="65" id="lnk39"><path d="M38.19,814.7969 C46.81,811.2969 57.87,807.1369 68,804.2969 C98.36,795.7669 126.5,789.8924 156.12,784.7024" fill="none" id="user-to-UC_DirectURL" style="stroke:#181818;stroke-width:1;"/><polygon fill="#181818" points="162.03,783.6669,152.4747,781.2802,157.105,784.5298,153.8554,789.1602,162.03,783.6669" style="stroke:#181818;stroke-width:1;"/></g><!--link user to UC_BrowserNav--><g class="link" data-entity-1="ent0002" data-entity-2="ent0026" data-link-type="dependency" data-source-line="66" id="lnk40"><path d="M38.12,823.3369 C66.03,827.0969 121.1739,834.5343 168.5139,840.9243" fill="none" id="user-to-UC_BrowserNav" style="stroke:#181818;stroke-width:1;"/><polygon fill="#181818" points="174.46,841.7269,166.076,836.5589,169.5049,841.058,165.0058,844.487,174.46,841.7269" style="stroke:#181818;stroke-width:1;"/></g><!--link user to UC_SwitchConv--><g class="link" data-entity-1="ent0002" data-entity-2="ent0027" data-link-type="dependency" data-source-line="67" id="lnk41"><path d="M38.08,845.7769 C47.61,859.1869 61.11,874.9369 77,884.2969 C113.63,905.8669 156.1776,913.0482 190.3476,915.6682" fill="none" id="user-to-UC_SwitchConv" style="stroke:#181818;stroke-width:1;"/><polygon fill="#181818" points="196.33,916.1269,187.6621,911.4505,191.3446,915.7446,187.0505,919.4271,196.33,916.1269" style="stroke:#181818;stroke-width:1;"/></g><!--link UC_SendMsg to UC_ExecClaude--><g class="link" data-entity-1="ent0018" data-entity-2="ent0019" data-link-type="dependency" data-source-line="70" id="lnk42"><path d="M741.86,848.4269 C814.55,842.0769 898.3728,834.7591 962.7028,829.1391" fill="none" id="UC_SendMsg-to-UC_ExecClaude" style="stroke:#181818;stroke-width:1;stroke-dasharray:7,7;"/><polygon fill="#181818" points="968.68,828.6169,959.366,825.4153,963.699,829.052,960.0623,833.385,968.68,828.6169" style="stroke:#181818;stroke-width:1;"/><text fill="#000000" font-family="sans-serif" font-size="13" lengthAdjust="spacing" textLength="63.0068" x="814.5" y="831.3638">&#171;include&#187;</text></g><!--link UC_SendMsg to UC_Disconnect--><g class="link" data-entity-1="ent0018" data-entity-2="ent0023" data-link-type="dependency" data-source-line="71" id="lnk43"><path d="M736.94,872.4769 C804.6,879.9369 882.3063,888.5081 946.4863,895.5981" fill="none" id="UC_SendMsg-to-UC_Disconnect" style="stroke:#181818;stroke-width:1;stroke-dasharray:7,7;"/><polygon fill="#181818" points="952.45,896.2569,943.9436,891.2928,947.4802,895.7079,943.0652,899.2445,952.45,896.2569" style="stroke:#181818;stroke-width:1;"/><text fill="#000000" font-family="sans-serif" font-size="13" lengthAdjust="spacing" textLength="63.0068" x="814.5" y="874.3638">&#171;include&#187;</text></g><!--link UC_SendMsg to UC_Polling--><g class="link" data-entity-1="ent0018" data-entity-2="ent0020" data-link-type="dependency" data-source-line="72" id="lnk44"><path d="M696.44,835.3969 C723.25,827.3369 753.41,818.3569 781,810.2969 C838.66,793.4469 853.88,791.8869 911,773.2969 C935.14,765.4369 955.6752,758.1553 978.8652,749.5453" fill="none" id="UC_SendMsg-to-UC_Polling" style="stroke:#181818;stroke-width:1;stroke-dasharray:7,7;"/><polygon fill="#181818" points="984.49,747.4569,974.6605,746.8396,979.8026,749.1972,977.445,754.3393,984.49,747.4569" style="stroke:#181818;stroke-width:1;"/><text fill="#000000" font-family="sans-serif" font-size="13" lengthAdjust="spacing" textLength="63.0068" x="814.5" y="769.3638">&#171;include&#187;</text></g><!--link UC_GetConv to UC_Polling--><g class="link" data-entity-1="ent0015" data-entity-2="ent0020" data-link-type="dependency" data-source-line="73" id="lnk45"><path d="M694.8,346.4169 C714.44,352.6069 734.83,361.0069 752,372.2969 C880.47,456.6969 982.2944,606.0537 1026.6244,677.7437" fill="none" id="UC_GetConv-to-UC_Polling" style="stroke:#181818;stroke-width:1;stroke-dasharray:7,7;"/><polygon fill="#181818" points="1029.78,682.8469,1028.4487,673.0884,1027.1504,678.5942,1021.6445,677.2958,1029.78,682.8469" style="stroke:#181818;stroke-width:1;"/><text fill="#000000" font-family="sans-serif" font-size="13" lengthAdjust="spacing" textLength="61.1851" x="815.5474" y="375.3638">&#171;extend&#187;</text><text fill="#000000" font-family="sans-serif" font-size="13" lengthAdjust="spacing" textLength="128.2798" x="782" y="390.4966">(status=running &#26178;)</text></g><!--link UC_Polling to UC_Complete--><g class="link" data-entity-1="ent0020" data-entity-2="ent0021" data-link-type="dependency" data-source-line="74" id="lnk46"><path d="M1145.29,721.2969 C1190.63,721.2969 1239.35,721.2969 1284.75,721.2969" fill="none" id="UC_Polling-to-UC_Complete" style="stroke:#181818;stroke-width:1;stroke-dasharray:7,7;"/><polygon fill="#181818" points="1290.75,721.2969,1281.75,717.2969,1285.75,721.2969,1281.75,725.2969,1290.75,721.2969" style="stroke:#181818;stroke-width:1;"/><text fill="#000000" font-family="sans-serif" font-size="13" lengthAdjust="spacing" textLength="63.0068" x="1197" y="717.3638">&#171;include&#187;</text></g><!--link UC_Complete to UC_Title--><g class="link" data-entity-1="ent0021" data-entity-2="ent0022" data-link-type="dependency" data-source-line="75" id="lnk47"><path d="M1475.36,721.2969 C1515.65,721.2969 1556.29,721.2969 1593.98,721.2969" fill="none" id="UC_Complete-to-UC_Title" style="stroke:#181818;stroke-width:1;stroke-dasharray:7,7;"/><polygon fill="#181818" points="1599.98,721.2969,1590.98,717.2969,1594.98,721.2969,1590.98,725.2969,1599.98,721.2969" style="stroke:#181818;stroke-width:1;"/><text fill="#000000" font-family="sans-serif" font-size="13" lengthAdjust="spacing" textLength="63.0068" x="1506" y="717.3638">&#171;include&#187;</text></g><!--link UC_SwitchConv to UC_GetConv--><g class="link" data-entity-1="ent0027" data-entity-2="ent0015" data-link-type="dependency" data-source-line="76" id="lnk48"><path d="M281.71,917.0469 C311.5,914.7469 350.78,907.0869 377,884.2969 C443.71,826.2969 432.43,785.9169 450,699.2969 C453.61,681.4869 446.75,386.5669 458,372.2969 C472.27,354.1769 487.652,344.9893 509.852,338.6293" fill="none" id="UC_SwitchConv-to-UC_GetConv" style="stroke:#181818;stroke-width:1;stroke-dasharray:7,7;"/><polygon fill="#181818" points="515.62,336.9769,505.8664,335.6102,510.8134,338.3539,508.0697,343.3009,515.62,336.9769" style="stroke:#181818;stroke-width:1;"/><text fill="#000000" font-family="sans-serif" font-size="13" lengthAdjust="spacing" textLength="63.0068" x="386" y="695.3638">&#171;include&#187;</text></g><!--link UC_DirectURL to UC_GetConv--><g class="link" data-entity-1="ent0025" data-entity-2="ent0015" data-link-type="dependency" data-source-line="77" id="lnk49"><path d="M291.91,751.7769 C321,737.7469 355.62,716.3969 377,687.2969 C462.58,570.7969 356.24,474.9669 458,372.2969 C474.34,355.8069 490.5934,347.199 512.9934,340.909" fill="none" id="UC_DirectURL-to-UC_GetConv" style="stroke:#181818;stroke-width:1;stroke-dasharray:7,7;"/><polygon fill="#181818" points="518.77,339.2869,509.0237,337.8689,513.9562,340.6386,511.1865,345.5711,518.77,339.2869" style="stroke:#181818;stroke-width:1;"/><text fill="#000000" font-family="sans-serif" font-size="13" lengthAdjust="spacing" textLength="63.0068" x="386" y="381.3638">&#171;include&#187;</text></g><!--link UC_ExecClaude to claude--><g class="link" data-entity-1="ent0019" data-entity-2="ent0003" data-link-type="dependency" data-source-line="80" id="lnk50"><path d="M1113.3,840.2169 C1130.76,846.8169 1149.59,854.9569 1166,864.2969 C1227.38,899.2269 1285.4889,946.6081 1327.3889,983.7281" fill="none" id="UC_ExecClaude-to-claude" style="stroke:#181818;stroke-width:1;"/><polygon fill="#181818" points="1331.88,987.7069,1327.7959,978.7447,1328.1374,984.3913,1322.4909,984.7328,1331.88,987.7069" style="stroke:#181818;stroke-width:1;"/></g><g class="legend" data-source-line="82"><rect fill="#DDDDDD" height="62.8906" rx="7.5" ry="7.5" style="stroke:#000000;stroke-width:1;" width="218.3179" x="1546.6821" y="1355.4869"/><text fill="#000000" font-family="sans-serif" font-size="14" font-weight="bold" lengthAdjust="spacing" textLength="208.3179" x="1551.6821" y="1373.482">&#20961;&#20363; (&#22522;&#28310;&#12467;&#12511;&#12483;&#12488;: 95a54d5)</text><rect fill="#FFD700" height="16.2969" style="stroke:none;stroke-width:1;" width="8.9004" x="1551.6821" y="1378.7837"/><text fill="#000000" font-family="sans-serif" font-size="14" lengthAdjust="spacing" textLength="8.9004" x="1551.6821" y="1391.7789">&#160;&#160;</text><text fill="#000000" font-family="sans-serif" font-size="14" lengthAdjust="spacing" textLength="97.9996" x="1565.0327" y="1391.7789">&#22793;&#26356;&#12373;&#12428;&#12383;&#35201;&#32032;</text><rect fill="#90EE90" height="16.2969" style="stroke:none;stroke-width:1;" width="8.9004" x="1551.6821" y="1395.0806"/><text fill="#000000" font-family="sans-serif" font-size="14" lengthAdjust="spacing" textLength="8.9004" x="1551.6821" y="1408.0757">&#160;&#160;</text><text fill="#000000" font-family="sans-serif" font-size="14" lengthAdjust="spacing" textLength="97.9996" x="1565.0327" y="1408.0757">&#26032;&#35215;&#36861;&#21152;&#12398;&#35201;&#32032;</text><line style="stroke:#000000;stroke-width:1;" x1="1551.6821" x2="1667.4825" y1="1378.7837" y2="1378.7837"/><line style="stroke:#000000;stroke-width:1;" x1="1551.6821" x2="1667.4825" y1="1395.0806" y2="1395.0806"/><line style="stroke:#000000;stroke-width:1;" x1="1551.6821" x2="1667.4825" y1="1411.3775" y2="1411.3775"/><line style="stroke:#000000;stroke-width:1;" x1="1551.6821" x2="1551.6821" y1="1378.7837" y2="1411.3775"/><line style="stroke:#000000;stroke-width:1;" x1="1560.5825" x2="1560.5825" y1="1378.7837" y2="1411.3775"/><line style="stroke:#000000;stroke-width:1;" x1="1667.4825" x2="1667.4825" y1="1378.7837" y2="1411.3775"/></g><?plantuml-src XLPjJzjM5FxkNt75FgoWGLWrD85Of3QaLIMseW6Q9aMQBESkiMgkaNtJTbeh4Lk5bB0LzIKJBrr8nqkXWj46iPPI-2-xSUpyYvrhnuwT18RuS7FkSvzpxdbvhgbC5OmagP_c2C4AOkOsCq-PyO4PRxs5jLOL10N_J15LaIPdiXIbPGrBL5Q98EXtP38hQk8CokbO4dKyEYfbHPB1wNWS_IeWT5sKxcGqDKVI2LLHDVJPZHjZNmyE2Wy5GPGe67gcTQpr857d39flJ2XYBerHOlnMYbo1y3GyerBSBsOmeRqkMd8HWi130OTmYvxW6ZtW6dn_ZlhX3pbxlpclJzqr64DuRwF7ZHFv5_3Dzk9n_L7HVdK2FrFaPd8AnSGSpSPqAjASxeOmdVZf6fWcNKkKWvdxp3XanYOpgurIqTeffiZ4xKcVH54pCk4tSoyXoYY699Nege9xVUPn3kbE-eePKAL2EwEQew73yElYa9Ynpyo_tCL7Phw9C4aYaNWAFQQ4-wjBC5wMh4TRrk9QOovVEwz4MA0jSXHkE37r8z9fMYQzuPJTuhjHFWxaVMSMcBd7My_SSAgdpjv-EFcpz1SeW8R56Q2Ud4n-WIY-JsFuBhH5lxSHyNCxHy4H2ZKbE7qOwetQwQgp-zO-gDZByrqw9BpTqIVUPktzdBEzurHUsvidpL2Xb7UnfejyH89E6PTrce2DA4UzTEXiFsaoVLgl5vRzB7ObIS0DAUwayGYStQfzT6WzALbdVtGB9JOYftsccvXUH6CzNcoiRAR8M78yEPMyX6CCApY89fnLPbQOQRgz1HBodfaVhOEoKrdgak6Be1tPRWD6MwuZnDWCrdLG2pr5_fr_YguENaNN90dFKXn4Fub9-biz4_NIqXtanG5zrdZvfxMyL5yleumAIaPbqfhIv7qiUMVQettfzl2UEsE7BB-J8esvTq38TQMQlxn8uFHBU-Tfe_IiiVeyy3MXAefCsWAs3fPg9_FrpNMxl0N7F7NwHb9dPdbjqi7XHDFI5gPnxWe2pDmRPs7FAhwmdvUX2VrJK_nvQ7DOMAYNzgsp9PO_Q1uvNh6FLxcQgOIFuy0FCir2dZpf228OatK042XzHxSiClCPCzwvbVs7cJkGjAwjqWNNqIVJtu_RQqVrtxTSdVoRDupn8KKYIOuqiVkOmQds0fQOkSk5rZYk5u2Z68FwCMFEFtTTK-_1W_MTs7s684jhvq6htPEfb6qD2loxTqVyxGEChagoLtrk5VX328jusmCJDdk2t6RXaXysXRMxdTDJu7QhfvT2bDWNhWXrIuZ2PbzLmhQGIaJi_ln5i44nmjPGgYC4hQosqedSAcXOyVAPbMUzdBOSee61U7HqqGYy43AH55Z32z49RRNk_qARGzg9QwQc6mvc1aZYyTRyQl0PmtVhAqQl448t3_l3tEabs6aYtG7k4dIGEX_eXzS13KfoER9PWP1-ThHrDEUyYFutd8BXkoxjVLt2XFJrMGkLsbaHNR7A9_MJ4ZEgp2npzJSB8sXuI1pwAZtKszS7q0UZpG_AEAoHjVculdR4yY-O0V9KThRpzj46Uk3XXWUJoM4FvxswpladQt63ovYFWo2yK8J_0000?></g></svg>