<?plantuml 1.2026.2?><svg xmlns="http://www.w3.org/2000/svg" xmlns:xlink="http://www.w3.org/1999/xlink" contentStyleType="text/css" data-diagram-type="DESCRIPTION" height="1317px" preserveAspectRatio="none" style="width:1759px;height:1317px;background:#FFFFFF;" version="1.1" viewBox="0 0 1759 1317" width="1759px" zoomAndPan="magnify"><title>cc-tunnel &#12518;&#12540;&#12473;&#12465;&#12540;&#12473;&#22259;</title><defs/><g><g class="title" data-source-line="1"><text fill="#000000" font-family="sans-serif" font-size="14" font-weight="bold" lengthAdjust="spacing" textLength="176.1685" x="784.4157" y="22.9951">cc-tunnel &#12518;&#12540;&#12473;&#12465;&#12540;&#12473;&#22259;</text></g><!--cluster cc-tunnel--><g class="cluster" data-qualified-name="cc-tunnel" data-source-line="8" id="ent0004"><rect fill="none" height="910" rx="2.5" ry="2.5" style="stroke:#181818;stroke-width:1;" width="1668" x="85" y="44.2969"/><text fill="#000000" font-family="sans-serif" font-size="14" font-weight="bold" lengthAdjust="spacing" textLength="73.2949" x="882.3525" y="59.292">cc-tunnel</text></g><!--cluster ??--><g class="cluster" data-qualified-name="cc-tunnel..." data-source-line="11" id="ent0005"><rect fill="none" height="582" rx="2.5" ry="2.5" style="stroke:#181818;stroke-width:1;" width="228" x="109" y="87.2969"/><text fill="#000000" font-family="sans-serif" font-size="14" font-weight="bold" lengthAdjust="spacing" textLength="27.9999" x="209.0001" y="102.292">&#35469;&#35388;</text></g><!--cluster ????--><g class="cluster" data-qualified-name="cc-tunnel....." data-source-line="21" id="ent0012"><rect fill="none" height="352" rx="2.5" ry="2.5" style="stroke:#181818;stroke-width:1;" width="255" x="457" y="253.2969"/><text fill="#000000" font-family="sans-serif" font-size="14" font-weight="bold" lengthAdjust="spacing" textLength="55.9998" x="556.5001" y="268.292">&#20250;&#35441;&#31649;&#29702;</text></g><!--cluster ????????--><g class="cluster" data-qualified-name="cc-tunnel........." data-source-line="29" id="ent0017"><rect fill="none" height="301" rx="2.5" ry="2.5" style="stroke:#181818;stroke-width:1;" width="1295" x="434" y="629.2969"/><text fill="#000000" font-family="sans-serif" font-size="14" font-weight="bold" lengthAdjust="spacing" textLength="111.9995" x="1025.5002" y="644.292">&#12513;&#12483;&#12475;&#12540;&#12472;&#12539;&#23455;&#34892;</text></g><!--cluster ???????--><g class="cluster" data-qualified-name="cc-tunnel........" data-source-line="39" id="ent0024"><rect fill="none" height="237" rx="2.5" ry="2.5" style="stroke:#181818;stroke-width:1;" width="202" x="122" y="693.2969"/><text fill="#000000" font-family="sans-serif" font-size="14" font-weight="bold" lengthAdjust="spacing" textLength="97.9996" x="174.0002" y="708.292">&#12490;&#12499;&#12466;&#12540;&#12471;&#12519;&#12531;</text></g><!--entity UC_AuthStatus--><g class="entity" data-qualified-name="cc-tunnel....UC_AuthStatus" data-source-line="12" id="ent0006"><ellipse cx="222.8603" cy="147.494" fill="#F1F1F1" rx="80.8603" ry="24.6971" style="stroke:#181818;stroke-width:0.5;"/><text fill="#000000" font-family="sans-serif" font-size="14" lengthAdjust="spacing" textLength="83.9996" x="180.8605" y="142.0212">&#35469;&#35388;&#29366;&#24907;&#30906;&#35469;</text><text fill="#000000" font-family="sans-serif" font-size="14" lengthAdjust="spacing" textLength="116.9629" x="164.3789" y="158.318">GET /auth/status</text></g><!--entity UC_Login--><g class="entity" data-qualified-name="cc-tunnel....UC_Login" data-source-line="13" id="ent0007"><ellipse cx="223.1637" cy="242.2838" fill="#F1F1F1" rx="92.6637" ry="34.987" style="stroke:#181818;stroke-width:0.5;"/><text fill="#000000" font-family="sans-serif" font-size="14" lengthAdjust="spacing" textLength="83.9996" x="181.1638" y="226.82">&#12525;&#12464;&#12452;&#12531;&#38283;&#22987;</text><text fill="#000000" font-family="sans-serif" font-size="14" lengthAdjust="spacing" textLength="116.7031" x="164.8121" y="243.1168">POST /auth/login</text><text fill="#000000" font-family="sans-serif" font-size="14" lengthAdjust="spacing" textLength="137.0469" x="154.6402" y="259.4137">(claudeai / console)</text></g><!--entity UC_Logout--><g class="entity" data-qualified-name="cc-tunnel....UC_Logout" data-source-line="14" id="ent0008"><ellipse cx="222.78" cy="336.4355" fill="#F1F1F1" rx="85.28" ry="24.1386" style="stroke:#181818;stroke-width:0.5;"/><text fill="#000000" font-family="sans-serif" font-size="14" lengthAdjust="spacing" textLength="69.9997" x="187.7801" y="330.1016">&#12525;&#12464;&#12450;&#12454;&#12488;</text><text fill="#000000" font-family="sans-serif" font-size="14" lengthAdjust="spacing" textLength="126.8682" x="159.3459" y="346.3984">POST /auth/logout</text></g><!--entity UC_CancelLogin--><g class="entity" data-qualified-name="cc-tunnel....UC_CancelLogin" data-source-line="15" id="ent0009"><ellipse cx="223.1318" cy="421.2572" fill="#F1F1F1" rx="93.1318" ry="25.9603" style="stroke:#181818;stroke-width:0.5;"/><text fill="#000000" font-family="sans-serif" font-size="14" lengthAdjust="spacing" textLength="125.9995" x="160.1321" y="417.634">&#12525;&#12464;&#12452;&#12531;&#12461;&#12515;&#12531;&#12475;&#12523;</text><text fill="#000000" font-family="sans-serif" font-size="14" lengthAdjust="spacing" textLength="127.9482" x="159.1577" y="433.9309">POST /auth/cancel</text></g><!--entity UC_AuthInput--><g class="entity" data-qualified-name="cc-tunnel....UC_AuthInput" data-source-line="16" id="ent0010"><ellipse cx="222.9909" cy="515.2651" fill="#F1F1F1" rx="74.4909" ry="32.4682" style="stroke:#181818;stroke-width:0.5;"/><text fill="#000000" font-family="sans-serif" font-size="14" lengthAdjust="spacing" textLength="83.9996" x="180.9911" y="504.2152">&#35469;&#35388;&#20837;&#21147;&#36865;&#20449;</text><text fill="#000000" font-family="sans-serif" font-size="14" lengthAdjust="spacing" textLength="118.6104" x="163.6858" y="520.5121">POST /auth/input</text><text fill="#000000" font-family="sans-serif" font-size="14" lengthAdjust="spacing" textLength="75.3525" x="185.3147" y="536.809">(PTY stdin)</text></g><!--entity UC_AuthOutput--><g class="entity" data-qualified-name="cc-tunnel....UC_AuthOutput" data-source-line="17" id="ent0011"><ellipse cx="222.7619" cy="618.1155" fill="#F1F1F1" rx="97.7619" ry="34.8186" style="stroke:#181818;stroke-width:0.5;"/><text fill="#000000" font-family="sans-serif" font-size="14" lengthAdjust="spacing" textLength="83.9996" x="180.762" y="602.3897">&#35469;&#35388;&#20986;&#21147;&#21462;&#24471;</text><text fill="#000000" font-family="sans-serif" font-size="14" lengthAdjust="spacing" textLength="120.1211" x="162.7013" y="618.6865">GET /auth/output</text><text fill="#000000" font-family="sans-serif" font-size="14" lengthAdjust="spacing" textLength="145.6055" x="149.9591" y="634.9834">(PTY stdout, base64)</text></g><!--entity UC_ListConv--><g class="entity" data-qualified-name="cc-tunnel......UC_ListConv" data-source-line="22" id="ent0013"><ellipse cx="584.5607" cy="396.1489" fill="#F1F1F1" rx="91.5607" ry="24.352" style="stroke:#181818;stroke-width:0.5;"/><text fill="#000000" font-family="sans-serif" font-size="14" lengthAdjust="spacing" textLength="83.9996" x="542.5608" y="390.1476">&#20250;&#35441;&#19968;&#35239;&#34920;&#31034;</text><text fill="#000000" font-family="sans-serif" font-size="14" lengthAdjust="spacing" textLength="135.1875" x="516.9669" y="406.4445">GET /conversations</text></g><!--entity UC_CreateConv--><g class="entity" data-qualified-name="cc-tunnel......UC_CreateConv" data-source-line="23" id="ent0014"><ellipse cx="584.7086" cy="480.5307" fill="#F1F1F1" rx="96.7086" ry="24.2338" style="stroke:#181818;stroke-width:0.5;"/><text fill="#000000" font-family="sans-serif" font-size="14" lengthAdjust="spacing" textLength="83.9996" x="542.7088" y="474.3459">&#26032;&#35215;&#20250;&#35441;&#20316;&#25104;</text><text fill="#000000" font-family="sans-serif" font-size="14" lengthAdjust="spacing" textLength="143.8418" x="512.7877" y="490.6428">POST /conversations</text></g><!--entity UC_GetConv--><g class="entity" data-qualified-name="cc-tunnel......UC_GetConv" data-source-line="24" id="ent0015"><ellipse cx="584.3343" cy="312.3846" fill="#F1F1F1" rx="104.8343" ry="24.0878" style="stroke:#181818;stroke-width:0.5;"/><text fill="#000000" font-family="sans-serif" font-size="14" lengthAdjust="spacing" textLength="83.9996" x="542.3345" y="305.9708">&#20250;&#35441;&#35443;&#32048;&#21462;&#24471;</text><text fill="#000000" font-family="sans-serif" font-size="14" lengthAdjust="spacing" textLength="157.3975" x="505.6356" y="322.2677">GET /conversations/:id</text></g><!--entity UC_DeleteConv--><g class="entity" data-qualified-name="cc-tunnel......UC_DeleteConv" data-source-line="25" id="ent0016"><ellipse cx="584.3941" cy="564.4757" fill="#F1F1F1" rx="111.3941" ry="24.6788" style="stroke:#181818;stroke-width:0.5;"/><text fill="#000000" font-family="sans-serif" font-size="14" lengthAdjust="spacing" textLength="55.9998" x="556.3942" y="556.3295">&#20250;&#35441;&#21066;&#38500;</text><text fill="#000000" font-family="sans-serif" font-size="14" lengthAdjust="spacing" textLength="182.8203" x="492.984" y="572.6264">DELETE /conversations/:id</text></g><!--entity UC_SendMsg--><g class="entity" data-qualified-name="cc-tunnel..........UC_SendMsg" data-source-line="30" id="ent0018"><ellipse cx="584.5746" cy="841.491" fill="#F1F1F1" rx="134.5746" ry="29.6941" style="stroke:#181818;stroke-width:0.5;"/><text fill="#000000" font-family="sans-serif" font-size="14" lengthAdjust="spacing" textLength="97.9996" x="535.5748" y="829.5139">&#12513;&#12483;&#12475;&#12540;&#12472;&#36865;&#20449;</text><text fill="#000000" font-family="sans-serif" font-size="14" lengthAdjust="spacing" textLength="240.9805" x="464.0843" y="845.8108">POST /conversations/:id/messages</text><text fill="#000000" font-family="sans-serif" font-size="14" lengthAdjust="spacing" textLength="112.8135" x="528.1678" y="862.1077">&#8594; 202 Accepted</text></g><!--entity UC_ExecClaude--><g class="entity" data-qualified-name="cc-tunnel..........UC_ExecClaude" data-source-line="31" id="ent0019"><ellipse cx="1021.455" cy="803.0997" fill="#F1F1F1" rx="88.455" ry="25.3028" style="stroke:#181818;stroke-width:0.5;"/><text fill="#000000" font-family="sans-serif" font-size="14" lengthAdjust="spacing" textLength="107.2216" x="967.8442" y="798.5287">Claude CLI &#23455;&#34892;</text><text fill="#000000" font-family="sans-serif" font-size="14" lengthAdjust="spacing" textLength="124.8856" x="959.0122" y="814.8255">(&#38750;&#21516;&#26399; goroutine)</text></g><!--entity UC_Polling--><g class="entity" data-qualified-name="cc-tunnel..........UC_Polling" data-source-line="32" id="ent0020"><ellipse cx="1021.4" cy="703.4085" fill="#F1F1F1" rx="91.4" ry="39.6116" style="stroke:#181818;stroke-width:0.5;"/><text fill="#000000" font-family="sans-serif" font-size="14" lengthAdjust="spacing" textLength="83.9996" x="979.4002" y="683.9899">&#12509;&#12540;&#12522;&#12531;&#12464;&#12391;</text><text fill="#000000" font-family="sans-serif" font-size="14" lengthAdjust="spacing" textLength="83.9996" x="979.4002" y="700.2867">&#36914;&#34892;&#29366;&#27841;&#21462;&#24471;</text><text fill="#000000" font-family="sans-serif" font-size="14" lengthAdjust="spacing" textLength="157.3975" x="942.7013" y="716.5836">GET /conversations/:id</text><text fill="#000000" font-family="sans-serif" font-size="14" lengthAdjust="spacing" textLength="61.8309" x="990.4846" y="732.8805">(1&#31186;&#38291;&#38548;)</text></g><!--entity UC_Complete--><g class="entity" data-qualified-name="cc-tunnel..........UC_Complete" data-source-line="33" id="ent0021"><ellipse cx="1351.1788" cy="703.0659" fill="#F1F1F1" rx="92.1788" ry="23.769" style="stroke:#181818;stroke-width:0.5;"/><text fill="#000000" font-family="sans-serif" font-size="14" lengthAdjust="spacing" textLength="55.9998" x="1323.1789" y="696.144">&#23436;&#20102;&#26908;&#30693;</text><text fill="#000000" font-family="sans-serif" font-size="14" lengthAdjust="spacing" textLength="139.9521" x="1281.2027" y="712.4409">(status=completed)</text></g><!--entity UC_Title--><g class="entity" data-qualified-name="cc-tunnel..........UC_Title" data-source-line="34" id="ent0022"><ellipse cx="1640.2524" cy="703.1474" fill="#F1F1F1" rx="72.2524" ry="16.8505" style="stroke:#181818;stroke-width:0.5;"/><text fill="#000000" font-family="sans-serif" font-size="14" lengthAdjust="spacing" textLength="111.9995" x="1584.2527" y="707.7958">&#12479;&#12452;&#12488;&#12523;&#33258;&#21205;&#29983;&#25104;</text></g><!--entity UC_Disconnect--><g class="entity" data-qualified-name="cc-tunnel..........UC_Disconnect" data-source-line="35" id="ent0023"><ellipse cx="1021.6302" cy="889.2229" fill="#F1F1F1" rx="112.6302" ry="24.926" style="stroke:#181818;stroke-width:0.5;"/><text fill="#000000" font-family="sans-serif" font-size="14" lengthAdjust="spacing" textLength="111.9995" x="965.6304" y="883.1701">&#20999;&#26029;&#24460;&#12398;&#33258;&#21205;&#32153;&#32154;</text><text fill="#000000" font-family="sans-serif" font-size="14" lengthAdjust="spacing" textLength="170.8369" x="936.2117" y="899.4669">(context.WithoutCancel)</text></g><!--entity UC_DirectURL--><g class="entity" data-qualified-name="cc-tunnel.........UC_DirectURL" data-source-line="40" id="ent0025"><ellipse cx="223.0533" cy="754.0759" fill="#F1F1F1" rx="85.0533" ry="25.779" style="stroke:#181818;stroke-width:0.5;"/><text fill="#000000" font-family="sans-serif" font-size="14" lengthAdjust="spacing" textLength="111.774" x="167.1663" y="750.1943">URL&#30452;&#25509;&#12450;&#12463;&#12475;&#12473;</text><text fill="#000000" font-family="sans-serif" font-size="14" lengthAdjust="spacing" textLength="117.4072" x="164.3497" y="766.4912">/conversation/:id</text></g><!--entity UC_BrowserNav--><g class="entity" data-qualified-name="cc-tunnel.........UC_BrowserNav" data-source-line="41" id="ent0026"><ellipse cx="223.173" cy="832.5315" fill="#F1F1F1" rx="74.173" ry="17.2346" style="stroke:#181818;stroke-width:0.5;"/><text fill="#000000" font-family="sans-serif" font-size="14" lengthAdjust="spacing" textLength="116.7163" x="164.8149" y="837.1799">&#12502;&#12521;&#12454;&#12470;&#25147;&#12427;/&#36914;&#12416;</text></g><!--entity UC_SwitchConv--><g class="entity" data-qualified-name="cc-tunnel.........UC_SwitchConv" data-source-line="42" id="ent0027"><ellipse cx="223.0978" cy="899.3205" fill="#F1F1F1" rx="42.5978" ry="14.5236" style="stroke:#181818;stroke-width:0.5;"/><text fill="#000000" font-family="sans-serif" font-size="14" lengthAdjust="spacing" textLength="55.9998" x="195.0979" y="903.9689">&#20250;&#35441;&#20999;&#26367;</text></g><!--entity user--><g class="entity" data-qualified-name="user" data-source-line="5" id="ent0002"><ellipse cx="21.9551" cy="773.7969" fill="#F1F1F1" rx="8" ry="8" style="stroke:#181818;stroke-width:0.5;"/><path d="M21.9551,781.7969 L21.9551,808.7969 M8.9551,789.7969 L34.9551,789.7969 M21.9551,808.7969 L8.9551,823.7969 M21.9551,808.7969 L34.9551,823.7969" fill="none" style="stroke:#181818;stroke-width:0.5;"/><text fill="#000000" font-family="sans-serif" font-size="14" lengthAdjust="spacing" textLength="31.9102" x="6" y="838.292">User</text></g><!--entity claude--><g class="entity" data-qualified-name="claude" data-source-line="6" id="ent0003"><ellipse cx="1350.769" cy="978.2969" fill="#F1F1F1" rx="8" ry="8" style="stroke:#181818;stroke-width:0.5;"/><path d="M1350.769,986.2969 L1350.769,1013.2969 M1337.769,994.2969 L1363.769,994.2969 M1350.769,1013.2969 L1337.769,1028.2969 M1350.769,1013.2969 L1363.769,1028.2969" fill="none" style="stroke:#181818;stroke-width:0.5;"/><text fill="#000000" font-family="sans-serif" font-size="14" lengthAdjust="spacing" textLength="74.7715" x="1287" y="1042.792">Claude CLI</text><text fill="#000000" font-family="sans-serif" font-size="14" lengthAdjust="spacing" textLength="127.5381" x="1287" y="1059.0889">(cc-remote-agent)</text></g><!--link user to UC_AuthStatus--><g class="link" data-entity-1="ent0002" data-entity-2="ent0006" data-link-type="dependency" data-source-line="48" id="lnk28"><path d="M23.88,764.9469 C27.15,637.5169 40.34,233.6969 77,189.2969 C93.52,169.2869 113.1025,159.8211 138.0725,154.0811" fill="none" id="user-to-UC_AuthStatus" style="stroke:#181818;stroke-width:1;"/><polygon fill="#181818" points="143.92,152.7369,134.2526,150.8548,139.0471,153.857,136.0449,158.6515,143.92,152.7369" style="stroke:#181818;stroke-width:1;"/></g><!--link user to UC_Login--><g class="link" data-entity-1="ent0002" data-entity-2="ent0007" data-link-type="dependency" data-source-line="49" id="lnk29"><path d="M24.7,765.0269 C29.99,652.9169 47.63,330.8269 77,294.2969 C92.17,275.4269 109.0414,265.3147 131.8814,257.6547" fill="none" id="user-to-UC_Login" style="stroke:#181818;stroke-width:1;"/><polygon fill="#181818" points="137.57,255.7469,127.7652,254.8162,132.8295,257.3367,130.309,262.401,137.57,255.7469" style="stroke:#181818;stroke-width:1;"/></g><!--link user to UC_Logout--><g class="link" data-entity-1="ent0002" data-entity-2="ent0008" data-link-type="dependency" data-source-line="50" id="lnk30"><path d="M22.64,765.1869 C22.55,671.7969 27.33,434.9969 77,377.2969 C92.96,358.7569 110.7747,349.7241 134.3647,343.9041" fill="none" id="user-to-UC_Logout" style="stroke:#181818;stroke-width:1;"/><polygon fill="#181818" points="140.19,342.4669,130.4939,340.7391,135.3356,343.6645,132.4101,348.5062,140.19,342.4669" style="stroke:#181818;stroke-width:1;"/></g><!--link user to UC_CancelLogin--><g class="link" data-entity-1="ent0002" data-entity-2="ent0009" data-link-type="dependency" data-source-line="51" id="lnk31"><path d="M24.14,765.0369 C27.26,686.2269 38.47,509.4569 77,465.2969 C92.22,447.8469 108.3503,438.8778 130.5203,432.4078" fill="none" id="user-to-UC_CancelLogin" style="stroke:#181818;stroke-width:1;"/><polygon fill="#181818" points="136.28,430.7269,126.5198,429.4084,131.4802,432.1276,128.761,437.088,136.28,430.7269" style="stroke:#181818;stroke-width:1;"/></g><!--link user to UC_AuthInput--><g class="link" data-entity-1="ent0002" data-entity-2="ent0010" data-link-type="dependency" data-source-line="52" id="lnk32"><path d="M27.12,765.2569 C34.29,705.7669 50.84,594.4769 77,565.2969 C96.11,543.9769 118.9356,533.2663 145.7156,526.2563" fill="none" id="user-to-UC_AuthInput" style="stroke:#181818;stroke-width:1;"/><polygon fill="#181818" points="151.52,524.7369,141.8004,523.1463,146.683,526.003,143.8263,530.8856,151.52,524.7369" style="stroke:#181818;stroke-width:1;"/></g><!--link user to UC_AuthOutput--><g class="link" data-entity-1="ent0002" data-entity-2="ent0011" data-link-type="dependency" data-source-line="53" id="lnk33"><path d="M38,770.0769 C47.42,751.6469 60.83,729.1169 77,712.2969 C102.47,685.7969 131.5462,666.1061 160.3962,649.6761" fill="none" id="user-to-UC_AuthOutput" style="stroke:#181818;stroke-width:1;"/><polygon fill="#181818" points="165.61,646.7069,155.8098,647.6849,161.2652,649.1812,159.7688,654.6366,165.61,646.7069" style="stroke:#181818;stroke-width:1;"/></g><!--link user to UC_ListConv--><g class="link" data-entity-1="ent0002" data-entity-2="ent0013" data-link-type="dependency" data-source-line="55" id="lnk34"><path d="M26.54,841.5169 C32.04,891.4569 44.54,974.7369 68,993.2969 C190.01,1089.7869 307.22,1102.4969 418,993.2969 C439.96,971.6469 407.04,462.6069 426,438.2969 C442.36,417.3169 462.0869,407.4062 487.9069,401.5862" fill="none" id="user-to-UC_ListConv" style="stroke:#181818;stroke-width:1;"/><polygon fill="#181818" points="493.76,400.2669,484.1007,398.3438,488.8824,401.3663,485.8598,406.148,493.76,400.2669" style="stroke:#181818;stroke-width:1;"/></g><!--link user to UC_CreateConv--><g class="link" data-entity-1="ent0002" data-entity-2="ent0014" data-link-type="dependency" data-source-line="56" id="lnk35"><path d="M23.79,841.2969 C26.03,906.6969 34.68,1036.2269 68,1064.2969 C186.97,1164.5069 307.2,1173.4769 418,1064.2969 C439.45,1043.1569 407.48,546.0369 426,522.2969 C441.49,502.4369 459.4275,492.7554 483.8275,486.6854" fill="none" id="user-to-UC_CreateConv" style="stroke:#181818;stroke-width:1;"/><polygon fill="#181818" points="489.65,485.2369,479.9505,483.5279,484.7979,486.4439,481.8818,491.2913,489.65,485.2369" style="stroke:#181818;stroke-width:1;"/></g><!--link user to UC_GetConv--><g class="link" data-entity-1="ent0002" data-entity-2="ent0015" data-link-type="dependency" data-source-line="57" id="lnk36"><path d="M27.93,841.5869 C34,871.3369 47.43,910.7269 77,930.2969 C176.35,996.0069 233.84,973.0969 345,930.2969 C385.82,914.5769 399.94,904.1269 418,864.2969 C429.7,838.4869 408.56,376.6269 426,354.2969 C440.19,336.1169 455.542,326.9093 477.742,320.5493" fill="none" id="user-to-UC_GetConv" style="stroke:#181818;stroke-width:1;"/><polygon fill="#181818" points="483.51,318.8969,473.7564,317.5302,478.7034,320.2739,475.9597,325.2209,483.51,318.8969" style="stroke:#181818;stroke-width:1;"/></g><!--link user to UC_DeleteConv--><g class="link" data-entity-1="ent0002" data-entity-2="ent0016" data-link-type="dependency" data-source-line="58" id="lnk37"><path d="M22.2,841.4569 C21.45,920.4169 24.74,1097.5069 68,1135.2969 C185.15,1237.6369 307.11,1244.3769 418,1135.2969 C437.29,1116.3169 411.89,671.3869 426,648.2969 C445.39,616.5669 475.6236,598.3159 508.2136,585.5459" fill="none" id="user-to-UC_DeleteConv" style="stroke:#181818;stroke-width:1;"/><polygon fill="#181818" points="513.8,583.3569,503.961,582.9161,509.1446,585.181,506.8797,590.3646,513.8,583.3569" style="stroke:#181818;stroke-width:1;"/></g><!--link user to UC_SendMsg--><g class="link" data-entity-1="ent0002" data-entity-2="ent0018" data-link-type="dependency" data-source-line="60" id="lnk38"><path d="M24.42,841.3369 C28.37,937.0969 41.04,1182.1769 68,1206.2969 C183.94,1310.0069 287.25,1290.5669 418,1206.2969 C537.3,1129.3969 570.8202,949.2311 579.8202,876.7911" fill="none" id="user-to-UC_SendMsg" style="stroke:#181818;stroke-width:1;"/><polygon fill="#181818" points="580.56,870.8369,575.4809,879.275,579.9435,875.7987,583.4198,880.2614,580.56,870.8369" style="stroke:#181818;stroke-width:1;"/></g><!--link user to UC_DirectURL--><g class="link" data-entity-1="ent0002" data-entity-2="ent0025" data-link-type="dependency" data-source-line="61" id="lnk39"><path d="M38.21,796.8669 C46.84,793.3969 57.9,789.2369 68,786.2969 C93.96,778.7469 116.9861,773.4214 142.6861,768.2914" fill="none" id="user-to-UC_DirectURL" style="stroke:#181818;stroke-width:1;"/><polygon fill="#181818" points="148.57,767.1169,138.9611,764.956,143.6667,768.0956,140.5271,772.8012,148.57,767.1169" style="stroke:#181818;stroke-width:1;"/></g><!--link user to UC_BrowserNav--><g class="link" data-entity-1="ent0002" data-entity-2="ent0026" data-link-type="dependency" data-source-line="62" id="lnk40"><path d="M38.28,805.5169 C64.04,809.2769 111.5127,816.192 154.1427,822.402" fill="none" id="user-to-UC_BrowserNav" style="stroke:#181818;stroke-width:1;"/><polygon fill="#181818" points="160.08,823.2669,151.7506,818.0113,155.1322,822.5461,150.5974,825.9277,160.08,823.2669" style="stroke:#181818;stroke-width:1;"/></g><!--link user to UC_SwitchConv--><g class="link" data-entity-1="ent0002" data-entity-2="ent0027" data-link-type="dependency" data-source-line="63" id="lnk41"><path d="M38.16,827.6469 C47.71,841.0169 61.21,856.7669 77,866.2969 C108.72,885.4369 144.4764,892.8269 175.0164,896.2069" fill="none" id="user-to-UC_SwitchConv" style="stroke:#181818;stroke-width:1;"/><polygon fill="#181818" points="180.98,896.8669,172.4746,891.9011,176.0103,896.3169,171.5946,899.8526,180.98,896.8669" style="stroke:#181818;stroke-width:1;"/></g><!--link UC_SendMsg to UC_ExecClaude--><g class="link" data-entity-1="ent0018" data-entity-2="ent0019" data-link-type="dependency" data-source-line="66" id="lnk42"><path d="M709.86,830.4269 C782.55,824.0769 866.3728,816.7591 930.7028,811.1391" fill="none" id="UC_SendMsg-to-UC_ExecClaude" style="stroke:#181818;stroke-width:1;stroke-dasharray:7,7;"/><polygon fill="#181818" points="936.68,810.6169,927.366,807.4153,931.699,811.052,928.0623,815.385,936.68,810.6169" style="stroke:#181818;stroke-width:1;"/><text fill="#000000" font-family="sans-serif" font-size="13" lengthAdjust="spacing" textLength="63.0068" x="782.5" y="813.3638">&#171;include&#187;</text></g><!--link UC_SendMsg to UC_Disconnect--><g class="link" data-entity-1="ent0018" data-entity-2="ent0023" data-link-type="dependency" data-source-line="67" id="lnk43"><path d="M704.94,854.4769 C772.6,861.9369 850.3062,870.519 914.4862,877.599" fill="none" id="UC_SendMsg-to-UC_Disconnect" style="stroke:#181818;stroke-width:1;stroke-dasharray:7,7;"/><polygon fill="#181818" points="920.45,878.2569,911.9429,873.2941,915.4801,877.7086,911.0657,881.2459,920.45,878.2569" style="stroke:#181818;stroke-width:1;"/><text fill="#000000" font-family="sans-serif" font-size="13" lengthAdjust="spacing" textLength="63.0068" x="782.5" y="856.3638">&#171;include&#187;</text></g><!--link UC_SendMsg to UC_Polling--><g class="link" data-entity-1="ent0018" data-entity-2="ent0020" data-link-type="dependency" data-source-line="68" id="lnk44"><path d="M664.44,817.3969 C691.25,809.3369 721.41,800.3569 749,792.2969 C806.66,775.4469 821.88,773.8869 879,755.2969 C903.14,747.4369 923.6752,740.1553 946.8652,731.5453" fill="none" id="UC_SendMsg-to-UC_Polling" style="stroke:#181818;stroke-width:1;stroke-dasharray:7,7;"/><polygon fill="#181818" points="952.49,729.4569,942.6605,728.8396,947.8026,731.1972,945.445,736.3393,952.49,729.4569" style="stroke:#181818;stroke-width:1;"/><text fill="#000000" font-family="sans-serif" font-size="13" lengthAdjust="spacing" textLength="63.0068" x="782.5" y="751.3638">&#171;include&#187;</text></g><!--link UC_GetConv to UC_Polling--><g class="link" data-entity-1="ent0015" data-entity-2="ent0020" data-link-type="dependency" data-source-line="69" id="lnk45"><path d="M662.8,328.4169 C682.44,334.6069 702.83,343.0069 720,354.2969 C848.47,438.6969 950.2944,588.0537 994.6244,659.7437" fill="none" id="UC_GetConv-to-UC_Polling" style="stroke:#181818;stroke-width:1;stroke-dasharray:7,7;"/><polygon fill="#181818" points="997.78,664.8469,996.4487,655.0884,995.1504,660.5942,989.6445,659.2958,997.78,664.8469" style="stroke:#181818;stroke-width:1;"/><text fill="#000000" font-family="sans-serif" font-size="13" lengthAdjust="spacing" textLength="61.1851" x="783.5474" y="357.3638">&#171;extend&#187;</text><text fill="#000000" font-family="sans-serif" font-size="13" lengthAdjust="spacing" textLength="128.2798" x="750" y="372.4966">(status=running &#26178;)</text></g><!--link UC_Polling to UC_Complete--><g class="link" data-entity-1="ent0020" data-entity-2="ent0021" data-link-type="dependency" data-source-line="70" id="lnk46"><path d="M1113.29,703.2969 C1158.63,703.2969 1207.35,703.2969 1252.75,703.2969" fill="none" id="UC_Polling-to-UC_Complete" style="stroke:#181818;stroke-width:1;stroke-dasharray:7,7;"/><polygon fill="#181818" points="1258.75,703.2969,1249.75,699.2969,1253.75,703.2969,1249.75,707.2969,1258.75,703.2969" style="stroke:#181818;stroke-width:1;"/><text fill="#000000" font-family="sans-serif" font-size="13" lengthAdjust="spacing" textLength="63.0068" x="1165" y="699.3638">&#171;include&#187;</text></g><!--link UC_Complete to UC_Title--><g class="link" data-entity-1="ent0021" data-entity-2="ent0022" data-link-type="dependency" data-source-line="71" id="lnk47"><path d="M1443.36,703.2969 C1483.65,703.2969 1524.29,703.2969 1561.98,703.2969" fill="none" id="UC_Complete-to-UC_Title" style="stroke:#181818;stroke-width:1;stroke-dasharray:7,7;"/><polygon fill="#181818" points="1567.98,703.2969,1558.98,699.2969,1562.98,703.2969,1558.98,707.2969,1567.98,703.2969" style="stroke:#181818;stroke-width:1;"/><text fill="#000000" font-family="sans-serif" font-size="13" lengthAdjust="spacing" textLength="63.0068" x="1474" y="699.3638">&#171;include&#187;</text></g><!--link UC_SwitchConv to UC_GetConv--><g class="link" data-entity-1="ent0027" data-entity-2="ent0015" data-link-type="dependency" data-source-line="72" id="lnk48"><path d="M265.17,897.2669 C290.91,893.9769 323.21,885.8569 345,866.2969 C411.09,806.9669 400.42,767.3469 418,680.2969 C421.59,662.5369 414.79,368.5269 426,354.2969 C440.27,336.1769 455.6513,326.9869 477.8513,320.6369" fill="none" id="UC_SwitchConv-to-UC_GetConv" style="stroke:#181818;stroke-width:1;stroke-dasharray:7,7;"/><polygon fill="#181818" points="483.62,318.9869,473.867,317.6162,478.8128,320.3619,476.067,325.3077,483.62,318.9869" style="stroke:#181818;stroke-width:1;"/><text fill="#000000" font-family="sans-serif" font-size="13" lengthAdjust="spacing" textLength="63.0068" x="354" y="676.3638">&#171;include&#187;</text></g><!--link UC_DirectURL to UC_GetConv--><g class="link" data-entity-1="ent0025" data-entity-2="ent0015" data-link-type="dependency" data-source-line="73" id="lnk49"><path d="M269.88,732.4069 C295.59,717.9069 326.16,696.5369 345,669.2969 C427.22,550.3969 324.24,456.9669 426,354.2969 C442.34,337.8169 458.5934,329.199 480.9934,322.909" fill="none" id="UC_DirectURL-to-UC_GetConv" style="stroke:#181818;stroke-width:1;stroke-dasharray:7,7;"/><polygon fill="#181818" points="486.77,321.2869,477.0237,319.8689,481.9562,322.6386,479.1865,327.5711,486.77,321.2869" style="stroke:#181818;stroke-width:1;"/><text fill="#000000" font-family="sans-serif" font-size="13" lengthAdjust="spacing" textLength="63.0068" x="354" y="363.3638">&#171;include&#187;</text></g><!--link UC_ExecClaude to claude--><g class="link" data-entity-1="ent0019" data-entity-2="ent0003" data-link-type="dependency" data-source-line="76" id="lnk50"><path d="M1081.3,822.2169 C1098.76,828.8269 1117.59,836.9569 1134,846.2969 C1195.38,881.2269 1253.4889,928.6081 1295.3889,965.7281" fill="none" id="UC_ExecClaude-to-claude" style="stroke:#181818;stroke-width:1;"/><polygon fill="#181818" points="1299.88,969.7069,1295.7959,960.7447,1296.1374,966.3913,1290.4909,966.7328,1299.88,969.7069" style="stroke:#181818;stroke-width:1;"/></g><?plantuml-src XLPjJzjM5FxkNt75bmrfaAsQzg7g8dKXgYfbAngWQbAaoNFk4alc6jatQwLf4jWgP8IkgEqoyTAXT40A4uoMYhMKbV-oYsFdN-nSlyNNDYpAX-jpd_FSu-UyN5ELQXWfoXXj4e8rnEnTPfynwospNWOBP-DOaZJyFKLKHuPQRr1KKmsiK5KdaYGhL3VGo8o9ZH4acwW9YyXOqkHc3QDIvNQLV0X767XMftXChcD2HtsquYCaYTF9f0wHZCIXZA0V9GcX3z0O_92t_z1xSUQlmPZ01niSZE07noko6PlTvPF-WxRx_1GUg-HMUHeLv2Pj54mgqwRfXp1J-lOccAPyYyZ1x0Dc7J5hczd7WqxRwRMhPFBEL4IYwNMLy3VpNq9MKG4fEZ5r3Oz6p1KEoITzpYnGkfLcr9iquGnFbuV4h0Dc_-4ltZ7xJu59aOd29GoOIlvJJZ21Iiw37MTvOp2_S77U5LXKCjUay8QJqzyWazPKCfgKx3RVpULREWK-vr77UVzRKdLu6u4FdZz2tu7ZPvyAn7Ty733_b2Y0YxDrR--bUzXrLnTpoY2vdIc6OFFYpRots_EwBzpjqp0ioDSFs31bNijnELHKavPWG-JeTuwytKSXqp-R_TPg95KkISd0CiLPce30spjsNny92WaiXUjgBMAwXUbbDCxFouErxIgPA5VAq-KhE2QmXkDeageokyjisoyWwFKtp7xd76vvtPKSXI-3PjHE0SMwoeHOcCMc2IF1h99_5n-ZQnzVGpSL1SzH74S_XKdjIxCkdZ8SBYY80-fgyEntPtMblxc5whe1rQMIOIkMxsCby4b7-up7QU_xZNJ45dfLCfX_1OHyU1mlN9qaEFGJj_Tuq7aoM7yQdpMfQvfAKW4xXoiNfulzxKrtQmVSWX7qkQBFpl7Sr6BdKcX9XMcT-rtVWaxtblQTzg_kqoqemiXhci_nr86jfNxdm7c_mXOEGvUJDVTadOyidL1yduxVLMa3T0hcGnp1X6e2W43gCzMopEmdp7hbP_PlPlT0jDnIoS5bwcJcwugxyRh_ouu_3F_Y1MEzhH91PA68_Li7lD89x31xZqzJwwJV0evs0VB7hFd8xmj3lmUtqbToVW-1IXldSQdTKwdI63OA_FrtH_o20uofAsgGVMwL-6q7YsBg5acQWwcRil2vdZGb1tIQCnYpQMiu8qNYQ709rCD1b3H7KoLfIqm9mHxrdu2Dav6q9gGM28Qg3kL4VXOCh0LwDjIvGDFXWMXyl2YsBhgERjnGYQB1kbZCWGvBzt-XOPDcSQ4qUJZe6I0f5eVzQy2t2j_jhrcZKW8TEaVDd3qbtWcHVWFd11rB5m6Zy3BGE2LN8yCC9EPdfgn5pNaImm-r_m00?></g></svg>