<?plantuml 1.2026.2?><svg xmlns="http://www.w3.org/2000/svg" xmlns:xlink="http://www.w3.org/1999/xlink" contentStyleType="text/css" data-diagram-type="DESCRIPTION" height="1330px" preserveAspectRatio="none" style="width:1801px;height:1330px;background:#FFFFFF;" version="1.1" viewBox="0 0 1801 1330" width="1801px" zoomAndPan="magnify"><title>cc-tunnel &#12518;&#12540;&#12473;&#12465;&#12540;&#12473;&#22259;</title><defs/><g><g class="title" data-source-line="1"><text fill="#000000" font-family="sans-serif" font-size="14" font-weight="bold" lengthAdjust="spacing" textLength="176.1685" x="805.4157" y="22.9951">cc-tunnel &#12518;&#12540;&#12473;&#12465;&#12540;&#12473;&#22259;</text></g><!--cluster cc-tunnel--><g class="cluster" data-qualified-name="cc-tunnel" data-source-line="8" id="ent0004"><rect fill="none" height="911" rx="2.5" ry="2.5" style="stroke:#181818;stroke-width:1;" width="1710" x="85" y="44.2969"/><text fill="#000000" font-family="sans-serif" font-size="14" font-weight="bold" lengthAdjust="spacing" textLength="73.2949" x="903.3525" y="59.292">cc-tunnel</text></g><!--cluster ??--><g class="cluster" data-qualified-name="cc-tunnel..." data-source-line="11" id="ent0005"><rect fill="none" height="583" rx="2.5" ry="2.5" style="stroke:#181818;stroke-width:1;" width="270" x="109" y="87.2969"/><text fill="#000000" font-family="sans-serif" font-size="14" font-weight="bold" lengthAdjust="spacing" textLength="27.9999" x="230.0001" y="102.292">&#35469;&#35388;</text></g><!--cluster ????--><g class="cluster" data-qualified-name="cc-tunnel....." data-source-line="21" id="ent0012"><rect fill="none" height="352" rx="2.5" ry="2.5" style="stroke:#181818;stroke-width:1;" width="255" x="499" y="254.2969"/><text fill="#000000" font-family="sans-serif" font-size="14" font-weight="bold" lengthAdjust="spacing" textLength="55.9998" x="598.5001" y="269.292">&#20250;&#35441;&#31649;&#29702;</text></g><!--cluster ????????--><g class="cluster" data-qualified-name="cc-tunnel........." data-source-line="29" id="ent0017"><rect fill="none" height="301" rx="2.5" ry="2.5" style="stroke:#181818;stroke-width:1;" width="1295" x="476" y="630.2969"/><text fill="#000000" font-family="sans-serif" font-size="14" font-weight="bold" lengthAdjust="spacing" textLength="111.9995" x="1067.5002" y="645.292">&#12513;&#12483;&#12475;&#12540;&#12472;&#12539;&#23455;&#34892;</text></g><!--cluster ???????--><g class="cluster" data-qualified-name="cc-tunnel........" data-source-line="39" id="ent0024"><rect fill="none" height="237" rx="2.5" ry="2.5" style="stroke:#181818;stroke-width:1;" width="202" x="143" y="694.2969"/><text fill="#000000" font-family="sans-serif" font-size="14" font-weight="bold" lengthAdjust="spacing" textLength="97.9996" x="195.0002" y="709.292">&#12490;&#12499;&#12466;&#12540;&#12471;&#12519;&#12531;</text></g><!--entity UC_AuthStatus--><g class="entity" data-qualified-name="cc-tunnel....UC_AuthStatus" data-source-line="12" id="ent0006"><ellipse cx="243.8603" cy="147.494" fill="#F1F1F1" rx="80.8603" ry="24.6971" style="stroke:#181818;stroke-width:0.5;"/><text fill="#000000" font-family="sans-serif" font-size="14" lengthAdjust="spacing" textLength="83.9996" x="201.8605" y="142.0212">&#35469;&#35388;&#29366;&#24907;&#30906;&#35469;</text><text fill="#000000" font-family="sans-serif" font-size="14" lengthAdjust="spacing" textLength="116.9629" x="185.3789" y="158.318">GET /auth/status</text></g><!--entity UC_Login--><g class="entity" data-qualified-name="cc-tunnel....UC_Login" data-source-line="13" id="ent0007"><ellipse cx="244.1637" cy="242.2838" fill="#F1F1F1" rx="92.6637" ry="34.987" style="stroke:#181818;stroke-width:0.5;"/><text fill="#000000" font-family="sans-serif" font-size="14" lengthAdjust="spacing" textLength="83.9996" x="202.1638" y="226.82">&#12525;&#12464;&#12452;&#12531;&#38283;&#22987;</text><text fill="#000000" font-family="sans-serif" font-size="14" lengthAdjust="spacing" textLength="116.7031" x="185.8121" y="243.1168">POST /auth/login</text><text fill="#000000" font-family="sans-serif" font-size="14" lengthAdjust="spacing" textLength="137.0469" x="175.6402" y="259.4137">(claudeai / console)</text></g><!--entity UC_Logout--><g class="entity" data-qualified-name="cc-tunnel....UC_Logout" data-source-line="14" id="ent0008"><ellipse cx="243.78" cy="336.4355" fill="#F1F1F1" rx="85.28" ry="24.1386" style="stroke:#181818;stroke-width:0.5;"/><text fill="#000000" font-family="sans-serif" font-size="14" lengthAdjust="spacing" textLength="69.9997" x="208.7801" y="330.1016">&#12525;&#12464;&#12450;&#12454;&#12488;</text><text fill="#000000" font-family="sans-serif" font-size="14" lengthAdjust="spacing" textLength="126.8682" x="180.3459" y="346.3984">POST /auth/logout</text></g><!--entity UC_CancelLogin--><g class="entity" data-qualified-name="cc-tunnel....UC_CancelLogin" data-source-line="15" id="ent0009"><ellipse cx="244.1318" cy="421.2572" fill="#F1F1F1" rx="93.1318" ry="25.9603" style="stroke:#181818;stroke-width:0.5;"/><text fill="#000000" font-family="sans-serif" font-size="14" lengthAdjust="spacing" textLength="125.9995" x="181.1321" y="417.634">&#12525;&#12464;&#12452;&#12531;&#12461;&#12515;&#12531;&#12475;&#12523;</text><text fill="#000000" font-family="sans-serif" font-size="14" lengthAdjust="spacing" textLength="127.9482" x="180.1577" y="433.9309">POST /auth/cancel</text></g><!--entity UC_AuthInput--><g class="entity" data-qualified-name="cc-tunnel....UC_AuthInput" data-source-line="16" id="ent0010"><ellipse cx="243.9909" cy="515.2651" fill="#F1F1F1" rx="74.4909" ry="32.4682" style="stroke:#181818;stroke-width:0.5;"/><text fill="#000000" font-family="sans-serif" font-size="14" lengthAdjust="spacing" textLength="83.9996" x="201.9911" y="504.2152">&#35469;&#35388;&#20837;&#21147;&#36865;&#20449;</text><text fill="#000000" font-family="sans-serif" font-size="14" lengthAdjust="spacing" textLength="118.6104" x="184.6858" y="520.5121">POST /auth/input</text><text fill="#000000" font-family="sans-serif" font-size="14" lengthAdjust="spacing" textLength="75.3525" x="206.3147" y="536.809">(PTY stdin)</text></g><!--entity UC_AuthOutput--><g class="entity" data-qualified-name="cc-tunnel....UC_AuthOutput" data-source-line="17" id="ent0011"><ellipse cx="243.8077" cy="618.462" fill="#F1F1F1" rx="118.8077" ry="35.6651" style="stroke:#181818;stroke-width:0.5;"/><text fill="#000000" font-family="sans-serif" font-size="14" lengthAdjust="spacing" textLength="127.9957" x="179.8098" y="604.0347">PTY &#12473;&#12488;&#12522;&#12540;&#12512;&#36092;&#35501;</text><text fill="#000000" font-family="sans-serif" font-size="14" lengthAdjust="spacing" textLength="150.6914" x="168.462" y="620.3316">GET /auth/pty/stream</text><text fill="#000000" font-family="sans-serif" font-size="14" lengthAdjust="spacing" textLength="173.332" x="157.1417" y="636.6285">(SSE, text/event-stream)</text></g><!--entity UC_ListConv--><g class="entity" data-qualified-name="cc-tunnel......UC_ListConv" data-source-line="22" id="ent0013"><ellipse cx="626.5607" cy="397.1489" fill="#F1F1F1" rx="91.5607" ry="24.352" style="stroke:#181818;stroke-width:0.5;"/><text fill="#000000" font-family="sans-serif" font-size="14" lengthAdjust="spacing" textLength="83.9996" x="584.5608" y="391.1476">&#20250;&#35441;&#19968;&#35239;&#34920;&#31034;</text><text fill="#000000" font-family="sans-serif" font-size="14" lengthAdjust="spacing" textLength="135.1875" x="558.9669" y="407.4445">GET /conversations</text></g><!--entity UC_CreateConv--><g class="entity" data-qualified-name="cc-tunnel......UC_CreateConv" data-source-line="23" id="ent0014"><ellipse cx="626.7086" cy="481.5307" fill="#F1F1F1" rx="96.7086" ry="24.2338" style="stroke:#181818;stroke-width:0.5;"/><text fill="#000000" font-family="sans-serif" font-size="14" lengthAdjust="spacing" textLength="83.9996" x="584.7088" y="475.3459">&#26032;&#35215;&#20250;&#35441;&#20316;&#25104;</text><text fill="#000000" font-family="sans-serif" font-size="14" lengthAdjust="spacing" textLength="143.8418" x="554.7877" y="491.6428">POST /conversations</text></g><!--entity UC_GetConv--><g class="entity" data-qualified-name="cc-tunnel......UC_GetConv" data-source-line="24" id="ent0015"><ellipse cx="626.3343" cy="313.3846" fill="#F1F1F1" rx="104.8343" ry="24.0878" style="stroke:#181818;stroke-width:0.5;"/><text fill="#000000" font-family="sans-serif" font-size="14" lengthAdjust="spacing" textLength="83.9996" x="584.3345" y="306.9708">&#20250;&#35441;&#35443;&#32048;&#21462;&#24471;</text><text fill="#000000" font-family="sans-serif" font-size="14" lengthAdjust="spacing" textLength="157.3975" x="547.6356" y="323.2677">GET /conversations/:id</text></g><!--entity UC_DeleteConv--><g class="entity" data-qualified-name="cc-tunnel......UC_DeleteConv" data-source-line="25" id="ent0016"><ellipse cx="626.3941" cy="565.4757" fill="#F1F1F1" rx="111.3941" ry="24.6788" style="stroke:#181818;stroke-width:0.5;"/><text fill="#000000" font-family="sans-serif" font-size="14" lengthAdjust="spacing" textLength="55.9998" x="598.3942" y="557.3295">&#20250;&#35441;&#21066;&#38500;</text><text fill="#000000" font-family="sans-serif" font-size="14" lengthAdjust="spacing" textLength="182.8203" x="534.984" y="573.6264">DELETE /conversations/:id</text></g><!--entity UC_SendMsg--><g class="entity" data-qualified-name="cc-tunnel..........UC_SendMsg" data-source-line="30" id="ent0018"><ellipse cx="626.5746" cy="842.491" fill="#F1F1F1" rx="134.5746" ry="29.6941" style="stroke:#181818;stroke-width:0.5;"/><text fill="#000000" font-family="sans-serif" font-size="14" lengthAdjust="spacing" textLength="97.9996" x="577.5748" y="830.5139">&#12513;&#12483;&#12475;&#12540;&#12472;&#36865;&#20449;</text><text fill="#000000" font-family="sans-serif" font-size="14" lengthAdjust="spacing" textLength="240.9805" x="506.0843" y="846.8108">POST /conversations/:id/messages</text><text fill="#000000" font-family="sans-serif" font-size="14" lengthAdjust="spacing" textLength="112.8135" x="570.1678" y="863.1077">&#8594; 202 Accepted</text></g><!--entity UC_ExecClaude--><g class="entity" data-qualified-name="cc-tunnel..........UC_ExecClaude" data-source-line="31" id="ent0019"><ellipse cx="1063.455" cy="804.0997" fill="#F1F1F1" rx="88.455" ry="25.3028" style="stroke:#181818;stroke-width:0.5;"/><text fill="#000000" font-family="sans-serif" font-size="14" lengthAdjust="spacing" textLength="107.2216" x="1009.8442" y="799.5287">Claude CLI &#23455;&#34892;</text><text fill="#000000" font-family="sans-serif" font-size="14" lengthAdjust="spacing" textLength="124.8856" x="1001.0122" y="815.8255">(&#38750;&#21516;&#26399; goroutine)</text></g><!--entity UC_Polling--><g class="entity" data-qualified-name="cc-tunnel..........UC_Polling" data-source-line="32" id="ent0020"><ellipse cx="1063.4" cy="704.4085" fill="#F1F1F1" rx="91.4" ry="39.6116" style="stroke:#181818;stroke-width:0.5;"/><text fill="#000000" font-family="sans-serif" font-size="14" lengthAdjust="spacing" textLength="83.9996" x="1021.4002" y="684.9899">&#12509;&#12540;&#12522;&#12531;&#12464;&#12391;</text><text fill="#000000" font-family="sans-serif" font-size="14" lengthAdjust="spacing" textLength="83.9996" x="1021.4002" y="701.2867">&#36914;&#34892;&#29366;&#27841;&#21462;&#24471;</text><text fill="#000000" font-family="sans-serif" font-size="14" lengthAdjust="spacing" textLength="157.3975" x="984.7013" y="717.5836">GET /conversations/:id</text><text fill="#000000" font-family="sans-serif" font-size="14" lengthAdjust="spacing" textLength="61.8309" x="1032.4846" y="733.8805">(1&#31186;&#38291;&#38548;)</text></g><!--entity UC_Complete--><g class="entity" data-qualified-name="cc-tunnel..........UC_Complete" data-source-line="33" id="ent0021"><ellipse cx="1393.1788" cy="704.0659" fill="#F1F1F1" rx="92.1788" ry="23.769" style="stroke:#181818;stroke-width:0.5;"/><text fill="#000000" font-family="sans-serif" font-size="14" lengthAdjust="spacing" textLength="55.9998" x="1365.1789" y="697.144">&#23436;&#20102;&#26908;&#30693;</text><text fill="#000000" font-family="sans-serif" font-size="14" lengthAdjust="spacing" textLength="139.9521" x="1323.2027" y="713.4409">(status=completed)</text></g><!--entity UC_Title--><g class="entity" data-qualified-name="cc-tunnel..........UC_Title" data-source-line="34" id="ent0022"><ellipse cx="1682.2524" cy="704.1474" fill="#F1F1F1" rx="72.2524" ry="16.8505" style="stroke:#181818;stroke-width:0.5;"/><text fill="#000000" font-family="sans-serif" font-size="14" lengthAdjust="spacing" textLength="111.9995" x="1626.2527" y="708.7958">&#12479;&#12452;&#12488;&#12523;&#33258;&#21205;&#29983;&#25104;</text></g><!--entity UC_Disconnect--><g class="entity" data-qualified-name="cc-tunnel..........UC_Disconnect" data-source-line="35" id="ent0023"><ellipse cx="1063.6302" cy="890.2229" fill="#F1F1F1" rx="112.6302" ry="24.926" style="stroke:#181818;stroke-width:0.5;"/><text fill="#000000" font-family="sans-serif" font-size="14" lengthAdjust="spacing" textLength="111.9995" x="1007.6304" y="884.1701">&#20999;&#26029;&#24460;&#12398;&#33258;&#21205;&#32153;&#32154;</text><text fill="#000000" font-family="sans-serif" font-size="14" lengthAdjust="spacing" textLength="170.8369" x="978.2117" y="900.4669">(context.WithoutCancel)</text></g><!--entity UC_DirectURL--><g class="entity" data-qualified-name="cc-tunnel.........UC_DirectURL" data-source-line="40" id="ent0025"><ellipse cx="244.0533" cy="755.0759" fill="#F1F1F1" rx="85.0533" ry="25.779" style="stroke:#181818;stroke-width:0.5;"/><text fill="#000000" font-family="sans-serif" font-size="14" lengthAdjust="spacing" textLength="111.774" x="188.1663" y="751.1943">URL&#30452;&#25509;&#12450;&#12463;&#12475;&#12473;</text><text fill="#000000" font-family="sans-serif" font-size="14" lengthAdjust="spacing" textLength="117.4072" x="185.3497" y="767.4912">/conversation/:id</text></g><!--entity UC_BrowserNav--><g class="entity" data-qualified-name="cc-tunnel.........UC_BrowserNav" data-source-line="41" id="ent0026"><ellipse cx="244.173" cy="833.5315" fill="#F1F1F1" rx="74.173" ry="17.2346" style="stroke:#181818;stroke-width:0.5;"/><text fill="#000000" font-family="sans-serif" font-size="14" lengthAdjust="spacing" textLength="116.7163" x="185.8149" y="838.1799">&#12502;&#12521;&#12454;&#12470;&#25147;&#12427;/&#36914;&#12416;</text></g><!--entity UC_SwitchConv--><g class="entity" data-qualified-name="cc-tunnel.........UC_SwitchConv" data-source-line="42" id="ent0027"><ellipse cx="244.0978" cy="900.3205" fill="#F1F1F1" rx="42.5978" ry="14.5236" style="stroke:#181818;stroke-width:0.5;"/><text fill="#000000" font-family="sans-serif" font-size="14" lengthAdjust="spacing" textLength="55.9998" x="216.0979" y="904.9689">&#20250;&#35441;&#20999;&#26367;</text></g><!--entity user--><g class="entity" data-qualified-name="user" data-source-line="5" id="ent0002"><ellipse cx="21.9551" cy="774.7969" fill="#F1F1F1" rx="8" ry="8" style="stroke:#181818;stroke-width:0.5;"/><path d="M21.9551,782.7969 L21.9551,809.7969 M8.9551,790.7969 L34.9551,790.7969 M21.9551,809.7969 L8.9551,824.7969 M21.9551,809.7969 L34.9551,824.7969" fill="none" style="stroke:#181818;stroke-width:0.5;"/><text fill="#000000" font-family="sans-serif" font-size="14" lengthAdjust="spacing" textLength="31.9102" x="6" y="839.292">User</text></g><!--entity claude--><g class="entity" data-qualified-name="claude" data-source-line="6" id="ent0003"><ellipse cx="1392.769" cy="979.2969" fill="#F1F1F1" rx="8" ry="8" style="stroke:#181818;stroke-width:0.5;"/><path d="M1392.769,987.2969 L1392.769,1014.2969 M1379.769,995.2969 L1405.769,995.2969 M1392.769,1014.2969 L1379.769,1029.2969 M1392.769,1014.2969 L1405.769,1029.2969" fill="none" style="stroke:#181818;stroke-width:0.5;"/><text fill="#000000" font-family="sans-serif" font-size="14" lengthAdjust="spacing" textLength="74.7715" x="1329" y="1043.792">Claude CLI</text><text fill="#000000" font-family="sans-serif" font-size="14" lengthAdjust="spacing" textLength="127.5381" x="1329" y="1060.0889">(cc-remote-agent)</text></g><!--link user to UC_AuthStatus--><g class="link" data-entity-1="ent0002" data-entity-2="ent0006" data-link-type="dependency" data-source-line="48" id="lnk28"><path d="M23.81,766.2869 C26.86,638.9969 39.48,233.1969 77,189.2969 C98.15,164.5569 125.6486,154.2018 156.9786,149.4218" fill="none" id="user-to-UC_AuthStatus" style="stroke:#181818;stroke-width:1;"/><polygon fill="#181818" points="162.91,148.5169,153.4097,145.92,157.9672,149.271,154.6163,153.8285,162.91,148.5169" style="stroke:#181818;stroke-width:1;"/></g><!--link user to UC_Login--><g class="link" data-entity-1="ent0002" data-entity-2="ent0007" data-link-type="dependency" data-source-line="49" id="lnk29"><path d="M24.62,765.9069 C29.71,653.4169 46.83,330.2969 77,294.2969 C96.3,271.2669 119.8637,259.7602 148.5637,252.4902" fill="none" id="user-to-UC_Login" style="stroke:#181818;stroke-width:1;"/><polygon fill="#181818" points="154.38,251.0169,144.6733,249.3493,149.5331,252.2446,146.6378,257.1044,154.38,251.0169" style="stroke:#181818;stroke-width:1;"/></g><!--link user to UC_Logout--><g class="link" data-entity-1="ent0002" data-entity-2="ent0008" data-link-type="dependency" data-source-line="50" id="lnk30"><path d="M22.51,765.9969 C22.11,672.1669 26.27,434.3069 77,377.2969 C97.52,354.2369 122.8536,344.1452 152.7236,339.1052" fill="none" id="user-to-UC_Logout" style="stroke:#181818;stroke-width:1;"/><polygon fill="#181818" points="158.64,338.1069,149.0999,335.66,153.7097,338.9388,150.431,343.5485,158.64,338.1069" style="stroke:#181818;stroke-width:1;"/></g><!--link user to UC_CancelLogin--><g class="link" data-entity-1="ent0002" data-entity-2="ent0009" data-link-type="dependency" data-source-line="51" id="lnk31"><path d="M23.99,766.1269 C26.83,687.0269 37.54,508.9669 77,465.2969 C96.29,443.9569 118.757,433.7219 146.577,427.6719" fill="none" id="user-to-UC_CancelLogin" style="stroke:#181818;stroke-width:1;"/><polygon fill="#181818" points="152.44,426.3969,142.7955,424.4008,147.5542,427.4594,144.4956,432.218,152.44,426.3969" style="stroke:#181818;stroke-width:1;"/></g><!--link user to UC_AuthInput--><g class="link" data-entity-1="ent0002" data-entity-2="ent0010" data-link-type="dependency" data-source-line="52" id="lnk32"><path d="M26.97,765.9869 C33.92,706.0769 50.17,594.0869 77,565.2969 C100.91,539.6469 131.5343,528.1008 164.2443,521.9208" fill="none" id="user-to-UC_AuthInput" style="stroke:#181818;stroke-width:1;"/><polygon fill="#181818" points="170.14,520.8069,160.5539,518.5472,165.2269,521.7351,162.039,526.4082,170.14,520.8069" style="stroke:#181818;stroke-width:1;"/></g><!--link user to UC_AuthOutput--><g class="link" data-entity-1="ent0002" data-entity-2="ent0011" data-link-type="dependency" data-source-line="53" id="lnk33"><path d="M38.09,769.8569 C47.38,751.4869 60.63,729.4069 77,713.2969 C104.92,685.8169 137.0004,666.1642 169.2704,650.0742" fill="none" id="user-to-UC_AuthOutput" style="stroke:#181818;stroke-width:1;"/><polygon fill="#181818" points="174.64,647.3969,164.8008,647.8331,170.1654,649.6279,168.3705,654.9925,174.64,647.3969" style="stroke:#181818;stroke-width:1;"/></g><!--link user to UC_ListConv--><g class="link" data-entity-1="ent0002" data-entity-2="ent0013" data-link-type="dependency" data-source-line="55" id="lnk34"><path d="M26.54,842.5269 C32.04,892.4569 44.54,975.7469 68,994.2969 C204.65,1102.3669 335.92,1116.6069 460,994.2969 C481.96,972.6569 449.04,463.6169 468,439.2969 C484.36,418.3269 504.0869,408.4062 529.9069,402.5862" fill="none" id="user-to-UC_ListConv" style="stroke:#181818;stroke-width:1;"/><polygon fill="#181818" points="535.76,401.2669,526.1007,399.3438,530.8824,402.3663,527.8598,407.148,535.76,401.2669" style="stroke:#181818;stroke-width:1;"/></g><!--link user to UC_CreateConv--><g class="link" data-entity-1="ent0002" data-entity-2="ent0014" data-link-type="dependency" data-source-line="56" id="lnk35"><path d="M23.79,842.3069 C26.03,907.7069 34.68,1037.2369 68,1065.2969 C201.25,1177.5469 335.9,1187.5869 460,1065.2969 C481.45,1044.1669 449.48,547.0469 468,523.2969 C483.49,503.4469 501.4275,493.7654 525.8275,487.6954" fill="none" id="user-to-UC_CreateConv" style="stroke:#181818;stroke-width:1;"/><polygon fill="#181818" points="531.65,486.2469,521.9505,484.5379,526.7979,487.4539,523.8818,492.3013,531.65,486.2469" style="stroke:#181818;stroke-width:1;"/></g><!--link user to UC_GetConv--><g class="link" data-entity-1="ent0002" data-entity-2="ent0015" data-link-type="dependency" data-source-line="57" id="lnk36"><path d="M27.93,842.5969 C34,872.3469 47.43,911.7369 77,931.2969 C191.91,1007.3069 258.42,980.8069 387,931.2969 C427.82,915.5869 441.94,905.1369 460,865.2969 C471.7,839.4969 450.56,377.6369 468,355.2969 C482.19,337.1269 497.542,327.9193 519.742,321.5593" fill="none" id="user-to-UC_GetConv" style="stroke:#181818;stroke-width:1;"/><polygon fill="#181818" points="525.51,319.9069,515.7564,318.5402,520.7034,321.2839,517.9597,326.2309,525.51,319.9069" style="stroke:#181818;stroke-width:1;"/></g><!--link user to UC_DeleteConv--><g class="link" data-entity-1="ent0002" data-entity-2="ent0016" data-link-type="dependency" data-source-line="58" id="lnk37"><path d="M22.2,842.4669 C21.45,921.4269 24.74,1098.5169 68,1136.2969 C199.21,1250.9269 335.8,1258.4769 460,1136.2969 C479.29,1117.3269 453.89,672.3869 468,649.2969 C487.39,617.5669 517.623,599.3144 550.213,586.5544" fill="none" id="user-to-UC_DeleteConv" style="stroke:#181818;stroke-width:1;"/><polygon fill="#181818" points="555.8,584.3669,545.9611,583.9234,551.1441,586.1898,548.8778,591.3728,555.8,584.3669" style="stroke:#181818;stroke-width:1;"/></g><!--link user to UC_SendMsg--><g class="link" data-entity-1="ent0002" data-entity-2="ent0018" data-link-type="dependency" data-source-line="60" id="lnk38"><path d="M24.42,842.3469 C28.37,938.0969 41.04,1183.1869 68,1207.2969 C197.85,1323.4569 313.56,1301.6869 460,1207.2969 C579.3,1130.4069 612.8202,950.2411 621.8202,877.8011" fill="none" id="user-to-UC_SendMsg" style="stroke:#181818;stroke-width:1;"/><polygon fill="#181818" points="622.56,871.8469,617.4809,880.285,621.9435,876.8087,625.4198,881.2714,622.56,871.8469" style="stroke:#181818;stroke-width:1;"/></g><!--link user to UC_DirectURL--><g class="link" data-entity-1="ent0002" data-entity-2="ent0025" data-link-type="dependency" data-source-line="61" id="lnk39"><path d="M38.18,797.7869 C46.8,794.2769 57.86,790.1169 68,787.2969 C99.84,778.4569 129.7233,772.4132 160.6033,767.2132" fill="none" id="user-to-UC_DirectURL" style="stroke:#181818;stroke-width:1;"/><polygon fill="#181818" points="166.52,766.2169,156.9807,763.7669,161.5894,767.0472,158.3092,771.6558,166.52,766.2169" style="stroke:#181818;stroke-width:1;"/></g><!--link user to UC_BrowserNav--><g class="link" data-entity-1="ent0002" data-entity-2="ent0026" data-link-type="dependency" data-source-line="62" id="lnk40"><path d="M38.12,806.2969 C66.76,810.0669 124.4616,817.672 173.2716,824.112" fill="none" id="user-to-UC_BrowserNav" style="stroke:#181818;stroke-width:1;"/><polygon fill="#181818" points="179.22,824.8969,170.8206,819.754,174.263,824.2428,169.7741,827.6852,179.22,824.8969" style="stroke:#181818;stroke-width:1;"/></g><!--link user to UC_SwitchConv--><g class="link" data-entity-1="ent0002" data-entity-2="ent0027" data-link-type="dependency" data-source-line="63" id="lnk41"><path d="M38.06,828.8169 C47.58,842.2469 61.08,857.9969 77,867.2969 C115.3,889.6969 160.1833,896.7582 195.4733,899.1082" fill="none" id="user-to-UC_SwitchConv" style="stroke:#181818;stroke-width:1;"/><polygon fill="#181818" points="201.46,899.5069,192.7457,894.9177,196.471,899.1747,192.2141,902.9,201.46,899.5069" style="stroke:#181818;stroke-width:1;"/></g><!--link UC_SendMsg to UC_ExecClaude--><g class="link" data-entity-1="ent0018" data-entity-2="ent0019" data-link-type="dependency" data-source-line="66" id="lnk42"><path d="M751.86,831.4369 C824.55,825.0869 908.3728,817.7691 972.7028,812.1491" fill="none" id="UC_SendMsg-to-UC_ExecClaude" style="stroke:#181818;stroke-width:1;stroke-dasharray:7,7;"/><polygon fill="#181818" points="978.68,811.6269,969.366,808.4253,973.699,812.062,970.0623,816.395,978.68,811.6269" style="stroke:#181818;stroke-width:1;"/><text fill="#000000" font-family="sans-serif" font-size="13" lengthAdjust="spacing" textLength="63.0068" x="824.5" y="814.3638">&#171;include&#187;</text></g><!--link UC_SendMsg to UC_Disconnect--><g class="link" data-entity-1="ent0018" data-entity-2="ent0023" data-link-type="dependency" data-source-line="67" id="lnk43"><path d="M746.94,855.4769 C814.6,862.9469 892.3062,871.519 956.4862,878.599" fill="none" id="UC_SendMsg-to-UC_Disconnect" style="stroke:#181818;stroke-width:1;stroke-dasharray:7,7;"/><polygon fill="#181818" points="962.45,879.2569,953.9429,874.2941,957.4801,878.7086,953.0657,882.2459,962.45,879.2569" style="stroke:#181818;stroke-width:1;"/><text fill="#000000" font-family="sans-serif" font-size="13" lengthAdjust="spacing" textLength="63.0068" x="824.5" y="857.3638">&#171;include&#187;</text></g><!--link UC_SendMsg to UC_Polling--><g class="link" data-entity-1="ent0018" data-entity-2="ent0020" data-link-type="dependency" data-source-line="68" id="lnk44"><path d="M706.44,818.4069 C733.25,810.3469 763.41,801.3669 791,793.2969 C848.66,776.4569 863.88,774.8969 921,756.2969 C945.14,748.4469 965.6752,741.1653 988.8652,732.5553" fill="none" id="UC_SendMsg-to-UC_Polling" style="stroke:#181818;stroke-width:1;stroke-dasharray:7,7;"/><polygon fill="#181818" points="994.49,730.4669,984.6605,729.8496,989.8026,732.2072,987.445,737.3493,994.49,730.4669" style="stroke:#181818;stroke-width:1;"/><text fill="#000000" font-family="sans-serif" font-size="13" lengthAdjust="spacing" textLength="63.0068" x="824.5" y="752.3638">&#171;include&#187;</text></g><!--link UC_GetConv to UC_Polling--><g class="link" data-entity-1="ent0015" data-entity-2="ent0020" data-link-type="dependency" data-source-line="69" id="lnk45"><path d="M704.8,329.4269 C724.44,335.6169 744.83,344.0169 762,355.2969 C890.47,439.7069 992.2944,589.0637 1036.6244,660.7537" fill="none" id="UC_GetConv-to-UC_Polling" style="stroke:#181818;stroke-width:1;stroke-dasharray:7,7;"/><polygon fill="#181818" points="1039.78,665.8569,1038.4487,656.0984,1037.1504,661.6042,1031.6445,660.3058,1039.78,665.8569" style="stroke:#181818;stroke-width:1;"/><text fill="#000000" font-family="sans-serif" font-size="13" lengthAdjust="spacing" textLength="61.1851" x="825.5474" y="358.3638">&#171;extend&#187;</text><text fill="#000000" font-family="sans-serif" font-size="13" lengthAdjust="spacing" textLength="128.2798" x="792" y="373.4966">(status=running &#26178;)</text></g><!--link UC_Polling to UC_Complete--><g class="link" data-entity-1="ent0020" data-entity-2="ent0021" data-link-type="dependency" data-source-line="70" id="lnk46"><path d="M1155.29,704.2969 C1200.63,704.2969 1249.35,704.2969 1294.75,704.2969" fill="none" id="UC_Polling-to-UC_Complete" style="stroke:#181818;stroke-width:1;stroke-dasharray:7,7;"/><polygon fill="#181818" points="1300.75,704.2969,1291.75,700.2969,1295.75,704.2969,1291.75,708.2969,1300.75,704.2969" style="stroke:#181818;stroke-width:1;"/><text fill="#000000" font-family="sans-serif" font-size="13" lengthAdjust="spacing" textLength="63.0068" x="1207" y="700.3638">&#171;include&#187;</text></g><!--link UC_Complete to UC_Title--><g class="link" data-entity-1="ent0021" data-entity-2="ent0022" data-link-type="dependency" data-source-line="71" id="lnk47"><path d="M1485.36,704.2969 C1525.65,704.2969 1566.29,704.2969 1603.98,704.2969" fill="none" id="UC_Complete-to-UC_Title" style="stroke:#181818;stroke-width:1;stroke-dasharray:7,7;"/><polygon fill="#181818" points="1609.98,704.2969,1600.98,700.2969,1604.98,704.2969,1600.98,708.2969,1609.98,704.2969" style="stroke:#181818;stroke-width:1;"/><text fill="#000000" font-family="sans-serif" font-size="13" lengthAdjust="spacing" textLength="63.0068" x="1516" y="700.3638">&#171;include&#187;</text></g><!--link UC_SwitchConv to UC_GetConv--><g class="link" data-entity-1="ent0027" data-entity-2="ent0015" data-link-type="dependency" data-source-line="72" id="lnk48"><path d="M286.59,900.5669 C317.63,898.6169 359.3,891.1869 387,867.2969 C453.94,809.5769 442.43,768.9269 460,682.2969 C463.61,664.4969 456.75,369.5769 468,355.2969 C482.27,337.1869 497.652,327.9993 519.852,321.6393" fill="none" id="UC_SwitchConv-to-UC_GetConv" style="stroke:#181818;stroke-width:1;stroke-dasharray:7,7;"/><polygon fill="#181818" points="525.62,319.9869,515.8664,318.6202,520.8134,321.3639,518.0697,326.3109,525.62,319.9869" style="stroke:#181818;stroke-width:1;"/><text fill="#000000" font-family="sans-serif" font-size="13" lengthAdjust="spacing" textLength="63.0068" x="396" y="678.3638">&#171;include&#187;</text></g><!--link UC_DirectURL to UC_GetConv--><g class="link" data-entity-1="ent0025" data-entity-2="ent0015" data-link-type="dependency" data-source-line="73" id="lnk49"><path d="M298.79,735.2269 C328.94,721.3469 364.82,699.9969 387,670.2969 C473.51,554.4869 366.24,457.9669 468,355.2969 C484.34,338.8169 500.5934,330.209 522.9934,323.919" fill="none" id="UC_DirectURL-to-UC_GetConv" style="stroke:#181818;stroke-width:1;stroke-dasharray:7,7;"/><polygon fill="#181818" points="528.77,322.2969,519.0237,320.8789,523.9562,323.6486,521.1865,328.5811,528.77,322.2969" style="stroke:#181818;stroke-width:1;"/><text fill="#000000" font-family="sans-serif" font-size="13" lengthAdjust="spacing" textLength="63.0068" x="396" y="364.3638">&#171;include&#187;</text></g><!--link UC_ExecClaude to claude--><g class="link" data-entity-1="ent0019" data-entity-2="ent0003" data-link-type="dependency" data-source-line="76" id="lnk50"><path d="M1123.3,823.2269 C1140.76,829.8269 1159.59,837.9669 1176,847.2969 C1237.38,882.2369 1295.4889,929.6181 1337.3889,966.7381" fill="none" id="UC_ExecClaude-to-claude" style="stroke:#181818;stroke-width:1;"/><polygon fill="#181818" points="1341.88,970.7169,1337.7959,961.7547,1338.1374,967.4013,1332.4909,967.7428,1341.88,970.7169" style="stroke:#181818;stroke-width:1;"/></g><?plantuml-src XLPTQnj757tVNp7ufJNKLfl7a0fIMOI0sfZAfXG4PLbDfONrhDWT9IcbOEyIHxMSnYIfYZzILwbjnGfsdIYuYUF6_wNZrQx-HUxib_RBZj33wCwPCtVFFVUkg4mLZ2HfYZO9mGfYvXupJvdnbXallOMrEH041Vz84LMH9jVg55Lb3KjKLeaWY19LDJGnhsDj0eawQi8Y21OKiLd5g52wMI6VmXKQNb0fdX9hcD195osv247WT2AfGIOJOIeJw6T1GEWJD0KVvFGVECzFtJK48tXlWuCHVE1wITJ3iBroFBpNjf-TmCyAkL6SGpcnIUivdOgqgRifp1T-k0wXiXk9Sp3pW1b7pDXXvc3KQLkzTeNCtYe798fQamb_ClSXH1dbaAGINLNmPC1Suf1iqcVC0ALRIKQrIIE7uTV5AJ7ZW9b_kujtp7mHOv948d49FQQ2-oiZ6KybwzwkjR8vMbmwF-l6M6JIQ59umjcvxv5EgpAPZ4fsa-_6-JYGUyTiCRFFxMF-vGnEdVv1LFm6_GaAe65n0QZBvU9dYEAxD8TlWoscl8tOFRUQrBlebuWVpaytdFsNzc7NNblES4LqE-KDR_FypQAprtEwp-sT4pyzADzjhEaYjtReZfAiqm9in3c6dIDdxw7FzD_MiBKMA9T9Ke2deZXDun4u-mFxzP7ri6Ez_oChbTnLkHemtS3q8XhhrvNH-aw5p1HBnRdY9HmpMC5XDb5LcTbbfkdw2Lh_3JFVMOVRJdSrG-6Be2cr4y2upL8fvXQmhiE4q2la_-L7wChdLz1rIS8DYiFiovXKlzPhyLl6imPvUO2tHa__jDPMXrlRgAPgq4eo6NTcyIwMl3F9R9-wlksxVNN4bdeLCbfy1OHybWoMBYyINFg5tNiqwZmURJm9xvfL5KKcYOIjmzNpa-NXpfQzlGl7l8dqfQGkD7Xjgk7XWXz9f6cSkKC0-ko5SxzljN-tdso32ODJStoi9ovitHzs3gptgspfq3zol6uVR_09fXBUWjFVoRGEEddZ8inWHjO1GA3qARUiCFCnCrwvbVsNcJqGBTCg6RYKJ-Q_BTcRhuU_xRgpyHzk6EDjXSH4ZfdOVGd1gMG1EypSvyFLE1wsWAETW_enOp4uzvMcte6Nr3TYTW-1IfjdeTNko5IgZni5lkwp8_w-0uokIh9NVHuL-CiF5ld4IoKQzePm8iB7V3GKdTT9Jc_g9gF-Z8mJ1uChHZqUHD5mC5MYiSYKYCM3_ejXms94en6fOmHZLSTo8hSA6bOyFUjomzDqV26Qdix7MnTTHTUkoKHIO9tFPq37rlqer6_IDCwN9Wi7FGCa-VouVpNuwy9tX-l6f111-uU3PaxV4kxuIBU1Cv8EfGk0GNefQ5YIov5-1IBpCsNhkEQyYFx_jWy0?></g></svg>