<?plantuml 1.2026.2?><svg xmlns="http://www.w3.org/2000/svg" xmlns:xlink="http://www.w3.org/1999/xlink" contentStyleType="text/css" data-diagram-type="ACTIVITY" height="1333px" preserveAspectRatio="none" style="width:1088px;height:1333px;background:#FFFFFF;" version="1.1" viewBox="0 0 1088 1333" width="1088px" zoomAndPan="magnify"><title>useConversationPoller &#20869;&#37096;&#12501;&#12525;&#12540;</title><defs/><g><g class="title" data-source-line="1"><text fill="#000000" font-family="sans-serif" font-size="14" font-weight="bold" lengthAdjust="spacing" textLength="252.7858" x="416.6068" y="32.9951">useConversationPoller &#20869;&#37096;&#12501;&#12525;&#12540;</text></g><ellipse cx="442.0088" cy="57.2969" fill="#222222" rx="10" ry="10" style="stroke:#222222;stroke-width:1;"/><rect fill="none" height="1081.5469" style="stroke:#000000;stroke-width:1.5;" width="1066.9994" x="11" y="77.2969"/><path d="M504.69,77.2969 L504.69,86.5938 L494.69,96.5938 L11,96.5938" fill="none" style="stroke:#000000;stroke-width:1.5;"/><text fill="#000000" font-family="sans-serif" font-size="14" lengthAdjust="spacing" textLength="483.69" x="14" y="91.292">useEffect &#23455;&#34892;&#65288;isRunning / conversationId / intervalMs / poll &#22793;&#26356;&#26178;&#65289;</text><path d="M180.2141,106.5938 L180.2141,161.9922 L360.934,161.9922 L360.934,116.5938 L350.934,106.5938 L180.2141,106.5938" fill="#FEFFDD" style="stroke:#181818;stroke-width:0.5;"/><path d="M350.934,106.5938 L350.934,116.5938 L360.934,116.5938 L350.934,106.5938" fill="#FEFFDD" style="stroke:#181818;stroke-width:0.5;"/><text fill="#000000" font-family="sans-serif" font-size="13" lengthAdjust="spacing" textLength="149.189" x="186.2141" y="123.6606">isRunning=false &#12414;&#12383;&#12399;</text><text fill="#000000" font-family="sans-serif" font-size="13" lengthAdjust="spacing" textLength="130.6982" x="186.2141" y="138.7935">conversationId=null</text><text fill="#000000" font-family="sans-serif" font-size="13" lengthAdjust="spacing" textLength="159.7198" x="186.2141" y="153.9263">&#8594; interval &#26410;&#38283;&#22987;&#65288;&#24453;&#27231;&#65289;</text><rect fill="#F1F1F1" height="33.9688" rx="12.5" ry="12.5" style="stroke:#181818;stroke-width:0.5;" width="182.2871" x="350.8652" y="212.0039"/><text fill="#000000" font-family="sans-serif" font-size="12" lengthAdjust="spacing" textLength="162.2871" x="360.8652" y="233.1426">stoppedRef.current = false</text><rect fill="#F1F1F1" height="47.9375" rx="12.5" ry="12.5" style="stroke:#181818;stroke-width:0.5;" width="233.3989" x="325.3093" y="265.9727"/><text fill="#000000" font-family="sans-serif" font-size="12" lengthAdjust="spacing" textLength="92.1096" x="335.3093" y="287.1113">setInterval &#38283;&#22987;</text><text fill="#000000" font-family="sans-serif" font-size="12" lengthAdjust="spacing" textLength="213.3989" x="335.3093" y="301.0801">(intervalMs ms, &#12487;&#12501;&#12457;&#12523;&#12488; 1000ms)</text><rect fill="#F1F1F1" height="33.9688" rx="12.5" ry="12.5" style="stroke:#181818;stroke-width:0.5;" width="131.926" x="376.0458" y="377.9102"/><text fill="#000000" font-family="sans-serif" font-size="12" lengthAdjust="spacing" textLength="111.926" x="386.0458" y="399.0488">intervalMs ms &#24453;&#27231;</text><polygon fill="#F1F1F1" points="366.5046,431.8789,517.5129,431.8789,529.5129,443.8789,517.5129,455.8789,366.5046,455.8789,354.5046,443.8789,366.5046,431.8789" style="stroke:#181818;stroke-width:0.5;"/><text fill="#000000" font-family="sans-serif" font-size="11" lengthAdjust="spacing" textLength="151.0083" x="366.5046" y="447.687">stoppedRef.current = true?</text><text fill="#000000" font-family="sans-serif" font-size="11" lengthAdjust="spacing" textLength="19.0083" x="335.4963" y="441.2847">yes</text><text fill="#000000" font-family="sans-serif" font-size="11" lengthAdjust="spacing" textLength="13.7017" x="529.5129" y="441.2847">no</text><rect fill="#F1F1F1" height="33.9688" rx="12.5" ry="12.5" style="stroke:#181818;stroke-width:0.5;" width="115.8711" x="23" y="465.8789"/><text fill="#000000" font-family="sans-serif" font-size="12" lengthAdjust="spacing" textLength="95.8711" x="33" y="487.0176">clearInterval(id)</text><polygon fill="#F1F1F1" points="776.7554,465.8789,889.4085,465.8789,901.4085,477.8789,889.4085,489.8789,776.7554,489.8789,764.7554,477.8789,776.7554,465.8789" style="stroke:#181818;stroke-width:0.5;"/><text fill="#000000" font-family="sans-serif" font-size="11" lengthAdjust="spacing" textLength="112.6532" x="776.7554" y="481.687">conversationId &#12354;&#12426;?</text><text fill="#000000" font-family="sans-serif" font-size="11" lengthAdjust="spacing" textLength="19.0083" x="745.7471" y="475.2847">yes</text><text fill="#000000" font-family="sans-serif" font-size="11" lengthAdjust="spacing" textLength="13.7017" x="901.4085" y="475.2847">no</text><rect fill="#F1F1F1" height="47.9375" rx="12.5" ry="12.5" style="stroke:#181818;stroke-width:0.5;" width="154.9121" x="584.7087" y="499.8789"/><text fill="#000000" font-family="sans-serif" font-size="12" lengthAdjust="spacing" textLength="134.9121" x="594.7087" y="521.0176">GET /conversations/:id</text><text fill="#000000" font-family="sans-serif" font-size="12" lengthAdjust="spacing" textLength="117.7676" x="594.7087" y="534.9863">(getConversation())</text><polygon fill="#F1F1F1" points="620.7459,567.8164,703.5837,567.8164,715.5837,579.8164,703.5837,591.8164,620.7459,591.8164,608.7459,579.8164,620.7459,567.8164" style="stroke:#181818;stroke-width:0.5;"/><text fill="#000000" font-family="sans-serif" font-size="11" lengthAdjust="spacing" textLength="82.8378" x="620.7459" y="583.6245">&#12524;&#12473;&#12509;&#12531;&#12473;&#25104;&#21151;?</text><text fill="#000000" font-family="sans-serif" font-size="11" lengthAdjust="spacing" textLength="19.0083" x="589.7376" y="577.2222">yes</text><text fill="#000000" font-family="sans-serif" font-size="11" lengthAdjust="spacing" textLength="32.9998" x="715.5837" y="577.2222">&#12456;&#12521;&#12540;</text><rect fill="#F1F1F1" height="33.9688" rx="12.5" ry="12.5" style="stroke:#181818;stroke-width:0.5;" width="196.9473" x="381.1112" y="601.8164"/><text fill="#000000" font-family="sans-serif" font-size="12" lengthAdjust="spacing" textLength="176.9473" x="391.1112" y="622.9551">msgs = detail.messages ?? []</text><rect fill="#F1F1F1" height="47.9375" rx="12.5" ry="12.5" style="stroke:#181818;stroke-width:0.5;" width="134.9668" x="412.1014" y="670.7852"/><text fill="#000000" font-family="sans-serif" font-size="12" lengthAdjust="spacing" textLength="114.9668" x="422.1014" y="691.9238">onMessages(msgs)</text><text fill="#000000" font-family="sans-serif" font-size="12" lengthAdjust="spacing" textLength="96.0007" x="422.1014" y="705.8926">&#65288;&#20840;&#20214;&#12501;&#12523;&#37197;&#20449;&#65289;</text><path d="M148.8711,728.7227 L148.8711,753.8555 L381.0323,753.8555 L381.0323,738.7227 L371.0323,728.7227 L148.8711,728.7227" fill="#FEFFDD" style="stroke:#181818;stroke-width:0.5;"/><path d="M371.0323,728.7227 L371.0323,738.7227 L381.0323,738.7227 L371.0323,728.7227" fill="#FEFFDD" style="stroke:#181818;stroke-width:0.5;"/><text fill="#000000" font-family="sans-serif" font-size="13" lengthAdjust="spacing" textLength="211.1612" x="154.8711" y="745.7896">status=running &#8594; &#27425;&#12398;&#12469;&#12452;&#12463;&#12523;&#12408;</text><rect fill="#F1F1F1" height="33.9688" rx="12.5" ry="12.5" style="stroke:#181818;stroke-width:0.5;" width="178.3672" x="390.4012" y="802.2578"/><text fill="#000000" font-family="sans-serif" font-size="12" lengthAdjust="spacing" textLength="158.3672" x="400.4012" y="823.3965">stoppedRef.current = true</text><path d="M580.3721,870.5781 L580.3721,886.7109 L560.3721,890.7109 L580.3721,894.7109 L580.3721,910.8438 A0,0 0 0 0 580.3721,910.8438 L818.0431,910.8438 A0,0 0 0 0 818.0431,910.8438 L818.0431,880.5781 L808.0431,870.5781 L580.3721,870.5781 A0,0 0 0 0 580.3721,870.5781" fill="#FEFFDD" style="stroke:#181818;stroke-width:0.5;"/><path d="M808.0431,870.5781 L808.0431,880.5781 L818.0431,880.5781 L808.0431,870.5781" fill="#FEFFDD" style="stroke:#181818;stroke-width:0.5;"/><text fill="#000000" font-family="sans-serif" font-size="13" lengthAdjust="spacing" textLength="216.671" x="586.3721" y="887.645">&#27425; tick &#12391; stoppedRef=true &#12434;&#26908;&#30693;</text><text fill="#000000" font-family="sans-serif" font-size="13" lengthAdjust="spacing" textLength="207.0353" x="586.3721" y="902.7778">&#8594; clearInterval &#8594; &#12509;&#12540;&#12522;&#12531;&#12464;&#32066;&#20102;</text><rect fill="#F1F1F1" height="33.9688" rx="12.5" ry="12.5" style="stroke:#181818;stroke-width:0.5;" width="161.5746" x="398.7975" y="873.7266"/><text fill="#000000" font-family="sans-serif" font-size="12" lengthAdjust="spacing" textLength="141.5746" x="408.7975" y="894.8652">onCompleted() &#21628;&#12403;&#20986;&#12375;</text><polygon fill="#F1F1F1" points="393.0323,753.8555,566.1373,753.8555,578.1373,765.8555,566.1373,777.8555,393.0323,777.8555,381.0323,765.8555,393.0323,753.8555" style="stroke:#181818;stroke-width:0.5;"/><text fill="#000000" font-family="sans-serif" font-size="11" lengthAdjust="spacing" textLength="19.0083" x="483.5848" y="788.0659">yes</text><text fill="#000000" font-family="sans-serif" font-size="11" lengthAdjust="spacing" textLength="173.105" x="393.0323" y="769.6636">detail.status === 'completed'?</text><text fill="#000000" font-family="sans-serif" font-size="11" lengthAdjust="spacing" textLength="13.7017" x="578.1373" y="763.2612">no</text><polygon fill="#F1F1F1" points="479.5848,930.8438,491.5848,942.8438,479.5848,954.8438,467.5848,942.8438,479.5848,930.8438" style="stroke:#181818;stroke-width:0.5;"/><rect fill="#F1F1F1" height="33.9688" rx="12.5" ry="12.5" style="stroke:#181818;stroke-width:0.5;" width="166.5083" x="761.4906" y="601.8164"/><text fill="#000000" font-family="sans-serif" font-size="12" lengthAdjust="spacing" textLength="146.5083" x="771.4906" y="622.9551">&#12456;&#12521;&#12540;&#28961;&#35222; (keep polling)</text><polygon fill="#F1F1F1" points="662.1648,960.8438,674.1648,972.8438,662.1648,984.8438,650.1648,972.8438,662.1648,960.8438" style="stroke:#181818;stroke-width:0.5;"/><rect fill="#F1F1F1" height="33.9688" rx="12.5" ry="12.5" style="stroke:#181818;stroke-width:0.5;" width="92.0005" x="937.9989" y="499.8789"/><text fill="#000000" font-family="sans-serif" font-size="12" lengthAdjust="spacing" textLength="72.0005" x="947.9989" y="521.0176">&#26089;&#26399;&#12522;&#12479;&#12540;&#12531;</text><polygon fill="#F1F1F1" points="833.082,990.8438,845.082,1002.8438,833.082,1014.8438,821.082,1002.8438,833.082,990.8438" style="stroke:#181818;stroke-width:0.5;"/><polygon fill="#F1F1F1" points="442.0088,333.9102,454.0088,345.9102,442.0088,357.9102,430.0088,345.9102,442.0088,333.9102" style="stroke:#181818;stroke-width:0.5;"/><polygon fill="#F1F1F1" points="388.8727,1034.8438,495.1448,1034.8438,507.1448,1046.8438,495.1448,1058.8438,388.8727,1058.8438,376.8727,1046.8438,388.8727,1034.8438" style="stroke:#181818;stroke-width:0.5;"/><text fill="#000000" font-family="sans-serif" font-size="11" lengthAdjust="spacing" textLength="106.2721" x="388.8727" y="1050.6519">interval &#12450;&#12463;&#12486;&#12451;&#12502;?</text><text fill="#000000" font-family="sans-serif" font-size="11" lengthAdjust="spacing" textLength="19.0083" x="507.1448" y="1044.2495">yes</text><polygon fill="#F1F1F1" points="442.0088,1078.8438,454.0088,1090.8438,442.0088,1102.8438,430.0088,1090.8438,442.0088,1078.8438" style="stroke:#181818;stroke-width:0.5;"/><polygon fill="#F1F1F1" points="372.934,161.9922,511.0836,161.9922,523.0836,174.7969,511.0836,187.6016,372.934,187.6016,360.934,174.7969,372.934,161.9922" style="stroke:#181818;stroke-width:0.5;"/><text fill="#000000" font-family="sans-serif" font-size="11" lengthAdjust="spacing" textLength="19.0083" x="446.0088" y="197.812">yes</text><text fill="#000000" font-family="sans-serif" font-size="11" lengthAdjust="spacing" textLength="86.147" x="372.934" y="172.2026">isRunning=true</text><text fill="#000000" font-family="sans-serif" font-size="11" lengthAdjust="spacing" textLength="138.1496" x="372.934" y="185.0073">&#12363;&#12388; conversationId &#12354;&#12426;?</text><text fill="#000000" font-family="sans-serif" font-size="11" lengthAdjust="spacing" textLength="13.7017" x="523.0836" y="172.2026">no</text><polygon fill="#F1F1F1" points="442.0088,1122.8438,454.0088,1134.8438,442.0088,1146.8438,430.0088,1134.8438,442.0088,1122.8438" style="stroke:#181818;stroke-width:0.5;"/><rect fill="none" height="111.8281" style="stroke:#000000;stroke-width:1.5;" width="363.0036" x="374.0732" y="1168.8438"/><path d="M610.5406,1168.8438 L610.5406,1178.1406 L600.5406,1188.1406 L374.0732,1188.1406" fill="none" style="stroke:#000000;stroke-width:1.5;"/><text fill="#000000" font-family="sans-serif" font-size="14" lengthAdjust="spacing" textLength="226.4673" x="377.0732" y="1182.8389">&#12463;&#12522;&#12540;&#12531;&#12450;&#12483;&#12503; (useEffect return)</text><path d="M519.9443,1198.1406 L519.9443,1229.4063 L499.9443,1233.4063 L519.9443,1237.4063 L519.9443,1268.6719 A0,0 0 0 0 519.9443,1268.6719 L727.0768,1268.6719 A0,0 0 0 0 727.0768,1268.6719 L727.0768,1208.1406 L717.0768,1198.1406 L519.9443,1198.1406 A0,0 0 0 0 519.9443,1198.1406" fill="#FEFFDD" style="stroke:#181818;stroke-width:0.5;"/><path d="M717.0768,1198.1406 L717.0768,1208.1406 L727.0768,1208.1406 L717.0768,1198.1406" fill="#FEFFDD" style="stroke:#181818;stroke-width:0.5;"/><text fill="#000000" font-family="sans-serif" font-size="13" lengthAdjust="spacing" textLength="95.38" x="525.9443" y="1215.2075">&#30330;&#28779;&#12479;&#12452;&#12511;&#12531;&#12464;:</text><text fill="#000000" font-family="sans-serif" font-size="13" lengthAdjust="spacing" textLength="139.2359" x="525.9443" y="1230.3403">&#12539;conversationId &#22793;&#26356;</text><text fill="#000000" font-family="sans-serif" font-size="13" lengthAdjust="spacing" textLength="162.189" x="525.9443" y="1245.4731">&#12539;isRunning=false &#12395;&#22793;&#26356;</text><text fill="#000000" font-family="sans-serif" font-size="13" lengthAdjust="spacing" textLength="186.1325" x="525.9443" y="1260.606">&#12539;&#12467;&#12531;&#12509;&#12540;&#12493;&#12531;&#12488; &#12450;&#12531;&#12510;&#12454;&#12531;&#12488;</text><rect fill="#F1F1F1" height="33.9688" rx="12.5" ry="12.5" style="stroke:#181818;stroke-width:0.5;" width="115.8711" x="384.0732" y="1216.4219"/><text fill="#000000" font-family="sans-serif" font-size="12" lengthAdjust="spacing" textLength="95.8711" x="394.0732" y="1237.5605">clearInterval(id)</text><ellipse cx="442.0088" cy="1311.6719" fill="none" rx="11" ry="11" style="stroke:#222222;stroke-width:1;"/><ellipse cx="442.0088" cy="1311.6719" fill="#222222" rx="6" ry="6" style="stroke:#222222;stroke-width:1;"/><line style="stroke:#181818;stroke-width:1;" x1="442.0088" x2="442.0088" y1="245.9727" y2="265.9727"/><polygon fill="#181818" points="438.0088,255.9727,442.0088,265.9727,446.0088,255.9727,442.0088,259.9727" style="stroke:#181818;stroke-width:1;"/><line style="stroke:#181818;stroke-width:1;" x1="80.9355" x2="80.9355" y1="499.8477" y2="1090.8438"/><line style="stroke:#181818;stroke-width:1;" x1="80.9355" x2="430.0088" y1="1090.8438" y2="1090.8438"/><polygon fill="#181818" points="420.0088,1086.8438,430.0088,1090.8438,420.0088,1094.8438,424.0088,1090.8438" style="stroke:#181818;stroke-width:1;"/><line style="stroke:#181818;stroke-width:1;" x1="479.5848" x2="479.5848" y1="635.7852" y2="670.7852"/><polygon fill="#181818" points="475.5848,660.7852,479.5848,670.7852,483.5848,660.7852,479.5848,664.7852" style="stroke:#181818;stroke-width:1;"/><line style="stroke:#181818;stroke-width:1;" x1="479.5848" x2="479.5848" y1="836.2266" y2="873.7266"/><polygon fill="#181818" points="475.5848,863.7266,479.5848,873.7266,483.5848,863.7266,479.5848,867.7266" style="stroke:#181818;stroke-width:1;"/><line style="stroke:#181818;stroke-width:1;" x1="479.5848" x2="479.5848" y1="777.8555" y2="802.2578"/><polygon fill="#181818" points="475.5848,792.2578,479.5848,802.2578,483.5848,792.2578,479.5848,796.2578" style="stroke:#181818;stroke-width:1;"/><line style="stroke:#181818;stroke-width:1;" x1="578.1373" x2="828.0431" y1="765.8555" y2="765.8555"/><polygon fill="#181818" points="824.0431,846.2266,828.0431,856.2266,832.0431,846.2266,828.0431,850.2266" style="stroke:#181818;stroke-width:1;"/><line style="stroke:#181818;stroke-width:1;" x1="828.0431" x2="828.0431" y1="765.8555" y2="942.8438"/><line style="stroke:#181818;stroke-width:1;" x1="828.0431" x2="491.5848" y1="942.8438" y2="942.8438"/><polygon fill="#181818" points="501.5848,938.8438,491.5848,942.8438,501.5848,946.8438,497.5848,942.8438" style="stroke:#181818;stroke-width:1;"/><line style="stroke:#181818;stroke-width:1;" x1="479.5848" x2="479.5848" y1="907.6953" y2="930.8438"/><polygon fill="#181818" points="475.5848,920.8438,479.5848,930.8438,483.5848,920.8438,479.5848,924.8438" style="stroke:#181818;stroke-width:1;"/><line style="stroke:#181818;stroke-width:1;" x1="479.5848" x2="479.5848" y1="718.7227" y2="753.8555"/><polygon fill="#181818" points="475.5848,743.8555,479.5848,753.8555,483.5848,743.8555,479.5848,747.8555" style="stroke:#181818;stroke-width:1;"/><line style="stroke:#181818;stroke-width:1;" x1="608.7459" x2="479.5848" y1="579.8164" y2="579.8164"/><line style="stroke:#181818;stroke-width:1;" x1="479.5848" x2="479.5848" y1="579.8164" y2="601.8164"/><polygon fill="#181818" points="475.5848,591.8164,479.5848,601.8164,483.5848,591.8164,479.5848,595.8164" style="stroke:#181818;stroke-width:1;"/><line style="stroke:#181818;stroke-width:1;" x1="715.5837" x2="844.7447" y1="579.8164" y2="579.8164"/><line style="stroke:#181818;stroke-width:1;" x1="844.7447" x2="844.7447" y1="579.8164" y2="601.8164"/><polygon fill="#181818" points="840.7447,591.8164,844.7447,601.8164,848.7447,591.8164,844.7447,595.8164" style="stroke:#181818;stroke-width:1;"/><line style="stroke:#181818;stroke-width:1;" x1="479.5848" x2="479.5848" y1="954.8438" y2="972.8438"/><line style="stroke:#181818;stroke-width:1;" x1="479.5848" x2="650.1648" y1="972.8438" y2="972.8438"/><polygon fill="#181818" points="640.1648,968.8438,650.1648,972.8438,640.1648,976.8438,644.1648,972.8438" style="stroke:#181818;stroke-width:1;"/><line style="stroke:#181818;stroke-width:1;" x1="844.7447" x2="844.7447" y1="635.7852" y2="972.8438"/><line style="stroke:#181818;stroke-width:1;" x1="844.7447" x2="674.1648" y1="972.8438" y2="972.8438"/><polygon fill="#181818" points="684.1648,968.8438,674.1648,972.8438,684.1648,976.8438,680.1648,972.8438" style="stroke:#181818;stroke-width:1;"/><line style="stroke:#181818;stroke-width:1;" x1="662.1648" x2="662.1648" y1="547.8164" y2="567.8164"/><polygon fill="#181818" points="658.1648,557.8164,662.1648,567.8164,666.1648,557.8164,662.1648,561.8164" style="stroke:#181818;stroke-width:1;"/><line style="stroke:#181818;stroke-width:1;" x1="764.7554" x2="662.1648" y1="477.8789" y2="477.8789"/><line style="stroke:#181818;stroke-width:1;" x1="662.1648" x2="662.1648" y1="477.8789" y2="499.8789"/><polygon fill="#181818" points="658.1648,489.8789,662.1648,499.8789,666.1648,489.8789,662.1648,493.8789" style="stroke:#181818;stroke-width:1;"/><line style="stroke:#181818;stroke-width:1;" x1="901.4085" x2="983.9991" y1="477.8789" y2="477.8789"/><line style="stroke:#181818;stroke-width:1;" x1="983.9991" x2="983.9991" y1="477.8789" y2="499.8789"/><polygon fill="#181818" points="979.9991,489.8789,983.9991,499.8789,987.9991,489.8789,983.9991,493.8789" style="stroke:#181818;stroke-width:1;"/><line style="stroke:#181818;stroke-width:1;" x1="662.1648" x2="662.1648" y1="984.8438" y2="1002.8438"/><line style="stroke:#181818;stroke-width:1;" x1="662.1648" x2="821.082" y1="1002.8438" y2="1002.8438"/><polygon fill="#181818" points="811.082,998.8438,821.082,1002.8438,811.082,1006.8438,815.082,1002.8438" style="stroke:#181818;stroke-width:1;"/><line style="stroke:#181818;stroke-width:1;" x1="983.9991" x2="983.9991" y1="533.8477" y2="1002.8438"/><line style="stroke:#181818;stroke-width:1;" x1="983.9991" x2="845.082" y1="1002.8438" y2="1002.8438"/><polygon fill="#181818" points="855.082,998.8438,845.082,1002.8438,855.082,1006.8438,851.082,1002.8438" style="stroke:#181818;stroke-width:1;"/><line style="stroke:#181818;stroke-width:1;" x1="354.5046" x2="80.9355" y1="443.8789" y2="443.8789"/><line style="stroke:#181818;stroke-width:1;" x1="80.9355" x2="80.9355" y1="443.8789" y2="465.8789"/><polygon fill="#181818" points="76.9355,455.8789,80.9355,465.8789,84.9355,455.8789,80.9355,459.8789" style="stroke:#181818;stroke-width:1;"/><line style="stroke:#181818;stroke-width:1;" x1="529.5129" x2="833.082" y1="443.8789" y2="443.8789"/><line style="stroke:#181818;stroke-width:1;" x1="833.082" x2="833.082" y1="443.8789" y2="465.8789"/><polygon fill="#181818" points="829.082,455.8789,833.082,465.8789,837.082,455.8789,833.082,459.8789" style="stroke:#181818;stroke-width:1;"/><line style="stroke:#181818;stroke-width:1;" x1="833.082" x2="833.082" y1="1014.8438" y2="1019.8438"/><line style="stroke:#181818;stroke-width:1;" x1="833.082" x2="442.0088" y1="1019.8438" y2="1019.8438"/><line style="stroke:#181818;stroke-width:1;" x1="442.0088" x2="442.0088" y1="1019.8438" y2="1034.8438"/><polygon fill="#181818" points="438.0088,1024.8438,442.0088,1034.8438,446.0088,1024.8438,442.0088,1028.8438" style="stroke:#181818;stroke-width:1;"/><line style="stroke:#181818;stroke-width:1;" x1="442.0088" x2="442.0088" y1="411.8789" y2="431.8789"/><polygon fill="#181818" points="438.0088,421.8789,442.0088,431.8789,446.0088,421.8789,442.0088,425.8789" style="stroke:#181818;stroke-width:1;"/><line style="stroke:#181818;stroke-width:1;" x1="442.0088" x2="442.0088" y1="357.9102" y2="377.9102"/><polygon fill="#181818" points="438.0088,367.9102,442.0088,377.9102,446.0088,367.9102,442.0088,371.9102" style="stroke:#181818;stroke-width:1;"/><line style="stroke:#181818;stroke-width:1;" x1="507.1448" x2="1043.9994" y1="1046.8438" y2="1046.8438"/><polygon fill="#181818" points="1039.9994,709.4023,1043.9994,699.4023,1047.9994,709.4023,1043.9994,705.4023" style="stroke:#181818;stroke-width:1;"/><line style="stroke:#181818;stroke-width:1;" x1="1043.9994" x2="1043.9994" y1="345.9102" y2="1046.8438"/><line style="stroke:#181818;stroke-width:1;" x1="1043.9994" x2="454.0088" y1="345.9102" y2="345.9102"/><polygon fill="#181818" points="464.0088,341.9102,454.0088,345.9102,464.0088,349.9102,460.0088,345.9102" style="stroke:#181818;stroke-width:1;"/><line style="stroke:#181818;stroke-width:1;" x1="442.0088" x2="442.0088" y1="1058.8438" y2="1078.8438"/><polygon fill="#181818" points="438.0088,1068.8438,442.0088,1078.8438,446.0088,1068.8438,442.0088,1072.8438" style="stroke:#181818;stroke-width:1;"/><line style="stroke:#181818;stroke-width:1;" x1="442.0088" x2="442.0088" y1="313.9102" y2="333.9102"/><polygon fill="#181818" points="438.0088,323.9102,442.0088,333.9102,446.0088,323.9102,442.0088,327.9102" style="stroke:#181818;stroke-width:1;"/><line style="stroke:#181818;stroke-width:1;" x1="442.0088" x2="442.0088" y1="187.6016" y2="212.0039"/><polygon fill="#181818" points="438.0088,202.0039,442.0088,212.0039,446.0088,202.0039,442.0088,206.0039" style="stroke:#181818;stroke-width:1;"/><line style="stroke:#181818;stroke-width:1;" x1="523.0836" x2="1061.9994" y1="174.7969" y2="174.7969"/><polygon fill="#181818" points="1057.9994,642.5469,1061.9994,652.5469,1065.9994,642.5469,1061.9994,646.5469" style="stroke:#181818;stroke-width:1;"/><line style="stroke:#181818;stroke-width:1;" x1="1061.9994" x2="1061.9994" y1="174.7969" y2="1134.8438"/><line style="stroke:#181818;stroke-width:1;" x1="1061.9994" x2="454.0088" y1="1134.8438" y2="1134.8438"/><polygon fill="#181818" points="464.0088,1130.8438,454.0088,1134.8438,464.0088,1138.8438,460.0088,1134.8438" style="stroke:#181818;stroke-width:1;"/><line style="stroke:#181818;stroke-width:1;" x1="442.0088" x2="442.0088" y1="1102.8438" y2="1122.8438"/><polygon fill="#181818" points="438.0088,1112.8438,442.0088,1122.8438,446.0088,1112.8438,442.0088,1116.8438" style="stroke:#181818;stroke-width:1;"/><line style="stroke:#181818;stroke-width:1;" x1="442.0088" x2="442.0088" y1="67.2969" y2="161.9922"/><polygon fill="#181818" points="438.0088,151.9922,442.0088,161.9922,446.0088,151.9922,442.0088,155.9922" style="stroke:#181818;stroke-width:1;"/><line style="stroke:#181818;stroke-width:1;" x1="442.0088" x2="442.0088" y1="1146.8438" y2="1216.4219"/><polygon fill="#181818" points="438.0088,1206.4219,442.0088,1216.4219,446.0088,1206.4219,442.0088,1210.4219" style="stroke:#181818;stroke-width:1;"/><line style="stroke:#181818;stroke-width:1;" x1="442.0088" x2="442.0088" y1="1250.3906" y2="1300.6719"/><polygon fill="#181818" points="438.0088,1290.6719,442.0088,1300.6719,446.0088,1290.6719,442.0088,1294.6719" style="stroke:#181818;stroke-width:1;"/><?plantuml-src ZLLDJnD16BxlhtZZXMrY0Azj6Ww460uaXdWJ3sixBHksivkTASOO3hiZtv8eYH0YsbGhtu89OXGQ-2yEkuKJVy6PsQNjRY7nqipE-_Myx_lCKsfI2q6Le64RJoEN6DIqyHFRif0BmTpiDTlXx0DdtpbhQXgXXairpH6_flI31o9mf5H21Gh1OUsg_lQckM2IyIh69Yx301IwaeuMnOM9ANAd3MkCY0z7b86WiHX-_1bk-3VDnGVmMWCmIw2ta-IfMqKJc7lBt6kayt7Fv_xIK0Re9CAWlq8a8-81ieJQZeEAuwZKNwYwBi8Kyb0oB89oiGEYep4Kk5vR3hQN9x3U1Qv27W9dyx9tVvUpVSuMuD7Wu625P7AQIk4Y1nbK7KM-H2W4vxFXRYqN6sK_TmAIhVM2L_aA5ZBSMuIwMSpashONBZAcuYyaEW8Tsvr8MUm_fnINUZpo50QwGyX0rYoASPGHxIQ5dka24HNYx83xVpZxnDcnE8GBxuAbsds5HAaAAHFHTn5HmxJwAuWGeum830t1i-UvfAkDnsApBgCo4rXGAvZTkJpxfGYvVpsxSdbH5wH91afOSNx1LbeLzV9vw2lO5ST251NxxeTt7s_acd9fJniFtwRKCn2yRtBlE9W_vTvwsXNR585hbYTfoW0G7jI1ceKfiQ9jwDHMd0VkhuQDpLRjMq_OtxbLI114tQWrD3dRKyluqJhnBq_dKh485nMUn7KlYTB0in3DCk_6BrlM4-2vTyZz4-utk7ya7udtMqjLCqjQkX3tXQI8DzLCaQDzttfJlzfQ0tqA8KTfXAYOe5uoxrtmi-7wRhXPayFmBzHKZZi9kiCxv-Wzmyj9K-XXMmh45hwevkQu_vMpDS4UaxIvaopTi-YEY2df4Li-vrwDUqUnFVbEyxXgMLfdmsq8uUPU957o1IXb4QpNKkkC6fb9YBC2lXUrB_jWZBDrq3kQxI9QTN4cajsxDIVLL6lZjENjow6AfRDQHBMiCd5sbXAUIDflZRtJs4ywSFzOvejflABE2se1ylIP-rlHbTRL-8pyKxATVm00?></g></svg>